<svg class="main-svg" xmlns="http://www.w3.org/2000/svg" xmlns:xlink="http://www.w3.org/1999/xlink" width="1721" height="696" style="" viewBox="0 0 1721 696"><rect x="0" y="0" width="1721" height="696" style="fill: rgb(255, 255, 255); fill-opacity: 1;"/><defs id="defs-0ee904"><g class="clips"><clipPath id="clip0ee904xyplot" class="plotclip"><rect width="1530" height="576"/></clipPath><clipPath class="axesclip" id="clip0ee904x"><rect x="60" y="0" width="1530" height="696"/></clipPath><clipPath class="axesclip" id="clip0ee904y"><rect x="0" y="60" width="1721" height="576"/></clipPath><clipPath class="axesclip" id="clip0ee904xy"><rect x="60" y="60" width="1530" height="576"/></clipPath></g><g class="gradients"/><g class="patterns"/></defs><g class="bglayer"/><g class="layer-below"><g class="imagelayer"/><g class="shapelayer"/></g><g class="cartesianlayer"><g class="subplot xy"><g class="layer-subplot"><g class="shapelayer"/><g class="imagelayer"/></g><g class="gridlayer"><g class="x"><path class="xgrid crisp" transform="translate(204.77,0)" d="M0,60v576" style="stroke: rgb(238, 238, 238); stroke-opacity: 1; stroke-width: 1px;"/><path class="xgrid crisp" transform="translate(357.83,0)" d="M0,60v576" style="stroke: rgb(238, 238, 238); stroke-opacity: 1; stroke-width: 1px;"/><path class="xgrid crisp" transform="translate(510.9,0)" d="M0,60v576" style="stroke: rgb(238, 238, 238); stroke-opacity: 1; stroke-width: 1px;"/><path class="xgrid crisp" transform="translate(663.96,0)" d="M0,60v576" style="stroke: rgb(238, 238, 238); stroke-opacity: 1; stroke-width: 1px;"/><path class="xgrid crisp" transform="translate(817.03,0)" d="M0,60v576" style="stroke: rgb(238, 238, 238); stroke-opacity: 1; stroke-width: 1px;"/><path class="xgrid crisp" transform="translate(970.09,0)" d="M0,60v576" style="stroke: rgb(238, 238, 238); stroke-opacity: 1; stroke-width: 1px;"/><path class="xgrid crisp" transform="translate(1123.15,0)" d="M0,60v576" style="stroke: rgb(238, 238, 238); stroke-opacity: 1; stroke-width: 1px;"/><path class="xgrid crisp" transform="translate(1276.22,0)" d="M0,60v576" style="stroke: rgb(238, 238, 238); stroke-opacity: 1; stroke-width: 1px;"/><path class="xgrid crisp" transform="translate(1429.28,0)" d="M0,60v576" style="stroke: rgb(238, 238, 238); stroke-opacity: 1; stroke-width: 1px;"/><path class="xgrid crisp" transform="translate(1582.35,0)" d="M0,60v576" style="stroke: rgb(238, 238, 238); stroke-opacity: 1; stroke-width: 1px;"/></g><g class="y"><path class="ygrid crisp" transform="translate(0,547.35)" d="M60,0h1530" style="stroke: rgb(238, 238, 238); stroke-opacity: 1; stroke-width: 1px;"/><path class="ygrid crisp" transform="translate(0,463.34)" d="M60,0h1530" style="stroke: rgb(238, 238, 238); stroke-opacity: 1; stroke-width: 1px;"/><path class="ygrid crisp" transform="translate(0,379.33)" d="M60,0h1530" style="stroke: rgb(238, 238, 238); stroke-opacity: 1; stroke-width: 1px;"/><path class="ygrid crisp" transform="translate(0,295.31)" d="M60,0h1530" style="stroke: rgb(238, 238, 238); stroke-opacity: 1; stroke-width: 1px;"/><path class="ygrid crisp" transform="translate(0,211.3)" d="M60,0h1530" style="stroke: rgb(238, 238, 238); stroke-opacity: 1; stroke-width: 1px;"/><path class="ygrid crisp" transform="translate(0,127.29)" d="M60,0h1530" style="stroke: rgb(238, 238, 238); stroke-opacity: 1; stroke-width: 1px;"/></g></g><g class="zerolinelayer"><path class="yzl zl crisp" transform="translate(0,631.36)" d="M60,0h1530" style="stroke: rgb(68, 68, 68); stroke-opacity: 1; stroke-width: 1px;"/></g><path class="xlines-below"/><path class="ylines-below"/><g class="overlines-below"/><g class="xaxislayer-below"/><g class="yaxislayer-below"/><g class="overaxes-below"/><g class="plot" transform="translate(60,60)" clip-path="url(#clip0ee904xyplot)"><g class="scatterlayer mlayer"><g class="trace scatter tracecc156d" style="stroke-miterlimit: 2; opacity: 1;"><g class="fills"/><g class="errorbars"/><g class="lines"><path class="js-line" d="M0,43.99L0.64,229.06L1.28,163.3L2.57,345.89L3.21,236.53L3.85,336.53L4.49,300.35L5.13,235.81L5.77,316.4L6.42,28.8L7.06,293.31L7.7,358.91L8.34,357.03L8.98,371.49L9.62,365.1L10.26,347.63L10.91,293.3L11.55,326.14L12.83,227.91L13.47,386.33L14.11,403.33L14.75,373.74L15.4,321.72L16.04,341.44L18.6,439.95L19.25,385.16L19.89,356.25L20.53,362.55L21.17,334.54L21.81,375.39L22.45,405.5L23.09,389.08L23.74,366.41L24.38,400.53L25.02,410.3L25.66,385.66L26.3,427.86L26.94,382.19L27.58,377.67L28.23,406.93L28.87,436.44L29.51,370.73L30.15,360.29L30.79,418.91L31.43,438.26L32.08,381.12L32.72,264.1L33.36,422.58L34.64,429.01L35.28,447.58L35.92,355.21L36.57,392.25L37.85,402.67L38.49,371.33L39.13,328.61L39.77,423.21L40.42,342.59L41.06,424.67L41.7,443.77L42.34,416.46L42.98,373.03L43.62,437.39L44.26,438.95L44.91,456.85L46.19,391.75L46.83,433.1L47.47,447.12L48.11,444.6L49.4,428.59L50.04,454.85L50.68,440.98L51.32,443.25L51.96,451.01L53.25,458.4L53.89,418.58L54.53,434.84L55.17,414.61L55.81,407.77L56.45,480.23L57.74,398.54L58.38,438.04L59.66,450.73L60.3,437.41L60.94,416.22L61.58,437.7L62.23,445.17L62.87,426.14L63.51,400.14L64.15,408.74L65.43,432.29L66.08,424.06L66.72,460.81L67.36,440.18L68,414.75L68.64,348.09L69.28,442.38L69.92,418.39L70.57,454.17L71.21,418.21L71.85,455.95L72.49,391.21L73.13,342.54L73.77,462.74L74.42,417.17L75.06,469.19L75.7,466.21L76.34,420.04L76.98,441.43L77.62,320.45L79.55,468.3L80.19,472.19L80.83,482.47L81.47,458.38L82.11,366.54L82.75,405.81L83.4,468.16L84.04,453.13L84.68,478.31L85.32,444.59L85.96,429.31L86.6,463.13L87.25,467.67L87.89,460.02L89.17,415.3L89.81,462.83L90.45,446.46L91.09,460.46L91.74,433.98L92.38,477.14L93.02,426.72L93.66,443.6L94.3,429.52L94.94,460.53L95.58,422.52L96.23,477.34L97.51,434.92L98.15,465.67L98.79,425.05L99.43,453.08L100.08,435.91L100.72,386.49L102,467.75L102.64,449.71L103.28,457.98L103.92,384.69L104.57,460.56L105.21,430.67L105.85,421.01L106.49,474.45L108.42,422.21L109.06,469.76L109.7,435.75L110.34,455.2L112.26,468.93L112.91,454.12L113.55,434.78L114.19,465.12L115.47,437.72L116.11,457.77L116.75,417.17L117.4,501.75L118.04,451.3L118.68,467.55L119.32,461.86L119.96,462.72L120.6,449.12L121.25,475.76L121.89,439.43L123.17,492.21L123.81,439.15L124.45,447.22L125.09,423.49L125.74,421.89L126.38,480.78L127.02,408.16L127.66,438.72L128.3,480.13L128.94,471.09L129.58,474.24L130.23,496.68L130.87,498.56L131.51,450.23L132.15,442.54L132.79,458.52L133.43,430.68L134.08,486.54L135.36,467.7L136,449.27L136.64,484.69L137.28,474.97L138.57,438.19L139.21,473.6L140.49,407.6L141.13,438.15L141.77,458.2L142.42,506.21L143.06,437.8L143.7,477.72L144.34,474.7L144.98,486.36L146.26,464.51L146.91,484.85L147.55,479.15L148.19,464.65L149.47,478.19L150.11,432.55L150.75,465.86L151.4,436.4L152.68,461.47L153.32,437.85L153.96,430.56L154.6,479.22L155.25,486.5L155.89,471.61L156.53,479.2L157.17,459.9L157.81,450.94L158.45,476.67L159.09,469.47L159.74,488.32L161.02,458.43L161.66,486.48L162.3,466.83L162.94,474.09L163.58,392.44L164.23,471.47L164.87,380.18L165.51,511.44L166.15,491.7L166.79,326.85L168.08,484.26L168.72,423.45L169.36,429.52L170,472.03L170.64,453.11L171.28,461.3L172.57,444.09L173.21,456.73L173.85,476.69L174.49,462.18L175.13,494.6L175.77,479.19L176.42,465.36L177.06,472.34L177.7,464.68L178.34,467.97L178.98,500.11L179.62,465.39L180.26,496.3L180.91,487.14L181.55,463.39L182.19,494.59L184.11,458.8L184.75,458.8L186.68,487.47L187.32,481.79L187.96,478.92L188.6,461.49L189.25,461.22L189.89,432.69L190.53,462.72L191.17,405.78L193.09,496.16L193.74,486.21L194.38,476.81L195.02,456.07L196.3,493.84L196.94,480.27L197.58,441.84L198.23,488.09L198.87,482.2L199.51,461.41L200.79,487.34L201.43,492.8L202.08,478.14L202.72,478.56L203.36,483.09L204,464.41L204.64,492.5L205.28,474.96L205.92,493.19L206.57,480.03L207.21,445.19L208.49,490.86L209.13,470.18L209.77,474.37L210.42,471.32L211.06,471.03L211.7,455.04L212.98,477.49L213.62,463.9L214.26,496.61L214.91,473.6L215.55,474.67L216.19,489.33L216.83,381.35L217.47,496.81L218.75,454.91L219.4,488.03L220.04,481.66L220.68,492.86L221.32,461.74L221.96,486.94L223.25,496.62L223.89,491.73L224.53,481.61L225.17,271.52L226.45,490.54L227.09,491.58L227.74,492.06L228.38,495.71L229.02,420.02L229.66,449.96L230.3,439.7L230.94,489.04L231.58,440.59L232.23,475.81L232.87,456.52L233.51,502.46L234.15,487.37L234.79,441.46L236.08,500.57L236.72,469.5L237.36,447.43L238,487.82L238.64,474.12L239.28,489.19L240.57,462.36L241.21,484.18L242.49,500.66L243.13,497.82L243.77,453.63L244.42,487.03L245.7,439.64L246.34,491.81L246.98,492.24L247.62,476.96L248.26,501.43L248.91,485.35L249.55,510.48L250.19,505.4L250.83,388.06L251.47,492.02L252.75,507.64L253.4,496.84L254.04,442.94L254.68,457.45L255.32,467.94L255.96,453.02L257.25,496.39L257.89,482.94L258.53,484.27L259.17,492.89L260.45,493.91L261.09,464.85L261.74,494.42L262.38,452.58L263.02,424.82L263.66,488.33L264.94,500.29L265.58,478.69L266.87,448.13L267.51,513.46L268.15,499.69L268.79,502.36L269.43,499.36L270.08,487.38L270.72,478.97L271.36,420.77L272,507.31L272.64,472.15L273.28,485.08L273.92,461.88L275.21,485.31L275.85,492.57L276.49,455.42L277.13,467.91L277.77,479.66L278.42,471.76L279.06,422.76L279.7,503.8L280.34,444.65L280.98,485.46L281.62,486.17L282.26,472.9L282.91,486.08L283.55,438.91L284.19,494.26L284.83,450.34L286.75,500.8L287.4,500.08L288.04,480.72L288.68,485.95L289.32,483.58L289.96,453.43L290.6,468.41L291.25,458.97L291.89,498.06L292.53,305.65L293.81,474.28L294.45,490.43L295.74,470.8L296.38,477.99L297.02,478.5L297.66,480.82L298.3,471.23L298.94,492.25L299.58,463.04L300.23,465.43L300.87,484.54L302.15,484.01L302.79,498.26L303.43,479.86L304.08,486.05L304.72,505.71L305.36,490.46L306,472.94L306.64,493.13L307.28,485.81L307.92,469.01L308.57,483.94L309.21,480.58L309.85,479.8L310.49,493.56L311.13,483.96L311.77,489.4L312.42,427.46L313.06,492.87L313.7,483.46L314.34,492.24L314.98,487.45L315.62,502.84L317.55,473.23L318.19,492.11L318.83,489.62L319.47,466.58L320.11,500.82L320.75,488.31L321.4,516.3L322.04,502.91L322.68,488.8L323.32,508.44L323.96,478.34L324.6,497.42L325.25,503.21L325.89,475.32L326.53,507.42L327.17,478.33L327.81,457.94L328.45,509.01L329.09,487.47L329.74,526.74L330.38,434.06L331.02,492.53L331.66,495.12L332.3,484.81L333.58,497.58L334.23,482.94L334.87,488.01L335.51,477.78L336.15,511.94L336.79,506.52L337.43,499.13L338.08,461.15L338.72,497.38L339.36,507.63L340,491.85L340.64,453.95L341.28,482.04L341.92,489.47L342.57,474.33L343.21,464.45L343.85,470.13L345.77,492.81L346.42,435.55L347.06,486.71L347.7,414.85L348.98,500.36L349.62,491.74L350.26,489.39L350.91,506.43L351.55,498.02L352.19,504.27L352.83,487.79L353.47,504.8L354.75,482.18L355.4,495.53L356.04,469.42L356.68,307.35L357.96,487.55L358.6,439.48L359.89,493.31L360.53,487.84L361.17,484.72L361.81,516.82L364.38,471.15L365.02,477.63L366.3,511.32L366.94,500.45L367.58,463.73L368.23,475.89L368.87,522.06L369.51,486.4L370.15,475.73L370.79,495.02L371.43,492L372.08,477.33L372.72,480.4L373.36,466.32L374.64,508.49L375.28,497.45L376.57,481.84L377.21,475.03L377.85,496.01L378.49,494.99L379.13,492.45L379.77,493.54L380.42,515.43L381.7,480.97L382.34,495.04L382.98,502.16L383.62,475.13L384.91,506.29L385.55,517.75L386.83,467.1L387.47,510.12L388.75,497.6L389.4,505.88L390.04,499.33L390.68,482.92L391.32,496.65L391.96,474.63L392.6,483.23L393.25,506.82L394.53,478.35L395.17,496.76L395.81,508.63L396.45,495.42L397.09,485.02L397.74,530.41L399.02,478.96L399.66,505.51L400.3,485.49L400.94,505.27L401.58,466.75L402.23,513.94L402.87,491.65L403.51,419.81L404.79,499.66L405.43,492.27L406.08,504.99L406.72,494.88L408,519.47L408.64,494.85L409.28,506.76L409.92,469.85L411.21,514.22L411.85,480.08L412.49,506.99L413.13,504.17L413.77,491.14L414.42,490.79L415.06,443.69L415.7,474.27L416.34,472.92L416.98,459.29L417.62,497.04L418.26,487.29L418.91,476.12L419.55,511.12L420.19,488.62L420.83,415.26L422.11,482.13L422.75,508.32L423.4,490.7L424.04,496.97L424.68,521.48L425.32,499.6L425.96,475.47L426.6,479.96L427.89,493.2L428.53,483.51L429.17,493.92L429.81,483.76L430.45,470.59L431.09,477.5L431.74,515.7L432.38,470.5L433.66,504.5L434.3,487.42L434.94,483.09L435.58,491.6L436.23,489.41L436.87,456.75L437.51,505.93L438.15,492.74L439.43,517.61L440.08,493.01L440.72,502.2L441.36,496.77L442,473.79L442.64,506.61L443.92,464.05L444.57,479.41L445.21,504.69L445.85,490.97L446.49,498.75L447.13,480.36L449.06,502.73L449.7,503.57L450.34,506.51L450.98,490.55L451.62,509.54L452.26,471.03L452.91,474.88L453.55,485.77L454.19,434.31L454.83,508.1L455.47,494.34L456.11,512.03L456.75,500.36L457.4,508.09L458.68,490.29L459.32,506.14L459.96,480.18L460.6,491.33L461.25,451.49L461.89,495.71L463.81,505.03L464.45,498.38L465.09,464.86L465.74,505.37L466.38,473.83L467.02,476.27L467.66,485.03L468.94,499.44L469.58,481.08L470.23,496.38L470.87,468.52L471.51,453.51L472.15,467.68L472.79,473.48L473.43,429.05L474.08,508.79L474.72,504.91L475.36,501.35L476,465.75L476.64,507.13L477.92,478.72L478.57,437.06L479.85,502.87L480.49,493.05L481.13,507.67L481.77,506.32L482.42,502.41L483.06,503.75L483.7,491.83L484.34,482.62L484.98,488.83L485.62,510.39L486.26,497.52L487.55,469.45L488.19,474.74L488.83,506.92L489.47,472.57L490.75,495.69L491.4,482.17L492.04,458.87L492.68,519.19L493.32,502.93L493.96,513.98L494.6,508.16L495.25,459.8L495.89,515.02L496.53,501.95L497.17,501.91L497.81,487.1L498.45,512.27L499.09,498.9L499.74,507.29L500.38,489.35L501.02,493.01L501.66,487.43L502.3,516.88L502.94,498.43L503.58,480.69L504.23,500.36L504.87,507.17L505.51,468.9L506.79,508.02L507.43,499.55L508.72,502.71L509.36,480.5L510,508.18L510.64,506.78L511.28,482.17L511.92,495.16L512.57,468.87L513.21,434.95L513.85,501.27L514.49,501.78L515.13,480.74L515.77,442.27L516.42,491.89L517.06,475.74L517.7,484.39L518.98,503.03L519.62,485.34L520.26,480.62L520.91,495.15L521.55,505.95L522.19,487.54L522.83,515.29L523.47,505.06L524.11,500.25L524.75,509.95L525.4,503.26L526.04,504.73L527.32,514.78L527.96,500.91L528.6,488.42L529.25,500.4L529.89,495.16L530.53,501.36L531.17,507.15L531.81,471.42L532.45,521.54L533.09,516.89L533.74,490.64L534.38,523.69L535.02,504.8L536.3,479.93L536.94,509.09L538.23,492.65L538.87,514.87L539.51,494.39L540.15,499.82L540.79,494.88L541.43,482.66L542.08,487.8L542.72,459.84L543.36,520.65L544,476.76L544.64,462.55L545.28,513.05L545.92,524.11L546.57,505.87L547.85,498.13L548.49,484.99L549.13,470.46L549.77,500.43L550.42,435.9L551.06,504.6L552.34,512.34L552.98,513.02L553.62,514.79L554.26,504.74L554.91,501.52L555.55,487.22L556.19,446.68L556.83,504.06L558.11,470.51L558.75,504.57L559.4,484.9L560.04,520.43L561.32,496.46L561.96,493.9L563.25,508.01L563.89,488.09L564.53,486.89L565.17,481.82L565.81,520.15L566.45,483.11L567.09,491.95L567.74,467.2L568.38,506.23L569.02,500.46L569.66,516.39L570.3,506.63L570.94,514.75L571.58,511.65L572.23,499.45L572.87,493.6L573.51,501.32L574.79,471.32L575.43,497.25L576.08,487.51L576.72,489.42L578,451.41L578.64,497.37L579.28,462.34L579.92,522.74L581.85,469.42L582.49,522.32L583.77,478.19L584.42,485.3L586.34,514.5L586.98,508.23L587.62,504.79L588.26,511L588.91,508.9L589.55,509.46L590.19,498.21L590.83,513.16L591.47,513.26L592.11,514.23L592.75,509.67L593.4,514.24L594.04,500.37L594.68,511.38L595.32,461.3L595.96,496.53L596.6,496.63L597.25,522.87L597.89,489.97L598.53,513.31L599.17,512.47L599.81,509.44L600.45,508.45L601.09,472.57L601.74,511.71L602.38,483.08L604.3,499.44L604.94,482.64L605.58,490.09L606.23,478.48L606.87,471.38L607.51,503.38L608.15,505.06L608.79,492.23L609.43,493.35L610.08,500.69L610.72,516.17L611.36,496.67L612,503.3L612.64,493.67L613.28,503.58L613.92,503.2L614.57,504.43L615.21,504.36L615.85,516.79L616.49,491.73L617.13,495.85L617.77,497.06L618.42,501.92L619.06,494.1L619.7,515.67L620.34,497.82L620.98,515.67L621.62,476.03L622.91,522.74L623.55,495.77L624.19,487.73L624.83,498.65L625.47,493.15L626.11,519.6L627.4,503.95L628.04,507.54L628.68,480.18L629.32,504.68L629.96,488.15L630.6,504.73L631.25,497.55L631.89,508.14L633.17,448.1L633.81,517.33L635.09,498.8L635.74,513.51L636.38,527.23L637.02,508.84L637.66,521.44L638.3,486.92L638.94,526.55L639.58,487.35L640.23,490.87L640.87,518.23L642.15,497.29L642.79,503.94L643.43,475.46L644.08,493.16L645.36,496.6L646,483.21L646.64,490.32L647.28,461.16L648.57,496.1L649.21,498.25L649.85,503.32L650.49,500.8L651.13,525.69L651.77,469.02L652.42,534.8L653.06,508.93L654.34,488.52L654.98,508.05L655.62,527.84L656.26,524.34L656.91,512.17L657.55,518.47L658.19,512.19L658.83,513.16L659.47,510.43L660.11,522.92L660.75,512.49L661.4,521.11L662.04,501.46L662.68,532.82L663.32,497.08L663.96,494.62L664.6,515.31L665.89,501.07L666.53,497.94L667.17,497.63L667.81,499.11L669.09,516.88L669.74,483.4L670.38,513.49L671.02,506.24L672.3,524.85L672.94,491.6L673.58,507.94L674.23,494.18L674.87,513.86L675.51,507.7L676.15,466.22L676.79,521.27L677.43,492.82L678.08,523.62L678.72,506.42L679.36,532.97L680,526.26L680.64,509.76L681.28,509.92L681.92,452.83L683.21,514.34L683.85,489.87L684.49,460.4L685.13,481.53L685.77,493.39L686.42,485.47L687.06,479.7L687.7,494.18L688.98,464.85L689.62,516.85L690.91,483.83L691.55,516.67L692.83,459.1L693.47,513.68L694.11,530.63L694.75,502.6L695.4,494.61L696.04,516.66L697.32,496.62L697.96,504.67L699.25,494.03L699.89,465.95L700.53,500.03L701.17,450.87L701.81,463.15L702.45,503.41L703.09,490.11L703.74,504.37L704.38,472.16L705.02,495.65L705.66,484.84L706.3,498.28L706.94,492.24L707.58,498.88L708.23,507.51L708.87,499.57L709.51,509.22L710.15,494.49L711.43,503.82L712.08,520.13L712.72,499.95L713.36,513.16L714.64,488.28L715.28,496.19L715.92,510.88L716.57,476.48L717.85,495.76L718.49,481.77L719.13,504.55L719.77,485.84L720.42,499.09L721.06,481.94L722.34,506.81L722.98,504.37L723.62,492.49L724.26,509.1L724.91,498.17L725.55,505.4L726.19,514.74L726.83,508.44L727.47,526.36L728.11,512.03L728.75,511.75L729.4,499.46L730.04,520.63L730.68,515.76L731.32,515.76L731.96,503.39L732.6,498.24L733.25,480.45L733.89,474L734.53,486.26L735.17,519.48L735.81,479.64L736.45,487.76L737.09,505.62L737.74,465.15L738.38,487.26L739.02,454.41L739.66,477.7L740.3,493.95L740.94,487.51L741.58,501.09L742.23,497.48L742.87,512.86L743.51,502.78L744.15,472.58L744.79,500.53L745.43,526.26L746.08,514.97L748,496.94L748.64,505.02L749.28,510.98L749.92,497L750.57,521.93L751.21,516.56L751.85,516.08L752.49,522.59L754.42,509.67L755.06,491.3L755.7,513.71L756.34,510.66L756.98,515.05L757.62,518.1L758.26,416.24L759.55,496.52L760.19,499.23L760.83,499.69L761.47,506.94L762.11,530.19L762.75,505.43L763.4,520.72L764.04,483.86L764.68,504.24L765.32,457.69L766.6,490.76L767.25,497.17L769.17,511.15L769.81,499.45L770.45,472.23L771.09,493.14L771.74,480.67L772.38,490.16L773.02,471.14L773.66,487.11L774.3,516.76L774.94,496.99L776.23,518.63L776.87,498.04L777.51,527.47L778.15,509.65L778.79,509.68L779.43,511.91L780.08,498.48L780.72,524.98L782,500.23L782.64,511.32L783.92,439L784.57,501.89L785.21,485.25L785.85,497.58L786.49,488.31L787.13,492.57L787.77,525.11L788.42,518.09L789.06,501.88L789.7,507.54L790.34,499.31L790.98,514.07L791.62,493.67L792.26,497.45L793.55,511.29L794.19,507.92L794.83,502.94L795.47,503.21L796.11,509.81L796.75,484.97L797.4,505.67L798.68,530.61L799.32,485.91L800.6,525.36L801.25,471.95L801.89,501.12L802.53,483.45L803.17,517.73L803.81,497.87L804.45,526.39L805.09,493.29L805.74,521.59L806.38,514.24L807.66,496.76L808.3,508.2L808.94,483.2L809.58,514.28L810.23,496.74L810.87,501.84L811.51,478.96L812.15,482.45L812.79,488.65L813.43,510.34L814.08,486.65L814.72,513.25L815.36,490.86L816,502.13L816.64,474.1L817.28,522.12L817.92,507.7L818.57,495.86L819.21,511.07L819.85,499.36L820.49,522.49L821.77,474.03L822.42,467.76L823.06,486.81L823.7,478.91L824.98,483.21L825.62,478.22L826.26,508.29L826.91,487.83L827.55,472.91L828.19,503.26L828.83,465.49L829.47,493.42L830.11,488.43L830.75,502.34L831.4,514.12L832.04,503.51L832.68,503.18L833.32,509.22L834.6,491.24L835.25,492.89L835.89,494.8L836.53,499.41L837.17,500.95L837.81,462.33L838.45,505.36L839.09,502.86L839.74,507.97L840.38,496.93L841.02,502.19L841.66,513.03L842.3,490.97L842.94,515.99L843.58,392.33L844.23,488.43L844.87,482.53L845.51,504.16L846.15,513.36L846.79,490.13L847.43,521.83L848.08,505.45L848.72,511.36L849.36,510.4L850,509.24L850.64,486.78L851.28,498.52L851.92,519.06L852.57,494.49L853.21,525.42L853.85,502.39L854.49,507.71L855.13,521.47L856.42,497.32L857.06,515.04L859.62,481.79L860.26,513.35L861.55,517.59L862.19,494.15L862.83,498.59L863.47,511.51L864.11,518.63L864.75,491.63L865.4,513.15L866.04,500.83L866.68,485.19L867.32,501.72L867.96,522.55L868.6,515.55L869.89,501.33L870.53,495.58L872.45,537.34L873.09,516.23L873.74,515.01L874.38,517.93L875.66,513.52L876.3,510.34L876.94,505.14L877.58,531.22L878.23,498.09L878.87,528.58L879.51,527.07L880.15,508.17L880.79,503.45L881.43,518.8L882.08,487.57L882.72,518.14L883.36,507.91L884,529.99L884.64,506.82L885.28,519.74L885.92,505.88L886.57,508.11L887.21,506.42L887.85,515.2L888.49,524.6L889.13,523.68L889.77,516.62L890.42,429.37L891.06,483.07L892.98,522.17L893.62,521.74L894.26,513.52L894.91,518.83L895.55,521.81L896.19,530.42L896.83,521.72L897.47,527.75L898.75,511.55L899.4,522.1L900.04,497.81L900.68,508.12L901.32,512.96L901.96,536.91L902.6,455.4L903.25,487.94L903.89,488.94L904.53,494.04L905.17,487.82L905.81,499.33L906.45,493.09L907.09,510.71L907.74,502.44L908.38,503.07L909.02,499.84L910.3,516.21L910.94,508.45L911.58,505.7L912.23,506.64L912.87,510.47L913.51,529.77L914.15,521.2L914.79,531.7L916.08,506.78L916.72,508.14L917.36,499.33L918,514.72L918.64,471.49L919.28,504.26L919.92,490.41L920.57,511.59L921.21,513.59L921.85,501.4L922.49,523.25L923.13,513.39L923.77,518.4L924.42,516.33L925.06,526.49L925.7,515L926.34,531.59L926.98,518.51L928.26,488.41L928.91,531.17L930.19,520.45L930.83,503.42L931.47,517.27L932.11,509.21L932.75,505.64L933.4,508.71L934.04,507.91L934.68,521.32L935.32,510.57L935.96,521.11L936.6,518.29L937.25,519.99L937.89,521.98L938.53,502.6L939.81,521.55L940.45,504.25L941.09,506.38L941.74,533.57L942.38,482.92L943.02,487.02L943.66,481.11L945.58,525.67L946.23,514.02L946.87,505.29L947.51,512.85L948.15,513.8L948.79,517.17L949.43,515.35L950.08,511.08L950.72,508.16L951.36,501.3L952,508.47L952.64,528.71L953.28,494.87L953.92,534.01L954.57,509.88L955.21,510.43L955.85,527.17L956.49,508.96L957.13,515.04L957.77,516.89L958.42,513.45L959.06,521.75L959.7,518.51L960.34,522.44L960.98,517.31L961.62,520.18L962.26,532.71L963.55,519.19L964.19,464.46L964.83,536.26L965.47,509.78L966.11,508.59L966.75,518.71L967.4,517.73L968.04,518.43L968.68,522.22L969.32,507.62L969.96,453.4L970.6,522.64L971.25,523.86L971.89,521.88L972.53,485.81L973.17,519.29L973.81,518.01L974.45,522.77L975.09,502.84L975.74,513.53L976.38,524.07L977.02,501.99L978.3,525.84L978.94,521.7L979.58,530.04L980.23,472.1L981.51,521.58L982.15,524.01L982.79,514.22L983.43,532.98L984.08,509.25L984.72,520.9L985.36,529.19L986,502.41L986.64,509.17L987.28,500.72L989.21,523.17L989.85,504.16L990.49,504.32L991.13,507.12L991.77,517.05L992.42,516.88L993.06,520.25L993.7,526.22L994.34,509.32L994.98,505.57L995.62,512.27L996.26,511.73L996.91,514.4L997.55,513.18L998.19,507.12L998.83,501.28L999.47,510.81L1000.11,520.13L1000.75,505.92L1002.04,519.85L1002.68,501.11L1003.96,518.88L1004.6,505.97L1005.25,522.01L1005.89,519.01L1006.53,513.78L1007.17,501L1007.81,500.84L1008.45,529.11L1009.09,494.68L1009.74,502.03L1010.38,481.55L1011.02,527.05L1012.3,497.5L1012.94,506.63L1014.87,529.18L1015.51,501.58L1016.15,518.93L1016.79,504.96L1017.43,521.1L1018.08,512.22L1018.72,528.36L1019.36,523.16L1020,519.53L1020.64,527.44L1021.92,503.99L1022.57,523.71L1023.85,527.98L1024.49,508.41L1025.13,524.81L1025.77,509.29L1026.42,489.96L1027.06,518.75L1027.7,518.13L1028.34,524.55L1028.98,511.75L1029.62,526.12L1030.26,529.12L1030.91,511.26L1031.55,526.03L1032.19,501.94L1032.83,525.52L1033.47,510.31L1034.11,520.61L1034.75,519.19L1035.4,510.57L1036.68,524.97L1037.32,525.09L1038.6,519.78L1039.25,524.93L1040.53,522.73L1041.17,516.61L1041.81,521.4L1042.45,517.52L1043.74,532.47L1044.38,496.01L1045.66,527.74L1046.3,515.88L1048.23,528.3L1048.87,509.51L1049.51,531.02L1050.15,500.86L1052.08,525.39L1052.72,522.51L1053.36,507.26L1054,523.55L1054.64,505.38L1055.28,508.02L1055.92,521.09L1056.57,523.72L1057.21,503.46L1057.85,533.45L1058.49,530.24L1059.13,511.41L1059.77,529.44L1060.42,522.91L1061.06,507.19L1061.7,512.42L1062.98,526.36L1063.62,522.43L1065.55,507L1066.19,513.7L1066.83,531.01L1067.47,515.99L1068.11,531.27L1068.75,524.65L1070.68,508.4L1071.32,520.9L1072.6,518.71L1073.25,499.75L1073.89,524.87L1074.53,505.18L1075.17,530.74L1075.81,516.11L1076.45,509.76L1077.09,513.38L1078.38,537.34L1079.02,529.13L1080.3,513.32L1080.94,522.72L1081.58,542.47L1082.23,524.07L1083.51,519.53L1084.15,533.68L1084.79,513.99L1085.43,526.39L1086.08,523.21L1086.72,537.49L1088,524.1L1088.64,516.89L1089.28,520.61L1089.92,531.86L1090.57,455.3L1091.21,519.28L1091.85,530.81L1092.49,510.69L1093.13,520.05L1093.77,512.5L1094.42,521.73L1095.06,512.93L1095.7,515.75L1096.34,535.13L1097.62,530L1098.26,520.37L1098.91,528.77L1099.55,528.18L1100.19,519.33L1101.47,510.05L1102.11,521.74L1102.75,519.9L1103.4,515.74L1104.68,531.04L1105.32,508.3L1107.25,521.38L1107.89,521.45L1108.53,516.2L1109.17,522.78L1109.81,507.54L1110.45,532.7L1111.09,529.7L1111.74,535.41L1112.38,534.9L1113.02,529.59L1113.66,524.98L1114.3,530.69L1114.94,509.74L1115.58,524.82L1116.87,515.15L1117.51,535.72L1118.79,522.6L1119.43,496.28L1120.08,535.16L1120.72,524.74L1122,514.14L1122.64,516.39L1123.28,517.33L1123.92,520.76L1124.57,518.61L1125.21,535.12L1125.85,506.37L1126.49,519.2L1127.13,537.89L1127.77,518.84L1128.42,532.05L1129.06,517.44L1130.34,531.24L1130.98,525.7L1131.62,534.85L1132.26,521.4L1132.91,501.27L1133.55,520.38L1134.19,511.43L1134.83,523.51L1135.47,519.36L1136.11,520.83L1136.75,537.24L1137.4,534.07L1138.04,505.53L1138.68,527.11L1139.32,512.73L1139.96,533.37L1140.6,526.11L1141.25,527.81L1141.89,530.62L1142.53,524.42L1143.17,514.33L1143.81,542.61L1145.09,509.25L1145.74,523.8L1146.38,525.93L1147.02,534.65L1148.3,517.2L1148.94,524.07L1149.58,503.64L1150.23,523.56L1150.87,517.05L1151.51,533.7L1152.79,528.61L1153.43,525.72L1154.72,515.57L1155.36,531.23L1156,519.84L1156.64,520.42L1157.28,522.2L1157.92,528.91L1158.57,523.78L1159.21,522.87L1159.85,516.65L1160.49,520.29L1161.13,533.43L1161.77,520.75L1162.42,529.05L1163.7,517.65L1164.34,529.03L1164.98,519.03L1165.62,520.99L1166.26,536.12L1166.91,520.56L1167.55,517.41L1168.19,519.83L1168.83,511.85L1169.47,529.76L1170.11,540.75L1170.75,531.6L1171.4,516.49L1172.04,533.03L1172.68,531.9L1173.32,528.52L1173.96,519.13L1174.6,529.37L1175.25,529.88L1175.89,522.51L1176.53,533.75L1177.17,528.96L1177.81,514.14L1178.45,532.93L1179.09,505.79L1179.74,524.58L1180.38,525L1181.02,524.45L1181.66,529.97L1182.3,526.32L1182.94,536.6L1183.58,528.09L1184.23,536.74L1184.87,527.13L1185.51,530.39L1186.15,528.72L1187.43,533.11L1188.08,528.67L1188.72,526.19L1189.36,542.29L1190,482.77L1190.64,533.26L1191.92,526.84L1192.57,508.34L1193.85,531.54L1194.49,514.45L1195.13,530.37L1195.77,523.11L1196.42,522.1L1197.06,511.45L1198.34,533.3L1198.98,525.65L1199.62,532.61L1200.26,516.76L1200.91,514.15L1201.55,516.06L1202.19,539.87L1202.83,532.24L1203.47,536.9L1204.11,535.1L1204.75,513.74L1205.4,523.64L1206.04,519.27L1206.68,537.18L1208.6,511.29L1209.25,530.86L1209.89,512.19L1210.53,514.51L1211.17,535.03L1211.81,521.16L1212.45,530.71L1213.09,533.23L1213.74,496.21L1214.38,534.91L1215.02,526.81L1215.66,527.03L1216.3,499.08L1216.94,506.74L1217.58,526.03L1218.23,532.16L1218.87,531.15L1219.51,511.42L1220.79,540.64L1221.43,518.17L1222.08,519.18L1222.72,534.4L1223.36,529.86L1224,514.44L1224.64,537.72L1225.28,516.52L1226.57,527.82L1227.21,541.63L1227.85,521.74L1228.49,538.98L1229.77,516.72L1230.42,524.39L1231.7,534.15L1232.34,521.91L1232.98,529.7L1233.62,521.8L1234.26,521.85L1234.91,531.94L1235.55,541.5L1236.19,507.93L1236.83,535.7L1237.47,531.15L1238.11,527.39L1239.4,516.31L1240.04,531.55L1240.68,510.6L1241.32,537.53L1242.6,520.74L1243.25,528.84L1243.89,520.97L1244.53,533.88L1245.17,522.51L1245.81,523.44L1246.45,534.49L1247.74,523.82L1248.38,525.26L1249.02,528.66L1249.66,487.42L1250.3,540.68L1250.94,529.37L1251.58,520.22L1252.23,527.96L1252.87,516.66L1253.51,533.15L1254.15,530.67L1254.79,524.6L1255.43,521.44L1256.08,533.04L1256.72,528.55L1257.36,531.62L1258,526.35L1258.64,512.35L1259.92,538.73L1260.57,533.66L1261.21,526.68L1261.85,530.12L1262.49,536.98L1263.13,526.15L1264.42,537.62L1265.06,527.74L1265.7,526.64L1266.34,530.05L1267.62,521.89L1268.26,509.02L1270.19,537.18L1270.83,522.16L1271.47,520.97L1272.11,528.17L1272.75,530.99L1273.4,528.73L1274.04,512.21L1274.68,520.54L1275.32,476.56L1275.96,531.98L1276.6,530.29L1277.25,519.6L1277.89,530.95L1278.53,518.15L1279.81,533.48L1280.45,524.67L1281.09,523.36L1281.74,524.09L1283.02,533.37L1283.66,511.72L1284.3,529.64L1284.94,526.69L1285.58,530.89L1286.23,512.59L1286.87,531.43L1287.51,535.79L1288.15,531.37L1289.43,524.15L1290.08,503.17L1290.72,534.91L1291.36,530.31L1292,523.34L1292.64,533.26L1293.28,520.13L1293.92,539.4L1294.57,522.32L1295.21,528.8L1295.85,528.63L1296.49,533.93L1297.13,525.49L1297.77,542.52L1299.06,521.27L1299.7,533.97L1300.34,531.08L1300.98,532.89L1301.62,535.17L1302.26,526.61L1302.91,526.81L1303.55,537.3L1304.19,542.08L1304.83,517.84L1305.47,525.92L1306.11,511.6L1307.4,511.85L1308.04,525.27L1308.68,534.59L1309.32,526.06L1309.96,539.59L1310.6,527.45L1311.89,514.87L1312.53,526.58L1313.17,524.91L1313.81,516.13L1314.45,536.4L1315.09,536L1315.74,533.2L1316.38,528.86L1317.02,541.14L1317.66,510.42L1318.3,532.97L1321.51,514.28L1322.15,517.64L1323.43,538.68L1324.08,527.75L1325.36,534.9L1326,520.97L1326.64,520.53L1327.28,526.03L1327.92,527.88L1328.57,508.39L1329.21,511.96L1329.85,530.91L1330.49,526.03L1331.13,509.55L1331.77,531.63L1332.42,525.6L1333.06,525.01L1333.7,533.2L1334.34,536.98L1334.98,514.36L1335.62,514.15L1336.26,526.74L1336.91,527.86L1337.55,531.57L1338.19,530.3L1338.83,533.77L1339.47,525.3L1340.11,529.64L1341.4,520.82L1342.04,538.25L1342.68,525.59L1343.32,534.01L1344.6,524.28L1345.25,525.39L1346.53,530.09L1347.17,505.22L1347.81,539.94L1348.45,515.37L1349.09,530.24L1349.74,527.36L1350.38,519.04L1351.02,524.93L1351.66,521.02L1352.3,528.05L1352.94,528.54L1353.58,525.5L1354.23,509.59L1354.87,533.4L1355.51,530.67L1356.15,537.99L1356.79,538.94L1357.43,530.48L1358.08,539.33L1358.72,532.95L1359.36,528.63L1360,536.7L1361.28,505.25L1361.92,520.18L1363.21,530.34L1363.85,515.8L1364.49,535.23L1365.13,527.88L1365.77,541.8L1366.42,528.28L1367.7,535.69L1368.34,517.94L1368.98,537.99L1369.62,534.01L1371.55,526.85L1372.19,531.17L1372.83,529.82L1373.47,533.55L1374.11,537.88L1374.75,526.38L1376.04,536.48L1376.68,539.79L1377.32,535.9L1377.96,520.97L1379.25,534.79L1379.89,530.15L1380.53,532.48L1381.17,544.78L1381.81,524.93L1382.45,534.27L1383.09,542.06L1383.74,538.32L1385.02,523.57L1385.66,516.59L1386.94,530.46L1387.58,528.67L1388.23,524.89L1388.87,543.18L1390.15,517.29L1390.79,536.5L1392.08,524.94L1392.72,528.02L1393.36,530.93L1394,525.26L1395.28,537.31L1395.92,531.06L1397.21,531.88L1397.85,533.04L1398.49,540.8L1399.13,518.04L1399.77,526.51L1400.42,525.15L1401.7,539.62L1402.34,524.75L1402.98,466.85L1403.62,538.1L1404.26,535.4L1404.91,537.41L1405.55,521.78L1406.19,532.61L1406.83,537.51L1407.47,536.94L1408.11,520.6L1409.4,539.05L1410.04,534.58L1410.68,533.4L1411.32,534.62L1411.96,526.1L1412.6,539.76L1413.25,515.97L1413.89,529.59L1414.53,512.87L1415.17,527.97L1415.81,511.66L1416.45,535.2L1417.09,526.4L1417.74,537.54L1418.38,527.57L1419.02,537.3L1419.66,537.25L1420.3,513.93L1420.94,543.15L1421.58,531.9L1422.23,527.82L1422.87,530.44L1424.15,498.81L1424.79,532L1425.43,531.18L1426.08,531.86L1426.72,525.18L1427.36,533.53L1428,513.42L1428.64,547.2L1429.92,524.76L1430.57,525.84L1431.21,518.8L1431.85,530.78L1432.49,526.67L1433.13,516.45L1434.42,537.39L1435.06,534.08L1435.7,537.63L1436.34,531.85L1436.98,523.71L1437.62,525.8L1438.26,515.83L1438.91,532.1L1439.55,537.79L1440.19,533.08L1441.47,523.53L1442.11,529.91L1442.75,500.02L1443.4,522.31L1444.04,534.06L1444.68,531.15L1445.32,529.74L1445.96,541.68L1446.6,520.03L1447.25,536.67L1447.89,528.43L1448.53,536.89L1449.81,526.38L1450.45,535.8L1451.09,537.76L1451.74,532.55L1452.38,542.29L1453.02,534.1L1453.66,532.32L1454.3,537.27L1455.58,543.23L1456.23,533.8L1456.87,534.66L1457.51,533.62L1458.15,532.06L1458.79,540.27L1459.43,518.5L1460.08,539.65L1460.72,536.75L1461.36,529.4L1462,535.98L1462.64,534.69L1463.92,529.6L1464.57,522.61L1465.21,532.16L1465.85,507.1L1467.13,539.97L1467.77,533.4L1469.06,529.89L1469.7,532.73L1470.34,535.26L1470.98,533.43L1471.62,528.26L1472.26,530.78L1473.55,534.5L1474.19,529.65L1474.83,537.33L1475.47,534.26L1476.11,463.72L1476.75,531L1477.4,528.81L1478.04,532.21L1478.68,525.45L1479.32,536.23L1479.96,526.89L1480.6,537.78L1481.89,542.74L1482.53,526.83L1483.81,523.3L1484.45,531.93L1485.74,531.79L1486.38,533.13L1487.02,531.22L1487.66,534.63L1488.3,536.39L1488.94,532.61L1489.58,540.99L1490.23,520.65L1490.87,516.58L1491.51,522.22L1492.15,532.76L1492.79,523.8L1493.43,528.71L1494.08,504.73L1494.72,530.65L1495.36,521.84L1496,535.51L1496.64,529.35L1497.28,533.3L1497.92,527.85L1498.57,515.07L1499.21,524.39L1499.85,537.44L1500.49,535.74L1501.13,536.85L1501.77,535.64L1502.42,539.3L1503.06,530.52L1503.7,540.25L1505.62,521.2L1506.26,529.49L1506.91,533.42L1507.55,527.98L1508.19,525.32L1508.83,504.68L1510.11,529.97L1510.75,536.21L1512.04,527.71L1512.68,525.56L1513.96,543.82L1514.6,539.07L1515.25,536.25L1515.89,536.53L1516.53,515.61L1517.81,537.08L1518.45,540.77L1519.09,529.86L1519.74,544.35L1520.38,541.32L1521.02,527.84L1521.66,533.35L1522.3,523.52L1523.58,533.17L1524.23,530.01L1524.87,530.6L1525.51,519.75L1526.79,536.12L1527.43,535.14L1528.08,526.21L1528.72,530.32L1529.36,539.56L1530,521.08" style="vector-effect: non-scaling-stroke; fill: none; stroke: rgb(227, 119, 194); stroke-opacity: 1; stroke-width: 2px; opacity: 1;"/></g><g class="points"/><g class="text"/></g></g></g><g class="overplot"/><path class="xlines-above crisp" d="M0,0" style="fill: none;"/><path class="ylines-above crisp" d="M0,0" style="fill: none;"/><g class="overlines-above"/><g class="xaxislayer-above"><g class="xtick"><text text-anchor="middle" x="0" y="649" transform="translate(204.77,0)" style="font-family: 'Open Sans', verdana, arial, sans-serif; font-size: 12px; fill: rgb(68, 68, 68); fill-opacity: 1; white-space: pre; opacity: 1;">20</text></g><g class="xtick"><text text-anchor="middle" x="0" y="649" style="font-family: 'Open Sans', verdana, arial, sans-serif; font-size: 12px; fill: rgb(68, 68, 68); fill-opacity: 1; white-space: pre; opacity: 1;" transform="translate(357.83,0)">40</text></g><g class="xtick"><text text-anchor="middle" x="0" y="649" style="font-family: 'Open Sans', verdana, arial, sans-serif; font-size: 12px; fill: rgb(68, 68, 68); fill-opacity: 1; white-space: pre; opacity: 1;" transform="translate(510.9,0)">60</text></g><g class="xtick"><text text-anchor="middle" x="0" y="649" style="font-family: 'Open Sans', verdana, arial, sans-serif; font-size: 12px; fill: rgb(68, 68, 68); fill-opacity: 1; white-space: pre; opacity: 1;" transform="translate(663.96,0)">80</text></g><g class="xtick"><text text-anchor="middle" x="0" y="649" style="font-family: 'Open Sans', verdana, arial, sans-serif; font-size: 12px; fill: rgb(68, 68, 68); fill-opacity: 1; white-space: pre; opacity: 1;" transform="translate(817.03,0)">100</text></g><g class="xtick"><text text-anchor="middle" x="0" y="649" style="font-family: 'Open Sans', verdana, arial, sans-serif; font-size: 12px; fill: rgb(68, 68, 68); fill-opacity: 1; white-space: pre; opacity: 1;" transform="translate(970.09,0)">120</text></g><g class="xtick"><text text-anchor="middle" x="0" y="649" style="font-family: 'Open Sans', verdana, arial, sans-serif; font-size: 12px; fill: rgb(68, 68, 68); fill-opacity: 1; white-space: pre; opacity: 1;" transform="translate(1123.15,0)">140</text></g><g class="xtick"><text text-anchor="middle" x="0" y="649" style="font-family: 'Open Sans', verdana, arial, sans-serif; font-size: 12px; fill: rgb(68, 68, 68); fill-opacity: 1; white-space: pre; opacity: 1;" transform="translate(1276.22,0)">160</text></g><g class="xtick"><text text-anchor="middle" x="0" y="649" style="font-family: 'Open Sans', verdana, arial, sans-serif; font-size: 12px; fill: rgb(68, 68, 68); fill-opacity: 1; white-space: pre; opacity: 1;" transform="translate(1429.28,0)">180</text></g><g class="xtick"><text text-anchor="middle" x="0" y="649" style="font-family: 'Open Sans', verdana, arial, sans-serif; font-size: 12px; fill: rgb(68, 68, 68); fill-opacity: 1; white-space: pre; opacity: 1;" transform="translate(1582.35,0)">200</text></g></g><g class="yaxislayer-above"><g class="ytick"><text text-anchor="end" x="59" y="4.199999999999999" transform="translate(0,631.36)" style="font-family: 'Open Sans', verdana, arial, sans-serif; font-size: 12px; fill: rgb(68, 68, 68); fill-opacity: 1; white-space: pre; opacity: 1;">0</text></g><g class="ytick"><text text-anchor="end" x="59" y="4.199999999999999" style="font-family: 'Open Sans', verdana, arial, sans-serif; font-size: 12px; fill: rgb(68, 68, 68); fill-opacity: 1; white-space: pre; opacity: 1;" transform="translate(0,547.35)">0.5</text></g><g class="ytick"><text text-anchor="end" x="59" y="4.199999999999999" style="font-family: 'Open Sans', verdana, arial, sans-serif; font-size: 12px; fill: rgb(68, 68, 68); fill-opacity: 1; white-space: pre; opacity: 1;" transform="translate(0,463.34)">1</text></g><g class="ytick"><text text-anchor="end" x="59" y="4.199999999999999" style="font-family: 'Open Sans', verdana, arial, sans-serif; font-size: 12px; fill: rgb(68, 68, 68); fill-opacity: 1; white-space: pre; opacity: 1;" transform="translate(0,379.33)">1.5</text></g><g class="ytick"><text text-anchor="end" x="59" y="4.199999999999999" style="font-family: 'Open Sans', verdana, arial, sans-serif; font-size: 12px; fill: rgb(68, 68, 68); fill-opacity: 1; white-space: pre; opacity: 1;" transform="translate(0,295.31)">2</text></g><g class="ytick"><text text-anchor="end" x="59" y="4.199999999999999" style="font-family: 'Open Sans', verdana, arial, sans-serif; font-size: 12px; fill: rgb(68, 68, 68); fill-opacity: 1; white-space: pre; opacity: 1;" transform="translate(0,211.3)">2.5</text></g><g class="ytick"><text text-anchor="end" x="59" y="4.199999999999999" style="font-family: 'Open Sans', verdana, arial, sans-serif; font-size: 12px; fill: rgb(68, 68, 68); fill-opacity: 1; white-space: pre; opacity: 1;" transform="translate(0,127.29)">3</text></g></g><g class="overaxes-above"/></g></g><g class="polarlayer"/><g class="smithlayer"/><g class="ternarylayer"/><g class="geolayer"/><g class="funnelarealayer"/><g class="pielayer"/><g class="iciclelayer"/><g class="treemaplayer"/><g class="sunburstlayer"/><g class="glimages"/><defs id="topdefs-0ee904"><g class="clips"/><clipPath id="legend0ee904"><rect width="88" height="162" x="0" y="0"/></clipPath></defs><g class="layer-above"><g class="imagelayer"/><g class="shapelayer"/></g><g class="infolayer"><g class="legend" pointer-events="all" transform="translate(1620.6000000000001,60)"><rect class="bg" shape-rendering="crispEdges" width="88" height="162" x="0" y="0" style="stroke: rgb(68, 68, 68); stroke-opacity: 1; fill: rgb(255, 255, 255); fill-opacity: 1; stroke-width: 0px;"/><g class="scrollbox" transform="" clip-path="url(#legend0ee904)"><g class="groups"><g class="traces" transform="translate(0,14.5)" style="opacity: 0.5;"><text class="legendtext" text-anchor="start" x="40" y="4.680000000000001" style="font-family: 'Open Sans', verdana, arial, sans-serif; font-size: 12px; fill: rgb(68, 68, 68); fill-opacity: 1; white-space: pre;">D_A</text><g class="layers" style="opacity: 1;"><g class="legendfill"/><g class="legendlines"><path class="js-line" d="M5,0h30" style="fill: none; stroke: rgb(31, 119, 180); stroke-opacity: 1; stroke-width: 2px;"/></g><g class="legendsymbols"><g class="legendpoints"/></g></g><rect class="legendtoggle" x="0" y="-9.5" width="82.54679107666016" height="19" style="fill: rgb(0, 0, 0); fill-opacity: 0;"/></g><g class="traces" transform="translate(0,33.5)" style="opacity: 0.5;"><text class="legendtext" text-anchor="start" x="40" y="4.680000000000001" style="font-family: 'Open Sans', verdana, arial, sans-serif; font-size: 12px; fill: rgb(68, 68, 68); fill-opacity: 1; white-space: pre;">G_A</text><g class="layers" style="opacity: 1;"><g class="legendfill"/><g class="legendlines"><path class="js-line" d="M5,0h30" style="fill: none; stroke: rgb(255, 127, 14); stroke-opacity: 1; stroke-width: 2px;"/></g><g class="legendsymbols"><g class="legendpoints"/></g></g><rect class="legendtoggle" x="0" y="-9.5" width="82.54679107666016" height="19" style="fill: rgb(0, 0, 0); fill-opacity: 0;"/></g><g class="traces" transform="translate(0,52.5)" style="opacity: 0.5;"><text class="legendtext" text-anchor="start" x="40" y="4.680000000000001" style="font-family: 'Open Sans', verdana, arial, sans-serif; font-size: 12px; fill: rgb(68, 68, 68); fill-opacity: 1; white-space: pre;">cycle_A</text><g class="layers" style="opacity: 1;"><g class="legendfill"/><g class="legendlines"><path class="js-line" d="M5,0h30" style="fill: none; stroke: rgb(44, 160, 44); stroke-opacity: 1; stroke-width: 2px;"/></g><g class="legendsymbols"><g class="legendpoints"/></g></g><rect class="legendtoggle" x="0" y="-9.5" width="82.54679107666016" height="19" style="fill: rgb(0, 0, 0); fill-opacity: 0;"/></g><g class="traces" transform="translate(0,71.5)" style="opacity: 0.5;"><text class="legendtext" text-anchor="start" x="40" y="4.680000000000001" style="font-family: 'Open Sans', verdana, arial, sans-serif; font-size: 12px; fill: rgb(68, 68, 68); fill-opacity: 1; white-space: pre;">idt_A</text><g class="layers" style="opacity: 1;"><g class="legendfill"/><g class="legendlines"><path class="js-line" d="M5,0h30" style="fill: none; stroke: rgb(214, 39, 40); stroke-opacity: 1; stroke-width: 2px;"/></g><g class="legendsymbols"><g class="legendpoints"/></g></g><rect class="legendtoggle" x="0" y="-9.5" width="82.54679107666016" height="19" style="fill: rgb(0, 0, 0); fill-opacity: 0;"/></g><g class="traces" transform="translate(0,90.5)" style="opacity: 0.5;"><text class="legendtext" text-anchor="start" x="40" y="4.680000000000001" style="font-family: 'Open Sans', verdana, arial, sans-serif; font-size: 12px; fill: rgb(68, 68, 68); fill-opacity: 1; white-space: pre;">D_B</text><g class="layers" style="opacity: 1;"><g class="legendfill"/><g class="legendlines"><path class="js-line" d="M5,0h30" style="fill: none; stroke: rgb(148, 103, 189); stroke-opacity: 1; stroke-width: 2px;"/></g><g class="legendsymbols"><g class="legendpoints"/></g></g><rect class="legendtoggle" x="0" y="-9.5" width="82.54679107666016" height="19" style="fill: rgb(0, 0, 0); fill-opacity: 0;"/></g><g class="traces" transform="translate(0,109.5)" style="opacity: 0.5;"><text class="legendtext" text-anchor="start" x="40" y="4.680000000000001" style="font-family: 'Open Sans', verdana, arial, sans-serif; font-size: 12px; fill: rgb(68, 68, 68); fill-opacity: 1; white-space: pre;">G_B</text><g class="layers" style="opacity: 1;"><g class="legendfill"/><g class="legendlines"><path class="js-line" d="M5,0h30" style="fill: none; stroke: rgb(140, 86, 75); stroke-opacity: 1; stroke-width: 2px;"/></g><g class="legendsymbols"><g class="legendpoints"/></g></g><rect class="legendtoggle" x="0" y="-9.5" width="82.54679107666016" height="19" style="fill: rgb(0, 0, 0); fill-opacity: 0;"/></g><g class="traces" transform="translate(0,128.5)" style="opacity: 1;"><text class="legendtext" text-anchor="start" x="40" y="4.680000000000001" style="font-family: 'Open Sans', verdana, arial, sans-serif; font-size: 12px; fill: rgb(68, 68, 68); fill-opacity: 1; white-space: pre;">cycle_B</text><g class="layers" style="opacity: 1;"><g class="legendfill"/><g class="legendlines"><path class="js-line" d="M5,0h30" style="fill: none; stroke: rgb(227, 119, 194); stroke-opacity: 1; stroke-width: 2px;"/></g><g class="legendsymbols"><g class="legendpoints"/></g></g><rect class="legendtoggle" x="0" y="-9.5" width="82.54679107666016" height="19" style="fill: rgb(0, 0, 0); fill-opacity: 0;"/></g><g class="traces" transform="translate(0,147.5)" style="opacity: 0.5;"><text class="legendtext" text-anchor="start" x="40" y="4.680000000000001" style="font-family: 'Open Sans', verdana, arial, sans-serif; font-size: 12px; fill: rgb(68, 68, 68); fill-opacity: 1; white-space: pre;">idt_B</text><g class="layers" style="opacity: 1;"><g class="legendfill"/><g class="legendlines"><path class="js-line" d="M5,0h30" style="fill: none; stroke: rgb(127, 127, 127); stroke-opacity: 1; stroke-width: 2px;"/></g><g class="legendsymbols"><g class="legendpoints"/></g></g><rect class="legendtoggle" x="0" y="-9.5" width="82.54679107666016" height="19" style="fill: rgb(0, 0, 0); fill-opacity: 0;"/></g></g></g><rect class="scrollbar" rx="20" ry="3" width="0" height="0" x="0" y="0" style="fill: rgb(128, 139, 164); fill-opacity: 1;"/></g><g class="g-gtitle"><text class="gtitle" x="860.5" y="30" text-anchor="middle" dy="0em" style="font-family: 'Open Sans', verdana, arial, sans-serif; font-size: 17px; fill: rgb(68, 68, 68); opacity: 1; font-weight: normal; white-space: pre;">cleanDataTrain loss over time</text></g><g class="g-xtitle"><text class="xtitle" x="825" y="688" text-anchor="middle" style="font-family: 'Open Sans', verdana, arial, sans-serif; font-size: 14px; fill: rgb(68, 68, 68); opacity: 1; font-weight: normal; white-space: pre;">epoch</text></g><g class="g-ytitle"><text class="ytitle" transform="rotate(-90,22,348)" x="22" y="348" text-anchor="middle" style="font-family: 'Open Sans', verdana, arial, sans-serif; font-size: 14px; fill: rgb(68, 68, 68); opacity: 1; font-weight: normal; white-space: pre;">loss</text></g></g></svg>