<svg class="main-svg" xmlns="http://www.w3.org/2000/svg" xmlns:xlink="http://www.w3.org/1999/xlink" width="1721" height="696" style="" viewBox="0 0 1721 696"><rect x="0" y="0" width="1721" height="696" style="fill: rgb(255, 255, 255); fill-opacity: 1;"/><defs id="defs-f3ad58"><g class="clips"><clipPath id="clipf3ad58xyplot" class="plotclip"><rect width="1530" height="576"/></clipPath><clipPath class="axesclip" id="clipf3ad58x"><rect x="60" y="0" width="1530" height="696"/></clipPath><clipPath class="axesclip" id="clipf3ad58y"><rect x="0" y="60" width="1721" height="576"/></clipPath><clipPath class="axesclip" id="clipf3ad58xy"><rect x="60" y="60" width="1530" height="576"/></clipPath></g><g class="gradients"/><g class="patterns"/></defs><g class="bglayer"/><g class="layer-below"><g class="imagelayer"/><g class="shapelayer"/></g><g class="cartesianlayer"><g class="subplot xy"><g class="layer-subplot"><g class="shapelayer"/><g class="imagelayer"/></g><g class="gridlayer"><g class="x"><path class="xgrid crisp" transform="translate(204.77,0)" d="M0,60v576" style="stroke: rgb(238, 238, 238); stroke-opacity: 1; stroke-width: 1px;"/><path class="xgrid crisp" transform="translate(357.83,0)" d="M0,60v576" style="stroke: rgb(238, 238, 238); stroke-opacity: 1; stroke-width: 1px;"/><path class="xgrid crisp" transform="translate(510.9,0)" d="M0,60v576" style="stroke: rgb(238, 238, 238); stroke-opacity: 1; stroke-width: 1px;"/><path class="xgrid crisp" transform="translate(663.96,0)" d="M0,60v576" style="stroke: rgb(238, 238, 238); stroke-opacity: 1; stroke-width: 1px;"/><path class="xgrid crisp" transform="translate(817.03,0)" d="M0,60v576" style="stroke: rgb(238, 238, 238); stroke-opacity: 1; stroke-width: 1px;"/><path class="xgrid crisp" transform="translate(970.09,0)" d="M0,60v576" style="stroke: rgb(238, 238, 238); stroke-opacity: 1; stroke-width: 1px;"/><path class="xgrid crisp" transform="translate(1123.15,0)" d="M0,60v576" style="stroke: rgb(238, 238, 238); stroke-opacity: 1; stroke-width: 1px;"/><path class="xgrid crisp" transform="translate(1276.22,0)" d="M0,60v576" style="stroke: rgb(238, 238, 238); stroke-opacity: 1; stroke-width: 1px;"/><path class="xgrid crisp" transform="translate(1429.28,0)" d="M0,60v576" style="stroke: rgb(238, 238, 238); stroke-opacity: 1; stroke-width: 1px;"/><path class="xgrid crisp" transform="translate(1582.35,0)" d="M0,60v576" style="stroke: rgb(238, 238, 238); stroke-opacity: 1; stroke-width: 1px;"/></g><g class="y"><path class="ygrid crisp" transform="translate(0,532.3399999999999)" d="M60,0h1530" style="stroke: rgb(238, 238, 238); stroke-opacity: 1; stroke-width: 1px;"/><path class="ygrid crisp" transform="translate(0,427.34)" d="M60,0h1530" style="stroke: rgb(238, 238, 238); stroke-opacity: 1; stroke-width: 1px;"/><path class="ygrid crisp" transform="translate(0,322.33)" d="M60,0h1530" style="stroke: rgb(238, 238, 238); stroke-opacity: 1; stroke-width: 1px;"/><path class="ygrid crisp" transform="translate(0,217.33)" d="M60,0h1530" style="stroke: rgb(238, 238, 238); stroke-opacity: 1; stroke-width: 1px;"/><path class="ygrid crisp" transform="translate(0,112.32)" d="M60,0h1530" style="stroke: rgb(238, 238, 238); stroke-opacity: 1; stroke-width: 1px;"/></g></g><g class="zerolinelayer"/><path class="xlines-below"/><path class="ylines-below"/><g class="overlines-below"/><g class="xaxislayer-below"/><g class="yaxislayer-below"/><g class="overaxes-below"/><g class="plot" transform="translate(60,60)" clip-path="url(#clipf3ad58xyplot)"><g class="scatterlayer mlayer"><g class="trace scatter tracec9256f" style="stroke-miterlimit: 2; opacity: 1;"><g class="fills"/><g class="errorbars"/><g class="lines"><path class="js-line" d="M0,174.66L1.28,273.97L1.92,243.54L3.85,373.42L4.49,325.25L5.13,312.97L5.77,373.01L6.42,303.05L7.06,351.22L8.98,428L9.62,370.19L10.91,400.11L11.55,308.52L12.19,405.09L12.83,392.32L13.47,380.88L14.11,349.34L14.75,426.51L15.4,396.27L16.04,416.14L16.68,437.17L17.32,393.42L17.96,379.62L18.6,426.33L19.25,425.48L19.89,407.19L20.53,397.32L21.17,433.02L21.81,321.95L22.45,427.48L23.09,350.27L23.74,405.03L24.38,438.44L25.02,418.57L25.66,365.72L26.3,428.45L26.94,305.86L27.58,448.63L28.87,355.91L29.51,392.47L30.79,452.09L31.43,425.4L32.08,452.27L32.72,426.7L34,447.65L34.64,418.23L35.92,459.74L36.57,460.34L37.85,383.86L38.49,403.34L39.13,388.85L39.77,443.83L40.42,447.97L41.06,440.45L41.7,461.99L42.34,308.45L42.98,449.68L43.62,370.68L44.26,457.95L44.91,451.6L45.55,423.91L46.19,402.1L46.83,446.95L47.47,495.9L48.11,377.53L49.4,447.6L50.04,467.88L51.32,454.64L51.96,475.01L53.89,415.32L54.53,426.51L55.17,409.97L55.81,470.17L56.45,461.51L57.09,464.87L57.74,481.41L58.38,460.78L59.02,432.7L59.66,437.62L60.3,413.6L60.94,449.33L61.58,458L62.23,485.07L62.87,459.94L63.51,465.84L64.15,428.85L64.79,450.73L65.43,426.19L66.08,480.73L66.72,473.05L67.36,437.78L68,469.52L68.64,440.22L69.28,489.57L69.92,474.68L70.57,462.22L71.21,426.94L72.49,464.62L73.13,481.77L74.42,453.52L75.06,480.55L76.34,446.86L76.98,397.51L78.26,379.75L78.91,446.15L79.55,467.51L80.19,454.97L81.47,484.23L82.11,444.16L82.75,409.88L83.4,470.92L85.32,443.24L85.96,487.96L87.25,449.56L87.89,470.05L88.53,418.24L89.17,460.81L89.81,444.24L90.45,459.55L91.09,461.61L91.74,477.36L93.02,467.06L93.66,436.44L94.3,405.34L94.94,443.3L95.58,489.25L96.23,481.17L96.87,454.17L97.51,472.48L98.15,494.58L98.79,461.06L99.43,430.29L100.08,457.76L100.72,417.4L101.36,464.43L102.64,451.12L103.28,452.78L103.92,457.07L104.57,410.12L105.21,469.49L105.85,432.71L107.13,456.31L107.77,482.35L108.42,418.13L109.06,502.11L110.34,422.17L110.98,462.72L111.62,469.23L112.26,445.34L113.55,482.93L114.19,471.11L114.83,475.35L115.47,472.84L116.11,498.7L116.75,332.52L117.4,483.81L118.04,349.8L119.32,490.48L119.96,480.42L120.6,461.63L121.25,474.34L121.89,462.57L122.53,476.57L123.17,478.27L123.81,469.8L124.45,477.47L125.09,433.82L125.74,496.97L126.38,460.06L127.02,450.28L127.66,480.76L128.94,456.16L129.58,466.56L130.23,478.34L130.87,468.63L131.51,479.77L132.15,444.28L132.79,509.64L133.43,477.59L134.08,434.44L134.72,479.95L135.36,494.96L136,470.22L136.64,482.23L137.28,478.48L137.92,484.36L138.57,422.25L139.85,480.6L140.49,476.39L141.13,461.46L141.77,499.62L142.42,486.01L143.06,486.35L143.7,488.95L144.34,492.19L144.98,506.1L146.26,465.69L146.91,491.55L147.55,504.62L148.19,449.85L149.47,485.82L150.11,448.99L150.75,495.4L151.4,454.32L152.04,488.24L152.68,485.01L153.32,418.92L154.6,482.09L155.25,489.33L155.89,487.13L156.53,474.74L157.81,485.11L158.45,461.45L159.09,499.46L159.74,480.86L161.02,486.36L161.66,480.8L162.3,502.16L162.94,500.89L163.58,477.52L164.87,504.57L165.51,484.24L166.15,485.75L166.79,431.91L168.08,497.16L168.72,491.56L169.36,475.94L170,528.93L170.64,476.8L171.28,487.1L171.92,508.48L172.57,491.25L173.21,468.42L173.85,476.52L174.49,494.85L175.13,416.71L175.77,498.51L176.42,471.72L177.06,480.19L177.7,469.65L178.34,487.3L178.98,468.59L179.62,456.05L180.26,480.24L180.91,497.01L181.55,462.57L182.19,491.61L182.83,454L183.47,487.92L184.11,479.85L184.75,477.35L185.4,503.26L186.04,491.9L186.68,466.5L187.96,486.41L188.6,467.47L189.25,457.34L189.89,505.19L190.53,488.38L191.17,501.67L191.81,500.37L192.45,488.63L193.74,474.24L194.38,476.08L195.02,495.11L195.66,485.53L196.3,493.3L196.94,465.52L198.23,493.88L198.87,481.29L199.51,478.55L200.15,443.15L200.79,489L201.43,481.22L202.08,497.01L202.72,486.62L203.36,508.42L204,519.01L204.64,484.66L205.28,500.68L205.92,486.61L206.57,482.96L207.21,418.83L207.85,493.91L208.49,472.98L209.13,472.03L209.77,524.23L211.06,497.03L211.7,505.61L212.34,494.52L212.98,502.47L213.62,487.86L214.26,494.24L214.91,445.41L215.55,450.63L216.19,492.97L217.47,470.85L218.11,474.62L218.75,516.68L219.4,420.99L220.04,488.72L220.68,487.41L221.32,480.32L221.96,501.65L222.6,468.32L223.89,484.77L224.53,473.74L225.17,406.31L225.81,472.89L226.45,511.21L227.09,470.7L228.38,493.26L229.02,437.91L229.66,485.58L230.3,458.72L230.94,498.91L231.58,498.41L232.23,515.15L233.51,425.75L234.15,434.47L235.43,499.35L236.08,481.89L236.72,462.66L237.36,507.04L238.64,484.59L239.28,486.08L239.92,485.55L240.57,468.32L242.49,483.66L243.13,346.37L244.42,492.33L245.06,484.18L245.7,450.52L246.34,497.63L246.98,496.02L247.62,489.65L248.26,480.57L248.91,490.76L249.55,488.33L250.19,489.26L251.47,515.87L252.11,488.38L252.75,492.54L253.4,515.39L254.04,475.06L254.68,487.97L255.32,481.32L255.96,484.83L257.25,484.23L257.89,482.93L258.53,476.14L259.17,442.26L260.45,509.07L261.09,480.8L261.74,497.15L262.38,445.97L263.02,470.89L263.66,457.04L264.3,497.04L264.94,481.29L265.58,482.68L266.23,452.17L266.87,444.09L267.51,481.47L268.15,500.13L268.79,490.55L269.43,478.1L270.08,508.99L270.72,496.95L271.36,504.7L272,515.42L272.64,513.19L273.92,475.13L274.57,394.74L275.85,508.87L276.49,491.37L277.13,521.02L277.77,503.43L278.42,495.93L279.06,508.3L280.98,470.56L281.62,472.76L283.55,506.37L284.19,479.81L284.83,496.37L285.47,461.59L286.75,511.08L287.4,476.02L288.68,517.77L289.32,496.43L290.6,476.52L291.25,507.27L291.89,500.34L292.53,471.54L293.17,509.97L293.81,460.29L294.45,467.4L295.09,491.18L295.74,469.28L296.38,518.68L298.3,477.14L298.94,497.39L300.87,510.76L301.51,478.66L302.15,485.63L302.79,438.8L303.43,421.92L304.08,497.95L304.72,494.75L305.36,501.29L306,492.6L306.64,456.32L307.92,522.4L308.57,496.47L309.21,508.4L309.85,491.87L310.49,477.82L311.13,502.95L311.77,499.72L312.42,511.2L313.06,455.54L313.7,487.08L314.34,464.56L314.98,503.87L315.62,506.61L316.26,488.29L316.91,485.24L317.55,501.35L319.47,469.05L320.11,511.54L320.75,490.42L321.4,494.86L322.68,505.76L323.32,463.01L323.96,496.94L324.6,487.79L325.25,493.44L325.89,482.89L327.17,501.08L327.81,501.74L328.45,479.14L329.09,482L329.74,497.64L331.02,490.24L331.66,508.45L332.94,468.54L333.58,484.39L334.87,506.61L335.51,486.91L336.15,504.65L336.79,457.58L337.43,498.36L338.08,476.55L338.72,520.93L339.36,484.47L340,505.22L340.64,500.94L341.28,490.32L341.92,507.89L342.57,484.85L343.21,515.23L343.85,510.1L344.49,497.23L345.13,508.2L345.77,493.34L347.06,456.15L347.7,502.58L348.34,502.39L348.98,504.37L349.62,455.41L350.26,511.05L350.91,511.79L351.55,518.87L352.19,512.93L352.83,487.8L355.4,501.97L356.04,493.78L356.68,495.75L357.32,484.15L358.6,503.34L359.25,498.77L361.17,487.13L361.81,510.75L362.45,481.16L363.09,506.63L364.38,475.12L365.02,489.38L365.66,506.38L366.3,484.72L366.94,478.93L367.58,493.4L368.23,494.67L368.87,490.57L369.51,476.09L370.15,428.65L370.79,492.69L371.43,492.6L372.08,494.08L372.72,509.15L373.36,467.56L374,504.18L374.64,484.15L375.28,518.79L375.92,493.08L376.57,498.82L377.21,511.34L378.49,484.6L379.13,507.67L379.77,514.72L380.42,493.92L381.7,447.53L382.34,501.32L382.98,517.18L383.62,492.78L384.26,470.75L384.91,495.71L385.55,508.76L386.19,508.01L386.83,494.57L387.47,505.21L388.11,495.46L388.75,490.73L389.4,500.59L390.04,490.56L390.68,508.03L391.32,499.36L391.96,507.98L392.6,470.48L393.25,490.17L394.53,518.71L395.17,476.37L395.81,499.57L396.45,498.04L397.09,504.97L397.74,498.6L398.38,507.54L399.66,482.11L400.3,512.65L400.94,512.64L401.58,488.13L402.23,493.4L402.87,521.99L403.51,491.59L404.15,509.71L404.79,473.23L405.43,488.61L406.72,517.63L407.36,463.91L408,530.74L408.64,488.32L409.28,495L409.92,459.69L410.57,509.78L411.21,508.77L411.85,493.3L413.13,516.67L413.77,514.49L415.06,479.68L415.7,513.45L416.34,481.64L416.98,498.5L417.62,463.65L418.26,484.05L418.91,510.08L419.55,488.61L420.19,503.98L420.83,476.31L421.47,482.13L422.11,478.74L423.4,508.28L424.04,475.93L424.68,505.3L425.32,449.88L425.96,522.64L426.6,507.93L427.25,490.06L427.89,491.64L428.53,504.36L429.17,469.7L429.81,503.7L430.45,505.31L431.09,495.05L431.74,463.43L432.38,493.57L433.02,505.88L433.66,494.72L434.3,499.84L434.94,517.97L436.23,478.67L436.87,507.67L437.51,498.09L438.15,501.23L438.79,493.91L439.43,507.91L440.08,521.63L440.72,456.74L441.36,516.13L442,458.7L443.28,508.45L443.92,493.77L444.57,452.04L445.21,490.59L445.85,492.9L446.49,514.08L448.42,470.48L449.06,482.58L450.34,494.13L450.98,478.72L452.26,512.39L452.91,487.43L453.55,514.45L454.19,459.18L455.47,515.65L456.11,501.05L456.75,513.61L457.4,476.02L458.04,507.55L458.68,504.41L459.32,512.1L459.96,506.99L460.6,495.58L461.25,502.45L461.89,485.06L462.53,487.48L463.17,528.7L463.81,495.56L464.45,500.02L465.09,511.14L465.74,522.38L466.38,498.85L467.02,449.93L467.66,488.93L468.94,501.74L469.58,492.44L470.23,468.33L470.87,489.13L471.51,489.87L472.15,504.08L472.79,520.64L473.43,509.53L474.08,511.76L474.72,501.66L475.36,512.42L476,491.82L477.28,497.67L477.92,486.64L478.57,461.43L479.21,476.48L479.85,512.64L480.49,438.98L481.13,509.37L481.77,500.5L482.42,510.58L483.06,510.18L483.7,504.16L484.34,514.22L484.98,467.32L486.26,504.92L486.91,492.44L488.83,472.62L489.47,492.41L490.75,503.5L491.4,493.53L492.04,501.32L492.68,499.09L493.96,523.79L494.6,506.06L495.89,468.67L496.53,493.24L497.17,474.26L497.81,501.32L498.45,508.52L499.09,539.36L499.74,526.18L500.38,497.39L501.02,500.27L501.66,499.58L502.94,511.85L503.58,28.8L504.87,506.64L505.51,517.13L506.79,508.78L507.43,480.34L508.08,488.38L508.72,473.54L509.36,488.29L510,464.75L511.28,507.57L511.92,480.72L512.57,485.77L513.21,514.88L513.85,508.84L514.49,456.39L515.13,509.78L515.77,488.84L516.42,516.07L517.06,493.56L517.7,510.95L518.34,460.06L520.26,526.55L520.91,491.04L521.55,440.15L522.19,483.74L522.83,521.25L523.47,469.26L524.75,490.13L525.4,498.46L526.04,505.91L526.68,501.71L527.32,519.54L527.96,486.19L528.6,491.74L529.25,507.16L529.89,517.28L530.53,508.33L531.17,508.42L531.81,474.65L533.09,510.86L533.74,489.61L534.38,496L535.02,515.75L535.66,481.98L536.3,486.09L536.94,492.47L537.58,496.72L538.23,489.01L538.87,482.4L539.51,512.28L540.15,511.77L540.79,439.67L542.08,493.61L542.72,497.78L543.36,511.14L544,496.24L544.64,505.81L545.28,496.24L545.92,500.8L546.57,475.4L547.21,508.62L547.85,508.46L548.49,517.16L549.13,488.21L549.77,503.35L550.42,516.52L551.06,495.67L551.7,517.99L552.34,507.25L552.98,512.01L553.62,507.45L554.91,484.89L555.55,505.35L556.19,513.33L556.83,498.84L557.47,496.71L558.11,491.82L559.4,528.76L560.04,485.69L560.68,470.21L561.32,489.6L561.96,487.28L562.6,508.89L563.89,518.05L564.53,489.91L566.45,517.91L567.09,503.14L567.74,499.45L568.38,487.61L569.02,532.01L569.66,491.28L570.3,507.83L570.94,499.05L572.23,515.94L572.87,506.49L574.15,492.69L574.79,508.33L575.43,512.92L576.08,495.61L577.36,510.92L578,514.94L578.64,473.87L579.28,504.89L579.92,503.13L580.57,495.12L581.21,521.22L581.85,511.89L582.49,509.02L583.13,497.28L583.77,512.04L584.42,490.17L585.7,507.14L586.34,509.4L586.98,443L587.62,494.66L588.26,509.19L588.91,401.03L590.19,499.42L590.83,519.17L591.47,518.33L592.11,500.83L592.75,496.12L593.4,521.92L594.04,492.68L594.68,506.98L595.32,385.93L595.96,521.76L597.89,506.45L598.53,493.35L599.17,499.46L599.81,517.95L600.45,498.98L601.09,516.82L601.74,514.02L602.38,475.34L603.66,512.68L604.3,500.1L604.94,502.05L605.58,511.04L606.23,514.89L606.87,507.91L607.51,505.85L608.15,506.97L609.43,441.27L610.08,505.9L610.72,529.4L611.36,518.05L612,488.49L612.64,517.71L613.92,490.39L614.57,522.32L615.85,489.32L616.49,514.67L617.13,491.1L617.77,504.72L618.42,522.2L619.06,505.73L619.7,497.4L620.34,505.32L620.98,497.1L621.62,500.41L622.91,508.76L623.55,507.16L624.19,507.39L624.83,517.05L626.11,468.15L626.75,514.04L627.4,491.78L628.04,494.89L628.68,510.87L630.6,445.96L631.25,518.6L631.89,495.39L632.53,517.25L633.17,505.52L633.81,528.66L634.45,498.65L635.09,513.15L635.74,495.46L636.38,500.53L637.66,516.27L638.3,515.95L638.94,500.45L639.58,492.2L640.23,500.43L640.87,504.57L641.51,515.97L642.15,512.41L642.79,517.89L643.43,467.94L644.08,518.56L644.72,497.56L645.36,500.74L646,493.99L646.64,509.14L647.28,486.69L647.92,483.36L648.57,517.89L649.21,450.8L649.85,489.08L651.77,504.07L652.42,499.96L653.06,501.83L653.7,497.41L654.34,506.84L654.98,505.51L655.62,513.85L656.26,514.3L656.91,509.42L657.55,471.9L658.19,497.41L658.83,498.24L659.47,520.89L660.11,502.5L660.75,525.49L662.68,498.1L663.32,448.01L664.6,506.76L665.25,479.61L666.53,511.05L667.17,483.25L667.81,505.95L668.45,449L669.09,508.47L669.74,483.47L670.38,509.86L671.02,505L671.66,490.88L672.3,525.8L672.94,493.48L673.58,502.54L674.23,477.4L674.87,504.5L675.51,513.38L676.15,507.13L676.79,505.51L677.43,501.64L678.08,507.17L678.72,479.64L680,512.63L680.64,490.32L681.92,512.13L682.57,493.12L683.21,482.17L683.85,518.08L685.13,495.09L685.77,506.03L686.42,516.01L687.06,491.53L688.34,466.39L688.98,508.34L689.62,510.62L690.26,488.75L691.55,513.45L692.19,512.72L692.83,521.9L693.47,491.82L694.11,523.94L694.75,513.12L695.4,527.61L696.04,497.68L696.68,501.39L697.32,515.85L697.96,497.5L698.6,503.33L699.25,508.65L699.89,505.84L700.53,496.87L701.17,500.16L702.45,503.53L703.09,511.16L703.74,488.72L704.38,506.95L705.02,526.76L705.66,502.63L706.94,516.57L707.58,497.7L708.23,500.63L708.87,497.17L710.15,509.42L710.79,445.68L712.08,504.39L712.72,499.2L713.36,503.18L714,475.09L715.28,523.15L715.92,449.88L717.21,512.73L717.85,518.96L718.49,491.67L719.13,509.88L720.42,498.59L721.06,513.5L721.7,490.05L722.34,494.87L723.62,514.63L724.26,497.35L724.91,479.25L725.55,507L726.19,507.57L726.83,485.48L727.47,519.39L728.11,495.28L728.75,491.55L729.4,499.74L730.04,507.84L730.68,485.71L731.32,519.36L731.96,441.27L732.6,500.1L733.25,492.5L733.89,494.27L734.53,497.24L735.17,525.46L735.81,503.38L736.45,504.22L737.09,497.55L737.74,512.17L738.38,443.69L739.66,513.32L740.3,495.51L740.94,484.16L741.58,505.26L742.23,503.87L742.87,497.37L743.51,506.74L744.15,496.48L744.79,518.87L745.43,491.32L746.08,508.48L746.72,498.65L747.36,496.9L748,501.81L748.64,490.63L749.28,457.01L750.57,506.67L751.21,480.27L751.85,505.59L752.49,483.66L753.13,520.11L753.77,517.01L754.42,493.46L755.7,476.59L756.34,500.62L756.98,500.68L757.62,507.9L758.26,468.28L758.91,510.03L759.55,449.85L760.19,489.13L760.83,501.11L761.47,499.19L762.11,500.8L762.75,517.02L763.4,504.73L764.04,475.47L764.68,513.5L765.32,500.35L765.96,508.18L766.6,488L767.25,503.26L767.89,541.58L768.53,500.39L769.17,495.67L769.81,522.7L770.45,498.28L771.09,499.87L771.74,489.52L772.38,486.2L773.02,506.38L773.66,501.71L774.3,444.85L774.94,512.9L775.58,495.26L776.87,515.43L777.51,499.81L778.15,524.76L778.79,503.5L780.08,516.9L780.72,501.62L781.36,516.08L782,508.55L782.64,503.04L783.28,460.91L783.92,518.92L784.57,510.83L785.21,509.28L785.85,509.94L786.49,469.92L787.13,510.26L787.77,503.75L788.42,499.61L789.06,507.16L789.7,494.36L790.34,516.34L790.98,512.25L791.62,493.5L792.26,502.16L792.91,521.36L793.55,518.07L794.19,479.93L794.83,504.37L795.47,510.76L796.11,502.82L796.75,512.39L797.4,504.13L798.04,502.44L798.68,507.22L799.32,495.96L799.96,506.74L800.6,494.86L801.25,519.71L801.89,507.45L802.53,510.23L803.81,490.85L804.45,512.5L805.09,513.02L805.74,475.02L807.02,510.77L807.66,503.46L808.3,520.26L808.94,515.6L809.58,514.98L810.23,503.97L810.87,517.16L811.51,501.44L812.15,494.46L812.79,526.46L813.43,483.48L814.08,499.04L814.72,508.49L815.36,491.11L816,498.65L816.64,524.41L817.28,518.23L817.92,490.75L818.57,502.64L819.21,498.19L819.85,494.46L820.49,509.11L821.13,509.92L821.77,499.5L823.06,504.25L823.7,512.07L824.34,516.75L824.98,515.83L825.62,520.59L826.26,517.37L826.91,491.5L827.55,501.61L828.19,521.41L828.83,505.59L829.47,506.89L830.11,498.48L831.4,480.56L832.04,500.73L832.68,481.89L833.32,507.73L833.96,521.52L834.6,505.64L835.89,514.65L836.53,496.07L837.17,490.09L837.81,492.75L838.45,481.47L839.09,510.13L839.74,517.93L840.38,505.81L841.02,498.48L841.66,506.67L842.94,509.48L843.58,352.93L844.87,515.43L845.51,513.13L846.15,513.04L846.79,472.88L848.08,516.67L848.72,524.19L850,516.85L850.64,516.72L851.28,523.95L851.92,486.18L853.21,512.36L853.85,508.49L855.13,505.52L855.77,508.65L856.42,508.58L857.06,526.41L857.7,508.29L858.34,512.03L858.98,509.96L859.62,499.33L860.26,461.67L860.91,512.4L861.55,503.99L862.19,514.94L862.83,503.34L863.47,508.97L864.11,509.35L864.75,502.79L865.4,512.6L866.04,500.67L866.68,522.89L867.32,514.32L867.96,514.01L868.6,521.75L869.25,507.55L869.89,513.18L870.53,506.06L871.17,517.94L871.81,489.01L872.45,499.91L873.09,501.27L873.74,512.39L874.38,513.03L875.02,516.51L875.66,517.08L876.3,544.89L876.94,502.17L877.58,506.55L878.23,539.39L878.87,460.3L879.51,511.52L881.43,482.85L882.08,510.68L882.72,527.14L883.36,499.13L884.64,510.35L885.28,507.37L885.92,500.83L886.57,514.73L887.21,485.84L887.85,519.35L888.49,511.25L889.13,480.72L889.77,507.07L890.42,462.64L891.7,517.89L892.34,495.16L892.98,472.55L893.62,473.26L894.26,373.05L895.55,508.65L896.19,510.53L896.83,518L897.47,507.47L898.11,495.83L898.75,500.62L899.4,501.6L900.04,523.31L901.32,506.38L901.96,502.17L902.6,429.96L903.25,508.16L903.89,503.01L904.53,505.76L905.17,507.5L905.81,519.4L907.09,484.11L907.74,509.47L909.02,512.24L909.66,502.41L910.3,512.78L910.94,507.57L911.58,474.99L912.23,507.06L913.51,518.03L914.15,518.7L915.43,507.97L916.08,492.25L916.72,508.41L917.36,491.47L918.64,501.87L919.28,501.22L919.92,496.41L920.57,483.87L921.21,488.8L921.85,515.51L922.49,519.21L923.13,490.13L923.77,499.65L924.42,524.61L925.06,481.34L925.7,501.38L926.34,521.66L926.98,512.33L928.26,524.53L928.91,509.31L929.55,478.71L930.19,486.14L930.83,516.16L931.47,483.77L932.75,516.45L933.4,520.34L934.04,499.61L934.68,516.72L935.32,504.51L935.96,510.85L936.6,511.16L937.25,501.04L938.53,515.12L939.17,508.69L939.81,497.66L940.45,498.32L941.09,494.19L941.74,507.66L942.38,489.71L943.02,479.34L943.66,486.14L944.3,507.98L944.94,497.01L946.87,520.6L947.51,504.12L948.15,495.11L948.79,505.5L949.43,502.27L950.08,515.36L950.72,486.98L951.36,512.74L952.64,500.65L953.28,507.55L953.92,506.41L954.57,511.78L955.21,519.92L955.85,505.71L956.49,490.79L957.13,493.21L957.77,509.76L958.42,467.37L959.06,516.01L959.7,528.09L960.34,521.62L961.62,494.65L962.26,518.58L962.91,537.1L963.55,515.95L964.19,514.59L964.83,508.33L965.47,501.74L966.11,516.42L966.75,522.21L967.4,508.73L968.04,502.23L968.68,523.45L969.32,501.74L969.96,537.56L970.6,484.93L971.25,496.5L971.89,514.61L972.53,493.58L973.17,509.17L973.81,489.33L975.09,500.02L975.74,497.78L976.38,506.62L977.02,506.06L977.66,511.73L978.94,505.91L979.58,514.03L980.23,503.84L980.87,518.47L981.51,507.12L982.15,512.73L983.43,516.87L984.08,509.26L985.36,519.45L986,494.2L987.28,516.88L987.92,497.23L988.57,499L989.21,525.51L991.13,510.28L991.77,515.06L993.7,497.54L994.34,510.12L994.98,492.85L995.62,503.48L996.91,518.42L997.55,489.38L998.19,515.41L998.83,504.49L999.47,506.37L1000.11,514.26L1001.4,502.27L1002.04,515.41L1002.68,511.8L1003.32,521.35L1004.6,496.42L1005.25,521.39L1005.89,511.09L1006.53,470.88L1007.81,515.15L1008.45,493.95L1009.09,500.6L1009.74,523.22L1010.38,497.86L1011.02,499.13L1011.66,504.97L1012.94,509.35L1013.58,504.78L1014.23,513.52L1014.87,510.7L1015.51,500.67L1016.15,517.4L1016.79,509.31L1017.43,521.39L1018.08,490.3L1018.72,528.26L1020,503.82L1020.64,507.88L1021.28,506.57L1021.92,511.45L1022.57,514.01L1023.21,497.06L1023.85,514.74L1024.49,502.97L1025.13,502.14L1025.77,510.92L1026.42,512.77L1027.06,503.16L1027.7,503.77L1028.34,486.14L1028.98,504.2L1029.62,493.04L1030.26,510.2L1030.91,508.97L1031.55,502.44L1032.19,499.1L1032.83,520.48L1033.47,498.27L1034.11,504.09L1034.75,488.92L1035.4,511.56L1036.04,510.76L1036.68,499.92L1037.96,513.4L1038.6,515.85L1039.25,513.54L1039.89,492.43L1040.53,520.55L1041.17,511.4L1041.81,496.2L1042.45,504.9L1043.74,527.07L1044.38,489.43L1045.02,530.89L1045.66,506.36L1046.3,500.14L1046.94,506.96L1048.23,515.33L1048.87,493.48L1050.15,516.68L1050.79,472.06L1051.43,503.52L1052.08,489.47L1052.72,519.05L1053.36,504.44L1054,504.6L1054.64,497.69L1055.28,514.54L1055.92,502.22L1056.57,495.27L1057.21,514.97L1057.85,514.18L1058.49,497.32L1059.13,491.89L1059.77,510.19L1060.42,517.5L1061.06,495.53L1062.34,525.61L1062.98,510.63L1063.62,514.73L1064.26,503.89L1064.91,481.25L1065.55,508.68L1066.19,491.5L1066.83,504.9L1067.47,526.33L1068.11,484.3L1068.75,497.57L1069.4,494.6L1070.68,514.24L1071.32,511.3L1071.96,505.1L1072.6,523.92L1073.25,487.82L1073.89,498.75L1075.17,533.14L1075.81,508.95L1076.45,496.13L1077.09,515.49L1077.74,503.02L1078.38,511.49L1079.66,503.44L1080.3,522.12L1080.94,513.89L1081.58,529.28L1083.51,497.17L1084.15,504.82L1084.79,488.59L1085.43,510.84L1086.08,515.03L1086.72,507.37L1087.36,510.56L1088,507.44L1088.64,503.82L1089.28,511.27L1089.92,499.71L1090.57,516.43L1091.85,510.79L1092.49,502.05L1093.77,485.37L1094.42,502.69L1095.06,519.06L1095.7,508.83L1096.34,505.92L1096.98,513.95L1097.62,521.83L1098.26,519.55L1098.91,511.04L1099.55,533.08L1100.83,487.01L1101.47,513.4L1102.11,519.18L1102.75,510.58L1103.4,497.6L1104.04,521.37L1105.32,499.6L1105.96,513.87L1109.17,500.9L1109.81,509.21L1111.09,498.03L1111.74,513.99L1112.38,511.7L1113.02,517.45L1113.66,514.4L1114.3,522.95L1114.94,517.91L1115.58,496.72L1116.23,510.13L1116.87,477.1L1117.51,509.06L1118.15,505.86L1118.79,503.38L1119.43,519.52L1120.08,502.39L1120.72,498.78L1121.36,505.27L1122,509.58L1122.64,504.98L1123.28,498.13L1123.92,507.18L1124.57,499.21L1125.21,522.77L1125.85,510.22L1126.49,515.23L1127.13,516.82L1127.77,497.71L1128.42,505.76L1129.06,484.46L1130.34,522.23L1130.98,500L1131.62,510.67L1132.26,492.5L1132.91,517.66L1133.55,499.81L1134.83,515.48L1135.47,498.8L1136.75,501.44L1137.4,515.53L1138.68,492.2L1139.32,519.68L1139.96,528.87L1140.6,511.99L1141.25,511.39L1141.89,494.84L1142.53,500.76L1143.17,514.27L1143.81,491.87L1144.45,518.42L1145.09,477.89L1145.74,505.97L1147.02,534.51L1147.66,506.12L1148.3,490.88L1148.94,512.1L1149.58,508.43L1150.23,512.95L1150.87,521.9L1151.51,513.69L1152.15,510.31L1152.79,482.91L1155.36,528.94L1156,509.76L1156.64,508.59L1157.28,516.43L1157.92,515.77L1158.57,500.66L1159.21,528.56L1159.85,493.64L1161.13,521.34L1161.77,498.48L1163.06,523.17L1163.7,502.53L1164.34,508.58L1164.98,503.63L1166.26,512.89L1166.91,474.44L1167.55,511.94L1168.19,504.13L1168.83,502.72L1169.47,511.65L1170.75,517.54L1171.4,497.54L1172.04,514.75L1172.68,505.8L1173.32,514.11L1173.96,500.31L1174.6,516.21L1175.25,505.64L1175.89,509.18L1176.53,487.73L1177.81,522.09L1178.45,504.57L1179.09,484.91L1179.74,508.44L1180.38,510.19L1181.02,507.97L1181.66,494.08L1182.3,501.63L1183.58,521.41L1184.23,518.52L1185.51,502.58L1186.15,502.7L1186.79,518.86L1187.43,519.39L1188.08,503.39L1188.72,518.85L1189.36,509.28L1190,503.54L1190.64,525.46L1191.92,495.8L1192.57,510.14L1193.85,518.97L1194.49,511.53L1195.13,521.83L1195.77,515.77L1196.42,518.23L1197.06,485.65L1197.7,514.52L1198.34,478.09L1199.62,515.75L1200.26,511.06L1200.91,523.2L1201.55,508.36L1202.19,506.83L1202.83,525.14L1204.11,508.79L1204.75,511.24L1205.4,504.99L1206.04,525.67L1206.68,505.36L1207.32,507.57L1207.96,489.16L1208.6,510.79L1209.25,491.85L1209.89,505.44L1210.53,502.15L1211.17,503.71L1211.81,516.79L1212.45,499.75L1213.09,510.6L1214.38,491.69L1215.02,492.98L1215.66,527.59L1216.3,488.6L1216.94,484.94L1217.58,519.15L1218.23,528.72L1218.87,502.86L1219.51,517.58L1220.15,514.54L1220.79,517.63L1221.43,494.08L1222.72,513.35L1223.36,512.06L1224,510.3L1224.64,471.87L1225.28,477.41L1225.92,508.57L1226.57,493.44L1227.21,506.48L1229.13,529.08L1229.77,508.68L1230.42,512.25L1231.06,521.81L1232.34,498.77L1232.98,504.06L1233.62,521.88L1234.26,500.06L1234.91,500.36L1235.55,504.17L1236.19,505.1L1236.83,521.38L1237.47,518.91L1238.11,524.33L1238.75,518.47L1239.4,503.96L1240.04,503.68L1240.68,508.65L1241.32,509.35L1241.96,525.04L1242.6,511.44L1243.25,460.67L1243.89,519.05L1244.53,506.82L1245.17,503.68L1245.81,505.57L1246.45,511L1247.09,501.78L1248.38,517.47L1249.02,509.37L1250.3,498.92L1250.94,488.06L1252.23,518.16L1252.87,495.15L1254.15,504.82L1254.79,501.82L1255.43,513.9L1256.08,504.02L1256.72,504.39L1257.36,512.51L1258,511.38L1258.64,518.95L1259.92,512.75L1260.57,484.04L1261.21,528.21L1261.85,516.13L1262.49,500.82L1263.13,514.67L1263.77,481.02L1264.42,503.45L1265.06,504.83L1265.7,532.44L1266.98,493.72L1267.62,518.04L1268.26,509.4L1268.91,511.35L1269.55,506.68L1270.19,508.75L1270.83,517.35L1271.47,515.02L1272.11,524.01L1272.75,509.87L1273.4,478.96L1274.04,526.57L1275.32,497.08L1275.96,512.81L1276.6,517.25L1277.25,511.54L1277.89,509.82L1278.53,501.8L1279.17,526.44L1279.81,519.06L1280.45,518.01L1281.09,494.92L1281.74,519.49L1282.38,509.02L1283.66,500.11L1284.3,506.6L1284.94,499.85L1285.58,519.9L1286.23,519.39L1286.87,532.13L1287.51,500.72L1288.15,517.28L1288.79,513.9L1289.43,502.4L1290.08,527.57L1290.72,508.34L1291.36,518.64L1292,511.33L1292.64,510.46L1293.28,518.01L1293.92,503.47L1294.57,512.74L1295.21,516.66L1295.85,515.02L1296.49,491.53L1297.13,522.58L1298.42,509.55L1299.06,520.41L1299.7,511.55L1300.34,513.43L1300.98,518.81L1301.62,494.9L1302.26,515.17L1302.91,502.36L1303.55,509.92L1304.19,493.71L1304.83,514.37L1305.47,511.35L1306.11,511.96L1306.75,515.92L1307.4,498.65L1308.68,518.83L1309.32,506.55L1309.96,519.43L1310.6,505.42L1312.53,531.24L1313.17,495.13L1313.81,513.25L1314.45,503.6L1315.09,489.04L1315.74,512.12L1317.02,523.63L1317.66,505.5L1318.3,526.27L1318.94,514.23L1319.58,517.69L1320.23,512.48L1320.87,520.35L1321.51,512.62L1322.15,509.52L1322.79,510.7L1323.43,522.12L1324.08,496.4L1324.72,517.29L1325.36,509.38L1326,517.83L1326.64,514.76L1327.28,496.21L1327.92,516.05L1328.57,514.96L1329.21,521.25L1329.85,494.1L1330.49,514.73L1331.13,520.34L1331.77,516.03L1333.06,504.86L1333.7,515.15L1334.34,503.81L1334.98,511.32L1335.62,509.39L1336.26,516.56L1336.91,509.21L1337.55,524.13L1338.19,500.38L1338.83,530.04L1340.11,496L1340.75,513.26L1341.4,508.92L1342.04,511.03L1342.68,489.87L1343.32,507.18L1343.96,497.92L1344.6,509.5L1345.25,516.96L1345.89,490.49L1346.53,502.67L1347.17,495.16L1347.81,526.06L1348.45,502.08L1349.09,547.2L1349.74,490.61L1351.02,515.12L1351.66,489.83L1352.94,516.18L1353.58,513.05L1354.23,507.45L1354.87,521.51L1355.51,504.49L1356.15,524.46L1356.79,513.13L1357.43,523.7L1358.08,503.88L1358.72,511.86L1360,523.59L1360.64,515.48L1361.28,515.04L1361.92,496.19L1363.21,511.77L1363.85,506.19L1364.49,519.02L1365.13,500.94L1365.77,517.79L1366.42,511.99L1367.06,504.16L1367.7,472.61L1368.98,508.06L1369.62,508.1L1370.91,522.93L1371.55,517.38L1373.47,492.31L1374.11,530.05L1374.75,505.25L1375.4,517.89L1376.68,494.69L1377.32,506.14L1379.89,521.46L1380.53,511.51L1381.17,525.66L1381.81,519.2L1382.45,505.46L1383.09,519.61L1384.38,504.98L1385.02,509.9L1385.66,498.89L1386.3,531.08L1386.94,486.67L1387.58,506.77L1388.23,515.41L1388.87,512.15L1389.51,523.99L1390.15,511.13L1391.43,514L1392.08,520.8L1392.72,515.18L1393.36,518.12L1394,516.73L1394.64,513.01L1395.28,500.58L1395.92,510.72L1396.57,500.76L1397.21,502.51L1398.49,498.91L1399.13,511.05L1399.77,513.14L1400.42,525.15L1401.7,501.62L1402.34,522.33L1402.98,503.05L1403.62,511.7L1404.26,511.73L1404.91,515.83L1405.55,519.37L1406.19,508.27L1406.83,508.45L1407.47,511.98L1408.11,494.86L1408.75,507.08L1409.4,520.31L1410.04,510.39L1410.68,516.51L1411.32,512.35L1411.96,507.22L1412.6,524.09L1413.89,490.91L1414.53,510.67L1415.17,510.48L1415.81,517.34L1417.09,499.9L1417.74,514.9L1418.38,513.43L1419.02,522.83L1420.3,504.57L1420.94,508.93L1421.58,501.62L1422.23,509.71L1422.87,545.69L1423.51,515.88L1424.15,503.99L1424.79,514.72L1425.43,509.36L1426.08,516.33L1426.72,523.47L1427.36,504.21L1428,503.07L1428.64,521.64L1429.28,490L1429.92,508.54L1430.57,517.58L1431.21,513.39L1431.85,521.97L1432.49,502.06L1433.13,504.1L1433.77,522.04L1434.42,512.6L1435.06,517.81L1435.7,516.7L1436.34,517.72L1437.62,503.6L1438.26,512.39L1438.91,488.83L1439.55,509.84L1440.19,510.29L1440.83,518.78L1441.47,514.88L1442.11,517.05L1442.75,499.22L1443.4,511.74L1444.04,507.33L1444.68,514.39L1445.96,498.43L1446.6,486.64L1447.89,523.08L1448.53,507.89L1449.81,515.69L1450.45,491.55L1451.09,521.16L1451.74,511.09L1452.38,505.39L1453.02,508.96L1453.66,505.64L1454.3,509.44L1454.94,507.26L1455.58,519.86L1456.23,500.22L1456.87,510.86L1457.51,490.86L1458.15,512.75L1458.79,494.64L1459.43,515.41L1460.08,490.26L1460.72,543.69L1462,503.9L1462.64,495.39L1464.57,515.4L1465.21,508.07L1465.85,481.39L1466.49,493.35L1467.77,517.44L1468.42,501.47L1469.06,505.36L1469.7,497.94L1471.62,526.44L1472.26,495.02L1472.91,506.05L1473.55,501.52L1474.83,515.41L1475.47,517.06L1476.11,514.72L1476.75,515.87L1478.04,503.01L1478.68,511.73L1479.32,536.48L1479.96,501.75L1480.6,515.64L1481.25,506.9L1481.89,501.35L1482.53,503.24L1483.17,492.32L1483.81,510.17L1484.45,512.4L1485.09,508.83L1485.74,526.53L1486.38,516.07L1487.02,505.94L1487.66,518.39L1488.94,495.51L1489.58,512L1490.23,500.96L1490.87,519.25L1491.51,504.44L1492.15,520.34L1492.79,518.87L1493.43,512.01L1494.08,495.83L1494.72,520.9L1495.36,502.58L1496,510.14L1496.64,508.85L1497.28,502.25L1497.92,497.92L1498.57,514.38L1499.85,503.32L1500.49,487.7L1501.77,503.06L1502.42,504.09L1503.06,512.78L1503.7,511.21L1504.34,503.71L1504.98,508.14L1505.62,529.08L1506.26,496.13L1506.91,511.62L1507.55,504.56L1508.19,494.95L1508.83,506.92L1509.47,513.78L1510.11,504.94L1511.4,519.32L1512.04,506.83L1512.68,520.1L1513.32,514.93L1514.6,501.54L1515.25,499.66L1515.89,522.74L1516.53,494.82L1517.17,505.82L1517.81,492L1518.45,513.54L1519.09,503.65L1520.38,517.99L1521.02,504.16L1521.66,516.94L1522.3,485.58L1523.58,523.87L1524.23,513.01L1525.51,515.61L1526.15,509.06L1526.79,493.59L1527.43,503.55L1529.36,522.9L1530,514.72" style="vector-effect: non-scaling-stroke; fill: none; stroke: rgb(44, 160, 44); stroke-opacity: 1; stroke-width: 2px; opacity: 1;"/></g><g class="points"/><g class="text"/></g></g></g><g class="overplot"/><path class="xlines-above crisp" d="M0,0" style="fill: none;"/><path class="ylines-above crisp" d="M0,0" style="fill: none;"/><g class="overlines-above"/><g class="xaxislayer-above"><g class="xtick"><text text-anchor="middle" x="0" y="649" transform="translate(204.77,0)" style="font-family: 'Open Sans', verdana, arial, sans-serif; font-size: 12px; fill: rgb(68, 68, 68); fill-opacity: 1; white-space: pre; opacity: 1;">20</text></g><g class="xtick"><text text-anchor="middle" x="0" y="649" style="font-family: 'Open Sans', verdana, arial, sans-serif; font-size: 12px; fill: rgb(68, 68, 68); fill-opacity: 1; white-space: pre; opacity: 1;" transform="translate(357.83,0)">40</text></g><g class="xtick"><text text-anchor="middle" x="0" y="649" style="font-family: 'Open Sans', verdana, arial, sans-serif; font-size: 12px; fill: rgb(68, 68, 68); fill-opacity: 1; white-space: pre; opacity: 1;" transform="translate(510.9,0)">60</text></g><g class="xtick"><text text-anchor="middle" x="0" y="649" style="font-family: 'Open Sans', verdana, arial, sans-serif; font-size: 12px; fill: rgb(68, 68, 68); fill-opacity: 1; white-space: pre; opacity: 1;" transform="translate(663.96,0)">80</text></g><g class="xtick"><text text-anchor="middle" x="0" y="649" style="font-family: 'Open Sans', verdana, arial, sans-serif; font-size: 12px; fill: rgb(68, 68, 68); fill-opacity: 1; white-space: pre; opacity: 1;" transform="translate(817.03,0)">100</text></g><g class="xtick"><text text-anchor="middle" x="0" y="649" style="font-family: 'Open Sans', verdana, arial, sans-serif; font-size: 12px; fill: rgb(68, 68, 68); fill-opacity: 1; white-space: pre; opacity: 1;" transform="translate(970.09,0)">120</text></g><g class="xtick"><text text-anchor="middle" x="0" y="649" style="font-family: 'Open Sans', verdana, arial, sans-serif; font-size: 12px; fill: rgb(68, 68, 68); fill-opacity: 1; white-space: pre; opacity: 1;" transform="translate(1123.15,0)">140</text></g><g class="xtick"><text text-anchor="middle" x="0" y="649" style="font-family: 'Open Sans', verdana, arial, sans-serif; font-size: 12px; fill: rgb(68, 68, 68); fill-opacity: 1; white-space: pre; opacity: 1;" transform="translate(1276.22,0)">160</text></g><g class="xtick"><text text-anchor="middle" x="0" y="649" style="font-family: 'Open Sans', verdana, arial, sans-serif; font-size: 12px; fill: rgb(68, 68, 68); fill-opacity: 1; white-space: pre; opacity: 1;" transform="translate(1429.28,0)">180</text></g><g class="xtick"><text text-anchor="middle" x="0" y="649" style="font-family: 'Open Sans', verdana, arial, sans-serif; font-size: 12px; fill: rgb(68, 68, 68); fill-opacity: 1; white-space: pre; opacity: 1;" transform="translate(1582.35,0)">200</text></g></g><g class="yaxislayer-above"><g class="ytick"><text text-anchor="end" x="59" y="4.199999999999999" transform="translate(0,532.3399999999999)" style="font-family: 'Open Sans', verdana, arial, sans-serif; font-size: 12px; fill: rgb(68, 68, 68); fill-opacity: 1; white-space: pre; opacity: 1;">0.5</text></g><g class="ytick"><text text-anchor="end" x="59" y="4.199999999999999" style="font-family: 'Open Sans', verdana, arial, sans-serif; font-size: 12px; fill: rgb(68, 68, 68); fill-opacity: 1; white-space: pre; opacity: 1;" transform="translate(0,427.34)">1</text></g><g class="ytick"><text text-anchor="end" x="59" y="4.199999999999999" style="font-family: 'Open Sans', verdana, arial, sans-serif; font-size: 12px; fill: rgb(68, 68, 68); fill-opacity: 1; white-space: pre; opacity: 1;" transform="translate(0,322.33)">1.5</text></g><g class="ytick"><text text-anchor="end" x="59" y="4.199999999999999" style="font-family: 'Open Sans', verdana, arial, sans-serif; font-size: 12px; fill: rgb(68, 68, 68); fill-opacity: 1; white-space: pre; opacity: 1;" transform="translate(0,217.33)">2</text></g><g class="ytick"><text text-anchor="end" x="59" y="4.199999999999999" style="font-family: 'Open Sans', verdana, arial, sans-serif; font-size: 12px; fill: rgb(68, 68, 68); fill-opacity: 1; white-space: pre; opacity: 1;" transform="translate(0,112.32)">2.5</text></g></g><g class="overaxes-above"/></g></g><g class="polarlayer"/><g class="smithlayer"/><g class="ternarylayer"/><g class="geolayer"/><g class="funnelarealayer"/><g class="pielayer"/><g class="iciclelayer"/><g class="treemaplayer"/><g class="sunburstlayer"/><g class="glimages"/><defs id="topdefs-f3ad58"><g class="clips"/><clipPath id="legendf3ad58"><rect width="88" height="162" x="0" y="0"/></clipPath></defs><g class="layer-above"><g class="imagelayer"/><g class="shapelayer"/></g><g class="infolayer"><g class="legend" pointer-events="all" transform="translate(1620.6000000000001,60)"><rect class="bg" shape-rendering="crispEdges" width="88" height="162" x="0" y="0" style="stroke: rgb(68, 68, 68); stroke-opacity: 1; fill: rgb(255, 255, 255); fill-opacity: 1; stroke-width: 0px;"/><g class="scrollbox" transform="" clip-path="url(#legendf3ad58)"><g class="groups"><g class="traces" transform="translate(0,14.5)" style="opacity: 0.5;"><text class="legendtext" text-anchor="start" x="40" y="4.680000000000001" style="font-family: 'Open Sans', verdana, arial, sans-serif; font-size: 12px; fill: rgb(68, 68, 68); fill-opacity: 1; white-space: pre;">D_A</text><g class="layers" style="opacity: 1;"><g class="legendfill"/><g class="legendlines"><path class="js-line" d="M5,0h30" style="fill: none; stroke: rgb(31, 119, 180); stroke-opacity: 1; stroke-width: 2px;"/></g><g class="legendsymbols"><g class="legendpoints"/></g></g><rect class="legendtoggle" x="0" y="-9.5" width="82.54679107666016" height="19" style="fill: rgb(0, 0, 0); fill-opacity: 0;"/></g><g class="traces" transform="translate(0,33.5)" style="opacity: 0.5;"><text class="legendtext" text-anchor="start" x="40" y="4.680000000000001" style="font-family: 'Open Sans', verdana, arial, sans-serif; font-size: 12px; fill: rgb(68, 68, 68); fill-opacity: 1; white-space: pre;">G_A</text><g class="layers" style="opacity: 1;"><g class="legendfill"/><g class="legendlines"><path class="js-line" d="M5,0h30" style="fill: none; stroke: rgb(255, 127, 14); stroke-opacity: 1; stroke-width: 2px;"/></g><g class="legendsymbols"><g class="legendpoints"/></g></g><rect class="legendtoggle" x="0" y="-9.5" width="82.54679107666016" height="19" style="fill: rgb(0, 0, 0); fill-opacity: 0;"/></g><g class="traces" transform="translate(0,52.5)" style="opacity: 1;"><text class="legendtext" text-anchor="start" x="40" y="4.680000000000001" style="font-family: 'Open Sans', verdana, arial, sans-serif; font-size: 12px; fill: rgb(68, 68, 68); fill-opacity: 1; white-space: pre;">cycle_A</text><g class="layers" style="opacity: 1;"><g class="legendfill"/><g class="legendlines"><path class="js-line" d="M5,0h30" style="fill: none; stroke: rgb(44, 160, 44); stroke-opacity: 1; stroke-width: 2px;"/></g><g class="legendsymbols"><g class="legendpoints"/></g></g><rect class="legendtoggle" x="0" y="-9.5" width="82.54679107666016" height="19" style="fill: rgb(0, 0, 0); fill-opacity: 0;"/></g><g class="traces" transform="translate(0,71.5)" style="opacity: 0.5;"><text class="legendtext" text-anchor="start" x="40" y="4.680000000000001" style="font-family: 'Open Sans', verdana, arial, sans-serif; font-size: 12px; fill: rgb(68, 68, 68); fill-opacity: 1; white-space: pre;">idt_A</text><g class="layers" style="opacity: 1;"><g class="legendfill"/><g class="legendlines"><path class="js-line" d="M5,0h30" style="fill: none; stroke: rgb(214, 39, 40); stroke-opacity: 1; stroke-width: 2px;"/></g><g class="legendsymbols"><g class="legendpoints"/></g></g><rect class="legendtoggle" x="0" y="-9.5" width="82.54679107666016" height="19" style="fill: rgb(0, 0, 0); fill-opacity: 0;"/></g><g class="traces" transform="translate(0,90.5)" style="opacity: 0.5;"><text class="legendtext" text-anchor="start" x="40" y="4.680000000000001" style="font-family: 'Open Sans', verdana, arial, sans-serif; font-size: 12px; fill: rgb(68, 68, 68); fill-opacity: 1; white-space: pre;">D_B</text><g class="layers" style="opacity: 1;"><g class="legendfill"/><g class="legendlines"><path class="js-line" d="M5,0h30" style="fill: none; stroke: rgb(148, 103, 189); stroke-opacity: 1; stroke-width: 2px;"/></g><g class="legendsymbols"><g class="legendpoints"/></g></g><rect class="legendtoggle" x="0" y="-9.5" width="82.54679107666016" height="19" style="fill: rgb(0, 0, 0); fill-opacity: 0;"/></g><g class="traces" transform="translate(0,109.5)" style="opacity: 0.5;"><text class="legendtext" text-anchor="start" x="40" y="4.680000000000001" style="font-family: 'Open Sans', verdana, arial, sans-serif; font-size: 12px; fill: rgb(68, 68, 68); fill-opacity: 1; white-space: pre;">G_B</text><g class="layers" style="opacity: 1;"><g class="legendfill"/><g class="legendlines"><path class="js-line" d="M5,0h30" style="fill: none; stroke: rgb(140, 86, 75); stroke-opacity: 1; stroke-width: 2px;"/></g><g class="legendsymbols"><g class="legendpoints"/></g></g><rect class="legendtoggle" x="0" y="-9.5" width="82.54679107666016" height="19" style="fill: rgb(0, 0, 0); fill-opacity: 0;"/></g><g class="traces" transform="translate(0,128.5)" style="opacity: 0.5;"><text class="legendtext" text-anchor="start" x="40" y="4.680000000000001" style="font-family: 'Open Sans', verdana, arial, sans-serif; font-size: 12px; fill: rgb(68, 68, 68); fill-opacity: 1; white-space: pre;">cycle_B</text><g class="layers" style="opacity: 1;"><g class="legendfill"/><g class="legendlines"><path class="js-line" d="M5,0h30" style="fill: none; stroke: rgb(227, 119, 194); stroke-opacity: 1; stroke-width: 2px;"/></g><g class="legendsymbols"><g class="legendpoints"/></g></g><rect class="legendtoggle" x="0" y="-9.5" width="82.54679107666016" height="19" style="fill: rgb(0, 0, 0); fill-opacity: 0;"/></g><g class="traces" transform="translate(0,147.5)" style="opacity: 0.5;"><text class="legendtext" text-anchor="start" x="40" y="4.680000000000001" style="font-family: 'Open Sans', verdana, arial, sans-serif; font-size: 12px; fill: rgb(68, 68, 68); fill-opacity: 1; white-space: pre;">idt_B</text><g class="layers" style="opacity: 1;"><g class="legendfill"/><g class="legendlines"><path class="js-line" d="M5,0h30" style="fill: none; stroke: rgb(127, 127, 127); stroke-opacity: 1; stroke-width: 2px;"/></g><g class="legendsymbols"><g class="legendpoints"/></g></g><rect class="legendtoggle" x="0" y="-9.5" width="82.54679107666016" height="19" style="fill: rgb(0, 0, 0); fill-opacity: 0;"/></g></g></g><rect class="scrollbar" rx="20" ry="3" width="0" height="0" x="0" y="0" style="fill: rgb(128, 139, 164); fill-opacity: 1;"/></g><g class="g-gtitle"><text class="gtitle" x="860.5" y="30" text-anchor="middle" dy="0em" style="font-family: 'Open Sans', verdana, arial, sans-serif; font-size: 17px; fill: rgb(68, 68, 68); opacity: 1; font-weight: normal; white-space: pre;">cleanDataTrain loss over time</text></g><g class="g-xtitle"><text class="xtitle" x="825" y="688" text-anchor="middle" style="font-family: 'Open Sans', verdana, arial, sans-serif; font-size: 14px; fill: rgb(68, 68, 68); opacity: 1; font-weight: normal; white-space: pre;">epoch</text></g><g class="g-ytitle"><text class="ytitle" transform="rotate(-90,22,348)" x="22" y="348" text-anchor="middle" style="font-family: 'Open Sans', verdana, arial, sans-serif; font-size: 14px; fill: rgb(68, 68, 68); opacity: 1; font-weight: normal; white-space: pre;">loss</text></g></g></svg>