<svg class="main-svg" xmlns="http://www.w3.org/2000/svg" xmlns:xlink="http://www.w3.org/1999/xlink" width="1721" height="696" style="" viewBox="0 0 1721 696"><rect x="0" y="0" width="1721" height="696" style="fill: rgb(255, 255, 255); fill-opacity: 1;"/><defs id="defs-e45931"><g class="clips"><clipPath id="clipe45931xyplot" class="plotclip"><rect width="1530" height="576"/></clipPath><clipPath class="axesclip" id="clipe45931x"><rect x="60" y="0" width="1530" height="696"/></clipPath><clipPath class="axesclip" id="clipe45931y"><rect x="0" y="60" width="1721" height="576"/></clipPath><clipPath class="axesclip" id="clipe45931xy"><rect x="60" y="60" width="1530" height="576"/></clipPath></g><g class="gradients"/><g class="patterns"/></defs><g class="bglayer"/><g class="layer-below"><g class="imagelayer"/><g class="shapelayer"/></g><g class="cartesianlayer"><g class="subplot xy"><g class="layer-subplot"><g class="shapelayer"/><g class="imagelayer"/></g><g class="gridlayer"><g class="x"><path class="xgrid crisp" transform="translate(204.77,0)" d="M0,60v576" style="stroke: rgb(238, 238, 238); stroke-opacity: 1; stroke-width: 1px;"/><path class="xgrid crisp" transform="translate(357.83,0)" d="M0,60v576" style="stroke: rgb(238, 238, 238); stroke-opacity: 1; stroke-width: 1px;"/><path class="xgrid crisp" transform="translate(510.9,0)" d="M0,60v576" style="stroke: rgb(238, 238, 238); stroke-opacity: 1; stroke-width: 1px;"/><path class="xgrid crisp" transform="translate(663.96,0)" d="M0,60v576" style="stroke: rgb(238, 238, 238); stroke-opacity: 1; stroke-width: 1px;"/><path class="xgrid crisp" transform="translate(817.03,0)" d="M0,60v576" style="stroke: rgb(238, 238, 238); stroke-opacity: 1; stroke-width: 1px;"/><path class="xgrid crisp" transform="translate(970.09,0)" d="M0,60v576" style="stroke: rgb(238, 238, 238); stroke-opacity: 1; stroke-width: 1px;"/><path class="xgrid crisp" transform="translate(1123.15,0)" d="M0,60v576" style="stroke: rgb(238, 238, 238); stroke-opacity: 1; stroke-width: 1px;"/><path class="xgrid crisp" transform="translate(1276.22,0)" d="M0,60v576" style="stroke: rgb(238, 238, 238); stroke-opacity: 1; stroke-width: 1px;"/><path class="xgrid crisp" transform="translate(1429.28,0)" d="M0,60v576" style="stroke: rgb(238, 238, 238); stroke-opacity: 1; stroke-width: 1px;"/><path class="xgrid crisp" transform="translate(1582.35,0)" d="M0,60v576" style="stroke: rgb(238, 238, 238); stroke-opacity: 1; stroke-width: 1px;"/></g><g class="y"><path class="ygrid crisp" transform="translate(0,543.72)" d="M60,0h1530" style="stroke: rgb(238, 238, 238); stroke-opacity: 1; stroke-width: 1px;"/><path class="ygrid crisp" transform="translate(0,462.65)" d="M60,0h1530" style="stroke: rgb(238, 238, 238); stroke-opacity: 1; stroke-width: 1px;"/><path class="ygrid crisp" transform="translate(0,381.58)" d="M60,0h1530" style="stroke: rgb(238, 238, 238); stroke-opacity: 1; stroke-width: 1px;"/><path class="ygrid crisp" transform="translate(0,300.51)" d="M60,0h1530" style="stroke: rgb(238, 238, 238); stroke-opacity: 1; stroke-width: 1px;"/><path class="ygrid crisp" transform="translate(0,219.43)" d="M60,0h1530" style="stroke: rgb(238, 238, 238); stroke-opacity: 1; stroke-width: 1px;"/><path class="ygrid crisp" transform="translate(0,138.36)" d="M60,0h1530" style="stroke: rgb(238, 238, 238); stroke-opacity: 1; stroke-width: 1px;"/></g></g><g class="zerolinelayer"><path class="yzl zl crisp" transform="translate(0,624.79)" d="M60,0h1530" style="stroke: rgb(68, 68, 68); stroke-opacity: 1; stroke-width: 1px;"/></g><path class="xlines-below"/><path class="ylines-below"/><g class="overlines-below"/><g class="xaxislayer-below"/><g class="yaxislayer-below"/><g class="overaxes-below"/><g class="plot" transform="translate(60,60)" clip-path="url(#clipe45931xyplot)"><g class="scatterlayer mlayer"><g class="trace scatter traceaa20d1" style="stroke-miterlimit: 2; opacity: 1;"><g class="fills"/><g class="errorbars"/><g class="lines"><path class="js-line" d="M0,251.49L0.64,358.23L1.28,305.94L1.92,313.76L2.57,338.55L3.21,389.95L3.85,269.37L5.77,358.68L6.42,350.27L7.06,343.7L7.7,384.91L8.34,405.4L8.98,340.86L9.62,374.63L10.26,322.85L10.91,474.54L11.55,333.05L12.19,407.3L12.83,209L13.47,341.42L14.11,181.31L15.4,426.13L16.04,384.85L16.68,439.09L17.32,382.19L18.6,273.48L19.25,375.73L19.89,279.17L20.53,302.44L21.17,395.98L21.81,348.47L22.45,460.3L23.09,304.05L24.38,365.48L25.02,464.01L25.66,284.11L26.3,393.26L26.94,385.91L27.58,354.25L28.23,396.1L28.87,291.35L30.15,442.88L30.79,335.73L32.08,390.84L32.72,409.35L33.36,390.89L34,217.97L35.28,435.35L35.92,348.39L36.57,430.51L37.21,207.46L38.49,334.08L39.13,282.6L39.77,393.79L40.42,339.03L41.06,330.38L41.7,385.26L42.34,380.24L42.98,388.16L43.62,329.36L44.26,361.14L45.55,457.66L46.19,270.33L46.83,419.92L47.47,332.85L48.11,443.62L48.75,296.53L49.4,315.58L50.04,356.99L50.68,350.74L51.32,296.66L51.96,410.75L52.6,409.74L53.25,222.64L54.53,408.35L55.17,393.78L55.81,316.36L56.45,418.96L57.09,413.24L57.74,373.95L59.02,432.37L59.66,347.71L60.3,439.09L60.94,272.79L62.23,405.6L62.87,395.34L63.51,444.03L64.15,352.35L64.79,254.68L65.43,435.29L66.72,322.23L67.36,407.13L68.64,330.13L69.28,429.69L69.92,432.88L70.57,383.31L71.21,360.08L71.85,403.68L72.49,321.76L73.13,487.43L73.77,531.14L74.42,410.85L75.06,455.53L75.7,357.6L76.34,275.1L76.98,404.18L77.62,377.45L78.26,429.11L78.91,351.7L79.55,416.16L80.19,416.3L80.83,280.04L82.11,436.07L82.75,440.67L83.4,325.96L84.04,415.75L84.68,347.06L85.32,473.59L85.96,443.64L86.6,377.05L87.25,392.19L87.89,446.77L88.53,381.97L89.17,489.11L90.45,269.94L91.09,398.08L91.74,346.95L92.38,389.43L93.02,296.8L93.66,412.93L94.3,424.18L94.94,395.68L95.58,393.65L96.23,468.44L96.87,293.33L97.51,412.56L98.15,401.3L98.79,293.37L99.43,381.76L100.08,281.2L101.36,424.89L102,386.64L102.64,335.1L103.28,386.85L103.92,293.91L104.57,390.85L105.21,414.36L105.85,501.66L106.49,196.66L107.13,393.83L108.42,427.93L109.06,471.77L109.7,308L110.34,400.38L110.98,462.71L111.62,435.62L112.91,347.34L113.55,385.82L114.83,479.47L115.47,341.25L116.11,475.94L116.75,395.56L117.4,424.64L118.04,401.48L118.68,390.28L119.32,326.67L119.96,442.05L120.6,360.05L121.25,494.58L121.89,373.13L122.53,399.76L123.17,387.92L123.81,455.34L124.45,412.53L125.09,375.33L125.74,275.37L126.38,476.4L127.02,345.56L129.58,461.04L130.23,427.24L130.87,432.02L131.51,307.87L132.79,481.21L133.43,366.44L134.08,446.71L134.72,355.15L135.36,326.13L136,343.75L136.64,433.23L137.28,391.55L137.92,278.46L138.57,371.14L139.21,412.55L139.85,410.89L140.49,420.25L141.77,346.22L142.42,404.09L143.7,422.48L144.34,353.56L145.62,473.65L146.26,461.98L146.91,321.01L147.55,382.05L148.19,459.34L148.83,351.54L150.11,481.36L150.75,341.57L151.4,367.93L152.04,473.94L153.32,297.85L153.96,390.77L154.6,487.31L155.25,408.5L155.89,363.57L156.53,455.39L157.17,412.26L157.81,269.86L158.45,403.75L159.09,372.52L159.74,419.01L160.38,328.89L161.66,455.51L162.3,468.36L163.58,336.65L164.23,403.67L164.87,317.33L165.51,389.12L166.79,516.3L167.43,478.07L168.08,487.75L168.72,360.43L170,439.3L170.64,470.21L171.28,380.34L171.92,387.14L172.57,458.53L173.21,547.2L173.85,524.59L175.13,297.67L175.77,536.34L177.06,338.7L177.7,388.31L178.34,522.63L178.98,457.65L179.62,457.66L180.26,394.36L180.91,476.63L181.55,281.92L182.19,408.16L182.83,386.86L183.47,423.13L184.11,415.93L184.75,462L185.4,427.66L186.04,485.26L187.32,401.87L187.96,518.2L188.6,281.04L189.25,455.1L190.53,412.19L191.17,486.13L192.45,370.6L193.09,28.8L194.38,397.05L195.02,306.71L195.66,467.26L196.3,439.81L196.94,442.9L197.58,426.79L198.23,295.52L198.87,459.33L199.51,447.48L200.15,477.69L200.79,266.43L201.43,398.55L202.72,451.23L203.36,342.87L204,460.2L204.64,358.25L205.28,467.18L205.92,448.23L206.57,424.56L207.21,440.68L207.85,452.12L208.49,477.25L209.13,348.23L209.77,437.82L210.42,340.23L211.06,437.18L211.7,335.12L212.34,359.53L212.98,281.13L213.62,460.43L214.26,457.96L214.91,371.62L215.55,219.19L216.19,447.49L217.47,414.6L218.11,200.23L218.75,458.94L219.4,302.13L220.04,415.84L220.68,366.12L221.32,259L221.96,471.02L222.6,373L223.25,524.41L224.53,412.85L225.17,451.07L225.81,519.62L226.45,444.71L227.09,373.96L227.74,410L228.38,495.62L229.02,493.16L229.66,394.77L230.3,358.61L230.94,451.46L231.58,370.23L232.23,460.37L232.87,434.86L233.51,506.03L234.79,415.23L235.43,474.29L236.08,392.11L236.72,431.81L237.36,436.23L238,421.16L238.64,431.59L239.28,492.96L239.92,487.74L240.57,472.98L241.21,300.97L241.85,454.46L242.49,496.55L243.13,456.91L243.77,511.81L244.42,452.57L245.06,381.4L245.7,444.78L246.34,450.52L246.98,484.53L247.62,426.51L248.26,428.96L248.91,539.25L250.19,470.44L250.83,479.72L251.47,437.85L252.11,472.32L254.04,440.41L254.68,509.77L255.32,490.93L255.96,427.04L256.6,352.01L257.25,533.07L257.89,413.79L258.53,500.49L259.17,456.4L259.81,313.89L260.45,420.79L261.09,366.41L261.74,474.27L262.38,390.14L263.02,427.32L263.66,394.2L264.3,464.85L264.94,419.44L265.58,329.21L266.23,466.2L266.87,431.72L267.51,481.53L268.79,388.66L269.43,419.6L270.08,521.3L270.72,363.4L271.36,465.02L272,441.63L272.64,442.73L273.28,376.17L275.85,460.56L276.49,436.53L277.13,361L277.77,445.89L278.42,348.4L279.06,362.96L279.7,454.14L280.98,340.84L281.62,474.37L282.26,330.59L282.91,452.98L283.55,286.62L284.19,452.82L284.83,452.07L285.47,455.96L286.75,397.64L287.4,429.25L288.04,418.43L288.68,108.65L289.32,523.17L289.96,443.88L290.6,424.38L291.25,360.11L292.53,524.84L293.17,437.22L293.81,529.88L294.45,401.6L295.09,337.51L295.74,495.96L296.38,500.46L297.02,470.34L297.66,486.23L298.3,361.3L298.94,481.23L299.58,454.72L300.23,493.5L300.87,311.85L302.15,486.57L302.79,481.05L303.43,418.63L304.08,478.74L305.36,343.76L306,386.29L306.64,353.79L307.28,422.83L307.92,501.44L308.57,388.82L309.21,289.62L309.85,455.48L310.49,416.53L311.13,435.37L312.42,517.75L313.06,477.72L313.7,419.04L314.34,523.07L314.98,288.44L315.62,366.95L316.91,461.45L317.55,474.17L318.19,391.73L318.83,446.07L319.47,503.11L320.11,455.68L320.75,516.46L321.4,459.42L322.04,511.71L322.68,309.91L323.96,470.56L324.6,471.11L325.25,421.86L325.89,465.41L327.17,379.12L327.81,450.3L328.45,436.66L329.09,309.24L331.02,481.03L331.66,473.8L332.3,457.96L332.94,502.24L333.58,407.43L334.23,420.63L334.87,440.17L335.51,412.98L336.15,521.13L336.79,479.66L337.43,384.13L338.08,325.55L338.72,457.77L339.36,539.71L340,358.94L340.64,501.66L341.28,434.89L341.92,486.06L342.57,349.39L343.21,293.58L343.85,444.73L345.13,299.54L345.77,496.72L346.42,452.85L347.06,346.39L347.7,302.31L348.34,417.36L348.98,484.5L349.62,427.29L350.26,510.26L350.91,377.75L351.55,500.08L352.19,496.24L352.83,442.31L354.11,358.73L354.75,436.53L356.04,483.4L356.68,176.18L357.32,417.83L357.96,387.21L358.6,399.51L359.25,244.67L359.89,523.48L360.53,336.91L361.17,478.47L361.81,403.24L362.45,471.1L363.09,402.47L363.74,411.77L364.38,419.84L365.02,483.8L365.66,479.3L366.3,476.49L366.94,520.49L367.58,294.65L368.87,479.12L369.51,474.35L372.08,328.89L372.72,453.41L373.36,482.01L374,440.26L374.64,503.31L375.28,466.43L375.92,521.87L376.57,441.6L377.85,324.42L378.49,517.02L379.13,452.49L379.77,522.28L381.06,396.32L381.7,510.73L382.98,332.97L383.62,471.07L384.26,416.48L384.91,493.44L385.55,392.05L386.19,455.92L386.83,497.85L387.47,492.53L388.11,391.89L388.75,233L389.4,407.62L390.04,452.01L390.68,435.7L391.32,504.6L391.96,380.86L393.25,411.41L393.89,356.96L394.53,420.07L395.17,359.18L395.81,431.44L396.45,385.75L397.74,514.22L398.38,450.19L399.02,469.24L399.66,381.84L400.3,435.31L400.94,416.75L401.58,480.75L402.23,349.94L402.87,500.37L403.51,331.26L404.79,467.03L405.43,507.34L406.08,530.89L406.72,306.57L407.36,457.74L408,431.2L408.64,487.41L409.28,462.64L409.92,443.13L410.57,360.5L411.21,444.24L411.85,430.48L412.49,509.9L413.13,348.72L413.77,491.78L414.42,419.09L415.06,429.56L415.7,257.01L416.98,521.53L417.62,475.04L418.26,415.29L418.91,417.34L419.55,486.62L420.19,313.81L420.83,399.07L421.47,483.85L422.11,410.29L422.75,442.57L423.4,438.16L424.04,405.55L424.68,462.16L425.32,422.64L425.96,415.3L426.6,505.03L427.25,456.66L427.89,486.29L428.53,378.65L429.17,453.66L429.81,432.78L430.45,328.77L431.09,423.74L431.74,376.7L433.02,450.92L433.66,344.96L434.94,538.77L435.58,498.52L436.23,510.32L436.87,376.91L437.51,460.05L438.15,320.82L438.79,422.72L439.43,253.3L440.08,493.63L440.72,410.57L442,519.5L442.64,324.96L443.28,533.87L443.92,481.45L444.57,506.22L445.21,479.62L445.85,372.27L446.49,400.16L447.77,409.96L448.42,476.16L449.7,430.6L450.34,423.4L451.62,450.7L452.26,464.53L452.91,487.45L453.55,445.25L454.19,368.75L454.83,428.15L455.47,439.61L456.11,324.12L456.75,421.82L457.4,421.36L458.04,427.66L459.96,404.21L460.6,495.72L461.25,267.62L461.89,514.76L462.53,389.04L463.17,486.22L463.81,448.66L464.45,524.27L465.09,362.42L465.74,506.53L466.38,366.81L467.02,408.27L467.66,493.05L468.3,394.16L470.23,442.73L470.87,437.73L471.51,383.29L472.15,431.44L472.79,416.18L473.43,437.04L474.72,332.28L475.36,491.53L476,435.46L476.64,455.49L477.28,541.06L477.92,484.21L478.57,504.41L479.21,462.79L479.85,531.72L480.49,371.96L482.42,483.54L483.06,434.91L483.7,508.52L484.34,353.05L484.98,474.76L485.62,382.24L486.26,509.83L486.91,355.01L488.19,492.71L488.83,483.05L489.47,436.47L490.11,523.47L492.04,312.65L492.68,504.98L493.32,497.37L493.96,420.1L494.6,351.85L495.25,391.9L496.53,508.39L497.17,407.71L497.81,448.25L498.45,415.86L499.09,444.25L499.74,390.81L500.38,402.19L501.02,434.04L501.66,320.5L502.3,339.76L502.94,380.05L503.58,490.27L504.23,413.61L506.79,488.62L507.43,397.11L508.08,421.4L508.72,477.23L509.36,510.74L510,422.25L510.64,495.35L511.28,335.28L511.92,424.35L512.57,347.58L513.85,499.24L514.49,307.69L515.77,419.44L516.42,466.99L517.06,472.85L517.7,271.64L518.34,485.43L518.98,427.16L520.26,330.53L520.91,478.08L522.19,278.09L522.83,526.1L523.47,511.26L524.11,439.36L524.75,367.25L525.4,474.03L526.04,481.16L526.68,500.74L527.96,359.18L528.6,409.3L529.25,478.6L529.89,269.44L531.17,495.42L531.81,492.07L532.45,474.77L533.74,464.65L534.38,445.79L535.02,530.02L535.66,414.04L536.3,399.34L536.94,475.98L537.58,486.26L538.23,484.43L538.87,356.58L539.51,374.1L540.15,436.85L540.79,447.99L541.43,472.51L542.08,418.96L542.72,448.96L543.36,527L544,344.72L545.28,470.17L545.92,433.73L546.57,424.54L547.21,442.69L547.85,520.24L548.49,478.78L549.13,424.1L549.77,443.4L550.42,281.53L551.06,364.19L552.34,482.01L552.98,427.31L554.26,474.8L554.91,464.4L556.19,488.44L556.83,438.79L557.47,481.75L558.11,478.63L558.75,414.51L559.4,491.08L560.04,433.61L560.68,409.11L561.32,500.88L561.96,353.12L562.6,455.45L563.89,523.01L564.53,421.51L565.17,516.16L565.81,392.29L567.09,459.58L567.74,482.24L569.02,277.23L569.66,297.05L570.94,517.89L571.58,459.92L572.23,382.11L572.87,479.98L573.51,413.59L574.15,454.9L574.79,365.74L575.43,440.31L576.08,303.77L576.72,524.99L578,423.03L578.64,483.1L579.28,351.16L579.92,436.45L580.57,412.16L581.21,333.69L582.49,439.48L583.13,445.91L584.42,458.99L585.06,440.31L585.7,424.03L586.34,460.32L586.98,448.48L587.62,461.26L588.26,493.88L588.91,391.6L589.55,521.27L590.19,448.1L590.83,324.68L591.47,513.69L592.11,441.48L592.75,474.01L593.4,484.23L594.04,512.66L594.68,521.6L595.32,308.68L595.96,521.15L596.6,467.61L597.25,488.41L597.89,447.18L598.53,472.35L599.17,334.38L599.81,507.88L600.45,483.79L601.09,422.51L601.74,396.55L602.38,500.64L603.02,491.91L603.66,426.17L604.94,520.51L605.58,430.12L606.23,507.62L606.87,489.88L607.51,495.14L608.15,470.34L608.79,466.14L609.43,281.9L610.08,478.04L610.72,395.02L611.36,489.17L612,384.88L612.64,313.65L613.28,474.32L613.92,481.54L614.57,428.96L615.85,526.83L616.49,511.28L617.13,502.6L617.77,426.84L618.42,315.96L619.06,389.08L619.7,350.16L620.34,384.91L620.98,516.06L621.62,404.24L622.26,285.16L622.91,453.07L623.55,512.24L624.19,487.56L624.83,475.68L625.47,497.62L626.11,497.51L626.75,414.69L627.4,471.35L628.04,419.1L628.68,411.39L629.32,432.84L630.6,401.28L631.25,488.82L631.89,525.43L632.53,381.21L633.17,317.42L633.81,447.97L634.45,457.73L635.09,421.81L636.38,486.97L637.02,423.93L637.66,455.89L638.3,453.72L638.94,477.54L639.58,393.43L640.23,531.54L640.87,401.93L641.51,494.11L644.08,319.99L644.72,465.99L645.36,535.41L646,505.74L646.64,426.06L647.28,429.13L647.92,524.56L648.57,389.95L649.21,419.63L649.85,502.61L650.49,379.49L651.13,538.05L651.77,515.57L652.42,472.31L653.06,513.78L653.7,438.03L655.62,481.58L656.26,520.06L656.91,521.48L657.55,501.83L658.19,479.17L658.83,480.26L659.47,334.14L661.4,507.07L662.04,346.46L663.32,484.26L663.96,510.46L665.25,444.05L665.89,324.82L667.81,506.88L668.45,420.53L669.74,524.55L670.38,408.6L671.02,425.05L671.66,402.85L672.3,449.19L672.94,343.9L674.23,537.34L674.87,459.83L675.51,387.88L676.15,414.93L677.43,516.51L678.08,526.26L678.72,338.48L679.36,490.83L680,469.5L680.64,509.16L681.28,363.52L681.92,459.87L682.57,443.78L683.21,394.34L683.85,263.91L684.49,483.6L685.13,497.65L685.77,461.74L686.42,397.42L687.06,408.33L687.7,379.54L688.34,443.26L688.98,443.69L689.62,414.16L690.26,490.81L690.91,405.26L692.19,505.18L692.83,461.7L694.75,370.25L695.4,429.44L696.04,414.75L696.68,448.09L697.32,508.48L697.96,415.03L698.6,415.12L699.25,523.24L699.89,490.52L700.53,400.45L702.45,535.27L703.09,517.57L704.38,450.27L705.02,345.98L705.66,438.48L706.3,419.31L706.94,453.61L707.58,442.7L708.23,497.11L708.87,356.01L709.51,533.71L710.15,252.69L710.79,273.99L711.43,494.97L712.08,439.57L712.72,507.56L713.36,518.2L714,315.21L714.64,193.9L715.28,490.99L715.92,520.41L716.57,493.64L717.21,262.68L717.85,507.41L718.49,439.51L719.13,520.83L719.77,529.8L720.42,402.02L721.7,513.89L722.34,476.09L722.98,360.17L723.62,472.44L724.26,340.91L724.91,467.66L725.55,309.37L726.19,454.23L726.83,477.58L727.47,342.64L728.11,367.53L728.75,487.01L729.4,512.97L730.04,500.62L730.68,331.04L731.32,495.65L731.96,320.82L732.6,438.48L733.89,368.47L734.53,525L735.17,495.78L735.81,420.75L736.45,501.16L737.09,488.47L737.74,431.71L738.38,509.45L739.02,427.28L739.66,385.16L740.3,422.75L740.94,475.83L741.58,354.24L742.23,345.31L742.87,516.74L743.51,418.4L744.15,529.15L744.79,486.58L745.43,360.88L746.08,519.38L746.72,450.78L747.36,529.75L748,323.5L748.64,503.61L749.28,491.87L749.92,400.73L750.57,402.19L751.21,438.69L751.85,450.51L752.49,441.16L753.13,456.53L753.77,404.06L754.42,470.22L755.06,326.6L755.7,405.16L756.34,276.03L756.98,519.9L757.62,385.97L758.26,433.59L758.91,543.6L760.83,430.34L761.47,480.55L762.11,427.83L762.75,463.31L764.04,367.99L764.68,524.23L765.96,369.78L766.6,536.3L767.25,397.27L767.89,526.66L769.17,275.33L769.81,437.54L770.45,530.61L771.09,447.61L771.74,441.22L772.38,404.62L773.02,491.73L773.66,487.85L774.3,271.65L774.94,491.28L775.58,464.37L776.23,478.17L776.87,516.93L777.51,486.35L779.43,457.51L780.08,462.66L780.72,442.18L781.36,481.84L782,509.75L782.64,346.23L783.28,480.39L783.92,348.15L785.21,456.96L785.85,443.14L786.49,453L787.13,501.39L787.77,321.24L788.42,386.18L789.06,491.37L789.7,417.76L790.98,352.54L791.62,510.43L792.26,429.07L792.91,476.4L793.55,422.54L794.19,446.09L794.83,337.95L795.47,521.51L796.75,402.51L797.4,517.37L798.68,485.07L799.32,343.28L799.96,482.19L800.6,389.1L802.53,489.44L803.17,425.57L803.81,479.89L804.45,398.57L805.09,386.36L805.74,411.42L806.38,420.54L807.02,447.96L808.3,523.07L808.94,500.05L810.23,379.39L810.87,427.61L811.51,424.69L812.15,462.49L812.79,525.36L813.43,517.32L814.08,266.92L815.36,506.36L816,444.25L816.64,456.63L817.28,436.16L817.92,448.93L818.57,400.05L819.21,532.03L819.85,423.95L820.49,482.84L821.13,373.59L823.06,531.15L823.7,476.05L824.98,524.87L825.62,523.78L826.91,478.49L827.55,484.02L828.83,413.12L829.47,411.55L830.11,396.54L830.75,517.88L831.4,540.16L832.04,498.59L833.32,396.95L833.96,393.12L835.89,535.09L836.53,199.26L837.17,518.59L837.81,506.09L838.45,505.6L839.74,404.55L840.38,537.16L841.02,473.54L841.66,497.61L842.3,259.07L842.94,452.54L843.58,468.17L844.23,455.41L845.51,509.78L846.15,501.52L846.79,446.54L847.43,459.09L849.36,526.75L850,433.04L850.64,407.46L851.28,523.51L851.92,497.85L852.57,501.68L853.21,496.89L853.85,434.5L854.49,471.84L855.77,538.27L856.42,509.49L857.06,533.39L857.7,427.02L858.34,532.2L858.98,416.7L859.62,412.28L860.26,427.98L860.91,454.61L861.55,419.68L862.19,395.65L862.83,449.74L863.47,389.36L864.11,451.79L864.75,369.3L865.4,503.03L866.68,492.26L867.32,454.96L867.96,520.78L868.6,436.7L869.25,436.96L869.89,367.2L870.53,462.87L871.17,421.32L873.09,523.12L873.74,319.99L874.38,507.28L875.02,432.03L876.3,534.49L876.94,328.64L878.23,524.44L878.87,521.77L879.51,512.19L880.79,476.7L881.43,410.7L882.08,417.53L882.72,536.69L884,460.5L884.64,488.56L885.28,409.03L885.92,511.71L886.57,499.6L887.21,468.67L888.49,504.85L889.13,491.94L889.77,436.3L890.42,512.32L891.7,324.88L892.34,526.79L893.62,454.91L894.26,486.89L894.91,323.62L895.55,486.95L896.19,343.12L896.83,436.69L897.47,503.61L898.11,491.92L898.75,459.36L899.4,469.52L900.04,483.3L900.68,439.63L901.32,409.69L901.96,454.86L902.6,505.09L903.25,481.03L903.89,295.77L904.53,406.91L905.17,280.8L905.81,435.47L906.45,540.55L907.09,469.18L907.74,490.35L908.38,454.73L909.02,479.63L909.66,436.31L910.3,340.47L910.94,470.02L911.58,516.68L912.23,431L912.87,452.98L913.51,441.25L914.15,455.02L914.79,485.35L915.43,246.92L916.08,494.18L916.72,479.69L917.36,538.44L918.64,304.2L919.28,522.32L919.92,512.15L920.57,431.07L922.49,502.1L923.13,496.29L923.77,492.96L924.42,468.32L925.06,505.02L925.7,501.58L926.34,472.41L926.98,541.37L927.62,500.83L928.26,507.52L928.91,398.89L929.55,510.37L930.19,492.06L930.83,438.3L931.47,521.22L932.11,503.38L932.75,446.22L933.4,535.78L934.04,436.33L934.68,526.75L935.32,521L935.96,482.86L936.6,511.62L937.25,425.84L937.89,389.02L938.53,484.87L939.17,397.48L939.81,527.41L941.09,431.1L941.74,434.42L942.38,466.66L943.02,435.58L944.94,525.76L945.58,485.03L946.87,539.65L947.51,460.22L948.15,542.32L948.79,401.24L950.08,512.97L950.72,412.04L952,519.4L952.64,469.32L953.28,382.15L953.92,434.77L954.57,441.54L955.21,384.91L955.85,495.41L956.49,417.05L957.13,488.2L957.77,401.46L958.42,534.24L959.06,312.02L959.7,330.93L960.34,458.71L960.98,404.91L961.62,468.45L962.26,475.85L962.91,505.82L963.55,502.4L964.19,485.35L964.83,429.91L965.47,452.23L966.11,372.68L966.75,469.34L968.04,324.02L968.68,520.49L969.96,468.27L970.6,262.99L971.89,460.71L972.53,461.18L973.17,474.53L973.81,527.29L974.45,526.85L975.09,309.13L976.38,459.36L977.02,435.56L978.3,451.17L978.94,493.7L979.58,497.17L980.23,396.54L981.51,520.04L982.15,522.31L982.79,515.94L983.43,350.43L984.08,409.33L984.72,386.3L985.36,490.77L986,481.11L986.64,493.92L987.28,492.06L987.92,519.24L988.57,517.26L989.21,532.73L989.85,493.64L990.49,402.17L991.13,407.04L991.77,402.82L993.06,520.65L993.7,462.84L994.34,470.23L994.98,381.28L995.62,357.85L996.26,464.83L996.91,487.24L997.55,471.74L998.19,471.29L998.83,375.69L999.47,503.47L1000.11,484.15L1000.75,455.51L1001.4,465.78L1002.04,498.32L1002.68,524.96L1003.32,480.95L1003.96,471.33L1004.6,495.99L1005.25,498.58L1005.89,496.55L1006.53,370.93L1007.17,498.26L1007.81,373.21L1008.45,475L1009.09,510.89L1009.74,485.23L1010.38,373.89L1011.02,501.22L1011.66,516.83L1012.3,497.63L1012.94,532.98L1013.58,492.01L1014.23,347.29L1014.87,352.38L1015.51,455.21L1016.15,399.32L1016.79,480.5L1018.08,517.16L1018.72,515.25L1019.36,509.22L1020.64,467.53L1021.28,463.42L1021.92,438.19L1022.57,453.97L1023.21,473.82L1023.85,526.08L1025.13,447.9L1025.77,488.91L1026.42,527.13L1027.06,504.57L1027.7,537.4L1028.34,430.69L1028.98,423.89L1029.62,478.26L1030.26,480.13L1030.91,456.29L1032.19,477.39L1032.83,514.04L1033.47,492.51L1034.11,530.15L1034.75,350.91L1035.4,523.94L1036.04,431.91L1036.68,482.27L1037.32,503.6L1037.96,406.22L1039.25,525.79L1039.89,444.82L1040.53,356.21L1041.17,506.68L1041.81,506.4L1042.45,515.61L1043.09,423.7L1043.74,486.03L1044.38,434.26L1045.02,502.89L1045.66,484.99L1046.3,500.62L1046.94,527.64L1047.58,492.68L1048.23,432.93L1048.87,510.16L1049.51,512.2L1050.15,501.54L1050.79,493.38L1051.43,503.87L1052.72,410.74L1053.36,507.74L1054,494.53L1054.64,457.29L1055.28,465.64L1055.92,454.66L1057.21,516.47L1057.85,435.98L1058.49,468L1059.13,423.27L1059.77,477.77L1060.42,466.9L1061.06,520.65L1061.7,496.44L1062.34,478.58L1062.98,385.91L1064.26,521.47L1064.91,531.98L1066.19,477.64L1066.83,478.93L1067.47,527.21L1068.11,517.17L1068.75,512.34L1069.4,415.17L1070.04,487.63L1070.68,480.09L1071.32,370.07L1071.96,472.36L1072.6,459.81L1073.25,347.47L1074.53,512.49L1075.17,506.69L1075.81,446.59L1076.45,497.45L1077.74,445.78L1078.38,503.13L1079.02,495.74L1079.66,541.77L1080.94,403.83L1081.58,481.92L1082.87,426.9L1083.51,458.61L1084.15,400.1L1084.79,527.72L1085.43,480.39L1086.08,522.1L1087.36,450.62L1088,497.61L1088.64,357.58L1089.28,425.04L1089.92,375.66L1090.57,496.88L1091.21,464.46L1091.85,512.72L1092.49,278.67L1093.13,492.05L1093.77,501.55L1094.42,213.97L1096.34,504.56L1096.98,447.14L1097.62,473.99L1098.26,412.87L1099.55,492.16L1100.19,450.81L1100.83,505.39L1101.47,378.3L1102.11,523.4L1102.75,392.7L1103.4,424.15L1104.04,529.62L1104.68,470.08L1105.32,522.26L1105.96,457.12L1106.6,297.3L1107.25,526.96L1107.89,400.44L1109.17,502.38L1109.81,441.84L1110.45,446.93L1111.09,469.15L1111.74,513.34L1112.38,379.91L1113.02,391.19L1113.66,360.62L1114.94,462.97L1115.58,368.23L1116.23,449.91L1116.87,391.03L1118.79,511.12L1119.43,502.02L1120.08,523.56L1120.72,487.58L1121.36,483.02L1122,462.73L1122.64,342.38L1123.28,461.48L1124.57,510.28L1125.21,472.35L1125.85,375.08L1126.49,435.08L1127.13,478.49L1127.77,458.59L1128.42,416.59L1129.06,466.69L1129.7,443.75L1130.34,454.63L1130.98,447.6L1131.62,459.74L1132.91,507.44L1133.55,479.38L1134.19,452.57L1134.83,491.74L1135.47,501.01L1136.11,489.44L1138.04,423.3L1138.68,504.84L1139.32,344.69L1139.96,411.97L1140.6,429.66L1141.25,491.63L1141.89,489.21L1142.53,518.57L1143.81,473.46L1144.45,523.66L1145.09,508.97L1145.74,275.48L1146.38,501.37L1147.02,406.68L1147.66,391.03L1148.3,434.69L1148.94,510.97L1149.58,495.44L1150.23,521.41L1150.87,505.75L1151.51,463.29L1152.15,507.76L1152.79,528.11L1153.43,490.45L1154.08,417.58L1154.72,486.49L1155.36,475.02L1156,502.38L1157.28,440.49L1157.92,489.66L1158.57,458.67L1159.21,516.93L1159.85,429.85L1160.49,530.67L1161.13,423.4L1161.77,464.85L1162.42,476.78L1163.06,386.04L1164.34,483.61L1164.98,420.7L1165.62,460.77L1166.26,321.15L1167.55,475.64L1168.19,410.5L1169.47,495.3L1170.11,467.77L1170.75,511.66L1171.4,510.89L1172.04,429.75L1172.68,519.99L1173.32,446.8L1174.6,469.01L1175.25,524.99L1175.89,454.27L1176.53,474.31L1177.81,503.88L1178.45,513.9L1179.09,505.49L1179.74,440.41L1180.38,405.77L1181.02,523.95L1181.66,436.39L1182.3,518.26L1182.94,394.23L1183.58,462.81L1184.23,468.98L1184.87,405.38L1185.51,525.4L1186.15,356.34L1186.79,530.8L1187.43,495.89L1188.08,534.34L1188.72,424.33L1189.36,498.55L1190,471.8L1190.64,351.39L1191.28,445.44L1192.57,515.04L1193.21,528.44L1194.49,496.31L1195.13,390.55L1196.42,482.26L1197.06,465.59L1197.7,308.19L1198.34,383.82L1198.98,325.12L1199.62,534.85L1200.26,453.96L1200.91,518.34L1202.19,490.85L1202.83,287.68L1203.47,512.71L1204.11,458.4L1204.75,471.49L1205.4,512.67L1206.68,331.27L1207.32,494.74L1207.96,526.69L1208.6,448.68L1209.25,520.69L1209.89,454.43L1211.17,503.64L1211.81,371.82L1213.09,509.02L1213.74,433.13L1214.38,503.73L1215.02,479.84L1215.66,483.85L1216.3,409.3L1216.94,511.15L1217.58,494.36L1218.23,406.19L1219.51,490.07L1220.15,455.22L1222.08,357.38L1222.72,428.07L1224,528.93L1224.64,445.31L1225.28,534.44L1225.92,492.08L1226.57,460.17L1227.21,535.05L1227.85,378.82L1228.49,469.63L1229.13,437.98L1229.77,470.94L1230.42,440.34L1231.06,469.15L1231.7,520.33L1232.34,468.32L1232.98,395.8L1233.62,516.51L1234.26,470.32L1234.91,484.71L1235.55,515.37L1236.19,477.31L1236.83,433.88L1237.47,509.52L1238.11,476.18L1238.75,517.88L1239.4,435.81L1240.04,497.74L1240.68,328.99L1241.32,512.71L1242.6,318.29L1243.25,489.61L1243.89,497.2L1244.53,488.66L1245.17,530.29L1245.81,516.83L1246.45,440.59L1247.09,491.2L1247.74,452.05L1248.38,525.46L1250.3,457.74L1250.94,465.08L1252.23,530.04L1252.87,408.8L1254.15,503.12L1254.79,455.86L1255.43,466.96L1256.08,509.56L1256.72,501.8L1257.36,506.49L1258,466.73L1258.64,519.1L1259.28,473.87L1259.92,507.61L1260.57,514.05L1261.21,365.3L1261.85,525.09L1262.49,450.6L1263.13,424.41L1263.77,526.7L1265.06,452.12L1265.7,365.76L1266.34,346.08L1266.98,518.86L1267.62,422.82L1268.26,456.62L1268.91,504.88L1269.55,482.44L1270.19,418.05L1270.83,418.25L1271.47,443.01L1272.11,441.24L1272.75,504.86L1273.4,420.7L1274.04,530.91L1274.68,492.03L1275.32,389.8L1275.96,498.89L1276.6,434.08L1277.25,523.43L1277.89,473.49L1278.53,380.32L1279.17,491.17L1279.81,444.89L1280.45,486.44L1281.09,500.12L1281.74,534.92L1282.38,359.13L1283.02,519.77L1283.66,362.11L1284.3,439.96L1284.94,503.69L1285.58,427.72L1286.23,472.15L1286.87,445.36L1287.51,512.54L1288.15,459.75L1288.79,524.34L1289.43,451.97L1290.08,523.04L1290.72,518.42L1291.36,501.37L1292,429.46L1292.64,452.6L1293.28,354.49L1293.92,428.62L1294.57,449.95L1295.21,358.54L1296.49,479.21L1297.13,483.06L1297.77,481.87L1298.42,488.86L1299.06,526.76L1299.7,503.84L1300.34,534.49L1300.98,361.26L1303.55,498.12L1304.19,495.36L1304.83,478.34L1305.47,527.34L1306.75,514.58L1307.4,453.28L1308.04,431.94L1308.68,459.9L1309.96,472.45L1310.6,414.58L1311.25,525.43L1311.89,448.61L1313.17,504.61L1313.81,503.93L1314.45,450.71L1315.09,507.41L1315.74,384.83L1316.38,470.82L1317.02,348.07L1317.66,327.51L1318.3,390.89L1319.58,487.57L1320.23,465.53L1320.87,389.02L1321.51,518.09L1322.15,439.29L1322.79,481.19L1323.43,470.67L1324.08,493.9L1324.72,380.14L1325.36,446.05L1326.64,527.51L1327.28,452.77L1327.92,397.01L1328.57,511.76L1329.85,438.11L1330.49,479.67L1331.13,477.74L1331.77,462.88L1332.42,511.7L1333.06,500.21L1333.7,522.22L1334.34,442.36L1334.98,476.49L1335.62,420.12L1336.26,497.85L1336.91,391.29L1337.55,498.58L1338.19,494.03L1338.83,429.04L1339.47,418.77L1340.11,511.26L1340.75,377.18L1341.4,466.73L1342.04,504.85L1342.68,485.06L1343.32,511.08L1343.96,468.97L1344.6,494.88L1345.25,437.59L1345.89,527.93L1346.53,428.92L1347.17,492.94L1347.81,463.07L1348.45,457.13L1349.09,408.21L1350.38,518.03L1351.02,441.27L1351.66,439.26L1352.3,505.16L1354.87,450.8L1355.51,515.69L1356.15,319.4L1356.79,516.28L1357.43,409.99L1358.08,491.33L1358.72,497.6L1359.36,449.68L1360,462.7L1360.64,517.7L1361.28,530.95L1361.92,496.66L1362.57,439.73L1363.21,473.13L1363.85,465.61L1364.49,433.18L1365.13,527.15L1365.77,505.99L1366.42,504.56L1367.06,507.45L1367.7,464.82L1368.34,507.76L1368.98,431.2L1369.62,481.22L1370.26,501.16L1370.91,488.17L1371.55,445.75L1372.19,507.85L1372.83,466.76L1373.47,477.37L1374.11,419.61L1374.75,490.53L1375.4,502.24L1376.04,455.77L1376.68,485.88L1377.32,460.96L1377.96,501.2L1378.6,467.66L1379.89,535.34L1380.53,501.42L1381.17,439.75L1381.81,442.81L1382.45,480.18L1383.09,452.94L1383.74,517.78L1385.02,487.25L1385.66,522.12L1386.94,430.24L1387.58,497.62L1388.87,423.04L1389.51,467.1L1390.15,501.88L1390.79,499.61L1391.43,369.29L1392.72,503.71L1393.36,435.3L1394,523.61L1394.64,488.64L1395.28,426.64L1395.92,434.17L1396.57,453.95L1397.21,425.81L1397.85,449.95L1398.49,478.61L1399.13,421.01L1399.77,489.92L1400.42,441.46L1401.06,512.9L1401.7,310.88L1402.34,516.44L1402.98,513.78L1403.62,431.39L1404.26,445.86L1404.91,439.81L1405.55,413.37L1406.19,459.83L1406.83,486.04L1407.47,438.1L1408.75,528.79L1409.4,445.14L1410.04,499.73L1410.68,473.31L1411.32,509.59L1411.96,380.62L1413.89,536.75L1414.53,480.48L1415.17,512.22L1415.81,504.92L1417.09,426.33L1417.74,440.24L1418.38,521.78L1419.02,492.64L1419.66,434.36L1420.3,509.82L1421.58,460.81L1422.23,476.61L1422.87,470.33L1423.51,517.21L1424.15,488.56L1424.79,522.26L1425.43,461.92L1426.08,516.28L1426.72,440.18L1427.36,519.35L1428,513.3L1428.64,484.15L1429.92,385.6L1430.57,472.86L1431.85,491.4L1432.49,439.35L1433.13,447.12L1433.77,475.37L1435.06,516.99L1435.7,431.07L1436.34,519.6L1436.98,518.69L1437.62,521.76L1438.26,488.7L1438.91,520.28L1440.19,526.41L1440.83,512.25L1441.47,519.71L1442.11,510.4L1442.75,414.27L1443.4,487.48L1444.04,478.32L1444.68,516.57L1445.32,430.85L1445.96,504.28L1446.6,517.5L1447.25,469.84L1447.89,528.74L1448.53,465.74L1449.17,501.89L1449.81,472.37L1450.45,504.03L1451.09,460.11L1451.74,524.85L1452.38,428.91L1453.02,508.03L1453.66,470.51L1454.3,453.51L1454.94,517.06L1455.58,481.75L1456.23,492.7L1456.87,534.32L1457.51,516.84L1458.15,441.44L1458.79,495.87L1459.43,471.35L1460.08,534.89L1461.36,484.93L1462,458.3L1462.64,450.48L1463.28,429.57L1463.92,480.79L1464.57,434.68L1465.21,506.62L1465.85,499.32L1466.49,477.43L1467.13,477.62L1467.77,453.21L1469.06,531.58L1469.7,467.39L1470.34,521.29L1470.98,512.58L1471.62,412.48L1472.26,503.52L1472.91,480.19L1473.55,466.85L1474.19,498.04L1474.83,517.98L1475.47,454.51L1476.11,469.59L1476.75,427L1478.04,527.12L1478.68,528.38L1479.32,513.37L1479.96,388.19L1480.6,523.19L1481.25,482.05L1481.89,478.07L1482.53,460.92L1483.17,468.64L1483.81,526.22L1484.45,539.3L1485.09,449.93L1486.38,523.55L1487.02,493.02L1487.66,459.69L1488.3,519.59L1488.94,505.9L1489.58,407.46L1490.23,496.43L1490.87,487.18L1491.51,506.84L1492.15,511.9L1492.79,494.98L1493.43,364.9L1494.08,456.83L1494.72,351.53L1495.36,469.39L1496,505.6L1496.64,420.68L1497.28,489.49L1497.92,453.74L1499.21,496.73L1499.85,500.56L1500.49,499.81L1501.13,542.07L1501.77,513.19L1502.42,443.89L1503.7,466.37L1504.34,467.29L1504.98,535.48L1505.62,509.07L1506.26,518.56L1506.91,501.33L1507.55,479.09L1508.19,489.96L1509.47,499.62L1510.11,386.9L1511.4,538.44L1512.04,436.99L1512.68,463.39L1513.32,521.53L1514.6,424.23L1515.25,523.54L1516.53,372.27L1517.17,492.5L1517.81,505.66L1518.45,470.08L1519.09,503.4L1519.74,488.74L1521.02,452.82L1521.66,515.67L1522.3,498.35L1522.94,504.13L1523.58,486.13L1524.23,502.28L1524.87,505.56L1525.51,490.2L1526.15,507.09L1526.79,503.17L1527.43,403.68L1528.08,512.07L1528.72,515.93L1529.36,476.91L1530,497.34" style="vector-effect: non-scaling-stroke; fill: none; stroke: rgb(31, 119, 180); stroke-opacity: 1; stroke-width: 2px; opacity: 1;"/></g><g class="points"/><g class="text"/></g></g></g><g class="overplot"/><path class="xlines-above crisp" d="M0,0" style="fill: none;"/><path class="ylines-above crisp" d="M0,0" style="fill: none;"/><g class="overlines-above"/><g class="xaxislayer-above"><g class="xtick"><text text-anchor="middle" x="0" y="649" transform="translate(204.77,0)" style="font-family: 'Open Sans', verdana, arial, sans-serif; font-size: 12px; fill: rgb(68, 68, 68); fill-opacity: 1; white-space: pre; opacity: 1;">20</text></g><g class="xtick"><text text-anchor="middle" x="0" y="649" style="font-family: 'Open Sans', verdana, arial, sans-serif; font-size: 12px; fill: rgb(68, 68, 68); fill-opacity: 1; white-space: pre; opacity: 1;" transform="translate(357.83,0)">40</text></g><g class="xtick"><text text-anchor="middle" x="0" y="649" style="font-family: 'Open Sans', verdana, arial, sans-serif; font-size: 12px; fill: rgb(68, 68, 68); fill-opacity: 1; white-space: pre; opacity: 1;" transform="translate(510.9,0)">60</text></g><g class="xtick"><text text-anchor="middle" x="0" y="649" style="font-family: 'Open Sans', verdana, arial, sans-serif; font-size: 12px; fill: rgb(68, 68, 68); fill-opacity: 1; white-space: pre; opacity: 1;" transform="translate(663.96,0)">80</text></g><g class="xtick"><text text-anchor="middle" x="0" y="649" style="font-family: 'Open Sans', verdana, arial, sans-serif; font-size: 12px; fill: rgb(68, 68, 68); fill-opacity: 1; white-space: pre; opacity: 1;" transform="translate(817.03,0)">100</text></g><g class="xtick"><text text-anchor="middle" x="0" y="649" style="font-family: 'Open Sans', verdana, arial, sans-serif; font-size: 12px; fill: rgb(68, 68, 68); fill-opacity: 1; white-space: pre; opacity: 1;" transform="translate(970.09,0)">120</text></g><g class="xtick"><text text-anchor="middle" x="0" y="649" style="font-family: 'Open Sans', verdana, arial, sans-serif; font-size: 12px; fill: rgb(68, 68, 68); fill-opacity: 1; white-space: pre; opacity: 1;" transform="translate(1123.15,0)">140</text></g><g class="xtick"><text text-anchor="middle" x="0" y="649" style="font-family: 'Open Sans', verdana, arial, sans-serif; font-size: 12px; fill: rgb(68, 68, 68); fill-opacity: 1; white-space: pre; opacity: 1;" transform="translate(1276.22,0)">160</text></g><g class="xtick"><text text-anchor="middle" x="0" y="649" style="font-family: 'Open Sans', verdana, arial, sans-serif; font-size: 12px; fill: rgb(68, 68, 68); fill-opacity: 1; white-space: pre; opacity: 1;" transform="translate(1429.28,0)">180</text></g><g class="xtick"><text text-anchor="middle" x="0" y="649" style="font-family: 'Open Sans', verdana, arial, sans-serif; font-size: 12px; fill: rgb(68, 68, 68); fill-opacity: 1; white-space: pre; opacity: 1;" transform="translate(1582.35,0)">200</text></g></g><g class="yaxislayer-above"><g class="ytick"><text text-anchor="end" x="59" y="4.199999999999999" transform="translate(0,624.79)" style="font-family: 'Open Sans', verdana, arial, sans-serif; font-size: 12px; fill: rgb(68, 68, 68); fill-opacity: 1; white-space: pre; opacity: 1;">0</text></g><g class="ytick"><text text-anchor="end" x="59" y="4.199999999999999" style="font-family: 'Open Sans', verdana, arial, sans-serif; font-size: 12px; fill: rgb(68, 68, 68); fill-opacity: 1; white-space: pre; opacity: 1;" transform="translate(0,543.72)">0.1</text></g><g class="ytick"><text text-anchor="end" x="59" y="4.199999999999999" style="font-family: 'Open Sans', verdana, arial, sans-serif; font-size: 12px; fill: rgb(68, 68, 68); fill-opacity: 1; white-space: pre; opacity: 1;" transform="translate(0,462.65)">0.2</text></g><g class="ytick"><text text-anchor="end" x="59" y="4.199999999999999" style="font-family: 'Open Sans', verdana, arial, sans-serif; font-size: 12px; fill: rgb(68, 68, 68); fill-opacity: 1; white-space: pre; opacity: 1;" transform="translate(0,381.58)">0.3</text></g><g class="ytick"><text text-anchor="end" x="59" y="4.199999999999999" style="font-family: 'Open Sans', verdana, arial, sans-serif; font-size: 12px; fill: rgb(68, 68, 68); fill-opacity: 1; white-space: pre; opacity: 1;" transform="translate(0,300.51)">0.4</text></g><g class="ytick"><text text-anchor="end" x="59" y="4.199999999999999" style="font-family: 'Open Sans', verdana, arial, sans-serif; font-size: 12px; fill: rgb(68, 68, 68); fill-opacity: 1; white-space: pre; opacity: 1;" transform="translate(0,219.43)">0.5</text></g><g class="ytick"><text text-anchor="end" x="59" y="4.199999999999999" style="font-family: 'Open Sans', verdana, arial, sans-serif; font-size: 12px; fill: rgb(68, 68, 68); fill-opacity: 1; white-space: pre; opacity: 1;" transform="translate(0,138.36)">0.6</text></g></g><g class="overaxes-above"/></g></g><g class="polarlayer"/><g class="smithlayer"/><g class="ternarylayer"/><g class="geolayer"/><g class="funnelarealayer"/><g class="pielayer"/><g class="iciclelayer"/><g class="treemaplayer"/><g class="sunburstlayer"/><g class="glimages"/><defs id="topdefs-e45931"><g class="clips"/><clipPath id="legende45931"><rect width="88" height="162" x="0" y="0"/></clipPath></defs><g class="layer-above"><g class="imagelayer"/><g class="shapelayer"/></g><g class="infolayer"><g class="legend" pointer-events="all" transform="translate(1620.6000000000001,60)"><rect class="bg" shape-rendering="crispEdges" width="88" height="162" x="0" y="0" style="stroke: rgb(68, 68, 68); stroke-opacity: 1; fill: rgb(255, 255, 255); fill-opacity: 1; stroke-width: 0px;"/><g class="scrollbox" transform="" clip-path="url(#legende45931)"><g class="groups"><g class="traces" transform="translate(0,14.5)" style="opacity: 1;"><text class="legendtext" text-anchor="start" x="40" y="4.680000000000001" style="font-family: 'Open Sans', verdana, arial, sans-serif; font-size: 12px; fill: rgb(68, 68, 68); fill-opacity: 1; white-space: pre;">D_A</text><g class="layers" style="opacity: 1;"><g class="legendfill"/><g class="legendlines"><path class="js-line" d="M5,0h30" style="fill: none; stroke: rgb(31, 119, 180); stroke-opacity: 1; stroke-width: 2px;"/></g><g class="legendsymbols"><g class="legendpoints"/></g></g><rect class="legendtoggle" x="0" y="-9.5" width="82.54679107666016" height="19" style="fill: rgb(0, 0, 0); fill-opacity: 0;"/></g><g class="traces" transform="translate(0,33.5)" style="opacity: 0.5;"><text class="legendtext" text-anchor="start" x="40" y="4.680000000000001" style="font-family: 'Open Sans', verdana, arial, sans-serif; font-size: 12px; fill: rgb(68, 68, 68); fill-opacity: 1; white-space: pre;">G_A</text><g class="layers" style="opacity: 1;"><g class="legendfill"/><g class="legendlines"><path class="js-line" d="M5,0h30" style="fill: none; stroke: rgb(255, 127, 14); stroke-opacity: 1; stroke-width: 2px;"/></g><g class="legendsymbols"><g class="legendpoints"/></g></g><rect class="legendtoggle" x="0" y="-9.5" width="82.54679107666016" height="19" style="fill: rgb(0, 0, 0); fill-opacity: 0;"/></g><g class="traces" transform="translate(0,52.5)" style="opacity: 0.5;"><text class="legendtext" text-anchor="start" x="40" y="4.680000000000001" style="font-family: 'Open Sans', verdana, arial, sans-serif; font-size: 12px; fill: rgb(68, 68, 68); fill-opacity: 1; white-space: pre;">cycle_A</text><g class="layers" style="opacity: 1;"><g class="legendfill"/><g class="legendlines"><path class="js-line" d="M5,0h30" style="fill: none; stroke: rgb(44, 160, 44); stroke-opacity: 1; stroke-width: 2px;"/></g><g class="legendsymbols"><g class="legendpoints"/></g></g><rect class="legendtoggle" x="0" y="-9.5" width="82.54679107666016" height="19" style="fill: rgb(0, 0, 0); fill-opacity: 0;"/></g><g class="traces" transform="translate(0,71.5)" style="opacity: 0.5;"><text class="legendtext" text-anchor="start" x="40" y="4.680000000000001" style="font-family: 'Open Sans', verdana, arial, sans-serif; font-size: 12px; fill: rgb(68, 68, 68); fill-opacity: 1; white-space: pre;">idt_A</text><g class="layers" style="opacity: 1;"><g class="legendfill"/><g class="legendlines"><path class="js-line" d="M5,0h30" style="fill: none; stroke: rgb(214, 39, 40); stroke-opacity: 1; stroke-width: 2px;"/></g><g class="legendsymbols"><g class="legendpoints"/></g></g><rect class="legendtoggle" x="0" y="-9.5" width="82.54679107666016" height="19" style="fill: rgb(0, 0, 0); fill-opacity: 0;"/></g><g class="traces" transform="translate(0,90.5)" style="opacity: 0.5;"><text class="legendtext" text-anchor="start" x="40" y="4.680000000000001" style="font-family: 'Open Sans', verdana, arial, sans-serif; font-size: 12px; fill: rgb(68, 68, 68); fill-opacity: 1; white-space: pre;">D_B</text><g class="layers" style="opacity: 1;"><g class="legendfill"/><g class="legendlines"><path class="js-line" d="M5,0h30" style="fill: none; stroke: rgb(148, 103, 189); stroke-opacity: 1; stroke-width: 2px;"/></g><g class="legendsymbols"><g class="legendpoints"/></g></g><rect class="legendtoggle" x="0" y="-9.5" width="82.54679107666016" height="19" style="fill: rgb(0, 0, 0); fill-opacity: 0;"/></g><g class="traces" transform="translate(0,109.5)" style="opacity: 0.5;"><text class="legendtext" text-anchor="start" x="40" y="4.680000000000001" style="font-family: 'Open Sans', verdana, arial, sans-serif; font-size: 12px; fill: rgb(68, 68, 68); fill-opacity: 1; white-space: pre;">G_B</text><g class="layers" style="opacity: 1;"><g class="legendfill"/><g class="legendlines"><path class="js-line" d="M5,0h30" style="fill: none; stroke: rgb(140, 86, 75); stroke-opacity: 1; stroke-width: 2px;"/></g><g class="legendsymbols"><g class="legendpoints"/></g></g><rect class="legendtoggle" x="0" y="-9.5" width="82.54679107666016" height="19" style="fill: rgb(0, 0, 0); fill-opacity: 0;"/></g><g class="traces" transform="translate(0,128.5)" style="opacity: 0.5;"><text class="legendtext" text-anchor="start" x="40" y="4.680000000000001" style="font-family: 'Open Sans', verdana, arial, sans-serif; font-size: 12px; fill: rgb(68, 68, 68); fill-opacity: 1; white-space: pre;">cycle_B</text><g class="layers" style="opacity: 1;"><g class="legendfill"/><g class="legendlines"><path class="js-line" d="M5,0h30" style="fill: none; stroke: rgb(227, 119, 194); stroke-opacity: 1; stroke-width: 2px;"/></g><g class="legendsymbols"><g class="legendpoints"/></g></g><rect class="legendtoggle" x="0" y="-9.5" width="82.54679107666016" height="19" style="fill: rgb(0, 0, 0); fill-opacity: 0;"/></g><g class="traces" transform="translate(0,147.5)" style="opacity: 0.5;"><text class="legendtext" text-anchor="start" x="40" y="4.680000000000001" style="font-family: 'Open Sans', verdana, arial, sans-serif; font-size: 12px; fill: rgb(68, 68, 68); fill-opacity: 1; white-space: pre;">idt_B</text><g class="layers" style="opacity: 1;"><g class="legendfill"/><g class="legendlines"><path class="js-line" d="M5,0h30" style="fill: none; stroke: rgb(127, 127, 127); stroke-opacity: 1; stroke-width: 2px;"/></g><g class="legendsymbols"><g class="legendpoints"/></g></g><rect class="legendtoggle" x="0" y="-9.5" width="82.54679107666016" height="19" style="fill: rgb(0, 0, 0); fill-opacity: 0;"/></g></g></g><rect class="scrollbar" rx="20" ry="3" width="0" height="0" x="0" y="0" style="fill: rgb(128, 139, 164); fill-opacity: 1;"/></g><g class="g-gtitle"><text class="gtitle" x="860.5" y="30" text-anchor="middle" dy="0em" style="font-family: 'Open Sans', verdana, arial, sans-serif; font-size: 17px; fill: rgb(68, 68, 68); opacity: 1; font-weight: normal; white-space: pre;">cleanDataTrain loss over time</text></g><g class="g-xtitle"><text class="xtitle" x="825" y="688" text-anchor="middle" style="font-family: 'Open Sans', verdana, arial, sans-serif; font-size: 14px; fill: rgb(68, 68, 68); opacity: 1; font-weight: normal; white-space: pre;">epoch</text></g><g class="g-ytitle"><text class="ytitle" transform="rotate(-90,22,348)" x="22" y="348" text-anchor="middle" style="font-family: 'Open Sans', verdana, arial, sans-serif; font-size: 14px; fill: rgb(68, 68, 68); opacity: 1; font-weight: normal; white-space: pre;">loss</text></g></g></svg>