<svg class="main-svg" xmlns="http://www.w3.org/2000/svg" xmlns:xlink="http://www.w3.org/1999/xlink" width="1721" height="696" style="" viewBox="0 0 1721 696"><rect x="0" y="0" width="1721" height="696" style="fill: rgb(255, 255, 255); fill-opacity: 1;"/><defs id="defs-e0a19d"><g class="clips"><clipPath id="clipe0a19dxyplot" class="plotclip"><rect width="1530" height="576"/></clipPath><clipPath class="axesclip" id="clipe0a19dx"><rect x="60" y="0" width="1530" height="696"/></clipPath><clipPath class="axesclip" id="clipe0a19dy"><rect x="0" y="60" width="1721" height="576"/></clipPath><clipPath class="axesclip" id="clipe0a19dxy"><rect x="60" y="60" width="1530" height="576"/></clipPath></g><g class="gradients"/><g class="patterns"/></defs><g class="bglayer"/><g class="layer-below"><g class="imagelayer"/><g class="shapelayer"/></g><g class="cartesianlayer"><g class="subplot xy"><g class="layer-subplot"><g class="shapelayer"/><g class="imagelayer"/></g><g class="gridlayer"><g class="x"><path class="xgrid crisp" transform="translate(204.77,0)" d="M0,60v576" style="stroke: rgb(238, 238, 238); stroke-opacity: 1; stroke-width: 1px;"/><path class="xgrid crisp" transform="translate(357.83,0)" d="M0,60v576" style="stroke: rgb(238, 238, 238); stroke-opacity: 1; stroke-width: 1px;"/><path class="xgrid crisp" transform="translate(510.9,0)" d="M0,60v576" style="stroke: rgb(238, 238, 238); stroke-opacity: 1; stroke-width: 1px;"/><path class="xgrid crisp" transform="translate(663.96,0)" d="M0,60v576" style="stroke: rgb(238, 238, 238); stroke-opacity: 1; stroke-width: 1px;"/><path class="xgrid crisp" transform="translate(817.03,0)" d="M0,60v576" style="stroke: rgb(238, 238, 238); stroke-opacity: 1; stroke-width: 1px;"/><path class="xgrid crisp" transform="translate(970.09,0)" d="M0,60v576" style="stroke: rgb(238, 238, 238); stroke-opacity: 1; stroke-width: 1px;"/><path class="xgrid crisp" transform="translate(1123.15,0)" d="M0,60v576" style="stroke: rgb(238, 238, 238); stroke-opacity: 1; stroke-width: 1px;"/><path class="xgrid crisp" transform="translate(1276.22,0)" d="M0,60v576" style="stroke: rgb(238, 238, 238); stroke-opacity: 1; stroke-width: 1px;"/><path class="xgrid crisp" transform="translate(1429.28,0)" d="M0,60v576" style="stroke: rgb(238, 238, 238); stroke-opacity: 1; stroke-width: 1px;"/><path class="xgrid crisp" transform="translate(1582.35,0)" d="M0,60v576" style="stroke: rgb(238, 238, 238); stroke-opacity: 1; stroke-width: 1px;"/></g><g class="y"><path class="ygrid crisp" transform="translate(0,533.71)" d="M60,0h1530" style="stroke: rgb(238, 238, 238); stroke-opacity: 1; stroke-width: 1px;"/><path class="ygrid crisp" transform="translate(0,460.22)" d="M60,0h1530" style="stroke: rgb(238, 238, 238); stroke-opacity: 1; stroke-width: 1px;"/><path class="ygrid crisp" transform="translate(0,386.72)" d="M60,0h1530" style="stroke: rgb(238, 238, 238); stroke-opacity: 1; stroke-width: 1px;"/><path class="ygrid crisp" transform="translate(0,313.23)" d="M60,0h1530" style="stroke: rgb(238, 238, 238); stroke-opacity: 1; stroke-width: 1px;"/><path class="ygrid crisp" transform="translate(0,239.73)" d="M60,0h1530" style="stroke: rgb(238, 238, 238); stroke-opacity: 1; stroke-width: 1px;"/><path class="ygrid crisp" transform="translate(0,166.24)" d="M60,0h1530" style="stroke: rgb(238, 238, 238); stroke-opacity: 1; stroke-width: 1px;"/><path class="ygrid crisp" transform="translate(0,92.75)" d="M60,0h1530" style="stroke: rgb(238, 238, 238); stroke-opacity: 1; stroke-width: 1px;"/></g></g><g class="zerolinelayer"><path class="yzl zl crisp" transform="translate(0,607.2)" d="M60,0h1530" style="stroke: rgb(68, 68, 68); stroke-opacity: 1; stroke-width: 1px;"/></g><path class="xlines-below"/><path class="ylines-below"/><g class="overlines-below"/><g class="xaxislayer-below"/><g class="yaxislayer-below"/><g class="overaxes-below"/><g class="plot" transform="translate(60,60)" clip-path="url(#clipe0a19dxyplot)"><g class="scatterlayer mlayer"><g class="trace scatter trace71b7bd" style="stroke-miterlimit: 2; opacity: 1;"><g class="fills"/><g class="errorbars"/><g class="lines"><path class="js-line" d="M0,248.16L1.92,359.63L2.57,331.22L3.21,278.09L3.85,329.53L4.49,372.29L5.13,340.11L6.42,411.57L7.06,388.78L7.7,415.45L8.34,407.77L8.98,408.42L9.62,313.49L10.91,389.99L11.55,377.63L12.19,334.16L12.83,480.96L14.11,392.27L14.75,296.41L17.32,470.39L17.96,393.81L19.25,462.65L19.89,241.81L20.53,459.75L21.17,378.27L21.81,349.58L22.45,442.09L23.09,408.15L23.74,503.29L24.38,363.11L25.02,458.84L25.66,371.76L26.3,485.29L27.58,423.07L28.23,486.95L28.87,474.21L29.51,422.02L30.15,330.14L30.79,396.57L31.43,274.04L32.08,454.44L32.72,522.45L33.36,404.67L34,261.13L34.64,402.4L35.28,427.28L35.92,419.31L36.57,428.94L37.21,304.19L38.49,401.67L39.13,371.19L39.77,489.83L40.42,408.12L41.06,375.44L41.7,383.64L42.34,290.24L42.98,300.91L43.62,382.11L44.26,349.04L44.91,383.61L46.19,474.03L46.83,393.99L48.11,387.36L48.75,305.01L50.68,507.24L51.32,369.6L52.6,303.5L53.25,373.7L53.89,403.28L54.53,397.04L55.81,280.38L56.45,371.95L57.09,216.27L57.74,247.66L58.38,402.95L59.02,397.97L59.66,487.02L60.3,439.22L60.94,527.43L61.58,521.03L62.23,430.14L62.87,527.9L63.51,463.87L64.15,324.27L64.79,345.98L65.43,423.17L66.72,385.48L67.36,396.32L68,367.67L68.64,385.17L69.28,361.86L69.92,520.94L70.57,532.88L71.21,359.86L72.49,537.55L73.13,531.73L73.77,536.24L74.42,528.42L75.06,523.47L75.7,337.12L76.34,519.69L76.98,500.62L77.62,537.31L78.91,538.57L79.55,537.84L80.19,542.15L80.83,541.85L81.47,538.25L82.75,543.34L83.4,442.71L84.04,490.91L84.68,457.71L85.32,306.03L85.96,459.35L86.6,443.07L87.25,255.58L87.89,429.35L88.53,424.35L89.17,445.47L89.81,310.36L90.45,387.74L91.09,522.76L91.74,405.07L93.02,483.92L93.66,387.17L94.3,536.35L94.94,533.33L95.58,542.49L96.23,427.33L96.87,473.25L98.15,538.22L98.79,527.83L99.43,538.94L100.08,441.59L100.72,534.67L101.36,533.86L102,453.54L103.92,348.42L104.57,202.56L105.85,525.24L106.49,541.85L107.13,524.26L107.77,535.08L108.42,540.49L109.06,536.74L109.7,540.92L110.34,539.33L110.98,541.09L111.62,534.86L112.26,540.21L112.91,539.17L113.55,534.33L114.19,391.05L115.47,371.35L116.11,384.31L116.75,488.4L117.4,470.17L118.68,541.1L119.32,407.74L120.6,527.68L121.25,427.84L121.89,308.85L122.53,412.67L123.17,351.27L123.81,373.69L124.45,386.81L125.09,532.58L125.74,496.86L126.38,541.42L127.02,540.23L127.66,541.79L128.3,542.27L128.94,518.8L129.58,475.08L130.23,538.87L130.87,533.77L131.51,513.7L132.15,534.27L132.79,148.96L133.43,381.51L134.08,376.82L134.72,383.38L136,513.28L136.64,525.75L137.28,541.42L137.92,488.16L138.57,542.21L139.21,504.46L139.85,543.67L140.49,539.99L141.13,520.18L141.77,542.31L142.42,511.78L143.7,542.41L144.34,544.69L144.98,541.81L145.62,545.96L146.91,396.9L147.55,437.12L148.19,348.9L148.83,542.48L149.47,541.74L150.11,529.69L151.4,323.98L152.04,420.3L152.68,320.5L153.32,506.5L153.96,537.51L154.6,532.52L155.25,364.65L155.89,412.22L156.53,372.25L157.17,389.61L157.81,339.06L159.09,417.55L159.74,434.8L161.02,349.08L161.66,443.15L162.3,343.39L162.94,387.69L163.58,383.05L164.23,466.56L166.15,355.09L166.79,536.05L167.43,533.63L168.08,541.94L168.72,542.75L169.36,541.59L170,539.93L170.64,543.55L171.28,542.39L171.92,544.22L172.57,544.23L173.21,542.25L174.49,544.7L175.13,541.34L175.77,512.35L176.42,446.15L177.06,426.7L177.7,379.01L178.34,461.55L178.98,439.93L179.62,384.71L180.26,541.59L180.91,480.58L181.55,528.16L182.19,282.62L182.83,348.4L183.47,390.98L184.11,494.79L185.4,526.67L186.04,509.33L186.68,541.08L187.32,500.79L188.6,541.13L189.25,544.05L189.89,540.62L190.53,544.72L191.17,540.8L191.81,544.9L192.45,538.69L193.09,543.18L193.74,543.46L194.38,525.78L195.66,544.37L196.3,533.11L197.58,546.17L198.23,436.9L199.51,528.88L200.15,543.82L200.79,543.43L201.43,544.88L202.08,544.3L202.72,542.24L203.36,431.37L204,512.8L205.28,544.05L205.92,401.34L206.57,449.87L207.21,434.88L207.85,457.93L208.49,540.43L209.13,538.65L209.77,544.14L210.42,541.96L211.06,542.76L211.7,529.52L212.34,531.51L212.98,481.86L213.62,542.09L214.26,540.38L214.91,541.07L215.55,543.79L216.19,508.98L216.83,497.63L217.47,542.39L218.11,545.78L218.75,544.95L219.4,543.18L220.04,545.99L221.96,546.16L222.6,539.08L223.89,546.1L224.53,546.22L225.81,542.54L226.45,544.4L227.09,539.22L227.74,546.24L229.66,545.02L230.3,353.87L230.94,472.38L231.58,361.53L232.23,536.68L232.87,291.08L233.51,455.74L234.15,223.17L234.79,497.18L235.43,431L236.72,541.17L237.36,533.33L238.64,545.82L239.28,545.08L239.92,545.76L240.57,545.2L241.85,544.56L242.49,545.88L243.77,545.76L244.42,545.71L245.06,544.84L245.7,545.95L247.62,546.21L248.26,545.27L248.91,220.56L249.55,524.72L250.19,545.88L250.83,545.51L251.47,546.06L252.11,407.02L252.75,487.8L254.04,394.75L254.68,446.16L255.32,451.91L255.96,394.52L256.6,398.36L257.25,524.72L258.53,544.81L259.17,528.77L260.45,543.82L261.09,545.38L261.74,546.25L262.38,453.15L263.66,544.75L264.3,545.89L264.94,545.79L265.58,540.74L266.23,545.24L266.87,542.56L267.51,546.1L268.15,544.64L269.43,290.26L270.08,508.22L271.36,351.98L272,458.13L272.64,404.7L273.28,450.52L273.92,371.47L274.57,390.65L275.21,425.28L275.85,286.28L277.13,391.89L277.77,381.35L278.42,366.48L279.06,379.2L279.7,316.35L280.34,382L281.62,310.11L282.26,416.79L283.55,328.21L284.19,432.81L285.47,334.96L286.11,433.41L286.75,353.27L287.4,353.28L288.04,419.97L288.68,354.47L289.32,437.26L289.96,409.2L290.6,522.32L291.89,543.41L292.53,542.48L293.17,542.15L293.81,433.4L295.09,334.02L295.74,463.21L296.38,343.28L297.02,428.63L297.66,538.02L298.3,531.58L298.94,542.93L300.23,544.69L300.87,544.08L301.51,542.36L302.15,544.09L302.79,545.2L303.43,544.59L304.72,545.29L305.36,543.74L306,518.58L306.64,530.14L307.92,321.19L308.57,222.66L309.21,444.25L309.85,321.69L311.13,363.63L311.77,538.7L312.42,495.34L313.06,543.98L314.34,545.21L314.98,545.6L316.26,545.95L316.91,545.27L317.55,544.89L318.19,546.15L319.47,545.71L320.11,546.17L322.04,545.91L322.68,544.07L323.32,540.89L323.96,437.8L324.6,418.88L325.25,538.99L325.89,533.12L326.53,545.81L327.17,544.93L327.81,546.1L330.38,546.61L331.02,546.17L331.66,546.3L332.3,544.3L333.58,546.46L334.23,546.25L334.87,546.62L335.51,411.38L336.15,399.42L336.79,545.49L337.43,358.95L338.08,426.46L338.72,483.77L339.36,370.6L340.64,446.34L341.28,389.99L341.92,318.48L342.57,374.19L343.21,384.11L343.85,331.92L344.49,257.76L345.13,374.26L345.77,400.62L346.42,520.27L347.06,498.04L347.7,544.54L348.34,544.12L348.98,538.99L350.26,545.35L350.91,546.07L351.55,544.99L352.19,540.08L352.83,544.63L353.47,458.84L354.11,537.54L354.75,249.21L356.04,485.28L356.68,298.23L359.25,444.8L359.89,514.88L361.17,544.69L361.81,544.54L363.09,544.8L363.74,545.64L365.02,544.9L365.66,545.74L366.3,545.49L366.94,546.21L367.58,197.6L368.23,424L369.51,544.02L370.15,545.25L371.43,546.26L372.08,545.96L373.36,545.59L374,546.28L374.64,546.41L375.28,544.08L375.92,434.82L376.57,446.37L377.21,371.36L377.85,462.52L378.49,397.54L379.13,322.29L379.77,540.74L380.42,542.62L381.06,541.88L382.34,546.02L382.98,545.84L383.62,546.05L384.26,543.99L384.91,544.15L385.55,538.84L386.83,546.01L387.47,546.5L388.75,545.62L389.4,546.74L390.04,545.94L390.68,541.51L391.32,546.63L391.96,546.53L392.6,538.6L393.25,544.35L393.89,407.2L394.53,544.2L395.17,537.59L395.81,542.82L397.09,545.99L397.74,545.78L398.38,546.48L399.02,545.87L400.3,545.72L400.94,546.24L401.58,516.79L402.23,541.64L402.87,545.5L403.51,544.37L404.15,544.4L404.79,545.88L406.08,546.09L406.72,545.52L407.36,546.71L408,545.62L408.64,546.14L409.28,499.13L409.92,245.96L410.57,508.9L411.21,407.72L411.85,435.62L412.49,471.28L413.13,419.16L413.77,400.36L414.42,283.28L415.7,544.8L416.34,535.94L417.62,543.69L418.26,545.74L420.19,546.25L420.83,546.4L422.11,542.47L422.75,544.64L423.4,546.45L424.04,452.63L424.68,432.21L425.32,542.26L427.25,328.04L427.89,438.21L428.53,460.05L429.17,296.51L429.81,540.42L430.45,534.51L431.09,545.04L431.74,544.49L432.38,545.63L433.02,544.85L433.66,546.22L434.94,546.13L435.58,546L436.23,544.55L436.87,546.39L438.79,546.49L439.43,546.61L440.08,545.85L440.72,546.63L442,213.28L442.64,429.3L443.92,544.93L444.57,544.65L445.21,543.28L445.85,545.72L446.49,546.34L447.13,513.4L447.77,368.74L448.42,539.76L449.06,349.12L449.7,494.13L450.98,545.16L451.62,543.97L453.55,546.48L454.19,546.37L455.47,545.69L456.11,546.47L458.04,546.65L458.68,546.27L459.96,546.71L460.6,546.47L461.89,545.92L462.53,545.15L463.17,546.41L463.81,413.2L464.45,446.83L465.09,408.49L465.74,391.4L466.38,440.35L467.02,532.27L467.66,510.31L468.94,544.75L469.58,545.22L470.23,544.88L470.87,536.79L471.51,545.1L472.15,544.49L472.79,543.37L473.43,545.79L474.08,545.17L474.72,545.02L475.36,546.12L477.28,544.88L477.92,545.98L478.57,545.81L479.21,544.15L479.85,542.53L480.49,545.15L481.77,543.2L482.42,388.74L483.7,459.25L484.34,409.9L484.98,377.05L485.62,426.57L486.26,369.16L486.91,402.94L487.55,366.53L488.19,535.7L488.83,537.22L489.47,544.7L490.11,546.12L490.75,543.89L492.04,546.05L492.68,545.54L493.32,546.08L493.96,541.5L494.6,545.84L495.25,545.66L495.89,546.17L496.53,546.61L497.17,546.11L497.81,546.63L498.45,546.12L501.02,546.47L501.66,546.54L504.23,546.49L504.87,544.48L505.51,541.69L506.15,545.5L506.79,516.1L507.43,545.89L508.08,544.83L508.72,546.42L509.36,546.47L510,543.88L511.28,370.29L511.92,403.9L512.57,356.35L513.21,487.92L513.85,365.48L514.49,383.36L515.13,326.97L515.77,398.92L516.42,330.21L518.98,542.44L519.62,541.91L520.26,541.53L520.91,545.77L521.55,544.07L522.19,545.86L522.83,543.44L523.47,544.14L524.11,544.5L524.75,546.43L525.4,545.94L526.04,546.42L526.68,546.47L527.32,545.14L527.96,546.17L528.6,545.23L529.89,546.44L530.53,546.37L531.81,545.9L532.45,546.5L533.09,546.59L533.74,537.46L535.02,545.78L535.66,546.43L536.3,490.46L536.94,546.16L538.87,546.21L539.51,428.55L540.15,368.63L540.79,28.8L541.43,453.27L542.08,290.77L543.36,366.02L544,366.4L545.28,543.76L545.92,542.92L547.21,546.07L547.85,545.47L549.13,546.24L549.77,545.16L550.42,546.38L551.06,543.16L552.34,545.87L552.98,546.72L554.26,546.32L554.91,546.27L555.55,545L556.19,541.08L556.83,545.79L557.47,531.23L558.11,532.41L558.75,546.23L559.4,545.75L560.04,546.68L560.68,506.26L561.32,546.33L562.6,545.98L563.25,542.86L563.89,546.7L564.53,545.88L565.17,544.92L565.81,532.27L566.45,545.72L567.09,484.75L569.02,545.48L569.66,545.95L570.3,545.73L570.94,514.63L571.58,404.28L572.23,486.24L572.87,259.89L573.51,337.17L574.79,419.6L575.43,316.1L576.08,280.56L576.72,389.79L577.36,442.05L578,412.06L578.64,336.79L579.28,474.86L579.92,537.19L580.57,534.1L581.21,542.13L582.49,546.04L583.13,544.68L584.42,546.18L585.06,545.47L586.34,545.84L586.98,537.09L588.26,546.32L588.91,545.26L590.19,546.37L590.83,546.19L592.11,546.37L592.75,545.05L593.4,543.96L594.04,546.5L594.68,546.57L595.32,541.95L595.96,545.84L596.6,545.64L597.25,546.15L597.89,545.93L598.53,546.52L601.09,545.61L601.74,546.07L603.66,426.86L604.3,378.03L604.94,456.74L605.58,436.84L606.87,536.31L607.51,543.71L609.43,545.9L610.08,545.01L611.36,545.92L612,546.51L615.21,545.66L615.85,546.85L619.7,546.28L620.34,546.72L622.26,546.73L622.91,544.58L623.55,410.8L624.19,522.61L625.47,544.65L626.11,544.91L627.4,546.5L628.04,546.18L631.89,546.79L632.53,546.73L638.3,546.22L638.94,546.72L640.87,546.53L641.51,545.69L642.15,510.79L642.79,537.62L643.43,344.83L644.08,408.57L644.72,437.69L645.36,411.32L646.64,543.24L647.28,544.29L648.57,542.4L649.21,544.24L650.49,546.48L651.13,546.34L652.42,546.49L653.06,544.88L654.34,546.54L654.98,546.33L656.26,546.79L656.91,546.33L659.47,546.68L660.11,546.75L665.89,546.72L666.53,428.15L667.81,545.3L668.45,543.22L669.09,537.38L669.74,545.39L671.02,546.26L671.66,546.65L672.3,546.13L672.94,537.32L673.58,546.34L674.23,546.28L674.87,546.66L675.51,545.42L676.15,546.59L678.08,546.5L678.72,546.64L681.92,545.81L682.57,546.89L683.21,546.75L683.85,414.14L684.49,466.17L685.13,439.6L685.77,476.48L686.42,324.49L688.34,541.45L688.98,535.49L690.26,544.99L690.91,545.94L691.55,544.96L692.19,546.41L694.11,545.73L694.75,546.31L695.4,545.96L696.04,544.1L696.68,546.46L697.32,545.98L697.96,546.51L702.45,546.24L703.09,546.53L703.74,545.59L704.38,546.45L705.66,545.51L706.3,546.21L707.58,546.44L708.23,546.55L709.51,546.82L710.15,546.42L712.08,546.17L712.72,546.85L715.28,546.45L715.92,360.63L716.57,267.11L717.21,461L718.49,415.5L719.13,448.48L719.77,466.57L720.42,541.47L721.7,544.74L722.34,539.05L723.62,546.18L724.26,545.8L724.91,546.01L725.55,541.81L726.83,546.17L727.47,546.63L731.96,546.55L732.6,279.67L733.25,247.49L733.89,376.98L734.53,447.59L735.17,341.23L736.45,503.6L737.09,409.77L738.38,472.84L739.02,377.88L740.94,524.82L741.58,539.49L742.23,543.99L742.87,540.89L743.51,546.13L744.15,541.8L744.79,546.13L745.43,545.42L746.08,546.19L746.72,544.8L747.36,546.22L748,546.44L748.64,545.62L749.28,545.17L749.92,546.47L751.21,546.6L751.85,546.44L756.34,545.83L756.98,546.63L757.62,534.9L758.26,540.21L758.91,546.83L759.55,546.14L760.19,546.59L763.4,546.58L764.04,498.27L764.68,495.71L765.32,336.84L766.6,444.61L767.25,298.82L769.17,541.6L769.81,545.69L771.09,546.14L771.74,543.83L773.66,546.06L774.3,545.39L776.23,546.57L776.87,546.72L784.57,546.66L785.21,210.32L786.49,529.6L787.13,546.34L787.77,526.65L788.42,546.09L790.34,546.69L790.98,545.51L792.26,545.85L792.91,544.05L793.55,546.84L794.19,546.28L794.83,546.82L798.68,546.74L799.32,426.99L800.6,546.55L801.25,546.64L801.89,546.65L802.53,545.64L803.81,546.72L804.45,546.9L805.74,546.6L806.38,371.98L807.02,357.77L807.66,444.56L808.3,504.95L808.94,439.08L809.58,438.57L810.23,404.26L810.87,453.41L811.51,450.28L812.15,409.64L812.79,462.19L813.43,430.07L814.08,436.07L814.72,542.47L815.36,416.52L816,544.91L816.64,546.26L817.28,545.84L819.21,546.23L819.85,545.95L821.77,546.26L822.42,545.26L823.7,546.17L824.34,543.89L824.98,543.81L825.62,545.96L826.26,544.93L826.91,545.69L828.83,546.41L829.47,546.47L832.04,546.3L832.68,546.19L834.6,546.68L835.25,545.87L836.53,546.62L837.17,546.67L839.09,546.68L839.74,545.82L841.02,546.93L841.66,546.94L842.3,546.91L842.94,545.48L844.23,520.69L844.87,421.8L845.51,369.2L846.15,537.11L846.79,545.15L847.43,541.11L848.72,546.68L849.36,546.6L850,544.67L850.64,546.55L851.28,546.8L851.92,545.38L853.21,546.82L853.85,546.63L855.13,546.64L855.77,546.02L857.06,546.89L857.7,542.86L858.34,544.74L858.98,458.66L859.62,488.62L860.26,373.29L861.55,545.73L862.19,546.01L864.75,546.42L865.4,545.41L866.68,546.77L867.32,546.77L876.3,546.88L876.94,545.92L878.87,546.82L879.51,546.46L880.15,546.89L880.79,546.4L881.43,546.78L882.08,433.92L883.36,544.51L884,544.41L884.64,544.13L885.28,546.37L886.57,546.83L887.21,544.07L888.49,546.76L889.13,546.9L894.26,545.92L894.91,545.47L896.19,546.86L896.83,546.95L897.47,545.76L898.11,546.9L900.68,546L901.32,546.69L901.96,546.27L902.6,486.54L903.25,511.82L903.89,447.92L905.17,381.53L905.81,461.96L907.74,543.43L908.38,544.14L909.02,544.81L909.66,544.23L910.3,542.91L910.94,546.26L912.87,546.27L913.51,546.86L916.08,546.71L916.72,546.7L918,546.84L918.64,546.55L920.57,546.76L921.21,546.75L923.77,546.73L924.42,546.42L926.34,546.94L926.98,546.17L927.62,545.6L928.26,546.74L929.55,546.55L930.19,543.34L931.47,546.56L932.11,546.68L933.4,546.65L934.04,494.54L934.68,546.35L935.32,545.2L935.96,546.57L941.74,546.83L942.38,481.61L943.02,242.17L943.66,539.04L944.94,546.1L945.58,546.6L948.79,545.85L949.43,544.56L950.08,546.64L950.72,546.35L951.36,546.88L952,257.05L952.64,539.37L953.92,546.2L954.57,546.1L957.77,546.94L958.42,546.65L960.34,546.93L960.98,546.82L968.04,546.97L968.68,546.65L969.32,546.52L969.96,545.25L971.89,546.93L972.53,546.65L975.74,547L976.38,546.77L982.79,546.63L983.43,546.93L984.72,546.83L985.36,546.92L986,545.87L986.64,546.96L987.92,545.35L988.57,546.85L989.21,546.27L989.85,327.55L991.13,544.91L991.77,546.01L993.7,546.6L994.34,544.96L995.62,546.96L996.26,546.68L1005.25,546.98L1005.89,546.31L1007.17,547.01L1007.81,447.66L1008.45,384.4L1009.09,487.04L1010.38,545.68L1011.02,544.7L1012.3,546.16L1012.94,546.6L1025.77,546.92L1026.42,546.64L1027.06,545.79L1027.7,546.99L1029.62,546.99L1030.26,546.95L1034.11,546.62L1034.75,546.63L1036.68,546.96L1037.32,546.39L1037.96,541.28L1038.6,547L1040.53,546.86L1041.17,545.26L1042.45,547.01L1043.09,546.16L1043.74,546.2L1044.38,523.97L1045.66,546.73L1046.3,546.92L1050.79,546.88L1051.43,545.79L1052.08,519.86L1052.72,546.66L1057.85,546.88L1058.49,546.81L1060.42,547.11L1061.06,546.82L1063.62,547.06L1064.26,547.03L1064.91,545.49L1065.55,547L1068.11,546.93L1068.75,546.17L1069.4,540.38L1070.04,546.91L1071.96,547.03L1072.6,543L1073.89,547.03L1074.53,546.94L1075.81,546.69L1076.45,547L1077.09,546.23L1077.74,547.01L1084.15,546.98L1084.79,546.76L1089.28,547.12L1089.92,546.96L1090.57,547.01L1091.21,524.46L1091.85,546.88L1092.49,545.99L1093.13,547.02L1098.26,547.12L1098.91,547.06L1109.17,547.08L1109.81,546.3L1113.02,546.96L1113.66,544.87L1114.94,546.88L1115.58,547.06L1132.26,547.1L1132.91,546.78L1134.83,546.9L1135.47,501.41L1136.75,547.1L1137.4,547.07L1147.66,547.06L1148.3,536.09L1149.58,546.86L1150.23,546.95L1163.06,547.11L1163.7,547.12L1166.26,547.12L1166.91,545.83L1168.19,546.97L1168.83,546L1170.11,547.11L1170.75,547.09L1175.89,547.02L1176.53,546.58L1177.81,547.15L1178.45,546.55L1180.38,547.12L1181.02,546.82L1182.3,547.11L1182.94,547.12L1197.06,547.14L1197.7,547.06L1198.34,547.15L1198.98,545.75L1200.26,547.15L1200.91,547.02L1205.4,547.1L1206.04,547.13L1220.79,547.15L1221.43,539.73L1222.72,547.16L1223.36,547.15L1225.28,547.16L1225.92,544.71L1227.21,547.11L1227.85,547.14L1232.98,547.16L1233.62,547.17L1241.32,547.13L1241.96,547.15L1245.17,546.72L1245.81,547.15L1267.62,547.14L1268.26,546.24L1269.55,547.18L1270.19,547.18L1290.72,547.18L1291.36,541.84L1292.64,546.99L1293.28,547.07L1293.92,545.91L1294.57,546.86L1298.42,547.09L1299.06,547.13L1315.09,547.1L1315.74,546.76L1317.66,547.16L1318.3,547.08L1324.72,547.15L1325.36,547.02L1329.21,547.18L1329.85,547.18L1356.79,547.12L1357.43,547.16L1374.11,547.18L1374.75,547.17L1399.77,547.19L1400.42,547.19L1530,547.2" style="vector-effect: non-scaling-stroke; fill: none; stroke: rgb(148, 103, 189); stroke-opacity: 1; stroke-width: 2px; opacity: 1;"/></g><g class="points"/><g class="text"/></g></g></g><g class="overplot"/><path class="xlines-above crisp" d="M0,0" style="fill: none;"/><path class="ylines-above crisp" d="M0,0" style="fill: none;"/><g class="overlines-above"/><g class="xaxislayer-above"><g class="xtick"><text text-anchor="middle" x="0" y="649" transform="translate(204.77,0)" style="font-family: 'Open Sans', verdana, arial, sans-serif; font-size: 12px; fill: rgb(68, 68, 68); fill-opacity: 1; white-space: pre; opacity: 1;">20</text></g><g class="xtick"><text text-anchor="middle" x="0" y="649" style="font-family: 'Open Sans', verdana, arial, sans-serif; font-size: 12px; fill: rgb(68, 68, 68); fill-opacity: 1; white-space: pre; opacity: 1;" transform="translate(357.83,0)">40</text></g><g class="xtick"><text text-anchor="middle" x="0" y="649" style="font-family: 'Open Sans', verdana, arial, sans-serif; font-size: 12px; fill: rgb(68, 68, 68); fill-opacity: 1; white-space: pre; opacity: 1;" transform="translate(510.9,0)">60</text></g><g class="xtick"><text text-anchor="middle" x="0" y="649" style="font-family: 'Open Sans', verdana, arial, sans-serif; font-size: 12px; fill: rgb(68, 68, 68); fill-opacity: 1; white-space: pre; opacity: 1;" transform="translate(663.96,0)">80</text></g><g class="xtick"><text text-anchor="middle" x="0" y="649" style="font-family: 'Open Sans', verdana, arial, sans-serif; font-size: 12px; fill: rgb(68, 68, 68); fill-opacity: 1; white-space: pre; opacity: 1;" transform="translate(817.03,0)">100</text></g><g class="xtick"><text text-anchor="middle" x="0" y="649" style="font-family: 'Open Sans', verdana, arial, sans-serif; font-size: 12px; fill: rgb(68, 68, 68); fill-opacity: 1; white-space: pre; opacity: 1;" transform="translate(970.09,0)">120</text></g><g class="xtick"><text text-anchor="middle" x="0" y="649" style="font-family: 'Open Sans', verdana, arial, sans-serif; font-size: 12px; fill: rgb(68, 68, 68); fill-opacity: 1; white-space: pre; opacity: 1;" transform="translate(1123.15,0)">140</text></g><g class="xtick"><text text-anchor="middle" x="0" y="649" style="font-family: 'Open Sans', verdana, arial, sans-serif; font-size: 12px; fill: rgb(68, 68, 68); fill-opacity: 1; white-space: pre; opacity: 1;" transform="translate(1276.22,0)">160</text></g><g class="xtick"><text text-anchor="middle" x="0" y="649" style="font-family: 'Open Sans', verdana, arial, sans-serif; font-size: 12px; fill: rgb(68, 68, 68); fill-opacity: 1; white-space: pre; opacity: 1;" transform="translate(1429.28,0)">180</text></g><g class="xtick"><text text-anchor="middle" x="0" y="649" style="font-family: 'Open Sans', verdana, arial, sans-serif; font-size: 12px; fill: rgb(68, 68, 68); fill-opacity: 1; white-space: pre; opacity: 1;" transform="translate(1582.35,0)">200</text></g></g><g class="yaxislayer-above"><g class="ytick"><text text-anchor="end" x="59" y="4.199999999999999" transform="translate(0,607.2)" style="font-family: 'Open Sans', verdana, arial, sans-serif; font-size: 12px; fill: rgb(68, 68, 68); fill-opacity: 1; white-space: pre; opacity: 1;">0</text></g><g class="ytick"><text text-anchor="end" x="59" y="4.199999999999999" style="font-family: 'Open Sans', verdana, arial, sans-serif; font-size: 12px; fill: rgb(68, 68, 68); fill-opacity: 1; white-space: pre; opacity: 1;" transform="translate(0,533.71)">0.1</text></g><g class="ytick"><text text-anchor="end" x="59" y="4.199999999999999" style="font-family: 'Open Sans', verdana, arial, sans-serif; font-size: 12px; fill: rgb(68, 68, 68); fill-opacity: 1; white-space: pre; opacity: 1;" transform="translate(0,460.22)">0.2</text></g><g class="ytick"><text text-anchor="end" x="59" y="4.199999999999999" style="font-family: 'Open Sans', verdana, arial, sans-serif; font-size: 12px; fill: rgb(68, 68, 68); fill-opacity: 1; white-space: pre; opacity: 1;" transform="translate(0,386.72)">0.3</text></g><g class="ytick"><text text-anchor="end" x="59" y="4.199999999999999" style="font-family: 'Open Sans', verdana, arial, sans-serif; font-size: 12px; fill: rgb(68, 68, 68); fill-opacity: 1; white-space: pre; opacity: 1;" transform="translate(0,313.23)">0.4</text></g><g class="ytick"><text text-anchor="end" x="59" y="4.199999999999999" style="font-family: 'Open Sans', verdana, arial, sans-serif; font-size: 12px; fill: rgb(68, 68, 68); fill-opacity: 1; white-space: pre; opacity: 1;" transform="translate(0,239.73)">0.5</text></g><g class="ytick"><text text-anchor="end" x="59" y="4.199999999999999" style="font-family: 'Open Sans', verdana, arial, sans-serif; font-size: 12px; fill: rgb(68, 68, 68); fill-opacity: 1; white-space: pre; opacity: 1;" transform="translate(0,166.24)">0.6</text></g><g class="ytick"><text text-anchor="end" x="59" y="4.199999999999999" style="font-family: 'Open Sans', verdana, arial, sans-serif; font-size: 12px; fill: rgb(68, 68, 68); fill-opacity: 1; white-space: pre; opacity: 1;" transform="translate(0,92.75)">0.7</text></g></g><g class="overaxes-above"/></g></g><g class="polarlayer"/><g class="smithlayer"/><g class="ternarylayer"/><g class="geolayer"/><g class="funnelarealayer"/><g class="pielayer"/><g class="iciclelayer"/><g class="treemaplayer"/><g class="sunburstlayer"/><g class="glimages"/><defs id="topdefs-e0a19d"><g class="clips"/><clipPath id="legende0a19d"><rect width="88" height="162" x="0" y="0"/></clipPath></defs><g class="layer-above"><g class="imagelayer"/><g class="shapelayer"/></g><g class="infolayer"><g class="legend" pointer-events="all" transform="translate(1620.6000000000001,60)"><rect class="bg" shape-rendering="crispEdges" width="88" height="162" x="0" y="0" style="stroke: rgb(68, 68, 68); stroke-opacity: 1; fill: rgb(255, 255, 255); fill-opacity: 1; stroke-width: 0px;"/><g class="scrollbox" transform="" clip-path="url(#legende0a19d)"><g class="groups"><g class="traces" transform="translate(0,14.5)" style="opacity: 0.5;"><text class="legendtext" text-anchor="start" x="40" y="4.680000000000001" style="font-family: 'Open Sans', verdana, arial, sans-serif; font-size: 12px; fill: rgb(68, 68, 68); fill-opacity: 1; white-space: pre;">D_A</text><g class="layers" style="opacity: 1;"><g class="legendfill"/><g class="legendlines"><path class="js-line" d="M5,0h30" style="fill: none; stroke: rgb(31, 119, 180); stroke-opacity: 1; stroke-width: 2px;"/></g><g class="legendsymbols"><g class="legendpoints"/></g></g><rect class="legendtoggle" x="0" y="-9.5" width="82.54679107666016" height="19" style="fill: rgb(0, 0, 0); fill-opacity: 0;"/></g><g class="traces" transform="translate(0,33.5)" style="opacity: 0.5;"><text class="legendtext" text-anchor="start" x="40" y="4.680000000000001" style="font-family: 'Open Sans', verdana, arial, sans-serif; font-size: 12px; fill: rgb(68, 68, 68); fill-opacity: 1; white-space: pre;">G_A</text><g class="layers" style="opacity: 1;"><g class="legendfill"/><g class="legendlines"><path class="js-line" d="M5,0h30" style="fill: none; stroke: rgb(255, 127, 14); stroke-opacity: 1; stroke-width: 2px;"/></g><g class="legendsymbols"><g class="legendpoints"/></g></g><rect class="legendtoggle" x="0" y="-9.5" width="82.54679107666016" height="19" style="fill: rgb(0, 0, 0); fill-opacity: 0;"/></g><g class="traces" transform="translate(0,52.5)" style="opacity: 0.5;"><text class="legendtext" text-anchor="start" x="40" y="4.680000000000001" style="font-family: 'Open Sans', verdana, arial, sans-serif; font-size: 12px; fill: rgb(68, 68, 68); fill-opacity: 1; white-space: pre;">cycle_A</text><g class="layers" style="opacity: 1;"><g class="legendfill"/><g class="legendlines"><path class="js-line" d="M5,0h30" style="fill: none; stroke: rgb(44, 160, 44); stroke-opacity: 1; stroke-width: 2px;"/></g><g class="legendsymbols"><g class="legendpoints"/></g></g><rect class="legendtoggle" x="0" y="-9.5" width="82.54679107666016" height="19" style="fill: rgb(0, 0, 0); fill-opacity: 0;"/></g><g class="traces" transform="translate(0,71.5)" style="opacity: 0.5;"><text class="legendtext" text-anchor="start" x="40" y="4.680000000000001" style="font-family: 'Open Sans', verdana, arial, sans-serif; font-size: 12px; fill: rgb(68, 68, 68); fill-opacity: 1; white-space: pre;">idt_A</text><g class="layers" style="opacity: 1;"><g class="legendfill"/><g class="legendlines"><path class="js-line" d="M5,0h30" style="fill: none; stroke: rgb(214, 39, 40); stroke-opacity: 1; stroke-width: 2px;"/></g><g class="legendsymbols"><g class="legendpoints"/></g></g><rect class="legendtoggle" x="0" y="-9.5" width="82.54679107666016" height="19" style="fill: rgb(0, 0, 0); fill-opacity: 0;"/></g><g class="traces" transform="translate(0,90.5)" style="opacity: 1;"><text class="legendtext" text-anchor="start" x="40" y="4.680000000000001" style="font-family: 'Open Sans', verdana, arial, sans-serif; font-size: 12px; fill: rgb(68, 68, 68); fill-opacity: 1; white-space: pre;">D_B</text><g class="layers" style="opacity: 1;"><g class="legendfill"/><g class="legendlines"><path class="js-line" d="M5,0h30" style="fill: none; stroke: rgb(148, 103, 189); stroke-opacity: 1; stroke-width: 2px;"/></g><g class="legendsymbols"><g class="legendpoints"/></g></g><rect class="legendtoggle" x="0" y="-9.5" width="82.54679107666016" height="19" style="fill: rgb(0, 0, 0); fill-opacity: 0;"/></g><g class="traces" transform="translate(0,109.5)" style="opacity: 0.5;"><text class="legendtext" text-anchor="start" x="40" y="4.680000000000001" style="font-family: 'Open Sans', verdana, arial, sans-serif; font-size: 12px; fill: rgb(68, 68, 68); fill-opacity: 1; white-space: pre;">G_B</text><g class="layers" style="opacity: 1;"><g class="legendfill"/><g class="legendlines"><path class="js-line" d="M5,0h30" style="fill: none; stroke: rgb(140, 86, 75); stroke-opacity: 1; stroke-width: 2px;"/></g><g class="legendsymbols"><g class="legendpoints"/></g></g><rect class="legendtoggle" x="0" y="-9.5" width="82.54679107666016" height="19" style="fill: rgb(0, 0, 0); fill-opacity: 0;"/></g><g class="traces" transform="translate(0,128.5)" style="opacity: 0.5;"><text class="legendtext" text-anchor="start" x="40" y="4.680000000000001" style="font-family: 'Open Sans', verdana, arial, sans-serif; font-size: 12px; fill: rgb(68, 68, 68); fill-opacity: 1; white-space: pre;">cycle_B</text><g class="layers" style="opacity: 1;"><g class="legendfill"/><g class="legendlines"><path class="js-line" d="M5,0h30" style="fill: none; stroke: rgb(227, 119, 194); stroke-opacity: 1; stroke-width: 2px;"/></g><g class="legendsymbols"><g class="legendpoints"/></g></g><rect class="legendtoggle" x="0" y="-9.5" width="82.54679107666016" height="19" style="fill: rgb(0, 0, 0); fill-opacity: 0;"/></g><g class="traces" transform="translate(0,147.5)" style="opacity: 0.5;"><text class="legendtext" text-anchor="start" x="40" y="4.680000000000001" style="font-family: 'Open Sans', verdana, arial, sans-serif; font-size: 12px; fill: rgb(68, 68, 68); fill-opacity: 1; white-space: pre;">idt_B</text><g class="layers" style="opacity: 1;"><g class="legendfill"/><g class="legendlines"><path class="js-line" d="M5,0h30" style="fill: none; stroke: rgb(127, 127, 127); stroke-opacity: 1; stroke-width: 2px;"/></g><g class="legendsymbols"><g class="legendpoints"/></g></g><rect class="legendtoggle" x="0" y="-9.5" width="82.54679107666016" height="19" style="fill: rgb(0, 0, 0); fill-opacity: 0;"/></g></g></g><rect class="scrollbar" rx="20" ry="3" width="0" height="0" x="0" y="0" style="fill: rgb(128, 139, 164); fill-opacity: 1;"/></g><g class="g-gtitle"><text class="gtitle" x="860.5" y="30" text-anchor="middle" dy="0em" style="font-family: 'Open Sans', verdana, arial, sans-serif; font-size: 17px; fill: rgb(68, 68, 68); opacity: 1; font-weight: normal; white-space: pre;">cleanDataTrain loss over time</text></g><g class="g-xtitle"><text class="xtitle" x="825" y="688" text-anchor="middle" style="font-family: 'Open Sans', verdana, arial, sans-serif; font-size: 14px; fill: rgb(68, 68, 68); opacity: 1; font-weight: normal; white-space: pre;">epoch</text></g><g class="g-ytitle"><text class="ytitle" transform="rotate(-90,22,348)" x="22" y="348" text-anchor="middle" style="font-family: 'Open Sans', verdana, arial, sans-serif; font-size: 14px; fill: rgb(68, 68, 68); opacity: 1; font-weight: normal; white-space: pre;">loss</text></g></g></svg>