<svg class="main-svg" xmlns="http://www.w3.org/2000/svg" xmlns:xlink="http://www.w3.org/1999/xlink" width="1721" height="696" style="" viewBox="0 0 1721 696"><rect x="0" y="0" width="1721" height="696" style="fill: rgb(255, 255, 255); fill-opacity: 1;"/><defs id="defs-9e0b60"><g class="clips"><clipPath id="clip9e0b60xyplot" class="plotclip"><rect width="1530" height="576"/></clipPath><clipPath class="axesclip" id="clip9e0b60x"><rect x="60" y="0" width="1530" height="696"/></clipPath><clipPath class="axesclip" id="clip9e0b60y"><rect x="0" y="60" width="1721" height="576"/></clipPath><clipPath class="axesclip" id="clip9e0b60xy"><rect x="60" y="60" width="1530" height="576"/></clipPath></g><g class="gradients"/><g class="patterns"/></defs><g class="bglayer"/><g class="layer-below"><g class="imagelayer"/><g class="shapelayer"/></g><g class="cartesianlayer"><g class="subplot xy"><g class="layer-subplot"><g class="shapelayer"/><g class="imagelayer"/></g><g class="gridlayer"><g class="x"><path class="xgrid crisp" transform="translate(204.77,0)" d="M0,60v576" style="stroke: rgb(238, 238, 238); stroke-opacity: 1; stroke-width: 1px;"/><path class="xgrid crisp" transform="translate(357.83,0)" d="M0,60v576" style="stroke: rgb(238, 238, 238); stroke-opacity: 1; stroke-width: 1px;"/><path class="xgrid crisp" transform="translate(510.9,0)" d="M0,60v576" style="stroke: rgb(238, 238, 238); stroke-opacity: 1; stroke-width: 1px;"/><path class="xgrid crisp" transform="translate(663.96,0)" d="M0,60v576" style="stroke: rgb(238, 238, 238); stroke-opacity: 1; stroke-width: 1px;"/><path class="xgrid crisp" transform="translate(817.03,0)" d="M0,60v576" style="stroke: rgb(238, 238, 238); stroke-opacity: 1; stroke-width: 1px;"/><path class="xgrid crisp" transform="translate(970.09,0)" d="M0,60v576" style="stroke: rgb(238, 238, 238); stroke-opacity: 1; stroke-width: 1px;"/><path class="xgrid crisp" transform="translate(1123.15,0)" d="M0,60v576" style="stroke: rgb(238, 238, 238); stroke-opacity: 1; stroke-width: 1px;"/><path class="xgrid crisp" transform="translate(1276.22,0)" d="M0,60v576" style="stroke: rgb(238, 238, 238); stroke-opacity: 1; stroke-width: 1px;"/><path class="xgrid crisp" transform="translate(1429.28,0)" d="M0,60v576" style="stroke: rgb(238, 238, 238); stroke-opacity: 1; stroke-width: 1px;"/><path class="xgrid crisp" transform="translate(1582.35,0)" d="M0,60v576" style="stroke: rgb(238, 238, 238); stroke-opacity: 1; stroke-width: 1px;"/></g><g class="y"><path class="ygrid crisp" transform="translate(0,543.56)" d="M60,0h1530" style="stroke: rgb(238, 238, 238); stroke-opacity: 1; stroke-width: 1px;"/><path class="ygrid crisp" transform="translate(0,468.24)" d="M60,0h1530" style="stroke: rgb(238, 238, 238); stroke-opacity: 1; stroke-width: 1px;"/><path class="ygrid crisp" transform="translate(0,392.93)" d="M60,0h1530" style="stroke: rgb(238, 238, 238); stroke-opacity: 1; stroke-width: 1px;"/><path class="ygrid crisp" transform="translate(0,317.61)" d="M60,0h1530" style="stroke: rgb(238, 238, 238); stroke-opacity: 1; stroke-width: 1px;"/><path class="ygrid crisp" transform="translate(0,242.29)" d="M60,0h1530" style="stroke: rgb(238, 238, 238); stroke-opacity: 1; stroke-width: 1px;"/><path class="ygrid crisp" transform="translate(0,166.97)" d="M60,0h1530" style="stroke: rgb(238, 238, 238); stroke-opacity: 1; stroke-width: 1px;"/><path class="ygrid crisp" transform="translate(0,91.66)" d="M60,0h1530" style="stroke: rgb(238, 238, 238); stroke-opacity: 1; stroke-width: 1px;"/></g></g><g class="zerolinelayer"><path class="yzl zl crisp" transform="translate(0,618.88)" d="M60,0h1530" style="stroke: rgb(68, 68, 68); stroke-opacity: 1; stroke-width: 1px;"/></g><path class="xlines-below"/><path class="ylines-below"/><g class="overlines-below"/><g class="xaxislayer-below"/><g class="yaxislayer-below"/><g class="overaxes-below"/><g class="plot" transform="translate(60,60)" clip-path="url(#clip9e0b60xyplot)"><g class="scatterlayer mlayer"><g class="trace scatter tracea6d3a5" style="stroke-miterlimit: 2; opacity: 1;"><g class="fills"/><g class="errorbars"/><g class="lines"><path class="js-line" d="M0,426.04L0.64,422.29L1.28,406.64L1.92,442.99L2.57,433.8L3.21,434.47L3.85,343.87L4.49,508.27L5.13,355.36L7.06,494L7.7,442.26L9.62,327.7L10.26,369.57L10.91,442.58L11.55,422.95L12.19,424.9L12.83,481.99L13.47,421.2L14.11,545.92L14.75,447.52L15.4,492.57L16.04,407.5L16.68,520.08L17.32,419.77L17.96,469.51L18.6,473.08L19.25,458.94L19.89,486.1L20.53,436.49L21.17,521.33L21.81,484.19L23.09,516.63L23.74,472.64L24.38,495.99L25.02,485.05L25.66,493.12L26.3,390.62L26.94,415.98L27.58,483.77L28.23,441.18L28.87,525.37L29.51,510.43L30.15,381.33L30.79,447.95L31.43,359.56L32.72,467.78L33.36,446.44L34,367.5L34.64,504.68L35.28,414.73L35.92,456.44L36.57,330.47L37.21,467.4L37.85,514.93L38.49,423.36L39.13,529.18L39.77,296.39L40.42,513.11L41.06,422.41L41.7,530.93L42.34,368.62L43.62,505.18L44.26,369.91L46.19,470.9L46.83,399.99L47.47,274.02L48.11,476.61L48.75,284.25L49.4,490.39L50.04,483.12L50.68,426.01L51.32,527.63L51.96,428.78L53.25,530.55L53.89,536.77L54.53,470.39L55.17,492.39L55.81,360.99L56.45,398.86L57.74,471.06L58.38,480.19L59.02,467.65L59.66,404.13L60.3,347.18L60.94,529.27L61.58,350.61L62.23,401.26L62.87,469.35L63.51,437.4L64.15,475.53L64.79,430.88L65.43,368.64L66.08,441.82L67.36,334.89L68,478.29L68.64,495.64L69.28,401.35L69.92,439.16L70.57,395.94L71.21,433.42L71.85,377.04L72.49,497.85L73.13,470.49L73.77,250.25L74.42,353.94L75.06,543.02L75.7,491.15L76.34,339.56L76.98,404L77.62,140.33L78.26,276.42L78.91,390.44L79.55,371.92L80.19,366.19L80.83,482.42L81.47,477.03L82.11,394.48L83.4,430.3L84.04,454.67L84.68,489.54L85.32,478.37L85.96,410.76L86.6,488.61L87.25,474.75L87.89,362.16L88.53,232.27L89.17,336.36L90.45,529.03L91.09,432.76L91.74,316.59L92.38,393.31L93.02,248.73L93.66,463.35L94.3,337.59L94.94,501.79L95.58,387.15L96.23,410.97L96.87,517.28L97.51,406.42L98.15,389.19L98.79,229.03L100.08,507.31L100.72,480.41L101.36,435.95L102,463.42L103.28,366.83L103.92,430.6L105.21,462.28L105.85,457.89L106.49,547.2L107.13,465.97L107.77,380.05L108.42,469.52L109.06,365.58L109.7,501.27L110.98,409.3L111.62,524.28L112.91,451.81L113.55,348.22L114.19,281.19L114.83,417.53L115.47,432.25L116.11,303.3L117.4,453.63L118.04,427.45L118.68,463.72L119.32,248.77L119.96,284.42L120.6,452.57L121.25,373.21L121.89,487.54L122.53,487.18L123.17,495.79L123.81,371.59L124.45,505.1L125.09,509.85L125.74,238.26L127.02,481.16L127.66,459.98L128.3,509L128.94,415.41L129.58,397.65L130.23,453.31L130.87,360.34L131.51,401.15L132.15,391.12L132.79,454.42L133.43,367.58L134.08,392.19L135.36,498L136,418.56L137.28,476.39L137.92,396.03L138.57,316.78L139.21,545.81L140.49,420.96L141.13,523.94L141.77,348.24L142.42,472.75L143.06,334.81L143.7,417.9L144.34,493.15L144.98,428.44L145.62,280.82L146.26,449.24L146.91,519.67L147.55,409.21L148.19,427.62L148.83,493.34L150.11,176.23L150.75,454.51L151.4,386.82L152.04,398.74L152.68,463.59L153.32,257.91L154.6,412.03L155.25,454.01L155.89,441.26L156.53,485.02L157.17,360.16L157.81,518.58L158.45,480.2L159.09,499.56L160.38,341.9L161.02,403.68L162.3,477.85L162.94,354.43L163.58,314.94L164.23,505.66L166.15,357.7L166.79,476.66L167.43,403.69L168.08,455.4L169.36,467.34L170,392.34L171.28,310.45L171.92,491.01L172.57,212.21L173.21,240.96L173.85,346.34L175.13,520.12L175.77,410.33L176.42,491.14L177.06,406.03L178.34,342.07L178.98,404.18L179.62,521.05L180.26,436.55L180.91,359.92L181.55,443.5L182.83,472.75L183.47,378.21L184.11,492.22L184.75,257.24L186.04,517.13L186.68,402.01L187.32,301.29L187.96,497.38L188.6,517.69L189.25,415.64L189.89,526.38L190.53,345.57L191.17,226.38L191.81,410.74L193.09,546.4L193.74,463.53L194.38,350.08L195.02,472.79L196.3,332.69L196.94,326.79L198.23,528.36L198.87,350.23L199.51,362L200.15,506.84L200.79,517.63L201.43,304.95L202.08,452.23L202.72,400.16L203.36,475.26L204,401.91L204.64,478.66L205.28,363.67L205.92,323.31L206.57,372.07L207.21,302.37L207.85,449.73L208.49,364.59L209.13,518.17L209.77,290.12L210.42,479.11L211.7,330.02L212.34,403.16L212.98,388.58L213.62,350.9L214.91,478.62L215.55,434.62L216.83,526.45L217.47,315.68L218.11,431.1L218.75,351.32L219.4,516.35L220.04,357.89L221.32,508.98L221.96,407.91L222.6,427.95L223.25,399.98L223.89,459.87L224.53,417.6L225.17,423.89L225.81,318.34L227.09,485.2L227.74,464.44L228.38,421.37L229.02,189.64L230.3,488.39L230.94,423.12L231.58,437.01L232.23,401.68L232.87,356.05L233.51,476.72L234.15,356.7L234.79,386.67L236.08,419.07L236.72,424.1L237.36,457.87L238,291.39L239.28,319.11L239.92,475.53L240.57,361.1L241.21,525.57L242.49,378.49L243.13,472.18L243.77,501.58L244.42,417.65L245.06,453.53L245.7,365.4L246.34,463.92L246.98,287.36L247.62,307.88L248.26,460.09L248.91,424.86L249.55,463.52L250.19,283.6L250.83,343.02L251.47,293.64L252.11,420.84L252.75,314.86L253.4,481.21L254.68,364.48L255.32,472.54L255.96,416.01L256.6,465.37L257.25,218L257.89,452.46L258.53,521.7L259.17,376.58L260.45,500.43L261.09,488.37L261.74,393.82L262.38,442.99L263.02,338.8L263.66,437.85L264.94,336.31L265.58,240.94L266.87,461.45L267.51,408.17L268.79,463.11L269.43,453.87L270.72,305.08L271.36,462.14L272.64,362.9L273.28,382.24L274.57,510.77L275.21,411.13L275.85,518.19L276.49,389.01L277.13,224.71L277.77,386.22L278.42,252.18L279.06,440.67L279.7,517.64L280.34,468.32L280.98,513.31L281.62,464.88L282.26,230.59L282.91,465.96L283.55,515.42L284.19,481.07L284.83,499.47L285.47,399.8L286.11,393.37L286.75,434.28L287.4,436.69L288.04,461.2L288.68,545.81L289.32,307.47L290.6,469.6L291.25,467.96L292.53,182.68L293.17,406.31L293.81,314.05L294.45,463.96L295.09,371.26L295.74,453.23L297.02,328.16L297.66,379.87L298.94,498.84L299.58,400.47L300.23,388.46L300.87,413.66L301.51,280.8L302.15,354.13L302.79,404.55L303.43,205.72L304.72,424.69L305.36,450.79L306.64,490.28L307.28,447.06L307.92,339.24L308.57,515.18L310.49,240.73L311.13,442.28L311.77,412.07L312.42,335.11L313.06,402.11L313.7,328.33L314.34,276.68L314.98,414.63L315.62,397.61L316.26,353.44L316.91,171.29L317.55,378.12L318.19,405.31L318.83,392.49L319.47,383.79L320.11,428.27L320.75,361.18L321.4,372.87L322.68,485.68L323.32,399.72L323.96,471.39L324.6,262.55L325.25,280.15L325.89,540.72L326.53,334.08L327.17,379.72L327.81,415.08L328.45,339.16L329.09,467.57L329.74,361.49L330.38,207.65L331.02,251.13L331.66,267.43L332.3,373.28L332.94,446.36L333.58,423.21L334.87,238.58L335.51,450.67L336.15,475.44L336.79,393.08L338.08,495.5L338.72,379.65L339.36,219.5L340,501.51L340.64,347.04L341.28,445.32L341.92,436.73L342.57,536.38L343.21,266.86L343.85,449L344.49,461.61L345.13,501.82L347.06,240.08L347.7,397.09L348.34,309.97L348.98,389.57L349.62,451.18L350.26,299.07L350.91,497.07L351.55,321.8L352.19,332.59L352.83,230.75L354.11,478.17L354.75,375.7L355.4,346.49L356.04,420.78L356.68,523.43L357.32,297.63L357.96,491.71L358.6,220.57L359.25,474.14L359.89,438.93L360.53,356.77L361.17,438.14L361.81,436.21L362.45,382.52L363.09,398.39L363.74,464.04L365.02,361.14L365.66,401.61L366.3,422.72L366.94,469.37L367.58,516.6L368.23,416.74L368.87,389.92L369.51,393.04L370.15,323.83L371.43,482.48L372.08,219.14L372.72,115.82L373.36,412.3L374,391.61L374.64,429.57L375.28,379.83L375.92,250.94L376.57,524.37L377.21,371.73L378.49,456.64L379.13,357.36L379.77,199.61L380.42,440.2L381.06,347.3L381.7,409.52L382.34,492.76L382.98,330.32L383.62,414.67L384.26,397.67L385.55,350.99L386.19,395.11L386.83,527.37L387.47,296.44L388.75,516.92L389.4,396.55L390.68,447.9L391.32,431.5L391.96,473.59L392.6,416.88L393.25,446.51L393.89,383.03L394.53,409.81L395.17,367.23L396.45,423.61L397.09,362.63L397.74,447.33L398.38,360.14L399.02,381.61L399.66,351.83L400.3,361.27L400.94,384.14L401.58,381.4L402.23,506.8L402.87,400.86L403.51,510.24L404.15,313.29L404.79,320.51L405.43,374.98L406.08,310.45L406.72,462.93L408,392.74L408.64,479.2L409.28,281.7L409.92,398.49L410.57,180.58L411.21,433.22L411.85,449L412.49,371.92L413.13,484.67L413.77,409.3L414.42,428.94L415.06,425.15L415.7,259.19L416.34,340.62L416.98,232.15L417.62,413.2L418.26,315.97L418.91,335.23L419.55,355.47L420.19,455.47L420.83,264.87L421.47,439.89L422.11,449.03L422.75,386.64L423.4,393.35L424.04,436.41L424.68,427.58L425.32,465.07L425.96,298.73L426.6,379.53L427.25,394.05L427.89,463.48L428.53,496.84L429.17,212.45L430.45,492.48L431.09,344.93L431.74,379.45L432.38,272.81L433.66,503.24L434.3,303.09L434.94,454.78L435.58,242.97L436.87,408.14L437.51,361.83L438.15,373.17L438.79,457.63L439.43,240.99L440.08,384.52L440.72,460.48L441.36,436.62L442.64,292.71L443.28,370.23L443.92,459.49L444.57,349.56L445.85,493.91L446.49,526.36L447.13,139.64L447.77,375.38L448.42,437.51L449.06,411.67L449.7,325.36L450.34,423.81L450.98,452.59L451.62,239.44L452.91,415.94L453.55,349.66L454.19,419.43L454.83,239.63L455.47,376.12L456.11,294.03L457.4,421.47L458.04,418.68L458.68,476.68L459.32,245.3L460.6,442.11L461.25,436.32L461.89,393.85L462.53,421.85L463.17,367.19L463.81,534.32L465.09,324.69L465.74,346.51L466.38,508.24L467.02,309.06L467.66,245.81L468.3,423.82L469.58,470.57L470.23,344.88L470.87,299.77L471.51,419.16L472.15,347.12L472.79,118.6L474.08,482.61L474.72,157.56L475.36,495.05L476,404.49L477.28,433.69L477.92,358.61L478.57,408.35L479.21,265.04L479.85,195.98L480.49,470.58L482.42,306.97L483.06,401.4L483.7,377.47L484.34,491.13L484.98,313.76L485.62,513.35L486.26,504.49L486.91,472.19L487.55,426.9L488.19,473.81L488.83,224.95L489.47,420.74L490.11,389.29L490.75,313.51L492.04,523.24L492.68,378.26L493.32,351.67L493.96,468.11L494.6,474.14L495.25,417.41L496.53,446.74L497.17,413.37L497.81,382.28L498.45,502.69L499.09,322.38L499.74,425.47L500.38,432.27L501.02,428.26L501.66,524.72L502.3,389.98L502.94,497.08L503.58,399.83L504.23,407.24L504.87,448.5L506.15,337.83L506.79,98.28L507.43,422.76L508.08,166.13L509.36,476.88L510,335.62L511.28,501.91L511.92,464.87L512.57,400.67L513.21,408.51L513.85,415.88L514.49,193.77L515.13,291.21L515.77,459.64L516.42,327.31L517.7,515.33L518.34,109.71L518.98,455.2L519.62,423.29L520.26,389.36L520.91,263.25L521.55,447.68L522.19,437.25L522.83,237.22L523.47,277.18L524.11,442.92L524.75,279.63L525.4,390.93L526.04,393.53L526.68,342.16L527.32,356.45L527.96,446.53L528.6,485.74L529.25,374.89L529.89,253.07L530.53,424.61L531.17,314.76L531.81,339.28L532.45,380.92L533.09,490.21L533.74,418.91L534.38,438.35L535.02,349.57L535.66,477.25L537.58,320.69L538.23,452.14L538.87,498.76L539.51,320.76L540.15,439.42L540.79,392.96L541.43,395.53L542.08,232.73L542.72,470.25L543.36,358.82L544,482.72L544.64,354.66L545.28,351.91L545.92,394.67L547.85,512.84L548.49,386.06L549.13,462.45L549.77,449.56L550.42,84.02L551.06,451.32L551.7,321.46L552.34,373.4L552.98,254.58L554.26,374.55L554.91,434.85L555.55,407.19L556.19,479.85L556.83,337.09L557.47,361.83L558.11,409.68L558.75,386.65L559.4,305.29L560.04,425.17L561.32,531.5L561.96,260.36L563.25,472.75L563.89,337.31L565.17,460.94L565.81,314.84L566.45,416.97L567.09,352.56L567.74,399.4L568.38,505.84L569.02,338.68L569.66,364.09L570.3,332.23L572.23,489L572.87,403.35L573.51,399.77L574.15,328.12L575.43,458.26L576.08,249.13L576.72,411.93L577.36,376.02L578,436.13L578.64,359.51L579.28,315.69L579.92,360.68L580.57,445.53L581.21,390.55L581.85,371.31L582.49,420.78L583.13,323.41L583.77,430.7L584.42,432.52L585.06,362.49L585.7,353.57L586.34,417.82L586.98,314.72L587.62,450.07L588.26,344.17L588.91,431.11L589.55,319.98L590.19,489.63L590.83,511.52L591.47,318.32L592.11,496.85L592.75,342.48L593.4,295.03L594.04,358.7L594.68,406.94L595.32,188.16L596.6,393.88L597.25,365.85L597.89,439.64L598.53,366.48L599.17,512.1L599.81,297.94L601.74,444.94L602.38,368.55L603.02,472.47L603.66,427.1L604.94,291.72L605.58,353.37L606.23,374.84L606.87,463.35L608.15,358.44L608.79,526.37L609.43,290L610.08,367.6L610.72,458.08L611.36,342.96L612,211.24L612.64,474.12L613.92,451.75L614.57,401.94L615.21,227.21L615.85,497.95L616.49,303.46L617.13,445.13L618.42,382.04L619.06,478.64L620.34,317.02L620.98,454.22L621.62,296.29L622.26,534.02L622.91,418.4L623.55,443.72L624.83,302.02L625.47,337.51L626.11,203.4L626.75,257.01L628.68,405.56L629.32,416.05L629.96,407.37L630.6,483.72L631.89,267.59L632.53,534.95L633.17,518.41L633.81,425.58L634.45,439.02L635.09,313.46L635.74,353.86L636.38,486.49L637.02,387.81L637.66,510.22L638.3,316.53L638.94,322.4L639.58,184.35L640.23,210.43L640.87,461.09L641.51,339.31L642.15,506.84L642.79,364.85L643.43,385.6L644.08,462.78L644.72,319.35L645.36,431.21L646.64,262.27L647.28,411.7L647.92,513.14L648.57,442.67L649.21,312.05L649.85,361.92L650.49,305.9L651.13,373.38L651.77,345.82L652.42,124.46L654.98,463.65L655.62,428.96L656.26,415.98L656.91,246.78L657.55,212.1L658.19,400.07L658.83,348.52L659.47,486.55L660.11,481.47L660.75,426.42L661.4,357.36L662.04,513.28L663.32,286.95L663.96,436L664.6,304.5L665.25,360.69L665.89,412.04L666.53,328.24L667.17,476.66L667.81,410.24L668.45,390.58L669.09,252.06L669.74,222.15L670.38,477.74L671.02,456.07L671.66,349.52L672.94,490.9L673.58,257.45L674.23,303.74L674.87,418.55L675.51,345.02L676.15,393.32L676.79,310.77L677.43,506.68L678.08,487.3L678.72,444.54L679.36,255.88L680,429.62L680.64,349.86L681.28,468.94L681.92,511.35L682.57,428.63L683.21,346.7L683.85,514.79L684.49,360.99L685.13,421L685.77,422.02L686.42,394.25L687.06,354.32L687.7,474.61L688.34,400.42L688.98,445.33L690.91,239.75L691.55,314.47L693.47,522.24L694.11,467.24L695.4,359.16L696.04,454.37L696.68,335.31L697.32,384.42L697.96,202.57L698.6,443.39L699.25,479.46L699.89,427.18L700.53,415.68L701.17,341.35L701.81,500.84L702.45,205.54L703.09,404.32L703.74,217.72L705.02,484.88L705.66,416.71L706.3,222.32L706.94,383.31L707.58,305.47L708.23,315.25L708.87,479.52L709.51,354.12L710.15,487.99L710.79,492.58L711.43,322.57L712.08,423.67L712.72,272.42L714,389.4L714.64,282.77L715.92,525.7L716.57,472.36L717.21,515.01L717.85,376.33L718.49,232.29L719.13,273.43L719.77,240.77L720.42,418.6L721.06,183.05L721.7,439.58L722.34,190.74L722.98,477.45L724.26,263.15L724.91,394.69L725.55,484.85L726.19,421.54L726.83,355L727.47,508.99L728.11,400.47L728.75,482.68L729.4,362.39L730.04,462.88L730.68,490.39L731.32,403.54L731.96,416.44L732.6,410.56L733.25,473.14L733.89,415.89L734.53,320.04L735.17,375.27L735.81,387.2L736.45,422.53L737.09,316.64L737.74,369.67L738.38,273.57L739.02,418.7L739.66,166.82L740.3,387.33L740.94,337.01L741.58,362.57L742.23,246.08L742.87,333.61L743.51,433.38L744.15,259.27L744.79,233.59L745.43,416.1L746.08,467.16L746.72,426.6L747.36,329.41L748,427.18L748.64,302.81L749.28,407.14L749.92,364.08L750.57,446.86L751.21,358.41L751.85,424.28L752.49,394.6L753.13,447.57L753.77,407.85L754.42,423.3L755.7,299.83L756.34,534.55L756.98,329.33L757.62,407.55L758.26,397.58L758.91,301.79L759.55,220.74L760.19,254.3L760.83,482.73L761.47,294.12L762.11,482.3L762.75,379.64L763.4,481.06L764.04,441.83L764.68,448.6L765.32,420.56L765.96,281.06L766.6,328.42L767.25,462.73L767.89,161.5L768.53,418.85L769.17,182.54L769.81,442.81L770.45,434.13L771.09,334.09L771.74,244.96L772.38,274.86L773.02,375.26L773.66,315.9L774.3,168.27L774.94,418.45L775.58,255.43L776.23,297.49L778.15,427.1L778.79,429.34L779.43,258.04L780.08,352.33L780.72,443.4L781.36,404.32L782,435.51L782.64,514.64L783.28,95.17L783.92,389.33L784.57,270.37L785.21,415.31L785.85,370.62L786.49,454.28L787.13,320.75L787.77,501.23L789.06,336.69L789.7,445.99L790.34,373.25L790.98,451.18L791.62,403.25L792.26,283.88L793.55,448.96L794.19,272.37L794.83,170.47L795.47,414.94L796.11,307.84L796.75,407.57L798.04,368.98L798.68,114.75L799.96,488.67L800.6,256.26L801.25,390.4L801.89,281.17L802.53,297.09L803.17,285.26L805.09,505.87L805.74,482.13L807.02,393.14L807.66,249.73L810.23,490.55L810.87,454.93L811.51,492.34L812.15,482.48L812.79,437.58L813.43,325.67L814.72,465.9L815.36,298.13L816,267.04L816.64,412.05L817.28,431.86L817.92,365.82L818.57,466.54L819.21,366.39L819.85,443.7L820.49,294.25L821.13,428.32L821.77,377.74L823.06,480.92L823.7,424.02L824.34,229.08L824.98,245.22L825.62,288.65L826.26,436.31L826.91,417.37L827.55,314.11L828.83,483.62L829.47,314.22L830.75,472.37L831.4,324.21L832.04,282.42L832.68,326.06L833.32,456.38L833.96,288.19L834.6,402.77L835.25,304.17L835.89,330.32L836.53,425.74L838.45,267.1L839.09,299.28L839.74,471.68L840.38,368.5L841.02,351.04L841.66,464.4L842.3,464.33L842.94,333.16L844.23,125.13L844.87,399.15L845.51,288.59L846.15,392.33L846.79,217.73L847.43,426.55L848.08,419.26L848.72,310.2L849.36,362.3L850,28.8L850.64,341.9L851.28,256.5L851.92,444.64L852.57,372.02L853.21,318.94L853.85,407.07L855.13,259.45L855.77,345.07L857.06,363.43L857.7,352.91L858.34,244.39L858.98,362.58L859.62,416.85L860.26,385.56L860.91,251.65L861.55,451.23L862.19,286.18L862.83,418.41L863.47,464.92L864.11,121.47L864.75,465.34L865.4,287.05L866.04,399.33L866.68,361.72L867.32,171.95L867.96,383.8L868.6,452.1L869.25,340.99L869.89,289.72L870.53,420.56L871.17,439.32L871.81,326.3L872.45,334.25L873.09,465.65L873.74,470.29L874.38,426.04L876.3,200.28L876.94,317.36L877.58,474.16L878.23,318.01L880.15,431.36L880.79,333.96L881.43,264.83L882.08,414.92L882.72,486.38L883.36,372.7L884,227.06L884.64,330.3L885.28,351.33L885.92,336.26L886.57,210.96L887.21,257.67L888.49,409.17L889.13,250.55L891.06,435.75L891.7,366.74L892.34,130.42L892.98,436.79L893.62,422.86L894.26,385.18L894.91,481.59L895.55,251.6L896.19,503.56L896.83,321.58L897.47,326.06L898.11,249.5L899.4,422.93L900.04,435.97L900.68,304.46L901.32,455.48L901.96,382.6L902.6,436.7L903.89,289.95L904.53,389.03L905.17,324.41L905.81,441.95L906.45,284.61L907.09,413.63L908.38,276.06L909.02,383.26L909.66,451.02L910.3,445.77L910.94,283.23L911.58,270.73L912.23,455.85L912.87,300.45L913.51,345.95L914.15,385.6L914.79,302.07L915.43,362.36L916.08,343.72L918.64,506.71L919.28,426.99L919.92,332.15L920.57,434.67L921.21,337.1L921.85,433.62L922.49,329.14L923.13,383.47L923.77,437.63L924.42,386.07L925.06,370.24L925.7,405.81L926.34,252.24L926.98,378.92L927.62,360.73L928.26,121.41L928.91,361L929.55,271.2L930.19,280.06L930.83,354.15L931.47,305.09L932.11,347.91L932.75,208.83L933.4,336.38L934.04,412.28L934.68,345.11L935.32,344.37L935.96,366.35L936.6,366.39L937.25,295.62L937.89,365.5L938.53,307.36L939.17,243.58L939.81,288.91L940.45,351.9L941.09,292.81L942.38,428.85L943.02,431.67L944.94,293.26L945.58,390.17L946.87,330.02L947.51,367.87L948.79,138.82L949.43,386.36L950.08,433.59L950.72,415.82L951.36,396.44L952,418.85L952.64,352.68L953.28,491.16L953.92,413.76L954.57,435.56L955.21,215.85L955.85,273.81L956.49,324.5L957.13,295.88L958.42,406.96L959.06,338.38L959.7,516.08L960.34,341.5L960.98,247.54L961.62,378.13L962.26,379.5L962.91,248.69L963.55,284.74L964.19,493.32L964.83,380.51L965.47,428.58L966.11,384.77L966.75,435.8L967.4,490.61L968.04,328.05L968.68,368.47L969.32,491.04L970.6,328.4L971.25,465.8L971.89,330.47L972.53,403.33L973.17,395.74L973.81,378L974.45,149.15L975.09,414.23L975.74,407.73L976.38,273.73L977.66,490.87L978.3,422.73L978.94,228.99L979.58,381.89L980.23,428.93L980.87,409.77L981.51,334.5L982.15,348.87L983.43,508.58L984.08,426.17L984.72,447.81L985.36,389.12L986.64,258.82L987.28,424.11L987.92,197.61L988.57,358.75L989.85,380.88L990.49,469.89L991.77,297.67L992.42,397.74L993.06,439.8L993.7,278.17L994.34,436.26L994.98,281.77L995.62,209.91L996.26,416.96L996.91,380.48L997.55,402.12L998.19,401.77L998.83,361.31L1000.11,399.94L1000.75,442.99L1001.4,410.63L1002.04,294.99L1002.68,323.65L1003.32,400.89L1004.6,363.38L1005.25,324L1005.89,378.06L1006.53,211.54L1007.81,494.89L1008.45,433.27L1009.74,333.09L1010.38,392.34L1012.3,293.09L1012.94,309.89L1014.23,506.28L1014.87,501.5L1015.51,428.85L1016.15,470.62L1016.79,244.71L1018.72,373.44L1019.36,265.26L1020,395.4L1020.64,319.04L1021.92,373.77L1022.57,449.82L1023.21,304.86L1023.85,324.06L1024.49,357.43L1025.13,254.66L1025.77,513.84L1026.42,379.03L1027.06,380.24L1027.7,294.02L1028.34,204.2L1028.98,371.12L1029.62,372.3L1030.26,358.81L1030.91,329.54L1031.55,380.59L1032.19,358.82L1032.83,435.79L1034.11,342.16L1034.75,501.94L1037.32,274.91L1037.96,358.25L1038.6,202.86L1039.25,241.75L1039.89,402.96L1040.53,279.15L1041.81,406.31L1042.45,355.67L1043.09,408.44L1043.74,378.5L1044.38,307.12L1045.02,413.59L1045.66,412.17L1046.3,345.84L1046.94,268.94L1047.58,373.58L1048.23,357.51L1048.87,237.79L1049.51,258.88L1050.15,339.67L1051.43,294.54L1052.08,378.11L1053.36,423.77L1054,320.55L1054.64,240.18L1055.28,302.51L1055.92,412.42L1056.57,385L1057.21,445.12L1057.85,399.19L1058.49,376.65L1059.13,319.28L1060.42,486.81L1061.06,420.03L1061.7,286.02L1062.34,378.3L1063.62,292.93L1064.26,392.7L1064.91,446.73L1065.55,380.71L1066.19,293.54L1066.83,353.94L1067.47,278.96L1068.11,339.52L1068.75,290.12L1069.4,384.21L1070.04,297.2L1070.68,357.54L1071.32,429.88L1071.96,274.09L1072.6,390.87L1073.25,362.38L1073.89,207.54L1074.53,261.2L1075.17,520.82L1075.81,372.49L1076.45,320.5L1077.09,334.8L1077.74,317.19L1078.38,352.02L1080.3,425.12L1080.94,407.79L1081.58,351.48L1082.23,429.52L1083.51,293.9L1084.15,332.48L1084.79,430.62L1085.43,386.52L1086.08,178.59L1086.72,372.12L1088,280.4L1088.64,113.66L1089.92,376.68L1090.57,344.15L1091.21,254.52L1091.85,434.23L1092.49,480.81L1093.13,271.53L1093.77,279.96L1094.42,475.12L1095.7,458.5L1096.34,410.87L1096.98,391.21L1097.62,412.86L1098.26,299.7L1098.91,432.8L1099.55,275.95L1100.19,357.9L1100.83,319.87L1101.47,486.14L1102.11,464.32L1102.75,356.56L1103.4,298.99L1104.04,149.16L1104.68,439.64L1105.32,345.43L1105.96,414.54L1106.6,359.25L1107.25,256.19L1107.89,305.78L1108.53,398.26L1109.17,364.21L1110.45,425.35L1111.09,277.33L1112.38,495.21L1113.02,382.06L1113.66,350.47L1114.3,448.33L1115.58,280.29L1116.23,413.8L1116.87,462L1117.51,440.07L1118.15,146.21L1118.79,432.06L1120.08,234.78L1120.72,373.83L1121.36,371.2L1122,429.45L1122.64,336.93L1123.28,418L1124.57,262.64L1125.21,391.97L1125.85,476.75L1126.49,343.83L1128.42,448.39L1129.06,301.24L1129.7,354.29L1130.34,320.43L1130.98,311.66L1131.62,452.91L1132.26,283.78L1132.91,344.21L1133.55,408.01L1134.19,358.05L1134.83,255.14L1135.47,372.1L1136.11,375.22L1136.75,398.68L1137.4,420.42L1138.04,336.22L1138.68,243.8L1139.32,315.54L1140.6,376.17L1141.25,209.24L1142.53,411.89L1143.17,367.3L1143.81,344.69L1144.45,289.53L1145.09,366.92L1145.74,211.59L1146.38,277.89L1147.02,422.8L1147.66,422.13L1148.3,369.92L1148.94,323.53L1149.58,368.29L1150.23,254.36L1150.87,329.99L1151.51,404.54L1152.15,349.41L1152.79,292.63L1153.43,300.06L1154.08,456.06L1154.72,70.36L1155.36,271.71L1157.28,452.8L1157.92,330L1158.57,378.12L1159.21,334.49L1159.85,308.84L1160.49,220.96L1161.77,396.3L1162.42,349.25L1163.06,411.65L1163.7,341.98L1164.98,412.51L1165.62,393.86L1166.26,251.21L1166.91,351.4L1167.55,406.42L1168.19,218.94L1168.83,478.2L1169.47,365.2L1170.11,421.31L1170.75,287.9L1171.4,291.54L1172.04,418.24L1172.68,282.16L1173.32,343.91L1173.96,341.66L1174.6,331.89L1175.89,401.55L1176.53,238.47L1177.17,267.26L1177.81,336.91L1178.45,247.41L1179.09,309.38L1179.74,433.29L1180.38,283.17L1181.02,313.41L1181.66,75.58L1182.3,491.12L1182.94,484.41L1183.58,382.87L1184.23,375.3L1184.87,435.18L1185.51,298.95L1186.15,456.98L1187.43,246.15L1188.08,343.62L1188.72,403.71L1189.36,329.38L1190,337.7L1190.64,443.44L1191.28,435.03L1191.92,402.15L1193.21,132.39L1193.85,328.07L1195.13,459.93L1195.77,417.57L1196.42,414.19L1197.06,336.5L1197.7,357.32L1198.34,173.13L1199.62,428.31L1200.26,399.67L1200.91,317.12L1201.55,359.29L1202.19,369.71L1202.83,334.12L1204.11,359.65L1204.75,387.99L1205.4,439.43L1206.04,353.75L1206.68,494.89L1207.32,341.69L1209.25,262.04L1209.89,303.92L1211.81,443.12L1212.45,300.5L1213.09,492.14L1213.74,313.07L1214.38,238.21L1215.02,460.92L1216.3,292.43L1216.94,384.03L1217.58,318.32L1218.23,389.3L1218.87,367.3L1219.51,379.68L1220.79,462.29L1221.43,391.37L1222.08,235.79L1222.72,336.72L1223.36,334.02L1224,435.77L1224.64,405.76L1225.28,275.92L1225.92,292.75L1226.57,290.61L1227.21,208.05L1228.49,410.81L1229.13,404.25L1229.77,436.95L1230.42,352.14L1231.06,416.25L1231.7,298.48L1232.34,328.44L1232.98,364.43L1233.62,302.14L1234.26,426.85L1234.91,307.84L1235.55,269.42L1236.19,409.46L1236.83,211.62L1237.47,287.26L1238.11,368.52L1238.75,324.99L1239.4,371.59L1240.04,361.84L1240.68,473.43L1241.32,345.36L1242.6,465.58L1243.25,237.06L1243.89,462.44L1244.53,268.76L1245.17,282.29L1245.81,252.83L1246.45,433.28L1247.09,374.42L1247.74,428.65L1248.38,357.18L1249.02,361.47L1249.66,378.88L1250.3,368.33L1250.94,320.81L1251.58,344.95L1252.23,275.72L1252.87,380.04L1253.51,267.81L1254.15,239.39L1254.79,374.61L1255.43,454.12L1256.08,319.46L1256.72,182.46L1257.36,233.42L1258,292.96L1258.64,178.62L1259.28,340.34L1259.92,333.91L1260.57,300.76L1261.21,408.94L1261.85,326.44L1262.49,362.47L1263.13,257.19L1263.77,390.93L1264.42,279.01L1265.06,296.9L1265.7,480.16L1266.34,486.12L1266.98,369.47L1267.62,399.54L1268.26,225.32L1268.91,436.15L1269.55,401.34L1270.19,340.12L1270.83,262.22L1271.47,292.18L1272.11,458.55L1272.75,439.31L1273.4,342.68L1274.04,339.73L1274.68,280.69L1275.32,332.8L1275.96,255.25L1276.6,294.82L1277.25,272.63L1277.89,412.96L1278.53,356.6L1279.17,372.14L1279.81,365.63L1280.45,372.91L1281.09,287.93L1281.74,301.31L1282.38,241.57L1283.02,317.02L1283.66,176.06L1285.58,441.96L1286.23,337.43L1286.87,480.1L1287.51,325.12L1288.15,415.94L1288.79,248.76L1289.43,337.56L1290.08,283.57L1290.72,318.48L1291.36,291.03L1292.64,344.31L1293.28,357.29L1293.92,375.99L1294.57,358.12L1295.21,438.21L1295.85,326.3L1296.49,324.76L1297.13,349.35L1297.77,399L1298.42,381.23L1299.06,463.39L1299.7,331.25L1300.98,484.58L1301.62,365.98L1302.26,382.55L1302.91,431.55L1304.19,247.07L1304.83,377.95L1305.47,279.74L1306.11,345.96L1306.75,255.1L1307.4,376.63L1308.04,76.12L1308.68,339.29L1309.32,413.56L1309.96,352.54L1310.6,427.22L1311.25,190.11L1311.89,361.67L1312.53,302.45L1313.17,357.3L1313.81,187.72L1314.45,202L1315.09,331.14L1315.74,398.34L1316.38,370.72L1317.02,493.09L1317.66,443.66L1318.3,169.69L1318.94,373.98L1319.58,305.74L1320.23,348.76L1320.87,468.16L1321.51,318.55L1322.15,354.52L1322.79,514.08L1324.08,386.15L1324.72,389.31L1325.36,322.38L1326,429.87L1327.28,249.28L1327.92,499.18L1328.57,242.17L1329.21,279.7L1329.85,320.45L1330.49,231.06L1331.13,297.65L1332.42,405.64L1333.06,292.29L1333.7,244.77L1334.34,380.97L1336.26,387.69L1336.91,235.68L1337.55,206.12L1338.19,329.84L1340.11,406.39L1340.75,367.26L1342.04,405.17L1342.68,370.71L1343.32,345.74L1343.96,244.35L1344.6,156.3L1345.25,367.28L1345.89,255.63L1346.53,338.27L1347.17,358.52L1347.81,419.44L1348.45,296.4L1349.09,440.7L1349.74,310.95L1350.38,365.79L1351.02,367.83L1351.66,428.72L1352.3,328.59L1352.94,388.77L1353.58,365.79L1354.23,253.82L1354.87,405.76L1355.51,392.37L1356.15,488.4L1356.79,292.83L1357.43,410.78L1358.08,240.41L1358.72,256.88L1359.36,318.68L1360,466.83L1360.64,410.59L1361.28,269.21L1361.92,329.94L1362.57,432.63L1363.21,344.68L1363.85,391.32L1364.49,369.27L1366.42,227.75L1367.06,250.56L1367.7,398.81L1368.34,335.02L1368.98,450.27L1369.62,367.5L1370.91,380.99L1371.55,416.23L1372.19,405.96L1372.83,423.6L1373.47,362.07L1374.11,441.21L1375.4,305.11L1376.04,405.86L1376.68,274.53L1377.32,357.25L1377.96,275.03L1378.6,429.66L1379.25,341.23L1379.89,388.06L1380.53,189.56L1381.17,437.73L1381.81,310.4L1382.45,344.51L1383.09,96.04L1383.74,308.6L1384.38,282.19L1385.02,371.08L1385.66,267.75L1386.3,381.28L1387.58,332.15L1388.23,358.86L1388.87,430.3L1389.51,394.46L1390.15,119.32L1390.79,205.81L1391.43,377.83L1392.08,347.26L1392.72,313.3L1393.36,412.89L1395.28,314.89L1395.92,403.24L1396.57,298.35L1397.21,360.05L1398.49,264.94L1399.13,357.85L1399.77,308.48L1400.42,386.08L1401.06,347.53L1401.7,201.68L1402.98,306.28L1403.62,280.72L1404.26,369.16L1404.91,298.71L1406.19,394.32L1406.83,247.33L1407.47,377.98L1408.11,308.34L1408.75,310.4L1409.4,414.41L1410.04,371.95L1410.68,254.32L1411.96,348.04L1412.6,439.39L1413.25,405.2L1413.89,229.08L1414.53,391.31L1415.17,325.56L1415.81,400.06L1416.45,234.78L1417.74,386.81L1418.38,302.74L1419.02,330.62L1419.66,315.08L1420.3,307.36L1420.94,255.17L1421.58,413.6L1422.23,323.93L1422.87,406.45L1423.51,309.34L1424.15,354.71L1424.79,233.58L1425.43,379.13L1426.08,219.3L1426.72,340.94L1427.36,301.19L1428,301.41L1428.64,312.67L1429.28,290.03L1429.92,348.64L1430.57,182.97L1431.21,259L1431.85,366.37L1432.49,306.86L1433.13,318.52L1433.77,353.14L1434.42,292.68L1435.06,398.6L1436.34,236.74L1436.98,301.51L1437.62,314.2L1438.26,376.16L1439.55,218.22L1440.19,334.85L1441.47,409.02L1442.11,267.37L1442.75,387.33L1443.4,376.24L1444.04,342.66L1444.68,303.88L1445.32,406.68L1445.96,280.72L1446.6,404.74L1447.89,258.93L1448.53,363.34L1449.17,346.44L1449.81,363.5L1451.09,229.08L1451.74,192.86L1452.38,435.6L1453.02,312.37L1453.66,412.86L1454.3,381.72L1454.94,391.95L1455.58,279.82L1456.23,359.83L1456.87,251.69L1457.51,195.99L1458.15,264.89L1458.79,355.26L1459.43,335.16L1460.08,272.36L1460.72,328.95L1462,280.16L1462.64,392.27L1463.28,310.01L1463.92,392.38L1464.57,365.71L1465.21,394.95L1465.85,308.75L1466.49,374.88L1467.77,219.56L1468.42,381.32L1469.06,245.12L1469.7,337.09L1470.34,293.15L1470.98,374.37L1471.62,319.14L1472.26,364.26L1472.91,397.94L1473.55,316.62L1474.19,277.58L1474.83,188.49L1476.11,381.8L1476.75,397.37L1477.4,209.65L1478.04,304.72L1479.32,266.79L1479.96,434.56L1481.25,273.35L1481.89,303.64L1483.17,400.79L1483.81,291.56L1484.45,174.13L1485.09,342.71L1485.74,241.06L1486.38,352.49L1487.02,180.31L1487.66,375.76L1488.3,209.68L1488.94,351.77L1489.58,323.7L1490.23,329.41L1490.87,375.71L1491.51,341.14L1492.15,329.25L1492.79,333.71L1493.43,450.14L1494.08,345.36L1494.72,401.77L1495.36,287.42L1496.64,378.04L1497.28,228.07L1497.92,250.22L1498.57,317.14L1499.85,265.13L1500.49,405.33L1501.13,321.27L1501.77,330.04L1502.42,316.16L1503.06,351.53L1503.7,347.01L1504.34,272.92L1504.98,352.95L1505.62,236.56L1506.26,384.16L1506.91,356.58L1507.55,362.93L1508.19,331.24L1508.83,201.3L1509.47,389.42L1510.75,269.24L1511.4,426.92L1512.04,330.82L1512.68,406.09L1513.32,289.49L1513.96,340.89L1515.25,299.15L1515.89,409.24L1516.53,317.56L1517.17,411.63L1517.81,254.11L1518.45,392.16L1519.09,223.69L1519.74,313.16L1520.38,302.98L1521.02,363.76L1522.3,249.23L1522.94,321.66L1523.58,359.93L1524.23,325.99L1524.87,305.02L1525.51,334.75L1526.15,322.89L1526.79,327.3L1527.43,350.04L1528.08,226.83L1528.72,257.22L1529.36,393.36L1530,328.03" style="vector-effect: non-scaling-stroke; fill: none; stroke: rgb(255, 127, 14); stroke-opacity: 1; stroke-width: 2px; opacity: 1;"/></g><g class="points"/><g class="text"/></g></g></g><g class="overplot"/><path class="xlines-above crisp" d="M0,0" style="fill: none;"/><path class="ylines-above crisp" d="M0,0" style="fill: none;"/><g class="overlines-above"/><g class="xaxislayer-above"><g class="xtick"><text text-anchor="middle" x="0" y="649" transform="translate(204.77,0)" style="font-family: 'Open Sans', verdana, arial, sans-serif; font-size: 12px; fill: rgb(68, 68, 68); fill-opacity: 1; white-space: pre; opacity: 1;">20</text></g><g class="xtick"><text text-anchor="middle" x="0" y="649" style="font-family: 'Open Sans', verdana, arial, sans-serif; font-size: 12px; fill: rgb(68, 68, 68); fill-opacity: 1; white-space: pre; opacity: 1;" transform="translate(357.83,0)">40</text></g><g class="xtick"><text text-anchor="middle" x="0" y="649" style="font-family: 'Open Sans', verdana, arial, sans-serif; font-size: 12px; fill: rgb(68, 68, 68); fill-opacity: 1; white-space: pre; opacity: 1;" transform="translate(510.9,0)">60</text></g><g class="xtick"><text text-anchor="middle" x="0" y="649" style="font-family: 'Open Sans', verdana, arial, sans-serif; font-size: 12px; fill: rgb(68, 68, 68); fill-opacity: 1; white-space: pre; opacity: 1;" transform="translate(663.96,0)">80</text></g><g class="xtick"><text text-anchor="middle" x="0" y="649" style="font-family: 'Open Sans', verdana, arial, sans-serif; font-size: 12px; fill: rgb(68, 68, 68); fill-opacity: 1; white-space: pre; opacity: 1;" transform="translate(817.03,0)">100</text></g><g class="xtick"><text text-anchor="middle" x="0" y="649" style="font-family: 'Open Sans', verdana, arial, sans-serif; font-size: 12px; fill: rgb(68, 68, 68); fill-opacity: 1; white-space: pre; opacity: 1;" transform="translate(970.09,0)">120</text></g><g class="xtick"><text text-anchor="middle" x="0" y="649" style="font-family: 'Open Sans', verdana, arial, sans-serif; font-size: 12px; fill: rgb(68, 68, 68); fill-opacity: 1; white-space: pre; opacity: 1;" transform="translate(1123.15,0)">140</text></g><g class="xtick"><text text-anchor="middle" x="0" y="649" style="font-family: 'Open Sans', verdana, arial, sans-serif; font-size: 12px; fill: rgb(68, 68, 68); fill-opacity: 1; white-space: pre; opacity: 1;" transform="translate(1276.22,0)">160</text></g><g class="xtick"><text text-anchor="middle" x="0" y="649" style="font-family: 'Open Sans', verdana, arial, sans-serif; font-size: 12px; fill: rgb(68, 68, 68); fill-opacity: 1; white-space: pre; opacity: 1;" transform="translate(1429.28,0)">180</text></g><g class="xtick"><text text-anchor="middle" x="0" y="649" style="font-family: 'Open Sans', verdana, arial, sans-serif; font-size: 12px; fill: rgb(68, 68, 68); fill-opacity: 1; white-space: pre; opacity: 1;" transform="translate(1582.35,0)">200</text></g></g><g class="yaxislayer-above"><g class="ytick"><text text-anchor="end" x="59" y="4.199999999999999" transform="translate(0,618.88)" style="font-family: 'Open Sans', verdana, arial, sans-serif; font-size: 12px; fill: rgb(68, 68, 68); fill-opacity: 1; white-space: pre; opacity: 1;">0</text></g><g class="ytick"><text text-anchor="end" x="59" y="4.199999999999999" style="font-family: 'Open Sans', verdana, arial, sans-serif; font-size: 12px; fill: rgb(68, 68, 68); fill-opacity: 1; white-space: pre; opacity: 1;" transform="translate(0,543.56)">0.2</text></g><g class="ytick"><text text-anchor="end" x="59" y="4.199999999999999" style="font-family: 'Open Sans', verdana, arial, sans-serif; font-size: 12px; fill: rgb(68, 68, 68); fill-opacity: 1; white-space: pre; opacity: 1;" transform="translate(0,468.24)">0.4</text></g><g class="ytick"><text text-anchor="end" x="59" y="4.199999999999999" style="font-family: 'Open Sans', verdana, arial, sans-serif; font-size: 12px; fill: rgb(68, 68, 68); fill-opacity: 1; white-space: pre; opacity: 1;" transform="translate(0,392.93)">0.6</text></g><g class="ytick"><text text-anchor="end" x="59" y="4.199999999999999" style="font-family: 'Open Sans', verdana, arial, sans-serif; font-size: 12px; fill: rgb(68, 68, 68); fill-opacity: 1; white-space: pre; opacity: 1;" transform="translate(0,317.61)">0.8</text></g><g class="ytick"><text text-anchor="end" x="59" y="4.199999999999999" style="font-family: 'Open Sans', verdana, arial, sans-serif; font-size: 12px; fill: rgb(68, 68, 68); fill-opacity: 1; white-space: pre; opacity: 1;" transform="translate(0,242.29)">1</text></g><g class="ytick"><text text-anchor="end" x="59" y="4.199999999999999" style="font-family: 'Open Sans', verdana, arial, sans-serif; font-size: 12px; fill: rgb(68, 68, 68); fill-opacity: 1; white-space: pre; opacity: 1;" transform="translate(0,166.97)">1.2</text></g><g class="ytick"><text text-anchor="end" x="59" y="4.199999999999999" style="font-family: 'Open Sans', verdana, arial, sans-serif; font-size: 12px; fill: rgb(68, 68, 68); fill-opacity: 1; white-space: pre; opacity: 1;" transform="translate(0,91.66)">1.4</text></g></g><g class="overaxes-above"/></g></g><g class="polarlayer"/><g class="smithlayer"/><g class="ternarylayer"/><g class="geolayer"/><g class="funnelarealayer"/><g class="pielayer"/><g class="iciclelayer"/><g class="treemaplayer"/><g class="sunburstlayer"/><g class="glimages"/><defs id="topdefs-9e0b60"><g class="clips"/><clipPath id="legend9e0b60"><rect width="88" height="162" x="0" y="0"/></clipPath></defs><g class="layer-above"><g class="imagelayer"/><g class="shapelayer"/></g><g class="infolayer"><g class="legend" pointer-events="all" transform="translate(1620.6000000000001,60)"><rect class="bg" shape-rendering="crispEdges" width="88" height="162" x="0" y="0" style="stroke: rgb(68, 68, 68); stroke-opacity: 1; fill: rgb(255, 255, 255); fill-opacity: 1; stroke-width: 0px;"/><g class="scrollbox" transform="" clip-path="url(#legend9e0b60)"><g class="groups"><g class="traces" transform="translate(0,14.5)" style="opacity: 0.5;"><text class="legendtext" text-anchor="start" x="40" y="4.680000000000001" style="font-family: 'Open Sans', verdana, arial, sans-serif; font-size: 12px; fill: rgb(68, 68, 68); fill-opacity: 1; white-space: pre;">D_A</text><g class="layers" style="opacity: 1;"><g class="legendfill"/><g class="legendlines"><path class="js-line" d="M5,0h30" style="fill: none; stroke: rgb(31, 119, 180); stroke-opacity: 1; stroke-width: 2px;"/></g><g class="legendsymbols"><g class="legendpoints"/></g></g><rect class="legendtoggle" x="0" y="-9.5" width="82.54679107666016" height="19" style="fill: rgb(0, 0, 0); fill-opacity: 0;"/></g><g class="traces" transform="translate(0,33.5)" style="opacity: 1;"><text class="legendtext" text-anchor="start" x="40" y="4.680000000000001" style="font-family: 'Open Sans', verdana, arial, sans-serif; font-size: 12px; fill: rgb(68, 68, 68); fill-opacity: 1; white-space: pre;">G_A</text><g class="layers" style="opacity: 1;"><g class="legendfill"/><g class="legendlines"><path class="js-line" d="M5,0h30" style="fill: none; stroke: rgb(255, 127, 14); stroke-opacity: 1; stroke-width: 2px;"/></g><g class="legendsymbols"><g class="legendpoints"/></g></g><rect class="legendtoggle" x="0" y="-9.5" width="82.54679107666016" height="19" style="fill: rgb(0, 0, 0); fill-opacity: 0;"/></g><g class="traces" transform="translate(0,52.5)" style="opacity: 0.5;"><text class="legendtext" text-anchor="start" x="40" y="4.680000000000001" style="font-family: 'Open Sans', verdana, arial, sans-serif; font-size: 12px; fill: rgb(68, 68, 68); fill-opacity: 1; white-space: pre;">cycle_A</text><g class="layers" style="opacity: 1;"><g class="legendfill"/><g class="legendlines"><path class="js-line" d="M5,0h30" style="fill: none; stroke: rgb(44, 160, 44); stroke-opacity: 1; stroke-width: 2px;"/></g><g class="legendsymbols"><g class="legendpoints"/></g></g><rect class="legendtoggle" x="0" y="-9.5" width="82.54679107666016" height="19" style="fill: rgb(0, 0, 0); fill-opacity: 0;"/></g><g class="traces" transform="translate(0,71.5)" style="opacity: 0.5;"><text class="legendtext" text-anchor="start" x="40" y="4.680000000000001" style="font-family: 'Open Sans', verdana, arial, sans-serif; font-size: 12px; fill: rgb(68, 68, 68); fill-opacity: 1; white-space: pre;">idt_A</text><g class="layers" style="opacity: 1;"><g class="legendfill"/><g class="legendlines"><path class="js-line" d="M5,0h30" style="fill: none; stroke: rgb(214, 39, 40); stroke-opacity: 1; stroke-width: 2px;"/></g><g class="legendsymbols"><g class="legendpoints"/></g></g><rect class="legendtoggle" x="0" y="-9.5" width="82.54679107666016" height="19" style="fill: rgb(0, 0, 0); fill-opacity: 0;"/></g><g class="traces" transform="translate(0,90.5)" style="opacity: 0.5;"><text class="legendtext" text-anchor="start" x="40" y="4.680000000000001" style="font-family: 'Open Sans', verdana, arial, sans-serif; font-size: 12px; fill: rgb(68, 68, 68); fill-opacity: 1; white-space: pre;">D_B</text><g class="layers" style="opacity: 1;"><g class="legendfill"/><g class="legendlines"><path class="js-line" d="M5,0h30" style="fill: none; stroke: rgb(148, 103, 189); stroke-opacity: 1; stroke-width: 2px;"/></g><g class="legendsymbols"><g class="legendpoints"/></g></g><rect class="legendtoggle" x="0" y="-9.5" width="82.54679107666016" height="19" style="fill: rgb(0, 0, 0); fill-opacity: 0;"/></g><g class="traces" transform="translate(0,109.5)" style="opacity: 0.5;"><text class="legendtext" text-anchor="start" x="40" y="4.680000000000001" style="font-family: 'Open Sans', verdana, arial, sans-serif; font-size: 12px; fill: rgb(68, 68, 68); fill-opacity: 1; white-space: pre;">G_B</text><g class="layers" style="opacity: 1;"><g class="legendfill"/><g class="legendlines"><path class="js-line" d="M5,0h30" style="fill: none; stroke: rgb(140, 86, 75); stroke-opacity: 1; stroke-width: 2px;"/></g><g class="legendsymbols"><g class="legendpoints"/></g></g><rect class="legendtoggle" x="0" y="-9.5" width="82.54679107666016" height="19" style="fill: rgb(0, 0, 0); fill-opacity: 0;"/></g><g class="traces" transform="translate(0,128.5)" style="opacity: 0.5;"><text class="legendtext" text-anchor="start" x="40" y="4.680000000000001" style="font-family: 'Open Sans', verdana, arial, sans-serif; font-size: 12px; fill: rgb(68, 68, 68); fill-opacity: 1; white-space: pre;">cycle_B</text><g class="layers" style="opacity: 1;"><g class="legendfill"/><g class="legendlines"><path class="js-line" d="M5,0h30" style="fill: none; stroke: rgb(227, 119, 194); stroke-opacity: 1; stroke-width: 2px;"/></g><g class="legendsymbols"><g class="legendpoints"/></g></g><rect class="legendtoggle" x="0" y="-9.5" width="82.54679107666016" height="19" style="fill: rgb(0, 0, 0); fill-opacity: 0;"/></g><g class="traces" transform="translate(0,147.5)" style="opacity: 0.5;"><text class="legendtext" text-anchor="start" x="40" y="4.680000000000001" style="font-family: 'Open Sans', verdana, arial, sans-serif; font-size: 12px; fill: rgb(68, 68, 68); fill-opacity: 1; white-space: pre;">idt_B</text><g class="layers" style="opacity: 1;"><g class="legendfill"/><g class="legendlines"><path class="js-line" d="M5,0h30" style="fill: none; stroke: rgb(127, 127, 127); stroke-opacity: 1; stroke-width: 2px;"/></g><g class="legendsymbols"><g class="legendpoints"/></g></g><rect class="legendtoggle" x="0" y="-9.5" width="82.54679107666016" height="19" style="fill: rgb(0, 0, 0); fill-opacity: 0;"/></g></g></g><rect class="scrollbar" rx="20" ry="3" width="0" height="0" x="0" y="0" style="fill: rgb(128, 139, 164); fill-opacity: 1;"/></g><g class="g-gtitle"><text class="gtitle" x="860.5" y="30" text-anchor="middle" dy="0em" style="font-family: 'Open Sans', verdana, arial, sans-serif; font-size: 17px; fill: rgb(68, 68, 68); opacity: 1; font-weight: normal; white-space: pre;">cleanDataTrain loss over time</text></g><g class="g-xtitle"><text class="xtitle" x="825" y="688" text-anchor="middle" style="font-family: 'Open Sans', verdana, arial, sans-serif; font-size: 14px; fill: rgb(68, 68, 68); opacity: 1; font-weight: normal; white-space: pre;">epoch</text></g><g class="g-ytitle"><text class="ytitle" transform="rotate(-90,22,348)" x="22" y="348" text-anchor="middle" style="font-family: 'Open Sans', verdana, arial, sans-serif; font-size: 14px; fill: rgb(68, 68, 68); opacity: 1; font-weight: normal; white-space: pre;">loss</text></g></g></svg>