<svg class="main-svg" xmlns="http://www.w3.org/2000/svg" xmlns:xlink="http://www.w3.org/1999/xlink" width="1721" height="696" style="" viewBox="0 0 1721 696"><rect x="0" y="0" width="1721" height="696" style="fill: rgb(255, 255, 255); fill-opacity: 1;"/><defs id="defs-3a11e2"><g class="clips"><clipPath id="clip3a11e2xyplot" class="plotclip"><rect width="1530" height="576"/></clipPath><clipPath class="axesclip" id="clip3a11e2x"><rect x="60" y="0" width="1530" height="696"/></clipPath><clipPath class="axesclip" id="clip3a11e2y"><rect x="0" y="60" width="1721" height="576"/></clipPath><clipPath class="axesclip" id="clip3a11e2xy"><rect x="60" y="60" width="1530" height="576"/></clipPath></g><g class="gradients"/><g class="patterns"/></defs><g class="bglayer"/><g class="layer-below"><g class="imagelayer"/><g class="shapelayer"/></g><g class="cartesianlayer"><g class="subplot xy"><g class="layer-subplot"><g class="shapelayer"/><g class="imagelayer"/></g><g class="gridlayer"><g class="x"><path class="xgrid crisp" transform="translate(204.77,0)" d="M0,60v576" style="stroke: rgb(238, 238, 238); stroke-opacity: 1; stroke-width: 1px;"/><path class="xgrid crisp" transform="translate(357.83,0)" d="M0,60v576" style="stroke: rgb(238, 238, 238); stroke-opacity: 1; stroke-width: 1px;"/><path class="xgrid crisp" transform="translate(510.9,0)" d="M0,60v576" style="stroke: rgb(238, 238, 238); stroke-opacity: 1; stroke-width: 1px;"/><path class="xgrid crisp" transform="translate(663.96,0)" d="M0,60v576" style="stroke: rgb(238, 238, 238); stroke-opacity: 1; stroke-width: 1px;"/><path class="xgrid crisp" transform="translate(817.03,0)" d="M0,60v576" style="stroke: rgb(238, 238, 238); stroke-opacity: 1; stroke-width: 1px;"/><path class="xgrid crisp" transform="translate(970.09,0)" d="M0,60v576" style="stroke: rgb(238, 238, 238); stroke-opacity: 1; stroke-width: 1px;"/><path class="xgrid crisp" transform="translate(1123.15,0)" d="M0,60v576" style="stroke: rgb(238, 238, 238); stroke-opacity: 1; stroke-width: 1px;"/><path class="xgrid crisp" transform="translate(1276.22,0)" d="M0,60v576" style="stroke: rgb(238, 238, 238); stroke-opacity: 1; stroke-width: 1px;"/><path class="xgrid crisp" transform="translate(1429.28,0)" d="M0,60v576" style="stroke: rgb(238, 238, 238); stroke-opacity: 1; stroke-width: 1px;"/><path class="xgrid crisp" transform="translate(1582.35,0)" d="M0,60v576" style="stroke: rgb(238, 238, 238); stroke-opacity: 1; stroke-width: 1px;"/></g><g class="y"><path class="ygrid crisp" transform="translate(0,554.56)" d="M60,0h1530" style="stroke: rgb(238, 238, 238); stroke-opacity: 1; stroke-width: 1px;"/><path class="ygrid crisp" transform="translate(0,495.76)" d="M60,0h1530" style="stroke: rgb(238, 238, 238); stroke-opacity: 1; stroke-width: 1px;"/><path class="ygrid crisp" transform="translate(0,436.97)" d="M60,0h1530" style="stroke: rgb(238, 238, 238); stroke-opacity: 1; stroke-width: 1px;"/><path class="ygrid crisp" transform="translate(0,378.17)" d="M60,0h1530" style="stroke: rgb(238, 238, 238); stroke-opacity: 1; stroke-width: 1px;"/><path class="ygrid crisp" transform="translate(0,319.38)" d="M60,0h1530" style="stroke: rgb(238, 238, 238); stroke-opacity: 1; stroke-width: 1px;"/><path class="ygrid crisp" transform="translate(0,260.58000000000004)" d="M60,0h1530" style="stroke: rgb(238, 238, 238); stroke-opacity: 1; stroke-width: 1px;"/><path class="ygrid crisp" transform="translate(0,201.79)" d="M60,0h1530" style="stroke: rgb(238, 238, 238); stroke-opacity: 1; stroke-width: 1px;"/><path class="ygrid crisp" transform="translate(0,142.99)" d="M60,0h1530" style="stroke: rgb(238, 238, 238); stroke-opacity: 1; stroke-width: 1px;"/><path class="ygrid crisp" transform="translate(0,84.2)" d="M60,0h1530" style="stroke: rgb(238, 238, 238); stroke-opacity: 1; stroke-width: 1px;"/></g></g><g class="zerolinelayer"><path class="yzl zl crisp" transform="translate(0,613.35)" d="M60,0h1530" style="stroke: rgb(68, 68, 68); stroke-opacity: 1; stroke-width: 1px;"/></g><path class="xlines-below"/><path class="ylines-below"/><g class="overlines-below"/><g class="xaxislayer-below"/><g class="yaxislayer-below"/><g class="overaxes-below"/><g class="plot" transform="translate(60,60)" clip-path="url(#clip3a11e2xyplot)"><g class="scatterlayer mlayer"><g class="trace scatter trace99d9dd" style="stroke-miterlimit: 2; opacity: 1;"><g class="fills"/><g class="errorbars"/><g class="lines"><path class="js-line" d="M0,438.55L0.64,429.74L1.28,460.97L1.92,478.37L2.57,476.97L3.21,461.2L4.49,455.9L5.13,482.47L6.42,434.46L7.06,524.72L7.7,428.02L8.34,480.54L8.98,421.35L9.62,523.99L11.55,386.16L12.19,434.05L12.83,535.77L13.47,369.92L14.11,456.18L14.75,385.18L15.4,417.31L16.04,399.92L16.68,458.9L17.32,352.54L18.6,460.92L19.25,399.94L19.89,399.45L20.53,450.51L21.81,509.83L22.45,162.54L23.09,512.07L23.74,354.84L24.38,487.71L25.02,466.35L25.66,390.53L26.3,359.07L26.94,519.44L28.87,270.31L29.51,453.65L30.15,508.16L30.79,491.52L31.43,280.72L32.08,474.72L32.72,154.96L33.36,464.97L34,542.08L34.64,482.34L35.28,491.43L35.92,540.31L36.57,470.6L37.21,474.87L37.85,183.45L39.13,487.64L39.77,487.59L40.42,306.46L41.06,390.88L41.7,383.61L42.34,364.49L42.98,533.95L43.62,431.44L44.26,460.67L44.91,438.04L45.55,496.59L46.19,240.52L47.47,512.58L48.11,477.32L48.75,515.43L49.4,492.25L50.04,213.21L50.68,400.93L51.32,500.99L51.96,407.85L53.25,456.77L53.89,414.36L54.53,337.25L55.17,504.72L55.81,321.08L56.45,399.52L57.09,305.11L57.74,514.01L58.38,474.47L59.02,528.01L59.66,394L60.3,450.42L60.94,306.53L61.58,436.85L62.23,423.71L62.87,213.21L63.51,440.54L64.15,348.44L64.79,486.57L65.43,475.49L66.08,482.49L66.72,501.33L67.36,457.64L68,474.45L68.64,111.14L69.28,498.38L69.92,133.25L71.85,470.1L72.49,463.28L73.13,252.06L73.77,270.8L74.42,298.39L75.7,442.39L76.34,412.3L76.98,368.1L77.62,257.41L78.26,297.96L78.91,284.02L79.55,269.64L80.19,224.65L80.83,306.7L81.47,275.4L82.11,297.03L82.75,280.48L83.4,474.43L84.04,423.22L84.68,445.06L85.32,426.72L85.96,437.53L86.6,367.78L87.25,396.64L87.89,460.29L88.53,468.31L89.17,460.03L89.81,432.94L90.45,475.97L91.09,320.95L91.74,476.69L92.38,467.73L93.02,429.09L93.66,423.4L94.3,361.63L94.94,322.03L95.58,349.08L96.23,486.55L96.87,373.89L97.51,294.76L98.15,357.13L98.79,243.52L99.43,297.93L100.08,280.05L100.72,336.2L101.36,429.04L102,415.14L102.64,447.74L103.28,463.94L103.92,504.13L104.57,545.14L105.21,504.83L105.85,155.81L106.49,352.25L107.13,98.92L107.77,147.23L108.42,302.1L109.06,219.41L109.7,300.68L110.34,266.15L110.98,239.23L111.62,263.05L112.26,308.56L112.91,215.17L113.55,281.7L114.19,489.83L114.83,458.91L115.47,527.94L116.11,495.51L116.75,174.83L117.4,395.95L118.04,313.12L118.68,259.98L119.32,486.87L119.96,262.25L120.6,494.17L121.25,468.59L121.89,362.71L122.53,446.54L123.17,394.19L123.81,410.12L124.45,502.62L126.38,191.81L127.02,302.14L127.66,305.52L128.3,408L128.94,265.15L129.58,403.54L130.23,305.93L130.87,487.54L132.15,207.3L132.79,194.38L133.43,444.51L134.08,427.18L134.72,547.2L135.36,478.8L136,217.36L136.64,120.61L137.28,244.29L137.92,464.43L138.57,285.47L139.21,371.73L139.85,280.5L140.49,242.16L141.13,384.44L141.77,284.46L142.42,406.99L143.7,253.8L144.34,255.72L144.98,251.16L145.62,258.18L146.91,480.59L147.55,431.54L148.19,536.04L148.83,257.62L149.47,467.84L150.11,341.32L151.4,521.09L152.04,450.05L153.96,319.9L154.6,382.13L155.25,484.08L155.89,428.44L157.17,511.33L157.81,495.64L158.45,494.62L159.09,470.56L159.74,366.28L160.38,436.25L161.02,496.95L161.66,425.87L162.3,477.71L162.94,431.96L163.58,447.52L164.23,446.43L164.87,523.12L166.15,498.22L166.79,202.62L167.43,182.63L168.08,288.14L168.72,230.07L169.36,256.28L170,224.53L170.64,304.04L171.92,276.52L172.57,290.56L173.21,287.26L173.85,244.56L175.13,309.29L175.77,484.18L177.06,444.99L177.7,485.89L178.34,422.2L178.98,435.36L180.91,171.93L181.55,439.14L182.19,375.26L182.83,402.27L183.47,454.83L184.11,315.51L184.75,302.91L185.4,254.94L186.04,239.03L186.68,472.37L187.96,282.33L188.6,213.9L189.25,304.32L189.89,293.15L190.53,271.36L191.81,245.32L192.45,327.22L193.74,260.46L194.38,368.17L195.66,251.24L196.3,225.19L198.23,297.05L198.87,407.69L199.51,157.73L200.15,263.65L200.79,244.92L201.43,258.62L202.72,231.8L203.36,512.57L204,194.23L204.64,239.72L205.28,277.59L205.92,500.97L206.57,245.69L207.21,476.61L207.85,464.7L208.49,250.87L209.77,264.65L210.42,254.39L211.7,299.38L212.34,311.27L212.98,28.8L213.62,208.51L214.26,283.06L214.91,273.29L215.55,282.66L216.19,238.81L216.83,317.51L218.11,254.23L218.75,265.77L219.4,276.63L220.04,370.11L220.68,256.09L221.32,268.74L221.96,266.92L222.6,248.63L223.25,259.44L223.89,262.17L224.53,257.5L225.81,243.75L226.45,258.75L227.09,246.64L227.74,255.23L228.38,242.55L229.02,258.73L229.66,253.33L230.3,430.55L230.94,536.02L231.58,508.4L232.23,294.38L232.87,486.62L234.79,405.94L235.43,465.73L236.08,264.75L236.72,289.37L237.36,275.22L238,252.58L238.64,276.14L239.28,284.36L239.92,264.19L240.57,268.25L241.21,242.99L241.85,229.03L242.49,276.02L243.77,273.42L244.42,266.94L245.06,235.99L245.7,255.19L246.34,259.34L246.98,280.19L247.62,258.56L248.26,265.15L249.55,377.07L250.19,267.99L250.83,274.46L251.47,264.78L252.75,495.06L253.4,464.58L254.04,467.42L254.68,444.09L255.32,464.07L255.96,409.29L256.6,227.2L257.25,348.99L257.89,271.65L258.53,272.46L259.17,278.3L259.81,255.41L260.45,263.77L261.09,247.27L261.74,254.06L262.38,111.9L263.02,309.59L263.66,240.59L264.3,253.14L264.94,259.16L265.58,288.2L266.87,207.83L267.51,260.96L268.15,249.17L268.79,490.71L269.43,520.07L270.08,411.93L270.72,371.65L271.36,528.84L272.64,453.54L273.28,456.33L273.92,529.17L274.57,454.64L275.21,461.83L275.85,339.64L276.49,374.85L277.13,533.39L277.77,424.36L278.42,509.85L279.06,496.35L279.7,501.74L280.34,459.37L280.98,495.13L281.62,393.93L282.26,488.97L282.91,495.91L283.55,517.91L284.83,372.31L285.47,445.26L286.11,455.2L286.75,425.74L287.4,456.52L288.04,440.29L288.68,506.92L289.32,374.32L289.96,420.52L290.6,244.14L291.25,257.09L291.89,295.27L292.53,189.72L293.17,208.09L294.45,453.67L295.09,487.8L295.74,504.64L296.38,406.2L297.02,466.96L297.66,316.23L298.3,273.45L298.94,291.4L299.58,251.72L300.23,264.98L300.87,260.6L301.51,273.34L302.15,255.21L302.79,284.13L303.43,262.06L304.08,293.93L304.72,268.99L305.36,269.11L306,348.79L306.64,361.1L307.28,503.16L307.92,511.87L308.57,543.34L309.85,458.94L310.49,469.83L311.77,242.12L312.42,129.94L313.7,258.43L314.34,263.73L314.98,269.01L315.62,252.1L316.26,262.25L316.91,261.47L317.55,218.61L318.19,259.17L318.83,257.54L319.47,279.65L320.75,254.17L321.4,273L322.04,265.31L322.68,283.61L323.32,248.41L323.96,490.96L325.25,288.32L325.89,231.36L326.53,258.27L327.17,383.91L327.81,269.2L328.45,273.38L329.09,266.1L329.74,271.01L330.38,256.12L331.02,266.52L331.66,264.22L332.3,263.86L332.94,265.2L333.58,268.33L334.23,255.16L334.87,262.93L335.51,411.47L336.15,423.39L336.79,285.3L337.43,309.41L338.08,476.69L339.36,518.41L340,436.35L340.64,474.02L341.28,428.21L341.92,429.81L342.57,472.29L343.21,493.6L343.85,459.64L345.13,378.7L345.77,487.81L346.42,201.84L347.06,288.16L347.7,256.35L348.34,265.51L348.98,326.15L349.62,229.36L352.19,317.31L352.83,264.55L354.11,276.97L354.75,544.59L355.4,442.04L356.04,514.06L356.68,489.27L357.32,511.36L357.96,438L358.6,510.77L359.25,463.67L359.89,90.25L361.17,237.79L361.81,271.65L363.09,289.14L363.74,291.63L365.02,233.84L365.66,266.89L366.3,261.06L366.94,268.48L367.58,546.66L368.23,52.62L369.51,294.83L370.15,274.3L370.79,272.59L371.43,267.39L372.08,261.22L372.72,214.43L374,269.07L374.64,265.2L375.28,267.63L375.92,422.05L376.57,449.03L377.21,529.41L379.77,220.82L380.42,282.13L381.7,242.18L382.34,267.07L382.98,273.67L383.62,262.12L384.26,245.23L384.91,256.86L385.55,332.38L386.19,298.74L387.47,257.29L388.11,255.96L389.4,262.97L390.04,244.79L390.68,210.22L391.32,262.65L391.96,262.07L392.6,280.4L393.89,183.92L394.53,289.13L395.17,290.94L395.81,266.4L396.45,253.04L397.09,254.75L397.74,280.44L399.02,242.74L399.66,265.3L400.3,242.12L400.94,265L401.58,303.84L402.23,298.89L402.87,260.58L403.51,237.25L404.15,279.86L406.72,252.42L407.36,264.53L408,264.05L408.64,249.55L409.28,296.88L409.92,538.05L410.57,434.08L411.21,479.42L411.85,480.34L412.49,415.09L413.13,440.36L413.77,422.27L414.42,494.53L415.06,269.71L415.7,277.01L416.34,310.89L416.98,282.94L417.62,295.49L418.26,277L418.91,234.56L419.55,243.32L420.19,271.1L421.47,235.16L422.11,258.74L422.75,269.7L423.4,266.1L424.04,448.28L424.68,420.09L425.32,252.54L425.96,477.09L426.6,432.78L427.89,489.22L428.53,404.26L429.17,395.91L429.81,294.99L430.45,227L431.09,267.39L431.74,284.88L432.38,275.17L433.02,256.3L433.66,271.88L434.3,250.46L434.94,284.2L436.87,262.1L437.51,264.99L438.15,244.43L438.79,259.41L439.43,261.56L440.08,267.7L440.72,261.66L441.36,435.35L442,535.41L442.64,524L443.28,295.73L443.92,244.96L444.57,284.42L445.21,282.85L445.85,255.57L446.49,286.83L447.13,529.25L448.42,287.91L449.06,495.39L450.98,275.31L451.62,293.79L452.91,260.23L453.55,263.61L454.19,241.51L454.83,255.14L456.11,272.03L456.75,257.62L457.4,265.9L458.04,256.93L458.68,265.49L459.32,260.2L459.96,258.38L460.6,267.96L461.25,257.35L461.89,260.32L462.53,267.17L463.17,263.82L463.81,270.18L464.45,436.46L465.74,473.81L466.38,458.9L467.02,252.26L467.66,285.52L468.3,314.3L468.94,269.97L469.58,273.8L470.23,283.29L470.87,315.25L471.51,269.48L472.15,271.44L472.79,256.74L473.43,248.69L474.08,275.09L474.72,266.29L475.36,266.49L476,278.26L476.64,277.32L477.28,279.09L477.92,253.38L478.57,257.41L479.21,287.66L479.85,241.12L480.49,272.37L481.13,244.52L481.77,267.21L482.42,472.52L483.06,369.82L483.7,468.29L484.34,453.63L484.98,499.82L485.62,512.42L486.26,461.07L486.91,477.11L487.55,441.84L488.19,230.69L488.83,283.72L489.47,279.88L490.11,257.76L490.75,253.88L491.4,269.21L492.04,251.27L492.68,271.12L493.32,251.55L493.96,265.47L494.6,274.76L495.25,248.16L495.89,255.01L496.53,270.39L497.17,272.23L497.81,261.45L499.09,249.76L499.74,260.8L501.02,253.22L501.66,252.66L502.94,262.93L503.58,250.89L504.23,256.86L504.87,254.06L505.51,244.1L506.15,245.1L506.79,381.13L507.43,268.21L508.08,282.14L508.72,263.97L509.36,254.23L510,259.56L510.64,482.78L511.28,376.85L512.57,510.07L513.21,422.03L513.85,331.82L514.49,485.28L515.13,526.86L515.77,500.78L517.06,526.16L517.7,380.47L518.34,166.67L518.98,248.21L519.62,308.03L520.26,250.68L520.91,252.67L521.55,281.05L522.19,250.7L522.83,301.45L524.11,268.02L524.75,240.43L526.04,260.66L526.68,257.02L527.32,248.78L527.96,255.08L528.6,267.4L529.25,260.37L529.89,264.25L530.53,235.5L531.17,254.02L531.81,239.89L532.45,273.49L533.09,265.34L533.74,321.26L534.38,269.43L535.02,238.52L535.66,268.81L536.3,363.3L536.94,266.27L537.58,259.1L538.23,260.45L538.87,259.29L539.51,486.07L540.15,457.65L540.79,317.29L542.08,462.31L542.72,477.18L543.36,462.2L544,311.61L544.64,389.11L545.28,260.49L545.92,258.02L546.57,272.37L548.49,246.42L549.13,252.33L549.77,268.06L550.42,244.36L551.06,277.72L551.7,274.24L552.34,266.17L552.98,257.65L553.62,265.86L554.91,242.59L555.55,242.49L556.19,228.17L556.83,268.63L557.47,256.54L558.11,328.2L559.4,245.38L560.04,260.75L560.68,187.05L561.32,254.34L561.96,250.94L562.6,264.21L563.25,216.69L563.89,245.41L564.53,260.73L565.17,248.45L565.81,271.73L566.45,254.87L567.09,280.22L567.74,246.27L568.38,242.15L569.02,253.19L570.3,274.85L570.94,521.84L571.58,381.51L572.23,465.71L573.51,511.19L574.15,488.42L574.79,422.55L575.43,428.07L576.08,531.51L576.72,456.1L577.36,466.31L578,480.66L578.64,490.05L579.28,445.22L579.92,237.25L580.57,274.13L581.21,297.39L581.85,240.85L582.49,260.9L583.13,252.47L583.77,275.01L584.42,255.66L585.06,257.8L585.7,271.77L586.98,266.2L587.62,254.12L588.26,257.53L588.91,249.49L589.55,270.23L590.19,260.07L590.83,264.99L591.47,258.14L592.11,261.89L592.75,254.57L593.4,266.53L594.04,255.87L595.32,272.07L595.96,247.36L597.25,264.09L597.89,250L598.53,271.52L599.17,265.5L599.81,274.03L600.45,266.7L601.74,262.31L602.38,304.89L603.66,521.34L604.3,428.32L604.94,486.42L605.58,459.47L606.87,240.4L607.51,229.8L608.15,279.16L608.79,260.13L609.43,259.05L610.08,268.4L611.36,278.69L612,268.26L613.28,241.18L613.92,269.5L614.57,264.22L615.21,243.18L616.49,263.91L617.13,254.02L617.77,237.14L618.42,254.94L619.06,268.56L619.7,264.86L620.34,254.23L620.98,263.6L621.62,251.25L622.26,257.88L622.91,264.28L623.55,491.56L624.83,249.66L625.47,292.78L627.4,251.8L628.04,279.38L629.32,250.06L629.96,267.05L630.6,250.61L631.25,260.67L631.89,262.94L632.53,245.24L635.09,271.14L635.74,274.83L636.38,275.41L637.02,248.53L638.3,269.77L638.94,261.33L639.58,261.35L640.23,259.78L641.51,249.98L642.15,487.03L642.79,283.09L643.43,424.98L644.08,354.58L644.72,454.62L646,382.9L646.64,259.34L647.28,265.42L647.92,299.73L648.57,300.49L649.21,261.52L649.85,261.42L650.49,254.27L652.42,265.53L653.06,255.56L653.7,264.2L654.34,263.57L654.98,267.77L655.62,260.05L656.26,263.75L657.55,259.37L658.19,263.66L658.83,263.59L659.47,271.79L660.11,257.17L660.75,259.93L661.4,268.09L662.04,257.3L662.68,262.82L663.32,253.24L663.96,253.8L664.6,264.95L665.25,261.97L665.89,268.3L666.53,448.73L667.17,280.69L667.81,275.53L668.45,249.01L669.09,269.42L669.74,258.64L671.02,264.75L671.66,257.82L672.3,254.3L672.94,256.73L674.23,270L674.87,260.04L675.51,267.69L676.15,259.99L677.43,257.92L678.08,261.74L678.72,264.95L679.36,254.19L680,264.89L680.64,262.74L681.28,264.93L681.92,256.24L683.21,261.71L683.85,486.66L684.49,457.14L685.13,538.61L685.77,499.82L686.42,531.55L688.34,304.5L688.98,163.21L689.62,266.88L690.26,247.82L691.55,270.66L692.19,265.18L692.83,263.55L693.47,265.93L694.11,274.72L694.75,263.88L696.04,278.47L696.68,268.29L697.32,256.23L697.96,269.03L699.25,259.58L699.89,244.23L700.53,281.82L701.17,212.15L701.81,276.94L702.45,275.26L703.09,257.85L703.74,275.23L704.38,267.47L705.02,273.39L705.66,249.48L706.94,263.78L707.58,265.06L708.23,247.55L708.87,250.83L710.15,269.75L710.79,261.13L712.08,271.47L712.72,259.05L713.36,262.87L714,260.5L714.64,258.54L715.28,266.09L715.92,477.99L716.57,283.08L717.21,262.35L717.85,521.58L718.49,494.39L719.13,365.88L719.77,477.54L720.42,273.52L721.06,272.21L721.7,257.51L722.34,241.54L722.98,261.1L723.62,263.08L724.26,281.99L724.91,250.04L725.55,270.67L726.19,272.18L726.83,260.94L727.47,275.46L728.11,262.56L728.75,255.28L729.4,256.75L730.04,264.34L730.68,260.31L731.32,270.93L731.96,257.54L732.6,290.35L733.25,534.75L733.89,533.52L734.53,427.59L735.17,520.79L735.81,490.15L736.45,413.23L737.09,522.46L737.74,420.76L738.38,428.78L739.02,440.65L739.66,434.33L740.3,405.31L741.58,227L742.23,241.92L742.87,317.33L743.51,248.13L744.15,284.33L744.79,264.32L745.43,285.28L746.08,256.43L746.72,244.61L747.36,249.41L748,252.03L748.64,273.84L749.28,246.76L749.92,270.56L750.57,258.12L751.21,262.86L751.85,250.06L752.49,272L753.13,267.25L753.77,253.75L754.42,245.63L755.06,267.4L755.7,256.39L756.34,283.84L756.98,263.08L757.62,317.76L758.26,214.37L758.91,256.02L759.55,251.67L760.19,272.23L760.83,251.09L761.47,277.58L762.75,257.7L763.4,271.68L764.68,513.19L765.32,206.26L765.96,450.3L766.6,447.44L767.25,396.83L767.89,387.45L768.53,292.65L769.17,306.4L769.81,285.26L770.45,240L771.09,254.14L771.74,299.76L772.38,286.47L773.66,257.81L774.3,273.22L775.58,252.16L776.23,266.8L777.51,254.32L778.15,257.92L779.43,261.94L780.08,260.67L780.72,258.67L781.36,268.41L782,258.64L782.64,261.19L783.28,241.64L783.92,275.89L784.57,259.96L785.21,537.02L786.49,216.31L787.13,272.25L787.77,343.88L788.42,248.92L789.7,261.97L790.34,250.15L790.98,241.48L791.62,259.97L792.26,269.79L792.91,228.93L794.19,282.82L794.83,258.4L795.47,258.64L796.11,257.46L796.75,266.85L797.4,264.09L798.68,261.99L799.32,376.4L800.6,254.6L801.25,252.59L801.89,257.78L802.53,255.85L803.17,259.12L803.81,251.64L805.09,263.05L805.74,263.84L807.02,501.24L807.66,408.74L808.3,521.17L808.94,456.16L809.58,453.33L810.23,462.86L810.87,421.62L811.51,482.41L812.15,479.54L812.79,166.84L813.43,424.24L814.08,315.89L814.72,217.46L815.36,218.58L816,279.02L816.64,259.44L817.28,275.38L817.92,275.48L818.57,283.7L819.85,262.47L820.49,278.79L821.13,263.39L821.77,270.33L822.42,271.34L823.06,276.83L824.34,245.27L824.98,277.3L825.62,250.04L826.26,285.78L827.55,270.18L828.19,270.81L828.83,262.53L829.47,267.13L830.11,265.54L830.75,243.11L832.68,269.37L833.32,269.22L833.96,254.26L834.6,263.54L835.25,242.03L835.89,258.62L836.53,255.71L837.17,256.49L837.81,236.46L838.45,267.86L839.74,244.31L840.38,259.09L841.02,255.09L841.66,265.3L842.3,258.15L842.94,265.02L843.58,304.62L844.23,504.28L845.51,450.55L846.15,331.17L846.79,284.24L847.43,324.18L848.08,262.38L848.72,265.07L849.36,273.35L851.28,256.6L851.92,229.68L853.21,281.98L853.85,260.26L854.49,254.03L855.13,265.77L855.77,273.72L856.42,265.18L857.06,261.39L857.7,388.75L858.34,389.32L858.98,487.5L859.62,432.73L860.26,171.81L861.55,260.25L862.19,248.91L864.11,271.67L864.75,271.48L865.4,279.25L866.04,243.6L866.68,265.39L867.32,262.76L867.96,277.01L869.25,249.26L869.89,261.68L870.53,254.98L871.17,270.69L871.81,269.39L872.45,254.91L873.09,270.52L873.74,257.39L874.38,256.94L875.02,267.85L875.66,268.35L876.3,261.62L876.94,262.57L877.58,261.73L878.23,261.6L878.87,258.84L879.51,262.02L880.15,260.68L881.43,258.77L882.08,489.91L883.36,264.52L884,289.96L885.28,262.87L885.92,262.59L886.57,261.33L887.21,257.63L887.85,271.34L888.49,256.13L889.13,261.96L889.77,253.23L890.42,244.54L891.06,264.52L891.7,265.77L892.34,259.44L892.98,256.18L893.62,256.74L894.26,259.14L894.91,290.66L895.55,260.86L896.19,260.84L896.83,264.7L897.47,278.05L898.11,259.62L898.75,267.01L899.4,256.67L900.04,256.61L900.68,266.54L901.32,254.44L901.96,268.21L902.6,435.26L903.25,408.77L904.53,489.75L905.17,437.15L905.81,515.58L906.45,358.98L907.09,201.02L907.74,287.93L908.38,290.42L909.02,274.3L909.66,276.69L910.3,249.02L911.58,281.49L912.23,247.51L912.87,259.11L913.51,301.67L914.15,253.02L914.79,259.18L915.43,253.98L916.08,264.77L916.72,256.26L917.36,259.16L918,258.32L918.64,243.98L919.28,261.56L919.92,252.26L920.57,262.89L921.21,268.53L921.85,253.09L922.49,262.16L923.13,254.54L923.77,268.49L924.42,251.52L925.06,265.98L925.7,252.84L926.34,268.22L926.98,256.48L927.62,245.82L928.26,249.49L929.55,265.55L930.19,249.66L930.83,246.84L931.47,256.53L932.11,260.13L932.75,256.43L933.4,264.79L934.04,356.06L935.32,260.96L935.96,257.75L937.25,262.1L937.89,275.98L938.53,249.48L939.17,252.81L939.81,255.02L940.45,264.48L941.09,263.11L941.74,262.28L943.02,440.39L943.66,261.97L944.3,264.1L944.94,274.07L946.23,257.1L946.87,262.14L947.51,281.3L948.15,275L949.43,226.03L950.08,248.1L950.72,247.64L951.36,260.85L952,67.7L952.64,250.7L953.28,245.55L953.92,263.12L954.57,262.12L955.21,275.35L956.49,261.7L957.13,264.13L957.77,261.64L958.42,263.93L959.06,253.84L959.7,267.33L960.34,257.52L960.98,260.49L962.26,258.86L962.91,252.83L963.55,264.35L964.19,245.26L964.83,280.39L965.47,263.41L966.75,254.03L967.4,262.81L968.04,255.7L968.68,278.46L969.96,242.62L970.6,261.01L971.25,265.78L971.89,259.24L972.53,247.49L973.17,262.17L973.81,272.16L974.45,253.94L975.09,261.45L975.74,256.02L977.02,267.01L977.66,257.82L978.94,266.66L979.58,252.48L980.23,252.15L980.87,266.53L981.51,258.66L982.15,267.25L983.43,258.67L984.08,267.76L984.72,253.19L985.36,266.57L986,260.89L986.64,265.17L987.28,262.04L987.92,277.41L989.21,256.28L989.85,353.53L990.49,329.95L991.13,246.69L991.77,303.62L992.42,251.14L993.06,279.24L993.7,263.71L994.34,286.06L994.98,275.69L996.26,255.05L996.91,266.59L998.19,259.11L998.83,257.62L999.47,261.16L1000.11,257.06L1000.75,270.86L1001.4,254.53L1002.04,255.41L1002.68,257.67L1003.32,254.72L1003.96,259.11L1004.6,253.46L1005.25,259.86L1005.89,282.96L1006.53,253.85L1007.17,258.61L1007.81,373.64L1008.45,207.21L1009.09,405.82L1009.74,231.23L1010.38,246.86L1011.02,273.56L1012.3,258.38L1012.94,252.79L1013.58,280.56L1014.23,267.72L1014.87,280L1015.51,247.17L1016.79,258.14L1017.43,262.4L1018.08,250.22L1018.72,262.08L1019.36,264.06L1020,262.29L1020.64,258.85L1021.28,260L1021.92,250.41L1022.57,259.82L1023.21,257.27L1023.85,260.37L1024.49,258.53L1025.13,264.74L1025.77,261.88L1026.42,244.24L1027.06,259.55L1027.7,256.51L1028.34,261.87L1028.98,254.96L1029.62,260.58L1030.26,259.91L1030.91,262.59L1031.55,263.2L1032.19,253.48L1032.83,264.72L1033.47,258.34L1034.11,251.09L1034.75,262.56L1035.4,263.64L1036.04,259.74L1036.68,259.13L1037.32,271.69L1037.96,282.53L1038.6,254.12L1039.89,264.61L1040.53,266.97L1041.17,269.84L1041.81,258.84L1042.45,254.26L1043.09,272.87L1043.74,272.09L1044.38,240.1L1045.02,260.92L1045.66,256.91L1046.3,263.88L1046.94,257.93L1047.58,253.48L1048.23,264.28L1048.87,258.16L1049.51,263.2L1050.15,264.78L1050.79,254.21L1051.43,260.59L1052.08,257.11L1052.72,256.96L1053.36,265.62L1054.64,256.93L1055.28,265.61L1056.57,264.59L1057.21,260.23L1058.49,253.68L1059.13,257.74L1060.42,260.38L1061.06,266.43L1062.34,258.39L1062.98,259.12L1063.62,258.6L1064.26,264.1L1064.91,248.81L1065.55,256.99L1066.19,263.21L1066.83,258.2L1067.47,252.87L1068.11,256.32L1068.75,260.5L1069.4,285.36L1070.04,256.41L1070.68,260.15L1071.32,257.15L1071.96,262.84L1072.6,313.84L1073.25,262.29L1073.89,262.44L1074.53,261.81L1075.17,250.04L1075.81,265.95L1076.45,259.62L1077.09,261.09L1077.74,263.5L1078.38,260.46L1079.02,258.56L1079.66,263.68L1080.94,257.59L1081.58,261.55L1082.23,258.36L1082.87,259.25L1083.51,259.3L1084.15,261.42L1084.79,251.38L1085.43,259.14L1086.08,255.53L1086.72,260.14L1087.36,262.89L1088,258.52L1089.92,267.17L1090.57,247.93L1091.21,351.09L1091.85,257.95L1092.49,255.22L1093.13,259.42L1093.77,256.76L1094.42,260.58L1095.06,260.34L1095.7,254.59L1096.34,259.46L1096.98,259.16L1097.62,260.06L1098.26,259.66L1098.91,265.21L1101.47,256.96L1102.11,258.01L1102.75,261.79L1103.4,259.99L1104.04,255.65L1104.68,262.45L1105.32,258.55L1105.96,259.52L1106.6,259.95L1107.25,258.65L1107.89,257.01L1108.53,261.66L1109.17,258.65L1109.81,261.83L1110.45,246.54L1111.09,266.99L1111.74,259.63L1112.38,260.73L1113.02,263.57L1114.94,258.95L1115.58,258.71L1116.87,263.03L1117.51,305.64L1118.15,256.76L1118.79,262.52L1119.43,261.33L1120.08,261.28L1120.72,260.3L1122,260.59L1122.64,262.21L1123.28,261.98L1123.92,258.91L1124.57,257.42L1125.21,259.52L1125.85,258.4L1126.49,260.13L1127.13,262.93L1127.77,256.23L1128.42,259.79L1129.06,259.32L1129.7,259.01L1130.34,259.48L1130.98,257.81L1132.26,260.36L1132.91,251.32L1133.55,263.72L1134.19,256.46L1135.47,265.72L1136.11,262.35L1136.75,258.76L1137.4,263.72L1138.04,253.77L1138.68,262.51L1139.32,261.25L1139.96,254.04L1140.6,259.93L1141.25,257.74L1142.53,261.91L1143.17,256.19L1143.81,265.17L1144.45,263.51L1145.09,264.37L1145.74,259.93L1146.38,259.56L1147.02,257.45L1147.66,260.8L1148.3,198.96L1148.94,261.13L1149.58,256.68L1150.23,256.5L1150.87,261.04L1151.51,260.84L1152.15,261.29L1152.79,259L1153.43,252.62L1154.08,251.69L1154.72,256.3L1155.36,263.81L1156,260.62L1156.64,259.72L1157.28,254.59L1157.92,269.28L1158.57,251.52L1159.85,269.41L1160.49,255.64L1161.77,264.28L1162.42,259L1163.06,257.42L1163.7,259.5L1164.34,262.33L1164.98,255.07L1165.62,258.04L1166.26,264.68L1167.55,259.51L1168.19,253.81L1168.83,273.73L1169.47,262.96L1170.11,263.49L1170.75,260.79L1171.4,264.32L1172.04,247.09L1172.68,264.49L1173.32,256.46L1173.96,265.82L1174.6,259.74L1175.25,268.7L1175.89,263.53L1176.53,250.8L1177.17,259.86L1177.81,260.12L1178.45,254.84L1179.09,263.19L1179.74,257.13L1180.38,255.98L1181.02,252.15L1181.66,248.39L1182.3,263.98L1183.58,261.03L1184.23,253.14L1184.87,258.81L1185.51,251.09L1186.79,260.81L1187.43,261.06L1188.08,260.92L1188.72,258.46L1189.36,259.42L1190,256.72L1191.28,261.49L1191.92,256.2L1192.57,260.82L1193.21,256.8L1193.85,258.92L1194.49,256.84L1195.77,262.73L1196.42,259.06L1197.06,258.2L1197.7,260.91L1198.34,259.14L1198.98,245.93L1200.26,257.37L1200.91,255.22L1202.19,263.54L1202.83,256.2L1203.47,263.3L1204.11,256.89L1204.75,260.65L1205.4,257.56L1206.68,257.36L1207.32,255.08L1207.96,262.68L1208.6,248.59L1209.25,262.34L1209.89,261.33L1210.53,258.88L1211.17,258.2L1211.81,260.38L1213.09,259.49L1213.74,256.86L1214.38,261.68L1215.02,257.67L1215.66,262.83L1216.3,257.93L1217.58,259.75L1218.23,259.76L1218.87,255.19L1219.51,262.63L1220.79,258.71L1221.43,211.07L1222.72,260.21L1223.36,262.6L1224,265.07L1224.64,260.88L1225.28,257.96L1225.92,250.28L1227.21,260.23L1227.85,257.76L1228.49,263.26L1229.13,258.9L1229.77,260.72L1230.42,259.34L1231.06,260.72L1231.7,256.81L1232.34,264.35L1232.98,260.04L1234.26,256.04L1234.91,260.27L1235.55,259.87L1236.19,257.66L1237.47,259.66L1238.11,259.06L1238.75,262.23L1239.4,260.04L1240.04,260.14L1240.68,237.95L1241.32,263.15L1241.96,258.28L1242.6,265.64L1243.25,260.91L1245.17,247L1245.81,259.03L1246.45,258.53L1247.09,262.04L1247.74,260.57L1248.38,261.87L1249.66,257.69L1250.3,258.93L1250.94,259.08L1251.58,260.23L1252.23,261.31L1252.87,260.18L1253.51,258.67L1254.15,262.08L1255.43,258.44L1256.08,260.62L1256.72,259.16L1257.36,261.11L1258,253.64L1258.64,260.67L1259.28,252.17L1259.92,258.32L1260.57,256.86L1261.21,257.82L1261.85,263.56L1262.49,260.93L1263.13,263.43L1263.77,258.21L1265.7,259.61L1266.34,259.81L1266.98,245.03L1267.62,263.01L1268.26,273.23L1268.91,261L1269.55,258.28L1270.19,260.13L1270.83,260.62L1271.47,255.67L1272.11,260.9L1272.75,260.77L1273.4,260.25L1274.04,265.86L1274.68,250.31L1275.32,258.89L1275.96,257.12L1276.6,259.13L1277.25,257.6L1277.89,261.91L1278.53,258.75L1279.17,261.62L1279.81,259.48L1280.45,257.92L1281.09,261.36L1281.74,258.22L1282.38,269.31L1283.02,258.67L1283.66,264.4L1284.3,258.5L1284.94,261.14L1285.58,263.05L1286.23,260.1L1287.51,257.54L1288.15,260.16L1288.79,259.96L1289.43,258.37L1290.72,260.05L1291.36,288.82L1292,256.94L1292.64,265.01L1293.28,259.81L1293.92,268.58L1294.57,267.78L1295.21,265.18L1295.85,260.57L1296.49,267.19L1297.13,261.26L1297.77,261.35L1298.42,258.71L1299.06,259.25L1299.7,261.38L1300.34,257.41L1300.98,258.8L1301.62,259.1L1302.26,263.7L1302.91,256.32L1303.55,259.88L1304.19,258.13L1304.83,262.64L1306.75,257.37L1307.4,254.97L1308.04,263.46L1308.68,259.01L1309.32,260.4L1309.96,259.9L1310.6,258.68L1311.25,253.81L1311.89,272.2L1312.53,254.64L1313.81,264.73L1314.45,261.16L1315.09,261.93L1315.74,248.56L1317.02,261.22L1317.66,258.95L1318.3,267.28L1318.94,261.23L1320.23,257.06L1320.87,259.34L1321.51,256.15L1322.15,260.79L1322.79,260.15L1323.43,255.34L1324.08,259.21L1324.72,255.45L1326.64,260.9L1327.28,258.97L1327.92,256.9L1328.57,258.38L1329.21,258.36L1329.85,260.32L1330.49,257.82L1331.13,264.22L1333.06,259.17L1333.7,274.48L1334.34,253.55L1334.98,257.53L1335.62,257.48L1336.26,258.45L1336.91,257.82L1337.55,260.99L1338.19,261.04L1338.83,258.49L1339.47,270.06L1340.11,259.2L1341.4,260.09L1342.04,263.54L1342.68,254.99L1343.32,259.72L1343.96,263.02L1344.6,260.89L1345.25,257.41L1345.89,260.9L1346.53,260.66L1347.17,259.51L1347.81,258.42L1348.45,261.41L1349.09,260.51L1349.74,256.45L1351.02,261.92L1351.66,257.54L1352.3,260.72L1352.94,259.43L1353.58,253.01L1354.23,256.23L1354.87,256.29L1355.51,264.33L1356.79,254.92L1357.43,257.29L1358.72,259.24L1359.36,257.79L1360.64,260.23L1361.28,257.27L1362.57,261.53L1363.21,257.53L1363.85,249.6L1364.49,260.18L1365.13,259.19L1365.77,255.64L1366.42,260.81L1367.06,258.84L1367.7,260.6L1368.34,256.53L1368.98,262.01L1369.62,259.4L1370.26,257.41L1370.91,258.95L1372.19,259.55L1372.83,259.32L1373.47,259.04L1374.11,260.64L1374.75,258.81L1375.4,259.24L1376.04,258.63L1376.68,259.54L1377.32,258.25L1377.96,260.18L1378.6,259.63L1379.25,260.33L1379.89,257.74L1380.53,259.17L1381.81,259.82L1382.45,259.97L1383.09,257.15L1383.74,260.51L1384.38,260.43L1385.02,258.61L1385.66,258.19L1386.3,260.67L1386.94,259.73L1387.58,260.89L1388.23,259.39L1388.87,260.64L1390.15,259.2L1390.79,260.37L1392.08,257.79L1392.72,260.87L1393.36,260.34L1394,258.63L1394.64,260.65L1395.28,259.67L1395.92,258.96L1396.57,259.96L1397.21,257.47L1397.85,259.66L1398.49,260.44L1399.13,259.41L1401.06,259.55L1401.7,259.52L1402.98,259.5L1403.62,258.37L1404.26,262.42L1404.91,259.08L1405.55,257.31L1406.19,260.48L1406.83,258.92L1407.47,259.31L1408.11,260.21L1408.75,259.37L1409.4,260.73L1410.68,259.19L1411.32,259.49L1412.6,259.85L1413.25,262.05L1413.89,258.38L1414.53,259.52L1415.17,260.02L1415.81,257.03L1417.09,260.71L1417.74,258.71L1418.38,265.19L1419.02,260.25L1420.3,259.57L1420.94,260.34L1422.23,258.84L1422.87,259.03L1423.51,258.87L1424.15,257.45L1424.79,256.46L1425.43,259.76L1426.72,259.25L1427.36,265.3L1429.28,259.72L1429.92,261.84L1430.57,258.6L1431.21,261.16L1433.13,258.22L1433.77,260.47L1435.06,258.57L1435.7,261L1436.98,256.86L1437.62,261.02L1438.91,258.97L1439.55,258.08L1441.47,260.46L1442.11,259.77L1442.75,258.84L1443.4,256.13L1445.32,260.79L1445.96,259.56L1446.6,259.37L1447.25,261.49L1447.89,259.52L1448.53,260.05L1449.17,258.64L1449.81,259.89L1451.09,258.64L1451.74,261.96L1453.02,259L1453.66,258.97L1454.3,260.25L1454.94,259.42L1456.23,259.97L1456.87,259.37L1458.15,259.85L1458.79,258.51L1459.43,255.64L1460.08,258.91L1460.72,261.52L1461.36,260.32L1462,258.97L1462.64,260.42L1463.28,259.22L1463.92,260.93L1465.21,259.6L1465.85,256.19L1466.49,261.34L1467.13,259.36L1467.77,254.22L1468.42,260.07L1469.06,258.55L1469.7,259.18L1470.34,259.23L1470.98,258.12L1471.62,259.09L1472.26,258.65L1472.91,258.47L1473.55,259.68L1474.83,259.45L1475.47,259.58L1476.11,257.13L1476.75,259.91L1478.04,258.8L1478.68,259.57L1479.32,261.06L1479.96,259.63L1481.89,260.35L1482.53,259.04L1483.17,258.7L1483.81,259.34L1484.45,258.35L1485.09,259.98L1486.38,259.4L1487.02,260.36L1488.94,256.15L1489.58,259.68L1490.23,258.79L1490.87,259.44L1492.15,259.37L1492.79,259.24L1493.43,259.79L1494.08,258.65L1494.72,259.44L1495.36,254.82L1496.64,258.9L1497.28,259.99L1499.21,259.8L1499.85,259.84L1500.49,259.63L1501.13,258.53L1502.42,259.36L1503.06,260.36L1503.7,259.44L1504.34,260.01L1505.62,259.17L1506.26,259.45L1506.91,258.7L1507.55,259.54L1515.25,259.4L1515.89,260.33L1517.17,259.43L1517.81,259.38L1519.09,259.36L1519.74,259.3L1520.38,260.01L1521.02,259.35L1524.23,259.42L1524.87,259.13L1527.43,259.59L1528.08,259.53L1530,259.4" style="vector-effect: non-scaling-stroke; fill: none; stroke: rgb(140, 86, 75); stroke-opacity: 1; stroke-width: 2px; opacity: 1;"/></g><g class="points"/><g class="text"/></g></g></g><g class="overplot"/><path class="xlines-above crisp" d="M0,0" style="fill: none;"/><path class="ylines-above crisp" d="M0,0" style="fill: none;"/><g class="overlines-above"/><g class="xaxislayer-above"><g class="xtick"><text text-anchor="middle" x="0" y="649" transform="translate(204.77,0)" style="font-family: 'Open Sans', verdana, arial, sans-serif; font-size: 12px; fill: rgb(68, 68, 68); fill-opacity: 1; white-space: pre; opacity: 1;">20</text></g><g class="xtick"><text text-anchor="middle" x="0" y="649" style="font-family: 'Open Sans', verdana, arial, sans-serif; font-size: 12px; fill: rgb(68, 68, 68); fill-opacity: 1; white-space: pre; opacity: 1;" transform="translate(357.83,0)">40</text></g><g class="xtick"><text text-anchor="middle" x="0" y="649" style="font-family: 'Open Sans', verdana, arial, sans-serif; font-size: 12px; fill: rgb(68, 68, 68); fill-opacity: 1; white-space: pre; opacity: 1;" transform="translate(510.9,0)">60</text></g><g class="xtick"><text text-anchor="middle" x="0" y="649" style="font-family: 'Open Sans', verdana, arial, sans-serif; font-size: 12px; fill: rgb(68, 68, 68); fill-opacity: 1; white-space: pre; opacity: 1;" transform="translate(663.96,0)">80</text></g><g class="xtick"><text text-anchor="middle" x="0" y="649" style="font-family: 'Open Sans', verdana, arial, sans-serif; font-size: 12px; fill: rgb(68, 68, 68); fill-opacity: 1; white-space: pre; opacity: 1;" transform="translate(817.03,0)">100</text></g><g class="xtick"><text text-anchor="middle" x="0" y="649" style="font-family: 'Open Sans', verdana, arial, sans-serif; font-size: 12px; fill: rgb(68, 68, 68); fill-opacity: 1; white-space: pre; opacity: 1;" transform="translate(970.09,0)">120</text></g><g class="xtick"><text text-anchor="middle" x="0" y="649" style="font-family: 'Open Sans', verdana, arial, sans-serif; font-size: 12px; fill: rgb(68, 68, 68); fill-opacity: 1; white-space: pre; opacity: 1;" transform="translate(1123.15,0)">140</text></g><g class="xtick"><text text-anchor="middle" x="0" y="649" style="font-family: 'Open Sans', verdana, arial, sans-serif; font-size: 12px; fill: rgb(68, 68, 68); fill-opacity: 1; white-space: pre; opacity: 1;" transform="translate(1276.22,0)">160</text></g><g class="xtick"><text text-anchor="middle" x="0" y="649" style="font-family: 'Open Sans', verdana, arial, sans-serif; font-size: 12px; fill: rgb(68, 68, 68); fill-opacity: 1; white-space: pre; opacity: 1;" transform="translate(1429.28,0)">180</text></g><g class="xtick"><text text-anchor="middle" x="0" y="649" style="font-family: 'Open Sans', verdana, arial, sans-serif; font-size: 12px; fill: rgb(68, 68, 68); fill-opacity: 1; white-space: pre; opacity: 1;" transform="translate(1582.35,0)">200</text></g></g><g class="yaxislayer-above"><g class="ytick"><text text-anchor="end" x="59" y="4.199999999999999" transform="translate(0,613.35)" style="font-family: 'Open Sans', verdana, arial, sans-serif; font-size: 12px; fill: rgb(68, 68, 68); fill-opacity: 1; white-space: pre; opacity: 1;">0</text></g><g class="ytick"><text text-anchor="end" x="59" y="4.199999999999999" style="font-family: 'Open Sans', verdana, arial, sans-serif; font-size: 12px; fill: rgb(68, 68, 68); fill-opacity: 1; white-space: pre; opacity: 1;" transform="translate(0,554.56)">0.2</text></g><g class="ytick"><text text-anchor="end" x="59" y="4.199999999999999" style="font-family: 'Open Sans', verdana, arial, sans-serif; font-size: 12px; fill: rgb(68, 68, 68); fill-opacity: 1; white-space: pre; opacity: 1;" transform="translate(0,495.76)">0.4</text></g><g class="ytick"><text text-anchor="end" x="59" y="4.199999999999999" style="font-family: 'Open Sans', verdana, arial, sans-serif; font-size: 12px; fill: rgb(68, 68, 68); fill-opacity: 1; white-space: pre; opacity: 1;" transform="translate(0,436.97)">0.6</text></g><g class="ytick"><text text-anchor="end" x="59" y="4.199999999999999" style="font-family: 'Open Sans', verdana, arial, sans-serif; font-size: 12px; fill: rgb(68, 68, 68); fill-opacity: 1; white-space: pre; opacity: 1;" transform="translate(0,378.17)">0.8</text></g><g class="ytick"><text text-anchor="end" x="59" y="4.199999999999999" style="font-family: 'Open Sans', verdana, arial, sans-serif; font-size: 12px; fill: rgb(68, 68, 68); fill-opacity: 1; white-space: pre; opacity: 1;" transform="translate(0,319.38)">1</text></g><g class="ytick"><text text-anchor="end" x="59" y="4.199999999999999" style="font-family: 'Open Sans', verdana, arial, sans-serif; font-size: 12px; fill: rgb(68, 68, 68); fill-opacity: 1; white-space: pre; opacity: 1;" transform="translate(0,260.58000000000004)">1.2</text></g><g class="ytick"><text text-anchor="end" x="59" y="4.199999999999999" style="font-family: 'Open Sans', verdana, arial, sans-serif; font-size: 12px; fill: rgb(68, 68, 68); fill-opacity: 1; white-space: pre; opacity: 1;" transform="translate(0,201.79)">1.4</text></g><g class="ytick"><text text-anchor="end" x="59" y="4.199999999999999" style="font-family: 'Open Sans', verdana, arial, sans-serif; font-size: 12px; fill: rgb(68, 68, 68); fill-opacity: 1; white-space: pre; opacity: 1;" transform="translate(0,142.99)">1.6</text></g><g class="ytick"><text text-anchor="end" x="59" y="4.199999999999999" style="font-family: 'Open Sans', verdana, arial, sans-serif; font-size: 12px; fill: rgb(68, 68, 68); fill-opacity: 1; white-space: pre; opacity: 1;" transform="translate(0,84.2)">1.8</text></g></g><g class="overaxes-above"/></g></g><g class="polarlayer"/><g class="smithlayer"/><g class="ternarylayer"/><g class="geolayer"/><g class="funnelarealayer"/><g class="pielayer"/><g class="iciclelayer"/><g class="treemaplayer"/><g class="sunburstlayer"/><g class="glimages"/><defs id="topdefs-3a11e2"><g class="clips"/><clipPath id="legend3a11e2"><rect width="88" height="162" x="0" y="0"/></clipPath></defs><g class="layer-above"><g class="imagelayer"/><g class="shapelayer"/></g><g class="infolayer"><g class="legend" pointer-events="all" transform="translate(1620.6000000000001,60)"><rect class="bg" shape-rendering="crispEdges" width="88" height="162" x="0" y="0" style="stroke: rgb(68, 68, 68); stroke-opacity: 1; fill: rgb(255, 255, 255); fill-opacity: 1; stroke-width: 0px;"/><g class="scrollbox" transform="" clip-path="url(#legend3a11e2)"><g class="groups"><g class="traces" transform="translate(0,14.5)" style="opacity: 0.5;"><text class="legendtext" text-anchor="start" x="40" y="4.680000000000001" style="font-family: 'Open Sans', verdana, arial, sans-serif; font-size: 12px; fill: rgb(68, 68, 68); fill-opacity: 1; white-space: pre;">D_A</text><g class="layers" style="opacity: 1;"><g class="legendfill"/><g class="legendlines"><path class="js-line" d="M5,0h30" style="fill: none; stroke: rgb(31, 119, 180); stroke-opacity: 1; stroke-width: 2px;"/></g><g class="legendsymbols"><g class="legendpoints"/></g></g><rect class="legendtoggle" x="0" y="-9.5" width="82.54679107666016" height="19" style="fill: rgb(0, 0, 0); fill-opacity: 0;"/></g><g class="traces" transform="translate(0,33.5)" style="opacity: 0.5;"><text class="legendtext" text-anchor="start" x="40" y="4.680000000000001" style="font-family: 'Open Sans', verdana, arial, sans-serif; font-size: 12px; fill: rgb(68, 68, 68); fill-opacity: 1; white-space: pre;">G_A</text><g class="layers" style="opacity: 1;"><g class="legendfill"/><g class="legendlines"><path class="js-line" d="M5,0h30" style="fill: none; stroke: rgb(255, 127, 14); stroke-opacity: 1; stroke-width: 2px;"/></g><g class="legendsymbols"><g class="legendpoints"/></g></g><rect class="legendtoggle" x="0" y="-9.5" width="82.54679107666016" height="19" style="fill: rgb(0, 0, 0); fill-opacity: 0;"/></g><g class="traces" transform="translate(0,52.5)" style="opacity: 0.5;"><text class="legendtext" text-anchor="start" x="40" y="4.680000000000001" style="font-family: 'Open Sans', verdana, arial, sans-serif; font-size: 12px; fill: rgb(68, 68, 68); fill-opacity: 1; white-space: pre;">cycle_A</text><g class="layers" style="opacity: 1;"><g class="legendfill"/><g class="legendlines"><path class="js-line" d="M5,0h30" style="fill: none; stroke: rgb(44, 160, 44); stroke-opacity: 1; stroke-width: 2px;"/></g><g class="legendsymbols"><g class="legendpoints"/></g></g><rect class="legendtoggle" x="0" y="-9.5" width="82.54679107666016" height="19" style="fill: rgb(0, 0, 0); fill-opacity: 0;"/></g><g class="traces" transform="translate(0,71.5)" style="opacity: 0.5;"><text class="legendtext" text-anchor="start" x="40" y="4.680000000000001" style="font-family: 'Open Sans', verdana, arial, sans-serif; font-size: 12px; fill: rgb(68, 68, 68); fill-opacity: 1; white-space: pre;">idt_A</text><g class="layers" style="opacity: 1;"><g class="legendfill"/><g class="legendlines"><path class="js-line" d="M5,0h30" style="fill: none; stroke: rgb(214, 39, 40); stroke-opacity: 1; stroke-width: 2px;"/></g><g class="legendsymbols"><g class="legendpoints"/></g></g><rect class="legendtoggle" x="0" y="-9.5" width="82.54679107666016" height="19" style="fill: rgb(0, 0, 0); fill-opacity: 0;"/></g><g class="traces" transform="translate(0,90.5)" style="opacity: 0.5;"><text class="legendtext" text-anchor="start" x="40" y="4.680000000000001" style="font-family: 'Open Sans', verdana, arial, sans-serif; font-size: 12px; fill: rgb(68, 68, 68); fill-opacity: 1; white-space: pre;">D_B</text><g class="layers" style="opacity: 1;"><g class="legendfill"/><g class="legendlines"><path class="js-line" d="M5,0h30" style="fill: none; stroke: rgb(148, 103, 189); stroke-opacity: 1; stroke-width: 2px;"/></g><g class="legendsymbols"><g class="legendpoints"/></g></g><rect class="legendtoggle" x="0" y="-9.5" width="82.54679107666016" height="19" style="fill: rgb(0, 0, 0); fill-opacity: 0;"/></g><g class="traces" transform="translate(0,109.5)" style="opacity: 1;"><text class="legendtext" text-anchor="start" x="40" y="4.680000000000001" style="font-family: 'Open Sans', verdana, arial, sans-serif; font-size: 12px; fill: rgb(68, 68, 68); fill-opacity: 1; white-space: pre;">G_B</text><g class="layers" style="opacity: 1;"><g class="legendfill"/><g class="legendlines"><path class="js-line" d="M5,0h30" style="fill: none; stroke: rgb(140, 86, 75); stroke-opacity: 1; stroke-width: 2px;"/></g><g class="legendsymbols"><g class="legendpoints"/></g></g><rect class="legendtoggle" x="0" y="-9.5" width="82.54679107666016" height="19" style="fill: rgb(0, 0, 0); fill-opacity: 0;"/></g><g class="traces" transform="translate(0,128.5)" style="opacity: 0.5;"><text class="legendtext" text-anchor="start" x="40" y="4.680000000000001" style="font-family: 'Open Sans', verdana, arial, sans-serif; font-size: 12px; fill: rgb(68, 68, 68); fill-opacity: 1; white-space: pre;">cycle_B</text><g class="layers" style="opacity: 1;"><g class="legendfill"/><g class="legendlines"><path class="js-line" d="M5,0h30" style="fill: none; stroke: rgb(227, 119, 194); stroke-opacity: 1; stroke-width: 2px;"/></g><g class="legendsymbols"><g class="legendpoints"/></g></g><rect class="legendtoggle" x="0" y="-9.5" width="82.54679107666016" height="19" style="fill: rgb(0, 0, 0); fill-opacity: 0;"/></g><g class="traces" transform="translate(0,147.5)" style="opacity: 0.5;"><text class="legendtext" text-anchor="start" x="40" y="4.680000000000001" style="font-family: 'Open Sans', verdana, arial, sans-serif; font-size: 12px; fill: rgb(68, 68, 68); fill-opacity: 1; white-space: pre;">idt_B</text><g class="layers" style="opacity: 1;"><g class="legendfill"/><g class="legendlines"><path class="js-line" d="M5,0h30" style="fill: none; stroke: rgb(127, 127, 127); stroke-opacity: 1; stroke-width: 2px;"/></g><g class="legendsymbols"><g class="legendpoints"/></g></g><rect class="legendtoggle" x="0" y="-9.5" width="82.54679107666016" height="19" style="fill: rgb(0, 0, 0); fill-opacity: 0;"/></g></g></g><rect class="scrollbar" rx="20" ry="3" width="0" height="0" x="0" y="0" style="fill: rgb(128, 139, 164); fill-opacity: 1;"/></g><g class="g-gtitle"><text class="gtitle" x="860.5" y="30" text-anchor="middle" dy="0em" style="font-family: 'Open Sans', verdana, arial, sans-serif; font-size: 17px; fill: rgb(68, 68, 68); opacity: 1; font-weight: normal; white-space: pre;">cleanDataTrain loss over time</text></g><g class="g-xtitle"><text class="xtitle" x="825" y="688" text-anchor="middle" style="font-family: 'Open Sans', verdana, arial, sans-serif; font-size: 14px; fill: rgb(68, 68, 68); opacity: 1; font-weight: normal; white-space: pre;">epoch</text></g><g class="g-ytitle"><text class="ytitle" transform="rotate(-90,22,348)" x="22" y="348" text-anchor="middle" style="font-family: 'Open Sans', verdana, arial, sans-serif; font-size: 14px; fill: rgb(68, 68, 68); opacity: 1; font-weight: normal; white-space: pre;">loss</text></g></g></svg>