<svg class="main-svg" xmlns="http://www.w3.org/2000/svg" xmlns:xlink="http://www.w3.org/1999/xlink" width="1721" height="696" style="" viewBox="0 0 1721 696"><rect x="0" y="0" width="1721" height="696" style="fill: rgb(255, 255, 255); fill-opacity: 1;"/><defs id="defs-960e01"><g class="clips"><clipPath id="clip960e01xyplot" class="plotclip"><rect width="1530" height="576"/></clipPath><clipPath class="axesclip" id="clip960e01x"><rect x="60" y="0" width="1530" height="696"/></clipPath><clipPath class="axesclip" id="clip960e01y"><rect x="0" y="60" width="1721" height="576"/></clipPath><clipPath class="axesclip" id="clip960e01xy"><rect x="60" y="60" width="1530" height="576"/></clipPath></g><g class="gradients"/><g class="patterns"/></defs><g class="bglayer"/><g class="layer-below"><g class="imagelayer"/><g class="shapelayer"/></g><g class="cartesianlayer"><g class="subplot xy"><g class="layer-subplot"><g class="shapelayer"/><g class="imagelayer"/></g><g class="gridlayer"><g class="x"><path class="xgrid crisp" transform="translate(204.77,0)" d="M0,60v576" style="stroke: rgb(238, 238, 238); stroke-opacity: 1; stroke-width: 1px;"/><path class="xgrid crisp" transform="translate(357.83,0)" d="M0,60v576" style="stroke: rgb(238, 238, 238); stroke-opacity: 1; stroke-width: 1px;"/><path class="xgrid crisp" transform="translate(510.9,0)" d="M0,60v576" style="stroke: rgb(238, 238, 238); stroke-opacity: 1; stroke-width: 1px;"/><path class="xgrid crisp" transform="translate(663.96,0)" d="M0,60v576" style="stroke: rgb(238, 238, 238); stroke-opacity: 1; stroke-width: 1px;"/><path class="xgrid crisp" transform="translate(817.03,0)" d="M0,60v576" style="stroke: rgb(238, 238, 238); stroke-opacity: 1; stroke-width: 1px;"/><path class="xgrid crisp" transform="translate(970.09,0)" d="M0,60v576" style="stroke: rgb(238, 238, 238); stroke-opacity: 1; stroke-width: 1px;"/><path class="xgrid crisp" transform="translate(1123.15,0)" d="M0,60v576" style="stroke: rgb(238, 238, 238); stroke-opacity: 1; stroke-width: 1px;"/><path class="xgrid crisp" transform="translate(1276.22,0)" d="M0,60v576" style="stroke: rgb(238, 238, 238); stroke-opacity: 1; stroke-width: 1px;"/><path class="xgrid crisp" transform="translate(1429.28,0)" d="M0,60v576" style="stroke: rgb(238, 238, 238); stroke-opacity: 1; stroke-width: 1px;"/><path class="xgrid crisp" transform="translate(1582.35,0)" d="M0,60v576" style="stroke: rgb(238, 238, 238); stroke-opacity: 1; stroke-width: 1px;"/></g><g class="y"><path class="ygrid crisp" transform="translate(0,556.7)" d="M60,0h1530" style="stroke: rgb(238, 238, 238); stroke-opacity: 1; stroke-width: 1px;"/><path class="ygrid crisp" transform="translate(0,478.15)" d="M60,0h1530" style="stroke: rgb(238, 238, 238); stroke-opacity: 1; stroke-width: 1px;"/><path class="ygrid crisp" transform="translate(0,399.61)" d="M60,0h1530" style="stroke: rgb(238, 238, 238); stroke-opacity: 1; stroke-width: 1px;"/><path class="ygrid crisp" transform="translate(0,321.06)" d="M60,0h1530" style="stroke: rgb(238, 238, 238); stroke-opacity: 1; stroke-width: 1px;"/><path class="ygrid crisp" transform="translate(0,242.52)" d="M60,0h1530" style="stroke: rgb(238, 238, 238); stroke-opacity: 1; stroke-width: 1px;"/><path class="ygrid crisp" transform="translate(0,163.98000000000002)" d="M60,0h1530" style="stroke: rgb(238, 238, 238); stroke-opacity: 1; stroke-width: 1px;"/><path class="ygrid crisp" transform="translate(0,85.43)" d="M60,0h1530" style="stroke: rgb(238, 238, 238); stroke-opacity: 1; stroke-width: 1px;"/></g></g><g class="zerolinelayer"><path class="yzl zl crisp" transform="translate(0,635.24)" d="M60,0h1530" style="stroke: rgb(68, 68, 68); stroke-opacity: 1; stroke-width: 1px;"/></g><path class="xlines-below"/><path class="ylines-below"/><g class="overlines-below"/><g class="xaxislayer-below"/><g class="yaxislayer-below"/><g class="overaxes-below"/><g class="plot" transform="translate(60,60)" clip-path="url(#clip960e01xyplot)"><g class="scatterlayer mlayer"><g class="trace scatter trace4d3cef" style="stroke-miterlimit: 2; opacity: 1;"><g class="fills"/><g class="errorbars"/><g class="lines"><path class="js-line" d="M0,28.8L0.64,205.61L1.28,133.57L2.57,333.02L3.21,242.73L4.49,348.6L5.13,243.48L5.77,317.62L6.42,80.35L7.7,370.34L8.34,362.14L8.98,379.76L9.62,365.37L10.26,355.88L10.91,320.45L12.19,339.83L12.83,250.61L14.11,415.45L14.75,387.42L15.4,356.84L16.04,378.41L16.68,394.09L17.32,393.78L17.96,432.17L18.6,451.24L19.25,395.08L19.89,364.35L20.53,378.51L21.17,369.93L21.81,403.86L22.45,417.25L23.09,415.81L23.74,371.78L25.02,431.09L25.66,400.25L26.3,451.74L26.94,421.59L27.58,392.33L28.23,416.92L28.87,454.11L29.51,385.25L31.43,458.94L32.08,402.07L32.72,286.74L33.36,448.48L34,442.53L34.64,449.66L35.28,458.12L35.92,379.19L36.57,426.86L37.21,407.2L37.85,425.86L38.49,407.01L39.13,391.68L39.77,451.17L40.42,286.63L41.06,433.99L41.7,453L42.34,449.44L42.98,394.6L43.62,470.37L45.55,459.5L46.19,416.39L47.47,465.79L48.11,467.39L49.4,441.99L50.04,469.42L50.68,472.21L51.32,455.44L51.96,472.32L52.6,471.65L53.25,479.17L53.89,451.53L54.53,458.47L55.81,444.35L56.45,490.84L57.74,421.23L58.38,471.67L59.02,469.19L59.66,480.19L60.3,438.4L60.94,460.84L61.58,468.47L62.23,464.43L62.87,467.68L63.51,412.24L64.15,420.49L64.79,451.92L66.08,454.24L66.72,480.16L68.64,400.77L69.28,467.2L69.92,421.36L70.57,476.3L71.21,447.91L71.85,477.62L73.13,416.06L73.77,491.29L74.42,461.97L75.06,491.94L75.7,483.1L76.34,446.65L76.98,468.88L77.62,424.42L78.26,401.24L78.91,448.6L80.19,495.6L80.83,495.52L81.47,476.16L82.11,389.04L83.4,483.81L84.04,481.7L84.68,499.25L85.96,465.37L86.6,494.72L87.89,474.25L88.53,485.52L89.17,430.34L89.81,479.21L90.45,464.01L91.09,474.25L91.74,452.65L92.38,494.79L93.66,453.54L94.3,462.71L94.94,484.24L95.58,456.84L96.23,499.16L96.87,487.62L97.51,479.14L98.15,489.61L98.79,462.39L99.43,479.43L100.08,463.23L100.72,413.95L102,488.65L102.64,465.64L103.28,479.81L103.92,458.57L104.57,488.36L105.21,459.29L105.85,465.02L106.49,495.14L107.13,491.92L107.77,479.4L108.42,458.44L109.06,498.98L109.7,460.44L110.34,481.76L110.98,490.76L111.62,489.64L112.26,487.3L112.91,457.78L113.55,457.96L114.19,485.35L115.47,468.02L116.11,485.49L116.75,440.75L117.4,511.91L118.04,480.01L118.68,494.81L119.32,472.72L119.96,484.23L120.6,467.13L121.25,494.11L121.89,460.59L122.53,491.46L123.17,511.59L123.81,472.17L124.45,483.28L125.09,468.44L125.74,472.46L126.38,508.98L127.02,444.19L127.66,486.09L128.3,498.74L128.94,495.22L129.58,495.08L130.23,515.5L130.87,519.25L131.51,477.32L132.15,486.32L132.79,472.55L133.43,476.53L134.08,503.17L134.72,489.66L135.36,494.1L136,487.59L136.64,503.14L137.28,497.03L137.92,482.98L138.57,481.57L139.21,496.81L140.49,434.91L141.13,464.75L142.42,515.88L143.06,468.86L144.34,499.39L144.98,502.95L145.62,501.63L146.26,487.42L146.91,504.66L147.55,499.32L148.19,486.65L148.83,500.75L150.11,479.45L150.75,491.88L151.4,412.45L152.04,488.34L152.68,497.27L153.32,461.69L153.96,444.07L154.6,493.84L155.25,508.66L155.89,495.59L156.53,503.05L157.17,458.09L159.09,503.98L159.74,507.92L161.02,490.39L161.66,504.93L162.3,498.47L162.94,499.52L163.58,427.36L164.23,496.67L164.87,441.89L165.51,525.07L166.15,509.81L166.79,394.71L167.43,490.89L168.08,512.36L168.72,482.27L169.36,489.19L170,505.8L171.92,484.31L172.57,472.68L173.85,502.2L174.49,487.59L175.13,503.98L175.77,480.41L177.06,500.63L177.7,485.01L178.34,499.45L178.98,496.97L179.62,496.75L180.26,516.6L180.91,515.43L181.55,492.91L182.83,510.65L183.47,496.41L184.11,508.04L184.75,480.03L185.4,504.15L186.04,494.09L187.32,507.18L187.96,510.95L189.25,484.71L189.89,467.3L190.53,506.02L191.17,454.28L192.45,510.2L193.09,511.26L195.02,475.88L195.66,491.69L196.3,506.89L196.94,495.38L197.58,429.5L198.23,507.86L199.51,496.27L200.15,502.09L200.79,511.95L201.43,507.95L202.72,486.33L203.36,502.71L204,481.36L204.64,509.65L205.28,498.91L205.92,506.44L206.57,500.94L207.21,487.98L207.85,491.58L208.49,500.24L209.13,489.55L209.77,497.52L212.34,476.32L212.98,486.99L213.62,484.29L214.26,508.42L214.91,492.09L215.55,492.87L216.19,505.69L216.83,458.28L217.47,514.6L218.75,477.17L219.4,506.25L220.04,496.2L220.68,508.04L221.32,483.22L221.96,499.83L222.6,498.56L223.25,504.58L223.89,505.53L224.53,511.51L225.17,272.6L225.81,499.38L227.09,503.68L227.74,498.03L228.38,501.98L229.02,453.19L230.3,474.06L230.94,503.78L231.58,469.68L232.23,499.62L232.87,498.47L233.51,521.2L234.15,505.63L234.79,458.23L236.08,514.75L236.72,494.09L237.36,469.91L238,510.62L238.64,497.59L239.28,508.6L240.57,475.74L241.21,495.01L241.85,490.24L242.49,511.41L243.13,506.95L243.77,473.55L244.42,501.72L245.06,480.52L245.7,458.68L246.34,503.9L246.98,507.51L247.62,490.43L248.26,503.43L248.91,494.91L249.55,516.84L250.19,516.31L250.83,418.71L252.11,511.71L252.75,525L253.4,513.49L254.04,480.68L254.68,478.61L255.32,492.57L255.96,488.05L256.6,512.08L257.25,510.89L257.89,484.87L259.17,506.09L259.81,507.57L260.45,501.82L261.09,483.95L261.74,508.04L262.38,480.05L263.02,451.1L263.66,497.66L264.3,506.53L264.94,504.95L266.23,491.85L266.87,495.33L267.51,521.12L268.15,507.77L269.43,515.63L270.08,505.04L270.72,499.23L271.36,466.26L272,522.09L272.64,503.85L273.28,506.55L273.92,498.63L274.57,482.24L275.21,496.18L275.85,521.96L276.49,484.21L277.13,490.39L277.77,510.94L278.42,498.23L279.06,442.44L279.7,522.49L280.34,475.23L281.62,516.36L282.26,503.93L282.91,507.85L283.55,487.49L284.19,509.44L284.83,492.05L286.11,501.18L286.75,526.39L288.04,511.95L288.68,512.7L289.32,508.23L289.96,490.84L290.6,498.76L291.25,484.59L291.89,516.99L292.53,226.01L293.17,463.6L294.45,513.81L295.09,501.63L295.74,492.41L296.38,512.04L297.02,499.07L297.66,501.68L298.3,500.23L298.94,511.11L300.23,481.24L300.87,496.62L301.51,501.91L302.15,496.37L302.79,514.95L303.43,496.16L304.72,517.83L305.36,505.11L306,484.55L306.64,512.89L307.28,509.75L307.92,502.01L309.85,506.69L310.49,511.59L311.13,503.37L311.77,509.08L312.42,462.19L313.06,517.38L313.7,502.46L314.34,516.81L314.98,494.95L315.62,511.7L317.55,488.52L318.19,503.22L318.83,503.19L319.47,511.2L320.11,516.11L320.75,503.98L321.4,531.26L322.04,510.48L322.68,505.89L323.32,519.78L323.96,490.13L324.6,508.21L325.25,515.07L325.89,497.22L326.53,517.47L327.17,494.89L327.81,488.24L328.45,515.21L329.09,496.31L329.74,532.82L330.38,447.55L331.02,504.56L331.66,513.08L332.3,490.44L332.94,513.19L333.58,508.75L334.23,482.28L334.87,498.35L335.51,497.23L336.15,525.77L337.43,510.76L338.08,480.21L339.36,520.45L340,516.41L340.64,490.61L341.28,504.61L341.92,514.3L342.57,502.65L343.85,486.56L344.49,500.28L345.77,515.46L346.42,490.53L347.06,509.26L347.7,446.14L348.98,515.36L349.62,504.09L350.26,504.83L350.91,519.4L351.55,512.98L352.19,516.21L352.83,509.4L353.47,514.16L354.75,501.33L355.4,515.64L356.04,491.82L356.68,382.04L357.96,509.55L358.6,486.22L360.53,517.29L361.17,508.18L361.81,527.57L362.45,525.32L363.09,506.58L363.74,508.6L364.38,489.72L365.02,511.93L365.66,507.13L366.3,525.05L366.94,505.17L368.23,496.57L368.87,530.4L369.51,493.28L370.15,502.22L370.79,509.28L371.43,509.22L372.08,500.59L372.72,507.01L373.36,477.25L374.64,518.37L375.28,508.02L375.92,492.99L376.57,505.26L377.21,495.08L377.85,511.98L378.49,517.54L379.13,517.14L379.77,512.82L380.42,525.76L381.06,497.39L382.34,503.04L382.98,516.55L383.62,489.81L384.26,514.32L384.91,515.65L385.55,525.86L386.83,473.71L387.47,517.49L388.11,522.92L388.75,503.63L389.4,513.54L390.04,507.28L390.68,498.69L391.32,502.1L391.96,497.2L392.6,503.64L393.25,516.76L393.89,489.9L394.53,495.19L395.17,515.02L395.81,520.7L396.45,503.61L397.09,497.76L397.74,530.03L399.02,486.24L399.66,514.72L400.3,501.78L400.94,513.88L401.58,467.07L402.23,521.2L402.87,501.18L403.51,437.67L404.15,530L404.79,510.04L405.43,506.76L406.08,511.84L406.72,502.48L407.36,521.85L408,527.05L408.64,507.27L409.28,524.88L409.92,490.81L411.21,528.45L411.85,505.07L412.49,527.04L413.13,522.56L413.77,512.74L414.42,516.88L415.06,490.41L415.7,509.05L416.34,510.45L416.98,513.84L417.62,525.94L418.26,511.69L418.91,501.66L419.55,518.73L420.19,506.45L420.83,379.38L422.11,503.09L422.75,517.32L423.4,499.98L424.04,510.44L424.68,527L425.32,511.05L425.96,496.36L426.6,502.23L427.89,513.59L428.53,509.58L429.17,516.58L429.81,511.23L430.45,504.33L431.09,488.4L431.74,525.99L432.38,494.11L433.66,516.32L434.3,506.16L434.94,501.7L435.58,507.27L436.23,500.94L436.87,473.36L437.51,514.26L438.15,505.01L439.43,526.99L440.08,507.22L440.72,517.3L441.36,511.65L442,494.33L442.64,522.33L443.92,491.13L444.57,498.18L445.21,517.17L445.85,508.96L446.49,513.88L447.13,499.88L449.06,528.95L449.7,515.23L450.34,518.58L450.98,514.63L451.62,527.79L452.26,497.49L452.91,494.45L453.55,497.06L454.19,459.99L454.83,520.6L455.47,492.75L456.11,524.16L456.75,515.78L457.4,518.66L458.68,510.97L459.32,517.29L459.96,490.96L460.6,504.1L461.25,467.49L461.89,507.73L462.53,512.44L463.17,511.15L463.81,516.42L464.45,508.01L465.09,482.95L465.74,521.72L467.02,504.51L467.66,509.06L468.3,517.65L468.94,515.73L469.58,512.78L470.23,520.65L471.51,489.3L472.15,505.48L472.79,513.25L473.43,461.41L474.72,526.68L475.36,516.49L476,495.06L476.64,528.18L478.57,485.46L479.21,506.68L479.85,512.74L480.49,504.99L481.13,518.9L481.77,512.84L482.42,511.38L483.06,522.61L484.34,506.61L484.98,515.41L485.62,529.24L486.26,520.7L487.55,496.99L488.19,503.69L488.83,519.12L489.47,504.29L490.11,499.65L490.75,517.82L492.04,499.09L492.68,527.71L493.32,516.04L493.96,523.27L494.6,510.79L495.25,481.96L495.89,525.69L496.53,517.06L497.17,514.17L497.81,503.64L498.45,525.55L499.09,512.64L499.74,517.37L500.38,496.89L501.66,507.79L502.3,530.48L503.58,484.14L504.23,507.04L504.87,514.28L505.51,497.58L506.15,501.21L506.79,520.99L508.08,513.25L508.72,514.12L509.36,491.56L510,518.94L510.64,525.04L511.28,503.74L511.92,516.51L512.57,492.53L513.21,485.7L513.85,518.44L514.49,523.14L515.13,511.8L515.77,492.26L516.42,515.82L517.06,507L517.7,510.07L518.98,519.68L519.62,507.36L520.91,514.22L521.55,522.46L522.19,498.38L522.83,523.54L524.11,516.34L524.75,521.42L526.04,512.94L526.68,523.87L527.32,522.63L527.96,510.89L528.6,499.15L529.25,512.76L529.89,502.24L530.53,514.73L531.17,515.48L531.81,495.25L532.45,529.07L533.09,517.76L533.74,508.01L534.38,537.32L536.3,486.45L536.94,518.75L538.23,502.76L538.87,520.93L539.51,511.68L540.15,522.27L540.79,518.61L541.43,506.08L542.08,512.11L542.72,489.92L543.36,534.38L544,505.54L544.64,497.36L545.28,528.94L545.92,532.47L546.57,523.51L547.21,522.76L547.85,517.74L548.49,503.02L549.13,503.47L549.77,512.02L550.42,470.87L551.06,518.66L551.7,521.08L552.34,519.83L553.62,522.68L554.26,514.93L554.91,510.69L555.55,498.21L556.19,478.25L556.83,514.81L557.47,514.68L558.11,483L558.75,515.06L559.4,497.58L560.04,528.62L560.68,521.93L561.32,507.82L561.96,508.28L562.6,516.91L563.25,518.8L563.89,496.36L564.53,503.4L565.17,491.76L565.81,531.81L566.45,505.97L567.09,509.13L567.74,477.58L568.38,519.69L569.02,515.49L569.66,524.63L570.3,509.04L570.94,528.18L571.58,533.04L572.23,521.95L572.87,515.61L573.51,523.93L574.15,516.94L574.79,462.64L575.43,519.02L576.08,516.62L576.72,509.8L578,491.34L578.64,526.64L579.28,504.09L579.92,533.03L580.57,514.27L581.21,520.29L581.85,493.16L582.49,535.61L583.13,497.19L583.77,500.84L584.42,499.44L585.06,514.23L585.7,508.74L586.34,521.66L586.98,518.49L587.62,514.8L588.26,523.98L588.91,514.72L589.55,519.56L590.19,515.04L590.83,522.53L591.47,522.22L592.11,518.13L592.75,516.76L593.4,524.07L594.04,510.88L594.68,522.91L595.32,468.78L595.96,503.09L596.6,498.05L597.25,530.24L597.89,510.99L598.53,522.35L599.17,522.68L599.81,518.7L600.45,515.73L601.09,482.03L601.74,521.03L602.38,501.19L603.02,517.38L603.66,513.05L604.3,525.66L604.94,511.03L605.58,516.64L606.23,511.88L608.15,524.65L608.79,518.56L609.43,509.24L610.08,514.76L610.72,528.57L611.36,518.53L612,517.26L612.64,513.78L613.92,519.32L614.57,516.07L615.85,527.04L616.49,506.35L617.13,507.15L617.77,506.24L618.42,515.44L619.06,505.39L619.7,528.32L620.34,509.78L620.98,519.58L621.62,494.57L622.26,503.76L622.91,531.08L624.19,506.44L624.83,510.47L625.47,510.37L626.11,532.39L627.4,518.19L628.04,519.88L628.68,497.2L629.32,515.56L629.96,495.73L630.6,515.47L631.25,506.94L631.89,510.69L633.17,458.23L633.81,526.75L635.09,504.93L635.74,520.82L636.38,533.36L637.02,516L637.66,526.14L638.3,494.58L638.94,528.17L639.58,502.77L640.23,497.94L640.87,527.55L642.15,510.73L642.79,516.78L643.43,506.48L644.08,518.1L644.72,517.14L645.36,509.57L646,502.82L646.64,524.25L647.28,518.32L647.92,521.93L648.57,533.23L649.21,508.63L649.85,512.88L650.49,512.39L651.13,532.62L651.77,472.55L652.42,540.93L653.7,508.26L654.34,498.65L655.62,534.28L656.26,530.77L656.91,516.04L657.55,522.53L658.19,514.98L658.83,517.63L659.47,518.44L660.11,527.76L661.4,521.11L662.04,504.21L662.68,537.43L663.32,502.94L663.96,481.78L664.6,524.43L665.89,507.79L666.53,513.92L667.17,519.01L667.81,516.91L668.45,519.24L669.09,526.84L669.74,496.02L670.38,524.37L671.02,518.34L671.66,532.87L672.94,514.61L673.58,518.97L674.23,504.54L674.87,518.05L675.51,520.09L676.15,517.73L676.79,526.21L677.43,503.1L678.08,523.43L678.72,514.15L679.36,536.22L680,533.26L680.64,522.45L681.28,522.56L681.92,446.3L683.21,517.62L683.85,510.74L684.49,490.42L685.13,510.72L685.77,520.68L686.42,511.4L687.06,506.93L687.7,521.21L688.98,488.62L689.62,528.53L690.26,521.72L690.91,489.85L691.55,526.46L692.19,497.47L692.83,465.26L693.47,517.21L694.11,536.14L694.75,510.51L695.4,507.93L696.04,526.89L696.68,513.13L697.32,516.59L697.96,518.08L698.6,515.63L699.25,511.99L699.89,481.53L700.53,522.06L701.17,461.34L701.81,474.12L702.45,526.89L703.09,514.83L703.74,528.61L704.38,504.42L705.02,506.94L705.66,512.22L706.3,523.16L706.94,507.87L708.23,516.12L708.87,506.04L709.51,517.57L710.15,507.52L710.79,510.18L711.43,504.97L712.08,525.73L712.72,507.81L713.36,517.31L714,508.9L714.64,490.31L715.28,499.78L715.92,524.49L716.57,501.65L717.21,502.46L717.85,515.63L718.49,508.56L719.13,529.01L719.77,508.8L720.42,518.71L721.06,498.1L721.7,520.04L722.34,531.23L722.98,515.89L723.62,507.69L724.26,517.3L724.91,513.75L725.55,517.81L726.19,528.01L726.83,522.86L727.47,533.69L728.11,524.12L728.75,524.6L729.4,510.7L730.04,528.86L730.68,520.84L731.32,524.14L731.96,510.64L732.6,513.87L733.25,508.5L733.89,510.69L734.53,509.4L735.17,537.1L735.81,508.74L737.09,527.22L737.74,501.31L738.38,513.12L739.02,489.6L740.3,520.01L740.94,514.91L741.58,518.62L742.23,513.82L742.87,527.94L743.51,518.37L744.15,471.34L744.79,515.48L745.43,533.49L746.08,526.8L746.72,523.16L747.36,512.44L748.64,519.42L749.28,519.68L749.92,504.13L750.57,528.64L751.85,522.95L752.49,533.35L753.13,529.76L753.77,521.46L754.42,522.75L755.06,512.1L755.7,522.39L756.34,514.91L757.62,529.09L758.26,504.56L758.91,491.4L759.55,508.97L760.19,513.27L760.83,508.87L761.47,516.45L762.11,533.92L762.75,515.26L763.4,525.86L764.04,508.8L764.68,523.73L765.32,500.26L765.96,519.5L767.25,526.78L767.89,523.56L768.53,525.02L769.17,528.91L769.81,516.67L770.45,483.26L771.74,510.09L772.38,517.26L773.02,509.95L773.66,512.01L774.3,524.47L774.94,508.06L776.23,529.53L776.87,509.65L777.51,534.92L778.15,519.85L778.79,516.37L779.43,521.3L780.08,516.37L780.72,533.88L781.36,531.66L782,512.52L782.64,518.78L783.28,508.85L783.92,466.71L784.57,511.13L785.21,519.06L785.85,517.1L786.49,503.41L787.13,506.23L787.77,533.48L788.42,524.95L789.06,515.13L789.7,515.33L790.34,516.68L790.98,524.52L791.62,502.07L792.26,504.36L792.91,519.74L794.19,516.62L794.83,508.46L795.47,507.26L796.11,517.14L796.75,501.3L797.4,513.35L798.68,535.98L799.32,500.25L800.6,529.79L801.25,487.34L801.89,515.73L802.53,492.65L803.17,521.52L803.81,506.36L804.45,532.74L805.09,507.56L806.38,528.51L807.02,525.26L807.66,517.42L808.3,526.6L808.94,507.05L809.58,537.42L810.23,526.51L810.87,528.63L812.15,513.61L812.79,517.31L813.43,536.82L814.08,514.44L814.72,530.67L815.36,508.77L816,514.95L816.64,487.75L817.28,531.1L817.92,519.37L818.57,506.58L819.21,521.93L819.85,512.48L820.49,530.34L821.13,504.86L821.77,505.97L822.42,507.37L823.06,529.75L823.7,515.23L824.34,507.25L824.98,514.1L825.62,510.83L826.26,532.46L827.55,504.18L828.19,527.99L828.83,499.29L829.47,515.9L830.11,513.49L830.75,522.79L831.4,532.09L832.04,524.07L832.68,520.64L833.32,528.46L834.6,510.25L835.25,514.24L836.53,515.5L837.17,518.86L837.81,508.34L838.45,518.93L840.38,509.09L841.02,509.73L841.66,521.29L842.3,509.01L842.94,522.61L843.58,480.65L844.23,518.99L844.87,517.7L845.51,527.35L846.15,533.44L846.79,501.47L847.43,535.04L848.08,519.99L848.72,523.35L849.36,523.11L850,522.16L850.64,500.93L851.28,509.51L851.92,526.51L852.57,503.52L853.21,530.74L853.85,511.04L855.13,530.1L855.77,516.46L856.42,501.64L857.06,523.5L857.7,521.28L858.34,510.8L858.98,516.58L859.62,511.82L860.26,531.04L860.91,527.3L861.55,528.76L862.19,506.26L864.11,529.53L864.75,510.5L865.4,524.19L866.04,512.78L866.68,502.86L867.32,516.32L867.96,529.8L868.6,524.67L869.25,510.06L869.89,511.93L870.53,503.98L872.45,542.12L873.09,521.83L874.38,524.1L875.02,524.87L876.94,513.35L877.58,539.19L878.23,508.32L878.87,536.38L879.51,533.68L880.15,514.71L880.79,509.57L881.43,525.27L882.08,514.47L882.72,527.38L883.36,508.29L884,539.67L884.64,521.13L885.28,526.77L885.92,511.8L886.57,518.14L887.21,514.58L887.85,522.14L888.49,533.76L889.13,531.14L889.77,525.7L890.42,501.28L891.06,491.59L891.7,508.92L892.98,529.55L893.62,527.8L894.26,518.95L894.91,523.45L896.19,534.37L896.83,527.8L897.47,532.04L898.11,520.99L898.75,518.52L899.4,529.01L900.04,507.68L900.68,518.59L901.32,517.36L901.96,542.58L903.25,513.73L903.89,512.08L904.53,519.49L905.17,516.97L905.81,524.61L906.45,518.42L907.09,528.94L907.74,524.45L908.38,511.51L909.02,515.65L910.3,529.95L910.94,522.33L912.23,513.15L912.87,520.42L913.51,536.93L914.15,529.65L914.79,537.35L915.43,525.28L917.36,508.13L918,519.79L918.64,471.25L919.28,504.25L919.92,501.46L920.57,519.18L921.21,524.79L921.85,509.96L922.49,527.2L923.13,519.13L925.06,531.47L925.7,525.14L926.34,538.42L926.98,525.69L928.26,488.06L928.91,537.52L930.83,513.33L931.47,527.87L932.11,509.89L932.75,514.65L933.4,516.39L934.04,527.86L935.32,519.89L935.96,529.47L937.25,524.89L937.89,522.75L938.53,506.6L939.17,520.61L939.81,526.86L940.45,509.19L941.09,510.75L941.74,537.51L942.38,496.93L943.02,504.79L943.66,516L944.3,510.83L945.58,534.37L946.23,526.03L946.87,523.19L947.51,528.96L948.15,523.95L948.79,525.4L949.43,527.31L950.08,522.82L951.36,509.14L952,515.31L952.64,537.41L953.28,502.67L953.92,541.4L954.57,513.71L955.85,533.57L956.49,516.13L957.77,525.58L958.42,516.54L959.06,527.2L959.7,524.7L960.34,527.41L960.98,524.39L962.26,536.87L962.91,527.64L963.55,523.23L964.19,473.79L964.83,538.76L965.47,514.66L966.11,516.45L966.75,524.21L967.4,523.14L968.04,524.96L968.68,527.38L969.32,526.46L969.96,450.88L970.6,528.29L971.25,528.07L971.89,525.42L972.53,486.69L973.17,525.57L973.81,524.12L974.45,525.22L975.09,534.58L975.74,516.66L976.38,528.76L977.02,506.57L978.3,528.85L978.94,527.63L979.58,535.03L980.23,479.89L981.51,526.92L982.15,529.38L982.79,519.88L983.43,538.89L984.08,515.91L984.72,524.53L985.36,533.21L986,507.9L986.64,516.58L987.28,501.79L988.57,523.5L989.21,527.91L989.85,525.36L990.49,525.92L991.13,516.49L991.77,524.79L992.42,523.68L993.06,528.79L993.7,533.95L994.34,512.17L994.98,511.14L995.62,519.26L997.55,523.2L998.19,509.46L998.83,519.79L999.47,517.28L1000.11,525.27L1000.75,513.8L1002.04,523.38L1002.68,508.05L1003.96,525.58L1004.6,514.27L1005.25,532.05L1005.89,522.38L1006.53,517.5L1007.17,505.06L1008.45,538.45L1009.09,515.17L1009.74,524.56L1010.38,491.81L1011.02,533.53L1011.66,518.56L1012.3,508.3L1012.94,521.08L1014.23,523.85L1014.87,536.9L1015.51,510.98L1016.15,529.98L1016.79,514.41L1017.43,531.06L1018.08,521.51L1018.72,532.37L1020,526.02L1020.64,534.29L1021.28,527.17L1021.92,510.21L1023.21,535.16L1023.85,533.98L1024.49,519.4L1025.13,531.36L1026.42,495.69L1027.06,525.54L1027.7,524.96L1028.34,533.49L1028.98,517.33L1029.62,526.01L1030.26,534.23L1030.91,515.66L1031.55,529.94L1032.19,508.13L1032.83,529.86L1033.47,518.39L1034.11,526.94L1034.75,523.36L1035.4,514.59L1036.04,528.68L1036.68,534.55L1037.32,526.97L1037.96,522.51L1038.6,522.86L1039.25,528.33L1039.89,526.72L1040.53,528.09L1041.17,521.19L1041.81,525.57L1042.45,520.15L1043.09,524.84L1043.74,536.43L1044.38,530.08L1045.02,512.86L1045.66,530.9L1046.3,520.6L1046.94,526.78L1048.23,534.01L1048.87,506.81L1049.51,535.34L1050.15,508.28L1050.79,511.61L1051.43,522.63L1052.08,529.93L1052.72,526.63L1053.36,512.98L1054,526.13L1054.64,463.86L1055.28,514.92L1056.57,528.81L1057.21,503.94L1057.85,536.79L1058.49,535.49L1059.13,519.7L1059.77,536.69L1060.42,526.78L1061.06,514.87L1061.7,518.73L1062.98,530.31L1063.62,525.07L1064.91,521.94L1065.55,514.5L1066.19,520.74L1066.83,536.55L1067.47,522.16L1068.11,536.12L1070.68,513.28L1071.32,524.17L1072.6,519.98L1073.25,504.65L1073.89,528.37L1074.53,513.86L1075.17,534.42L1075.81,523.86L1076.45,511.23L1077.09,516.19L1077.74,480.6L1078.38,537.81L1080.3,518.37L1080.94,527.6L1081.58,545.89L1082.23,527.13L1083.51,523.27L1084.15,535.71L1084.79,516.89L1085.43,530.16L1086.08,524.12L1086.72,542.38L1088,524.6L1088.64,520.74L1089.92,534.73L1090.57,450.79L1091.85,528.96L1092.49,515.01L1093.13,522.89L1093.77,521.06L1094.42,526.57L1095.06,510.73L1096.34,537.12L1096.98,533.47L1097.62,534.43L1098.26,522.48L1099.55,531.74L1100.19,529.55L1101.47,510.76L1102.11,524.15L1102.75,522.98L1103.4,517.32L1104.68,532.06L1105.32,509.62L1105.96,517.92L1106.6,517.49L1107.25,522.87L1107.89,524.44L1108.53,520.09L1109.17,525.93L1109.81,505.57L1110.45,537.09L1111.09,532.81L1111.74,536.41L1112.38,537.57L1113.02,533.21L1113.66,533.46L1114.3,536.54L1114.94,513.93L1115.58,527.45L1116.87,516.26L1117.51,542.17L1118.79,525.04L1119.43,497.67L1120.08,538.09L1120.72,533.1L1121.36,524.21L1122,514.92L1122.64,520.08L1123.28,520.12L1123.92,522.32L1124.57,520.54L1125.21,538.81L1125.85,510.3L1126.49,520.81L1127.13,540.2L1127.77,521.09L1128.42,534.32L1129.06,520.31L1129.7,534.14L1130.34,533.92L1130.98,525.52L1131.62,537.3L1132.26,523.89L1132.91,500.65L1133.55,523.51L1134.19,510.74L1134.83,523.8L1135.47,522.13L1136.11,523.42L1136.75,535.51L1137.4,534.18L1138.04,509.14L1138.68,533.48L1139.32,513.35L1139.96,533.22L1140.6,530.91L1141.25,530.4L1141.89,532.63L1142.53,523.78L1143.17,519.5L1143.81,545.78L1145.09,511.41L1145.74,526.31L1146.38,528.16L1147.02,535.47L1148.3,527.44L1148.94,525.88L1149.58,504.64L1150.23,524.85L1150.87,520.68L1151.51,532.31L1154.08,524.96L1154.72,516.27L1155.36,534.36L1156,521.32L1156.64,524.27L1157.28,522.29L1157.92,531.5L1158.57,525.84L1159.21,525.24L1159.85,518.22L1160.49,522.58L1161.13,535.89L1161.77,525.99L1162.42,533.02L1163.7,519.13L1164.34,532.39L1164.98,521.32L1165.62,525.44L1166.26,539.21L1166.91,523.4L1167.55,518.35L1168.19,521.45L1168.83,511.8L1169.47,532.41L1170.11,542.15L1170.75,531.87L1171.4,518.59L1172.04,534.41L1172.68,534.84L1173.32,530.36L1173.96,519.35L1174.6,531.9L1175.25,531.37L1175.89,525.22L1176.53,537.28L1177.17,526.75L1177.81,513.34L1178.45,536.14L1179.09,506.58L1179.74,526.26L1180.38,527.85L1181.02,523.45L1182.3,532.94L1182.94,536.08L1183.58,530.31L1184.23,538.34L1184.87,528.1L1185.51,531.84L1186.79,532.21L1187.43,530.79L1188.72,527.43L1189.36,543.47L1190,479.49L1190.64,533.79L1191.92,527.93L1192.57,502.56L1193.85,533.53L1194.49,516.24L1195.13,528.47L1195.77,525.67L1196.42,523.96L1197.06,512.27L1198.34,535.91L1198.98,523.42L1199.62,534.83L1200.26,516.87L1200.91,511.53L1201.55,517.39L1202.19,538.2L1202.83,531.88L1203.47,536.25L1204.11,535.71L1204.75,512.99L1205.4,522.29L1206.04,518.66L1206.68,538.39L1207.32,530.18L1207.96,527.55L1208.6,512.72L1209.25,533.58L1209.89,515.52L1210.53,517.14L1211.17,535.33L1211.81,523.88L1212.45,532.3L1213.09,538.69L1213.74,500.92L1214.38,536.65L1215.02,526.71L1215.66,529.2L1216.3,496.18L1216.94,503.53L1217.58,527.34L1218.23,533.26L1218.87,533.08L1219.51,511.07L1220.79,543.3L1221.43,519.69L1222.08,521.51L1222.72,535.71L1223.36,530.07L1224,510.57L1224.64,539.42L1225.28,518.39L1226.57,528.86L1227.21,542.95L1227.85,522.29L1228.49,540.03L1229.77,519.36L1230.42,524.78L1231.7,533.73L1232.34,525.09L1232.98,531.86L1233.62,521.01L1234.26,521.53L1234.91,532.19L1235.55,543.11L1236.19,509.24L1236.83,536.44L1237.47,533.63L1238.11,528.27L1238.75,524.99L1239.4,514.36L1240.04,531.54L1240.68,506.29L1241.32,538.84L1241.96,519.79L1242.6,519.93L1243.25,529.99L1243.89,520.34L1244.53,534.85L1245.17,517.63L1245.81,525.56L1246.45,535.01L1247.09,530.46L1247.74,522.27L1248.38,524.71L1249.02,530.95L1249.66,485.47L1250.3,541.68L1250.94,529.75L1251.58,522.1L1252.23,529.38L1252.87,514.99L1253.51,535.17L1255.43,521.07L1256.08,533.83L1256.72,526.5L1257.36,531.93L1258.64,512.08L1259.28,536.32L1259.92,540.15L1260.57,532.57L1261.21,528.46L1261.85,530.2L1262.49,536.67L1263.13,525.15L1264.42,536.78L1265.06,529.15L1265.7,526.37L1266.34,529.41L1267.62,522.38L1268.26,509.11L1270.19,536.8L1270.83,521.02L1271.47,520.44L1272.11,527.4L1272.75,530.42L1273.4,529.7L1274.04,512.82L1274.68,519.1L1275.32,453.48L1275.96,532.22L1276.6,532.27L1277.25,519.85L1277.89,530.97L1278.53,518.02L1279.81,532.92L1280.45,521.33L1281.09,520.21L1281.74,524.96L1283.02,532.45L1283.66,509L1284.3,530.29L1284.94,526.26L1285.58,532.5L1286.23,507.98L1287.51,536.4L1288.15,533.84L1289.43,523.31L1290.08,498.82L1291.36,533.47L1292,527.24L1292.64,535.66L1293.28,511.73L1293.92,539.47L1294.57,524.27L1295.21,525.12L1295.85,530.72L1296.49,533.25L1297.13,526.04L1297.77,543.42L1298.42,522.25L1299.06,518.67L1299.7,534.48L1300.34,528.91L1300.98,532.1L1301.62,536.02L1302.26,525.1L1302.91,526.75L1303.55,536.92L1304.19,543.74L1304.83,517.15L1305.47,525.64L1306.11,511.49L1306.75,513.82L1307.4,506.84L1308.68,534.28L1309.32,527.56L1309.96,539.07L1310.6,528.78L1311.89,514.45L1312.53,525.74L1313.17,524.93L1313.81,518.69L1314.45,537.36L1315.09,537.11L1315.74,535.06L1316.38,528.52L1317.02,541.92L1317.66,511.89L1318.3,532.13L1318.94,524.68L1319.58,526.22L1321.51,512.13L1322.15,519.79L1322.79,525.64L1323.43,539.13L1324.08,529.43L1324.72,533.06L1325.36,535.03L1326,520.87L1326.64,520.34L1327.28,524.31L1327.92,527.06L1328.57,506.72L1329.21,511.89L1329.85,531.48L1330.49,524L1331.13,507.25L1331.77,531.53L1332.42,518.52L1334.34,537.37L1334.98,513.1L1335.62,510.9L1336.26,528.04L1336.91,526.96L1337.55,531.43L1338.19,531.81L1338.83,533.93L1340.11,521.95L1340.75,525.85L1341.4,522.44L1342.04,537.51L1342.68,523.2L1343.32,533.73L1344.6,524.41L1345.25,526.17L1346.53,529.16L1347.17,501.59L1347.81,539.57L1348.45,515.31L1349.09,528.59L1349.74,524.57L1350.38,513.79L1351.02,523.86L1351.66,521.14L1352.3,523.8L1352.94,525.63L1353.58,524.79L1354.23,507.02L1354.87,533.18L1355.51,530L1356.15,537.31L1356.79,538.13L1357.43,529.69L1358.08,540.54L1358.72,533.66L1359.36,526.11L1360,533.45L1361.28,503.01L1361.92,520.52L1363.21,530.9L1363.85,514.35L1364.49,531.87L1365.13,526.7L1365.77,544.43L1366.42,528.62L1367.7,535.59L1368.34,513.91L1368.98,537.56L1369.62,534.86L1370.26,531.71L1370.91,531.16L1371.55,527.51L1372.19,532.04L1372.83,529.48L1374.11,538.58L1374.75,522.23L1376.04,536.91L1376.68,537.5L1377.32,536.54L1377.96,517.83L1379.25,534.46L1379.89,529.09L1380.53,528.19L1381.17,544.2L1381.81,522.62L1382.45,534.66L1383.09,539.79L1383.74,536.26L1385.66,510.89L1386.3,521.74L1386.94,529.87L1387.58,527.17L1388.23,524.2L1388.87,541.75L1390.15,515.76L1390.79,537.18L1392.08,524.95L1392.72,529.02L1393.36,531.34L1394,522.51L1395.28,536.61L1395.92,532.27L1397.21,530.43L1397.85,533.89L1398.49,537.19L1399.13,510.01L1399.77,526.04L1400.42,524.49L1401.06,532.14L1401.7,539.24L1402.34,523.39L1402.98,452.73L1403.62,536.85L1404.26,535.73L1404.91,536.2L1405.55,518.69L1406.19,531.01L1407.47,537.54L1408.11,516.94L1409.4,538.78L1410.04,534.37L1410.68,532.09L1411.32,534.3L1411.96,526.18L1412.6,539.1L1413.25,513.18L1413.89,524.42L1414.53,512.72L1415.17,524.56L1415.81,507.08L1416.45,535.64L1417.09,524.08L1417.74,536.31L1418.38,527.07L1419.02,536.41L1419.66,536.6L1420.3,511.71L1420.94,542.24L1421.58,531.1L1422.23,527.49L1422.87,529.63L1424.15,492.95L1424.79,531.09L1425.43,525.86L1426.08,532.46L1426.72,524.66L1427.36,531.55L1428,496.85L1428.64,547.2L1429.92,523.9L1430.57,524.94L1431.21,515.9L1431.85,522.19L1432.49,525.85L1433.13,514.82L1434.42,536L1435.06,533.4L1435.7,535.64L1436.34,528.94L1436.98,521.65L1437.62,523.49L1438.26,515.13L1438.91,532.71L1439.55,538.5L1440.19,531.76L1441.47,521.11L1442.11,531.09L1442.75,494.87L1443.4,520.02L1444.04,532.18L1444.68,524.86L1445.96,542.02L1446.6,514.99L1447.25,534.67L1447.89,524.68L1448.53,537.44L1449.17,528.08L1449.81,525.68L1450.45,536.05L1451.09,537.55L1451.74,532.73L1452.38,540.64L1453.02,533.88L1453.66,532.04L1454.3,537.01L1455.58,541.44L1456.23,533.15L1456.87,533.76L1457.51,532.14L1458.15,531.15L1458.79,539.02L1459.43,514.71L1460.08,538.93L1460.72,535.17L1461.36,525.51L1462,534.67L1462.64,533.63L1463.28,531.26L1463.92,529.51L1464.57,519.71L1465.21,531.27L1465.85,502.26L1467.13,538.77L1467.77,532.2L1469.06,527.99L1469.7,533.25L1470.34,534.22L1470.98,533.11L1471.62,525.77L1472.26,532.09L1472.91,528.26L1473.55,531.39L1474.19,528.44L1474.83,537.16L1475.47,532.04L1476.11,448.1L1476.75,529.16L1477.4,527.72L1478.04,529.18L1478.68,522.72L1479.32,532.59L1479.96,526.09L1480.6,533.3L1481.89,541.68L1482.53,524.7L1483.81,516.91L1484.45,529.2L1486.38,532.61L1487.02,530.87L1488.3,536.05L1488.94,531.17L1489.58,540.26L1490.23,518L1490.87,516.42L1491.51,518.52L1492.15,527.67L1492.79,522.51L1493.43,528.52L1494.08,499.2L1494.72,529.32L1495.36,520.6L1496,532.94L1496.64,528.5L1497.28,532.6L1497.92,525.89L1498.57,511.19L1499.21,522.68L1499.85,537.82L1500.49,535.04L1501.77,534.81L1502.42,528.68L1503.06,529.67L1503.7,539.13L1505.62,517.71L1506.26,527.51L1506.91,532.9L1507.55,527.36L1508.19,524.25L1508.83,499.36L1509.47,529.9L1510.11,528.79L1510.75,536.2L1512.04,526.68L1512.68,524.59L1513.96,543.45L1514.6,538.87L1515.25,534.73L1515.89,535.64L1516.53,511.56L1517.17,531.38L1518.45,540.85L1519.09,528.73L1519.74,544.03L1520.38,541.63L1521.02,522.13L1521.66,530.63L1522.3,521.19L1523.58,530.91L1524.23,527.89L1524.87,530.23L1525.51,515.57L1526.79,536.97L1527.43,532.82L1528.08,524.06L1528.72,529.01L1529.36,538.82L1530,519.89" style="vector-effect: non-scaling-stroke; fill: none; stroke: rgb(214, 39, 40); stroke-opacity: 1; stroke-width: 2px; opacity: 1;"/></g><g class="points"/><g class="text"/></g></g></g><g class="overplot"/><path class="xlines-above crisp" d="M0,0" style="fill: none;"/><path class="ylines-above crisp" d="M0,0" style="fill: none;"/><g class="overlines-above"/><g class="xaxislayer-above"><g class="xtick"><text text-anchor="middle" x="0" y="649" transform="translate(204.77,0)" style="font-family: 'Open Sans', verdana, arial, sans-serif; font-size: 12px; fill: rgb(68, 68, 68); fill-opacity: 1; white-space: pre; opacity: 1;">20</text></g><g class="xtick"><text text-anchor="middle" x="0" y="649" style="font-family: 'Open Sans', verdana, arial, sans-serif; font-size: 12px; fill: rgb(68, 68, 68); fill-opacity: 1; white-space: pre; opacity: 1;" transform="translate(357.83,0)">40</text></g><g class="xtick"><text text-anchor="middle" x="0" y="649" style="font-family: 'Open Sans', verdana, arial, sans-serif; font-size: 12px; fill: rgb(68, 68, 68); fill-opacity: 1; white-space: pre; opacity: 1;" transform="translate(510.9,0)">60</text></g><g class="xtick"><text text-anchor="middle" x="0" y="649" style="font-family: 'Open Sans', verdana, arial, sans-serif; font-size: 12px; fill: rgb(68, 68, 68); fill-opacity: 1; white-space: pre; opacity: 1;" transform="translate(663.96,0)">80</text></g><g class="xtick"><text text-anchor="middle" x="0" y="649" style="font-family: 'Open Sans', verdana, arial, sans-serif; font-size: 12px; fill: rgb(68, 68, 68); fill-opacity: 1; white-space: pre; opacity: 1;" transform="translate(817.03,0)">100</text></g><g class="xtick"><text text-anchor="middle" x="0" y="649" style="font-family: 'Open Sans', verdana, arial, sans-serif; font-size: 12px; fill: rgb(68, 68, 68); fill-opacity: 1; white-space: pre; opacity: 1;" transform="translate(970.09,0)">120</text></g><g class="xtick"><text text-anchor="middle" x="0" y="649" style="font-family: 'Open Sans', verdana, arial, sans-serif; font-size: 12px; fill: rgb(68, 68, 68); fill-opacity: 1; white-space: pre; opacity: 1;" transform="translate(1123.15,0)">140</text></g><g class="xtick"><text text-anchor="middle" x="0" y="649" style="font-family: 'Open Sans', verdana, arial, sans-serif; font-size: 12px; fill: rgb(68, 68, 68); fill-opacity: 1; white-space: pre; opacity: 1;" transform="translate(1276.22,0)">160</text></g><g class="xtick"><text text-anchor="middle" x="0" y="649" style="font-family: 'Open Sans', verdana, arial, sans-serif; font-size: 12px; fill: rgb(68, 68, 68); fill-opacity: 1; white-space: pre; opacity: 1;" transform="translate(1429.28,0)">180</text></g><g class="xtick"><text text-anchor="middle" x="0" y="649" style="font-family: 'Open Sans', verdana, arial, sans-serif; font-size: 12px; fill: rgb(68, 68, 68); fill-opacity: 1; white-space: pre; opacity: 1;" transform="translate(1582.35,0)">200</text></g></g><g class="yaxislayer-above"><g class="ytick"><text text-anchor="end" x="59" y="4.199999999999999" transform="translate(0,635.24)" style="font-family: 'Open Sans', verdana, arial, sans-serif; font-size: 12px; fill: rgb(68, 68, 68); fill-opacity: 1; white-space: pre; opacity: 1;">0</text></g><g class="ytick"><text text-anchor="end" x="59" y="4.199999999999999" style="font-family: 'Open Sans', verdana, arial, sans-serif; font-size: 12px; fill: rgb(68, 68, 68); fill-opacity: 1; white-space: pre; opacity: 1;" transform="translate(0,556.7)">0.2</text></g><g class="ytick"><text text-anchor="end" x="59" y="4.199999999999999" style="font-family: 'Open Sans', verdana, arial, sans-serif; font-size: 12px; fill: rgb(68, 68, 68); fill-opacity: 1; white-space: pre; opacity: 1;" transform="translate(0,478.15)">0.4</text></g><g class="ytick"><text text-anchor="end" x="59" y="4.199999999999999" style="font-family: 'Open Sans', verdana, arial, sans-serif; font-size: 12px; fill: rgb(68, 68, 68); fill-opacity: 1; white-space: pre; opacity: 1;" transform="translate(0,399.61)">0.6</text></g><g class="ytick"><text text-anchor="end" x="59" y="4.199999999999999" style="font-family: 'Open Sans', verdana, arial, sans-serif; font-size: 12px; fill: rgb(68, 68, 68); fill-opacity: 1; white-space: pre; opacity: 1;" transform="translate(0,321.06)">0.8</text></g><g class="ytick"><text text-anchor="end" x="59" y="4.199999999999999" style="font-family: 'Open Sans', verdana, arial, sans-serif; font-size: 12px; fill: rgb(68, 68, 68); fill-opacity: 1; white-space: pre; opacity: 1;" transform="translate(0,242.52)">1</text></g><g class="ytick"><text text-anchor="end" x="59" y="4.199999999999999" style="font-family: 'Open Sans', verdana, arial, sans-serif; font-size: 12px; fill: rgb(68, 68, 68); fill-opacity: 1; white-space: pre; opacity: 1;" transform="translate(0,163.98000000000002)">1.2</text></g><g class="ytick"><text text-anchor="end" x="59" y="4.199999999999999" style="font-family: 'Open Sans', verdana, arial, sans-serif; font-size: 12px; fill: rgb(68, 68, 68); fill-opacity: 1; white-space: pre; opacity: 1;" transform="translate(0,85.43)">1.4</text></g></g><g class="overaxes-above"/></g></g><g class="polarlayer"/><g class="smithlayer"/><g class="ternarylayer"/><g class="geolayer"/><g class="funnelarealayer"/><g class="pielayer"/><g class="iciclelayer"/><g class="treemaplayer"/><g class="sunburstlayer"/><g class="glimages"/><defs id="topdefs-960e01"><g class="clips"/><clipPath id="legend960e01"><rect width="88" height="162" x="0" y="0"/></clipPath></defs><g class="layer-above"><g class="imagelayer"/><g class="shapelayer"/></g><g class="infolayer"><g class="legend" pointer-events="all" transform="translate(1620.6000000000001,60)"><rect class="bg" shape-rendering="crispEdges" width="88" height="162" x="0" y="0" style="stroke: rgb(68, 68, 68); stroke-opacity: 1; fill: rgb(255, 255, 255); fill-opacity: 1; stroke-width: 0px;"/><g class="scrollbox" transform="" clip-path="url(#legend960e01)"><g class="groups"><g class="traces" transform="translate(0,14.5)" style="opacity: 0.5;"><text class="legendtext" text-anchor="start" x="40" y="4.680000000000001" style="font-family: 'Open Sans', verdana, arial, sans-serif; font-size: 12px; fill: rgb(68, 68, 68); fill-opacity: 1; white-space: pre;">D_A</text><g class="layers" style="opacity: 1;"><g class="legendfill"/><g class="legendlines"><path class="js-line" d="M5,0h30" style="fill: none; stroke: rgb(31, 119, 180); stroke-opacity: 1; stroke-width: 2px;"/></g><g class="legendsymbols"><g class="legendpoints"/></g></g><rect class="legendtoggle" x="0" y="-9.5" width="82.54679107666016" height="19" style="fill: rgb(0, 0, 0); fill-opacity: 0;"/></g><g class="traces" transform="translate(0,33.5)" style="opacity: 0.5;"><text class="legendtext" text-anchor="start" x="40" y="4.680000000000001" style="font-family: 'Open Sans', verdana, arial, sans-serif; font-size: 12px; fill: rgb(68, 68, 68); fill-opacity: 1; white-space: pre;">G_A</text><g class="layers" style="opacity: 1;"><g class="legendfill"/><g class="legendlines"><path class="js-line" d="M5,0h30" style="fill: none; stroke: rgb(255, 127, 14); stroke-opacity: 1; stroke-width: 2px;"/></g><g class="legendsymbols"><g class="legendpoints"/></g></g><rect class="legendtoggle" x="0" y="-9.5" width="82.54679107666016" height="19" style="fill: rgb(0, 0, 0); fill-opacity: 0;"/></g><g class="traces" transform="translate(0,52.5)" style="opacity: 0.5;"><text class="legendtext" text-anchor="start" x="40" y="4.680000000000001" style="font-family: 'Open Sans', verdana, arial, sans-serif; font-size: 12px; fill: rgb(68, 68, 68); fill-opacity: 1; white-space: pre;">cycle_A</text><g class="layers" style="opacity: 1;"><g class="legendfill"/><g class="legendlines"><path class="js-line" d="M5,0h30" style="fill: none; stroke: rgb(44, 160, 44); stroke-opacity: 1; stroke-width: 2px;"/></g><g class="legendsymbols"><g class="legendpoints"/></g></g><rect class="legendtoggle" x="0" y="-9.5" width="82.54679107666016" height="19" style="fill: rgb(0, 0, 0); fill-opacity: 0;"/></g><g class="traces" transform="translate(0,71.5)" style="opacity: 1;"><text class="legendtext" text-anchor="start" x="40" y="4.680000000000001" style="font-family: 'Open Sans', verdana, arial, sans-serif; font-size: 12px; fill: rgb(68, 68, 68); fill-opacity: 1; white-space: pre;">idt_A</text><g class="layers" style="opacity: 1;"><g class="legendfill"/><g class="legendlines"><path class="js-line" d="M5,0h30" style="fill: none; stroke: rgb(214, 39, 40); stroke-opacity: 1; stroke-width: 2px;"/></g><g class="legendsymbols"><g class="legendpoints"/></g></g><rect class="legendtoggle" x="0" y="-9.5" width="82.54679107666016" height="19" style="fill: rgb(0, 0, 0); fill-opacity: 0;"/></g><g class="traces" transform="translate(0,90.5)" style="opacity: 0.5;"><text class="legendtext" text-anchor="start" x="40" y="4.680000000000001" style="font-family: 'Open Sans', verdana, arial, sans-serif; font-size: 12px; fill: rgb(68, 68, 68); fill-opacity: 1; white-space: pre;">D_B</text><g class="layers" style="opacity: 1;"><g class="legendfill"/><g class="legendlines"><path class="js-line" d="M5,0h30" style="fill: none; stroke: rgb(148, 103, 189); stroke-opacity: 1; stroke-width: 2px;"/></g><g class="legendsymbols"><g class="legendpoints"/></g></g><rect class="legendtoggle" x="0" y="-9.5" width="82.54679107666016" height="19" style="fill: rgb(0, 0, 0); fill-opacity: 0;"/></g><g class="traces" transform="translate(0,109.5)" style="opacity: 0.5;"><text class="legendtext" text-anchor="start" x="40" y="4.680000000000001" style="font-family: 'Open Sans', verdana, arial, sans-serif; font-size: 12px; fill: rgb(68, 68, 68); fill-opacity: 1; white-space: pre;">G_B</text><g class="layers" style="opacity: 1;"><g class="legendfill"/><g class="legendlines"><path class="js-line" d="M5,0h30" style="fill: none; stroke: rgb(140, 86, 75); stroke-opacity: 1; stroke-width: 2px;"/></g><g class="legendsymbols"><g class="legendpoints"/></g></g><rect class="legendtoggle" x="0" y="-9.5" width="82.54679107666016" height="19" style="fill: rgb(0, 0, 0); fill-opacity: 0;"/></g><g class="traces" transform="translate(0,128.5)" style="opacity: 0.5;"><text class="legendtext" text-anchor="start" x="40" y="4.680000000000001" style="font-family: 'Open Sans', verdana, arial, sans-serif; font-size: 12px; fill: rgb(68, 68, 68); fill-opacity: 1; white-space: pre;">cycle_B</text><g class="layers" style="opacity: 1;"><g class="legendfill"/><g class="legendlines"><path class="js-line" d="M5,0h30" style="fill: none; stroke: rgb(227, 119, 194); stroke-opacity: 1; stroke-width: 2px;"/></g><g class="legendsymbols"><g class="legendpoints"/></g></g><rect class="legendtoggle" x="0" y="-9.5" width="82.54679107666016" height="19" style="fill: rgb(0, 0, 0); fill-opacity: 0;"/></g><g class="traces" transform="translate(0,147.5)" style="opacity: 0.5;"><text class="legendtext" text-anchor="start" x="40" y="4.680000000000001" style="font-family: 'Open Sans', verdana, arial, sans-serif; font-size: 12px; fill: rgb(68, 68, 68); fill-opacity: 1; white-space: pre;">idt_B</text><g class="layers" style="opacity: 1;"><g class="legendfill"/><g class="legendlines"><path class="js-line" d="M5,0h30" style="fill: none; stroke: rgb(127, 127, 127); stroke-opacity: 1; stroke-width: 2px;"/></g><g class="legendsymbols"><g class="legendpoints"/></g></g><rect class="legendtoggle" x="0" y="-9.5" width="82.54679107666016" height="19" style="fill: rgb(0, 0, 0); fill-opacity: 0;"/></g></g></g><rect class="scrollbar" rx="20" ry="3" width="0" height="0" x="0" y="0" style="fill: rgb(128, 139, 164); fill-opacity: 1;"/></g><g class="g-gtitle"><text class="gtitle" x="860.5" y="30" text-anchor="middle" dy="0em" style="font-family: 'Open Sans', verdana, arial, sans-serif; font-size: 17px; fill: rgb(68, 68, 68); opacity: 1; font-weight: normal; white-space: pre;">cleanDataTrain loss over time</text></g><g class="g-xtitle"><text class="xtitle" x="825" y="688" text-anchor="middle" style="font-family: 'Open Sans', verdana, arial, sans-serif; font-size: 14px; fill: rgb(68, 68, 68); opacity: 1; font-weight: normal; white-space: pre;">epoch</text></g><g class="g-ytitle"><text class="ytitle" transform="rotate(-90,22,348)" x="22" y="348" text-anchor="middle" style="font-family: 'Open Sans', verdana, arial, sans-serif; font-size: 14px; fill: rgb(68, 68, 68); opacity: 1; font-weight: normal; white-space: pre;">loss</text></g></g></svg>