<svg class="main-svg" xmlns="http://www.w3.org/2000/svg" xmlns:xlink="http://www.w3.org/1999/xlink" width="1721" height="696" style="" viewBox="0 0 1721 696"><rect x="0" y="0" width="1721" height="696" style="fill: rgb(255, 255, 255); fill-opacity: 1;"/><defs id="defs-db3650"><g class="clips"><clipPath id="clipdb3650xyplot" class="plotclip"><rect width="1530" height="576"/></clipPath><clipPath class="axesclip" id="clipdb3650x"><rect x="60" y="0" width="1530" height="696"/></clipPath><clipPath class="axesclip" id="clipdb3650y"><rect x="0" y="60" width="1721" height="576"/></clipPath><clipPath class="axesclip" id="clipdb3650xy"><rect x="60" y="60" width="1530" height="576"/></clipPath></g><g class="gradients"/><g class="patterns"/></defs><g class="bglayer"/><g class="layer-below"><g class="imagelayer"/><g class="shapelayer"/></g><g class="cartesianlayer"><g class="subplot xy"><g class="layer-subplot"><g class="shapelayer"/><g class="imagelayer"/></g><g class="gridlayer"><g class="x"><path class="xgrid crisp" transform="translate(204.77,0)" d="M0,60v576" style="stroke: rgb(238, 238, 238); stroke-opacity: 1; stroke-width: 1px;"/><path class="xgrid crisp" transform="translate(357.83,0)" d="M0,60v576" style="stroke: rgb(238, 238, 238); stroke-opacity: 1; stroke-width: 1px;"/><path class="xgrid crisp" transform="translate(510.9,0)" d="M0,60v576" style="stroke: rgb(238, 238, 238); stroke-opacity: 1; stroke-width: 1px;"/><path class="xgrid crisp" transform="translate(663.96,0)" d="M0,60v576" style="stroke: rgb(238, 238, 238); stroke-opacity: 1; stroke-width: 1px;"/><path class="xgrid crisp" transform="translate(817.03,0)" d="M0,60v576" style="stroke: rgb(238, 238, 238); stroke-opacity: 1; stroke-width: 1px;"/><path class="xgrid crisp" transform="translate(970.09,0)" d="M0,60v576" style="stroke: rgb(238, 238, 238); stroke-opacity: 1; stroke-width: 1px;"/><path class="xgrid crisp" transform="translate(1123.15,0)" d="M0,60v576" style="stroke: rgb(238, 238, 238); stroke-opacity: 1; stroke-width: 1px;"/><path class="xgrid crisp" transform="translate(1276.22,0)" d="M0,60v576" style="stroke: rgb(238, 238, 238); stroke-opacity: 1; stroke-width: 1px;"/><path class="xgrid crisp" transform="translate(1429.28,0)" d="M0,60v576" style="stroke: rgb(238, 238, 238); stroke-opacity: 1; stroke-width: 1px;"/><path class="xgrid crisp" transform="translate(1582.35,0)" d="M0,60v576" style="stroke: rgb(238, 238, 238); stroke-opacity: 1; stroke-width: 1px;"/></g><g class="y"><path class="ygrid crisp" transform="translate(0,559.8399999999999)" d="M60,0h1530" style="stroke: rgb(238, 238, 238); stroke-opacity: 1; stroke-width: 1px;"/><path class="ygrid crisp" transform="translate(0,500.64)" d="M60,0h1530" style="stroke: rgb(238, 238, 238); stroke-opacity: 1; stroke-width: 1px;"/><path class="ygrid crisp" transform="translate(0,441.44)" d="M60,0h1530" style="stroke: rgb(238, 238, 238); stroke-opacity: 1; stroke-width: 1px;"/><path class="ygrid crisp" transform="translate(0,382.24)" d="M60,0h1530" style="stroke: rgb(238, 238, 238); stroke-opacity: 1; stroke-width: 1px;"/><path class="ygrid crisp" transform="translate(0,323.04)" d="M60,0h1530" style="stroke: rgb(238, 238, 238); stroke-opacity: 1; stroke-width: 1px;"/><path class="ygrid crisp" transform="translate(0,263.84000000000003)" d="M60,0h1530" style="stroke: rgb(238, 238, 238); stroke-opacity: 1; stroke-width: 1px;"/><path class="ygrid crisp" transform="translate(0,204.64)" d="M60,0h1530" style="stroke: rgb(238, 238, 238); stroke-opacity: 1; stroke-width: 1px;"/><path class="ygrid crisp" transform="translate(0,145.43)" d="M60,0h1530" style="stroke: rgb(238, 238, 238); stroke-opacity: 1; stroke-width: 1px;"/><path class="ygrid crisp" transform="translate(0,86.23)" d="M60,0h1530" style="stroke: rgb(238, 238, 238); stroke-opacity: 1; stroke-width: 1px;"/></g></g><g class="zerolinelayer"><path class="yzl zl crisp" transform="translate(0,619.04)" d="M60,0h1530" style="stroke: rgb(68, 68, 68); stroke-opacity: 1; stroke-width: 1px;"/></g><path class="xlines-below"/><path class="ylines-below"/><g class="overlines-below"/><g class="xaxislayer-below"/><g class="yaxislayer-below"/><g class="overaxes-below"/><g class="plot" transform="translate(60,60)" clip-path="url(#clipdb3650xyplot)"><g class="scatterlayer mlayer"><g class="trace scatter trace2cba18" style="stroke-miterlimit: 2; opacity: 1;"><g class="fills"/><g class="errorbars"/><g class="lines"><path class="js-line" d="M0,28.8L1.28,246.73L1.92,177.93L3.21,237.11L3.85,317.91L4.49,237.41L5.13,308.18L5.77,331.09L6.42,188.23L7.7,336.78L8.34,322.63L8.98,396L9.62,300.76L10.91,354.44L11.55,271.4L12.19,376.84L12.83,326.43L13.47,316.31L14.11,324.91L14.75,404.34L15.4,335.05L16.68,390.1L17.32,328.51L17.96,303.61L18.6,362.07L19.25,377.4L19.89,365.32L21.17,394.71L21.81,242.03L22.45,385.41L23.09,281.82L24.38,398.64L25.02,373.22L25.66,314.98L26.3,373.99L26.94,285.33L27.58,403.57L28.23,390.24L28.87,286.27L30.15,390.49L30.79,416.58L31.43,366.57L32.08,413.38L32.72,400.96L33.36,421.25L34,415.75L34.64,389.89L35.92,415.44L36.57,422.6L37.21,404.88L37.85,329.6L38.49,365.36L39.13,360.24L39.77,392.36L41.7,420.55L42.34,295.87L42.98,415.91L43.62,364.52L44.26,430.22L44.91,416.91L45.55,407.62L46.19,386.91L46.83,394.39L47.47,500.1L48.11,312.94L48.75,409.17L49.4,441.68L50.04,421.45L50.68,425.45L51.32,436.06L51.96,454.7L52.6,437.51L53.25,413.82L53.89,417.27L54.53,410.67L55.17,386.71L55.81,447.74L56.45,452.1L57.09,440.9L57.74,453.96L58.38,436.52L59.02,397.78L59.66,420.28L60.94,443.16L61.58,490.59L62.87,444.46L63.51,448.01L64.79,424.07L65.43,409.59L66.08,456.87L66.72,448.79L67.36,427.87L68,442.78L68.64,432.07L69.28,477.42L71.21,416.67L71.85,446.91L72.49,448.94L73.13,461.07L73.77,462.8L74.42,424.44L75.7,458.92L76.34,433.3L76.98,384.79L77.62,411.67L78.91,407.86L79.55,450.96L80.19,424.05L80.83,452.73L81.47,464.52L82.11,433.8L82.75,430.99L83.4,459.77L84.04,436.91L84.68,444.87L85.32,427.65L85.96,478.69L87.25,443.43L87.89,426.33L88.53,381.35L89.17,449.02L89.81,415.5L90.45,452.25L91.09,450.25L91.74,476.44L93.02,463.79L93.66,436.31L94.3,454.45L94.94,441.09L95.58,489.27L96.23,470.31L96.87,446.16L97.51,461.23L98.15,475.78L98.79,446.9L100.72,437.49L101.36,446.19L102.64,463.08L103.28,440.58L103.92,445.69L104.57,409.03L105.21,462.99L105.85,440.92L106.49,438.89L107.13,392.63L107.77,462.57L108.42,424.18L109.06,488.12L109.7,443.53L110.34,426.61L110.98,457.96L111.62,465.71L112.26,443.63L113.55,475.59L114.19,467.63L114.83,466.44L115.47,470L116.11,489.28L116.75,434.91L117.4,477.35L118.04,382.63L119.32,485.53L119.96,475.49L120.6,456.11L121.25,456.69L121.89,455.97L123.17,485.44L123.81,464.22L124.45,474.37L125.09,434.52L125.74,484.53L126.38,459.92L127.02,441.3L127.66,479.68L128.3,457.9L128.94,468.02L129.58,457.03L130.23,470.45L130.87,443.26L131.51,454.5L132.15,462.61L132.79,490.54L134.08,446.73L134.72,464.05L135.36,485.05L136,444.77L136.64,472.75L137.28,462.53L137.92,471.56L138.57,424.48L139.85,481.8L140.49,475.41L141.13,468.08L141.77,491.92L143.06,466.74L143.7,478.53L144.98,495.26L145.62,484.45L146.26,471.14L146.91,487.39L147.55,498.43L148.19,438.15L149.47,487.79L150.11,451.32L150.75,490.71L151.4,476.67L152.04,491.63L152.68,476.5L153.32,444.01L153.96,469.97L154.6,475.97L155.25,473.32L156.53,480.88L157.17,480.05L158.45,467.95L159.09,492.2L159.74,477.69L160.38,484.98L161.02,493.08L161.66,486.21L162.3,496.93L162.94,487.91L163.58,477.63L164.23,496.68L166.15,475.43L166.79,448.05L168.08,503.22L168.72,494.68L169.36,476.82L170,517.46L170.64,478.24L171.28,487.07L171.92,503.64L172.57,461.78L173.21,460.94L173.85,467.24L174.49,486.33L175.13,451.86L175.77,491.87L176.42,484.3L177.06,495.08L177.7,480.21L178.34,483.22L178.98,481.38L179.62,455.17L180.26,475L180.91,479.02L181.55,468.5L182.19,481.61L182.83,454.41L183.47,497.06L184.11,480.33L184.75,470.87L185.4,491.91L186.04,484.05L186.68,465.95L187.32,485.63L187.96,479.4L188.6,485.48L189.25,474.24L189.89,504.03L190.53,494.54L191.17,502.57L191.81,499.33L193.09,472.82L193.74,484.95L194.38,476.2L195.02,485.77L195.66,476.14L196.3,486.93L196.94,469.88L197.58,502.92L200.15,464.2L200.79,486.89L201.43,483.27L202.08,497.15L202.72,489.83L203.36,504.95L204,506.13L204.64,466.15L205.28,495.62L205.92,493.61L206.57,481.76L207.21,441.52L207.85,498.8L208.49,474.43L209.13,483.72L209.77,501.34L210.42,501.04L211.06,488.45L211.7,507.08L212.34,492.36L213.62,490.87L214.26,501.42L214.91,450.99L215.55,458.48L216.19,493.36L217.47,476.61L218.11,468.54L218.75,511.45L219.4,439.17L220.68,489.3L221.32,483.47L221.96,505.28L222.6,472.07L223.25,492.47L223.89,488.95L225.17,482.54L225.81,460.93L226.45,509.43L227.09,480.95L228.38,496.01L229.02,471.07L229.66,487.63L230.3,479.7L230.94,506.63L231.58,501.7L232.23,508.89L232.87,461.06L234.15,422.17L234.79,474.62L235.43,499.74L236.08,493.97L236.72,466.51L237.36,505.81L238,506.31L238.64,503.1L239.28,486.96L239.92,497.39L240.57,457.19L241.21,469.29L242.49,494.27L243.13,444.28L244.42,496.43L245.06,498.82L245.7,472.1L246.34,500.09L246.98,493.32L247.62,498.62L248.26,493.13L248.91,494.21L250.19,498.27L250.83,512.56L251.47,510.49L252.11,495.26L252.75,500.94L253.4,517.42L254.68,480.47L255.32,493.57L255.96,494.42L256.6,487.09L257.25,490.01L257.89,498.35L258.53,489.24L259.17,463.2L260.45,502.6L261.09,497.42L261.74,504.71L262.38,440.62L263.02,485.23L263.66,472.78L264.3,506.24L264.94,487.5L265.58,477.43L266.23,480L266.87,468.09L267.51,494.1L268.15,502.56L268.79,479.97L270.08,510.31L270.72,497.57L272,515.9L272.64,510.84L275.21,470.17L275.85,513.89L276.49,494.12L277.13,506.19L277.77,505.54L278.42,507.08L279.06,512.04L279.7,497.85L280.34,498.56L280.98,496.14L281.62,486.15L282.26,489.74L283.55,512.63L284.19,503.98L284.83,498.8L285.47,478.05L286.75,516.87L287.4,494.6L288.68,519.88L289.32,501.8L290.6,488.62L291.25,508.61L291.89,506.1L292.53,498.94L293.17,510.56L293.81,479.67L296.38,511.33L297.02,508.34L297.66,501.47L298.3,476.56L299.58,508.8L300.23,489.89L300.87,503.49L301.51,485.75L302.15,501.83L302.79,441.22L303.43,440.55L304.08,492.49L305.36,503.9L306,479.06L306.64,486.69L307.28,506.67L307.92,520.08L308.57,500.7L309.21,513.1L309.85,496.16L310.49,492.21L311.13,506.63L311.77,504.77L312.42,499.93L313.06,437.67L313.7,494.85L314.34,472.14L314.98,508.3L315.62,507.74L316.26,484.83L317.55,506.64L318.19,503.72L319.47,476.57L320.11,507.4L320.75,499.86L321.4,508.65L322.68,520L323.32,458.91L324.6,498.77L325.25,505.8L325.89,480.93L326.53,511.42L327.17,512.19L327.81,496.37L328.45,497.33L329.09,494.3L329.74,510.61L330.38,502.81L331.02,510.63L331.66,505.87L332.94,481.76L333.58,493.27L334.87,504.98L335.51,497.78L336.15,511.92L336.79,481.18L337.43,505.46L338.08,493.01L338.72,523.66L339.36,499.58L340,514.48L340.64,513.42L341.28,494.61L341.92,514.88L342.57,504.18L343.21,519.38L343.85,519.1L344.49,503.65L345.13,514L345.77,508.84L347.06,457.12L347.7,511.69L348.34,511.61L348.98,506.29L349.62,458.23L350.26,505.84L351.55,520.48L352.19,518.65L352.83,479.64L353.47,498.63L354.11,493.44L354.75,515.26L357.32,497.59L357.96,506.38L358.6,507.33L359.25,499.43L359.89,495.24L360.53,482.65L361.81,516.82L362.45,484.68L363.09,506.21L363.74,497.89L364.38,485.45L365.02,504.45L365.66,516.7L366.3,492.58L366.94,506.6L367.58,497.26L368.87,507L369.51,494.08L370.15,477.22L370.79,497.46L372.08,506.06L372.72,471.57L373.36,477.3L374,510.97L374.64,494.68L375.28,512.1L375.92,506.59L376.57,512.47L377.21,517.61L377.85,506.41L378.49,497.12L379.13,504.64L380.42,511.58L381.06,464.73L381.7,382.41L382.34,504.57L382.98,515.29L383.62,507.82L384.26,473.23L384.91,506.02L385.55,500.66L386.19,515.02L386.83,497.05L387.47,502.89L388.11,503.15L388.75,498.52L389.4,511.02L390.04,508.03L391.32,511.83L391.96,517.82L392.6,472.64L393.25,506.39L394.53,516.09L395.17,463.7L396.45,510.04L397.09,501.61L397.74,512.24L398.38,510.86L399.02,489.31L400.94,524.37L401.58,493.43L402.87,519.26L403.51,501.07L404.15,510.95L404.79,474.65L405.43,511.79L406.08,506.98L406.72,515.38L407.36,487.67L408,523.1L408.64,493.61L409.28,498.05L409.92,474.12L411.21,522.22L411.85,506.66L413.13,521.74L413.77,517.84L415.06,496.42L415.7,516.47L416.34,507.01L416.98,510.19L417.62,494.07L418.26,506.68L418.91,512.17L419.55,498.2L420.19,509.56L420.83,490.51L421.47,489.94L422.11,458.29L423.4,518.37L424.04,487.52L424.68,515.69L425.32,432.79L425.96,527.57L426.6,514.72L427.25,497.17L427.89,500.25L428.53,510.2L429.17,491L429.81,515.26L430.45,515.42L431.09,506.68L431.74,490.28L432.38,511.39L433.02,517.47L433.66,507.94L434.3,511.65L434.94,525.42L435.58,514.82L436.23,475.45L436.87,517.71L437.51,515.35L438.15,514.2L438.79,511.77L439.43,515.46L440.08,525.97L440.72,503.47L441.36,520.69L442,486.18L443.28,515.57L443.92,501.91L444.57,484.5L445.21,502.09L445.85,507.95L446.49,521.11L447.13,500.03L447.77,504.31L448.42,492.97L449.06,505.94L449.7,504.58L450.34,499.32L450.98,498.47L451.62,514.82L452.26,521.49L452.91,507.48L453.55,520.1L454.19,492.95L455.47,519.15L456.11,516.53L456.75,522.38L457.4,509.84L458.04,522.82L458.68,519.4L459.32,525.59L459.96,506.77L460.6,505.83L461.25,519.5L461.89,503.16L462.53,505.4L463.17,530.68L464.45,504.23L465.09,516.91L465.74,524.47L466.38,516.11L467.02,456.3L467.66,485.16L468.94,510.37L469.58,511.27L470.23,491.61L470.87,510.31L471.51,518.57L472.15,516.64L472.79,524.63L473.43,516.8L474.08,520.33L474.72,509.07L475.36,517.39L476,509.67L477.28,512.56L477.92,506.77L478.57,479.19L479.21,507.23L479.85,515.57L480.49,464.01L481.13,522.47L481.77,507.14L482.42,508.76L483.06,515.16L483.7,511.27L484.34,525.95L484.98,484.43L485.62,520.08L486.26,516.86L486.91,503.78L488.19,489.85L488.83,488.41L489.47,515.72L490.11,503.42L490.75,513.62L491.4,505.25L492.04,515.75L492.68,510.25L493.96,523.31L494.6,515.56L495.25,486.55L495.89,502.01L496.53,508.07L497.17,483.96L499.09,532.49L499.74,525.89L500.38,511.22L501.02,517.04L501.66,512.59L502.3,522.47L502.94,521.92L503.58,463.02L504.23,511.79L504.87,503.79L505.51,524.94L506.79,511.24L507.43,477.34L508.08,471.1L508.72,480.45L509.36,509.01L510,482.28L510.64,518.7L511.28,515.61L511.92,498.68L513.85,522.02L514.49,501.21L515.13,514.5L515.77,506.48L516.42,524.78L517.06,512.39L517.7,519.34L518.34,513.63L518.98,492.67L519.62,517.72L520.26,521.99L520.91,497.34L521.55,476.12L522.19,511.72L522.83,526.62L523.47,498.43L524.75,516.76L525.4,509.56L527.32,526.17L527.96,512.66L528.6,515.31L529.25,513.52L529.89,517.04L530.53,510.01L531.17,517.23L531.81,478.19L533.09,516.62L533.74,499.53L534.38,504.25L535.02,523.45L536.3,497.97L536.94,503.2L537.58,512.29L538.23,493.24L538.87,497.21L539.51,522.99L540.15,523.62L540.79,433.82L542.08,512.29L542.72,506.69L543.36,521.42L544,514.05L544.64,512.58L545.28,501.98L545.92,510.84L546.57,479.21L547.21,520.98L547.85,518.14L548.49,525.67L549.13,502.17L549.77,511.35L550.42,511.67L551.06,517.3L551.7,521.19L552.34,513.72L552.98,525.4L553.62,514.48L554.91,498.8L555.55,522.34L556.19,512.83L556.83,513.84L557.47,512.88L558.11,514.23L558.75,524.91L559.4,531.64L560.04,497.55L560.68,463.42L561.32,503.99L562.6,514.53L563.25,515.28L563.89,527.08L564.53,511.85L565.17,516.94L565.81,508.55L566.45,520.27L567.09,511.07L567.74,495.64L568.38,497.26L569.02,530.34L569.66,489.9L570.3,519.48L570.94,504.08L571.58,520.24L572.23,524.48L572.87,519.78L574.15,505.91L574.79,520.79L575.43,524.52L576.08,514.57L578,528.28L578.64,496.34L579.92,517.52L580.57,506.32L581.21,528.77L581.85,517.33L582.49,523.89L583.13,506.82L583.77,517.16L584.42,498.15L585.7,521.56L586.34,517.5L586.98,471.58L587.62,512.96L588.26,522.08L588.91,462.5L590.19,519.29L590.83,525.77L592.11,516.53L592.75,494.22L593.4,522.33L594.04,513.72L594.68,525.81L595.32,423.33L595.96,528.92L596.6,523.92L597.25,517.01L597.89,522.69L598.53,506.76L599.17,492.6L599.81,529.63L600.45,518.34L601.09,525.18L601.74,526.04L602.38,475.97L603.02,520.87L603.66,517.3L604.3,520.73L604.94,516.04L605.58,519.58L606.23,524.88L606.87,513.36L608.15,518.29L608.79,509.4L609.43,499.75L610.08,517.81L611.36,527.81L612,507.62L612.64,530.96L613.28,521.46L613.92,511.89L614.57,529.56L615.85,516.03L616.49,526.47L617.13,510.59L617.77,516.19L618.42,528.23L619.06,519.13L619.7,517.56L620.34,520.59L620.98,514.35L621.62,518.59L622.26,516.58L622.91,525.72L624.19,518.16L624.83,517.93L625.47,511.66L626.11,489.64L626.75,522.41L627.4,517.39L628.04,515.9L628.68,520.78L629.32,498.65L629.96,504.07L630.6,473.88L631.25,526.79L631.89,516.03L632.53,526.98L633.17,521.58L633.81,535.21L634.45,511.52L635.09,524.6L635.74,504.35L637.02,518.05L637.66,523.83L638.3,522.31L638.94,517.96L639.58,517.23L640.23,519.31L640.87,508.6L641.51,521.4L642.15,507.59L642.79,520.57L643.43,497.8L644.08,519.22L644.72,515.61L645.36,524.5L646,517.32L646.64,518.27L647.28,514.73L647.92,493.4L648.57,527.06L649.21,491.98L649.85,502.15L651.13,519.93L651.77,517.24L652.42,518.76L653.06,505.22L654.34,525.32L654.98,517.01L656.26,524.6L656.91,512.94L657.55,504.48L658.19,510.85L659.47,530.16L660.11,518.09L660.75,533.7L661.4,526.12L662.04,525.2L662.68,521.02L663.32,504.39L663.96,521.1L665.25,509.39L665.89,510.51L666.53,518.71L667.17,485.48L667.81,514.31L668.45,490.6L669.74,518.15L670.38,520.33L671.02,504.78L671.66,515.58L672.3,529.16L672.94,501.1L673.58,516.81L674.23,503.62L675.51,520.81L676.15,518.04L676.79,525.45L677.43,516.18L678.08,516.12L678.72,505.98L680,524.65L680.64,512.09L681.92,522.33L682.57,510.82L683.21,507.09L683.85,526.55L684.49,516.44L685.13,519.46L685.77,520.99L686.42,525.22L687.7,500.27L688.34,502.18L688.98,516.25L689.62,519.75L690.26,499L692.19,529.66L692.83,525.83L693.47,515.18L694.11,530.27L694.75,521.69L695.4,532.13L696.04,512.72L696.68,522.65L697.32,528.95L697.96,518.81L698.6,526.06L699.25,523.57L699.89,524.1L700.53,519.43L701.81,522.78L702.45,522.02L703.09,524.86L703.74,508.22L705.02,533.72L705.66,518.98L706.94,529.64L707.58,515.23L708.23,513.56L708.87,516.8L710.15,524.89L710.79,503.24L712.08,523.63L712.72,516.14L713.36,523.32L714,501.07L715.28,534.84L715.92,490.88L716.57,528.34L717.21,525.76L717.85,525.97L718.49,515.23L719.13,527L720.42,510.77L721.06,530.33L721.7,511.38L722.34,513.85L722.98,514.5L723.62,528.33L724.26,520.01L724.91,496.61L725.55,520.33L726.19,525.23L726.83,504.11L727.47,529.01L728.11,513.65L728.75,494.96L729.4,521.21L730.04,528.29L730.68,503.64L731.32,528.73L731.96,482.33L732.6,520.71L733.25,514.3L733.89,514.12L734.53,510.39L735.17,534.14L735.81,521.36L736.45,522.85L737.09,515.39L737.74,527.62L738.38,505.42L739.66,524.76L740.3,519.49L740.94,504.28L741.58,505.6L742.23,509.55L743.51,518.9L744.15,487.41L744.79,525.92L745.43,496.73L746.08,511.73L746.72,508.15L748,522.44L748.64,505.76L749.28,499.83L749.92,522.84L750.57,523.63L751.21,504.81L751.85,522.95L752.49,507.02L753.77,531.52L754.42,521.01L755.06,505.13L755.7,506.98L756.34,512.76L756.98,517.15L757.62,531.18L758.26,453.12L758.91,526.17L759.55,479.97L760.19,506.07L761.47,517.92L762.11,511.51L762.75,525.73L763.4,516.16L764.04,502.6L764.68,521.21L765.32,524.6L765.96,522.74L766.6,499.79L767.25,516.74L767.89,534.8L768.53,516.64L769.17,518.26L769.81,528.49L770.45,520.18L771.09,523.72L771.74,502.95L772.38,518.95L773.66,527.89L774.3,486.7L774.94,526.87L775.58,515.12L776.87,528.78L777.51,526.49L778.15,531.81L778.79,525.83L779.43,526.37L780.08,528.78L780.72,518.15L781.36,525.4L782,525.23L782.64,523.46L783.28,498.28L783.92,524.92L784.57,530.5L785.21,525.49L785.85,518.46L786.49,497.73L787.13,521.96L787.77,513.15L788.42,499L789.06,522.53L789.7,521.62L790.34,526.72L791.62,507.18L792.26,504.23L793.55,527.87L794.19,500.89L794.83,523.53L795.47,522.72L796.11,515.08L797.4,525.27L798.04,524.28L798.68,528.65L799.32,513.07L799.96,509.54L800.6,516.25L801.25,528.96L801.89,525.28L802.53,529.84L803.17,517.08L804.45,523.82L805.09,522.83L805.74,501.07L806.38,518.4L807.02,527.72L807.66,520.45L808.3,522.44L808.94,531.82L809.58,530.02L810.23,520.61L810.87,529.31L811.51,520.72L812.15,517.46L812.79,527.29L813.43,511.31L814.08,516.85L814.72,521.42L815.36,515.35L816,512.3L816.64,530.72L817.28,527.18L817.92,518.44L818.57,515.61L819.21,517.19L819.85,514.18L820.49,521.45L821.13,527.87L821.77,523.22L822.42,526.56L823.06,520.89L823.7,529.73L824.34,522.29L825.62,532.59L826.26,529.55L827.55,521.78L828.19,533.08L828.83,501.68L829.47,520.48L830.11,518.69L830.75,513.74L832.04,521.13L832.68,515.65L833.96,531.55L834.6,516.15L835.89,531.95L836.53,526.68L837.81,519.64L838.45,528.54L839.09,528.61L839.74,525.8L840.38,526.4L841.02,521.13L842.3,526.34L842.94,527.64L843.58,407.11L844.23,507.69L844.87,529.43L845.51,524.08L846.79,507.01L847.43,528.49L848.08,529.26L848.72,533.27L850,524.83L850.64,531.24L851.28,532.85L851.92,512.83L852.57,522.69L853.21,518.87L854.49,525.21L855.13,520.16L855.77,527.34L856.42,525.35L857.06,530.13L857.7,523.12L858.98,525.67L859.62,520.51L860.26,469.53L860.91,518.25L861.55,520.95L862.19,529.76L862.83,529.48L863.47,530.3L864.75,524.68L865.4,530.94L866.04,525.48L866.68,532.2L867.96,528.13L868.6,530.58L869.25,520.06L869.89,528.65L870.53,526.68L871.17,529.53L871.81,517.25L872.45,520.06L874.38,532.44L875.02,529.14L875.66,527.32L876.3,537.56L876.94,523.53L877.58,525.5L878.23,535.64L878.87,504.29L879.51,524.56L880.15,524.34L880.79,521.88L881.43,515.32L882.08,524.69L882.72,530.63L883.36,515.82L884,527.18L884.64,519.81L885.28,527.72L885.92,515.62L886.57,530.83L887.21,488.52L887.85,535.95L888.49,527.05L889.13,512.02L889.77,526.14L890.42,502.86L891.06,532.43L891.7,528.94L892.34,514.85L892.98,497.07L893.62,502.74L894.26,464.25L894.91,522.07L895.55,528.81L896.19,528.03L896.83,528.06L897.47,525.52L898.11,516.07L898.75,528.27L899.4,521.84L900.04,533.67L900.68,526.3L901.32,524.39L901.96,503.26L903.89,527.42L904.53,523.42L905.81,534.24L906.45,506.97L907.09,479.98L907.74,522.7L908.38,530.54L909.02,524.45L909.66,520.74L910.3,526.55L910.94,522.25L911.58,494.2L912.87,533.26L913.51,533.23L914.15,530.23L914.79,522.05L915.43,526.35L916.08,518.91L916.72,522.56L917.36,517.21L918.64,529.06L919.28,528.43L919.92,508.79L920.57,511.77L921.21,515.3L922.49,533.89L923.13,514.77L923.77,517.06L924.42,527.99L925.06,520.47L925.7,522.42L926.34,537.73L926.98,530.88L928.26,535.11L928.91,525.55L929.55,522.06L930.19,511.99L930.83,531.49L931.47,511.14L932.75,530.03L933.4,527.98L934.04,503.67L934.68,531.97L935.32,526.2L935.96,528.39L936.6,529.01L937.25,526.61L937.89,528.26L938.53,535.49L939.17,521.64L939.81,526.14L940.45,525.99L941.09,522.38L941.74,527.06L942.38,516.87L943.02,500L943.66,513.76L944.3,528.63L944.94,524.08L945.58,529L946.23,524.14L946.87,534.67L947.51,525.51L948.79,518.99L949.43,519.18L950.08,530.51L950.72,516.8L951.36,528.58L952,521.5L952.64,521.45L953.28,526L953.92,531.19L954.57,526.58L955.21,534.55L955.85,529.32L957.13,517.87L957.77,528.18L958.42,495.44L959.06,534.88L960.34,534.81L960.98,530.43L961.62,523.45L962.26,533.15L964.19,528.94L964.83,531.77L965.47,521.62L966.11,535.05L966.75,538.2L967.4,531.08L968.04,530.02L968.68,533.38L969.32,521.35L969.96,531L970.6,519.31L971.25,523.57L971.89,529.45L972.53,518.3L973.17,529.6L973.81,524.83L974.45,514.63L975.09,517.08L977.66,533.5L978.3,524.04L979.58,534.56L980.23,520.18L980.87,533.2L981.51,531.24L982.15,533.8L982.79,528.85L983.43,534.02L984.72,529.74L985.36,532.31L986,515.74L986.64,532.21L987.92,525.24L988.57,529.02L989.21,538.07L989.85,534.1L990.49,529.89L991.13,507.95L991.77,528.84L992.42,525.88L993.06,519.8L993.7,520.16L994.34,524.16L994.98,519.97L995.62,526.13L996.26,534.89L996.91,519.17L997.55,517.23L998.19,531.69L998.83,524.8L999.47,530.22L1000.11,534.17L1000.75,530.2L1001.4,524.13L1002.04,530.87L1002.68,529.91L1003.32,535.4L1003.96,526.45L1004.6,527.85L1005.25,528.9L1005.89,532.4L1006.53,470.61L1007.81,527.53L1008.45,504.97L1009.74,529.16L1010.38,524.63L1011.02,524.35L1011.66,528.13L1012.3,529.16L1012.94,531.73L1013.58,522.08L1014.23,531.17L1014.87,530.41L1015.51,522.68L1016.15,537.52L1016.79,516.37L1017.43,534.71L1018.08,521.09L1018.72,539.22L1019.36,529.69L1020.64,530.61L1021.28,526.67L1021.92,528.9L1022.57,536.61L1023.21,527.55L1023.85,531.87L1024.49,531.17L1025.13,520.32L1025.77,533.57L1026.42,530.2L1027.06,527.88L1027.7,521.43L1028.34,519.12L1028.98,525.42L1029.62,523.94L1030.26,529.66L1030.91,529.89L1031.55,521.72L1032.83,534.19L1033.47,525.21L1034.11,529.51L1034.75,525.15L1036.68,531.63L1037.32,531.46L1038.6,534.9L1039.25,523.2L1039.89,522.81L1040.53,533.16L1041.17,534.18L1041.81,527.51L1043.74,537.59L1044.38,516.81L1045.02,535.99L1045.66,529L1046.3,529.31L1046.94,526.99L1048.23,529.71L1048.87,519.92L1050.15,533.38L1050.79,511.59L1051.43,524.45L1052.08,512.4L1052.72,533.28L1053.36,520.78L1054.64,528.6L1055.28,531.81L1056.57,525.02L1057.21,535.45L1059.13,525.85L1059.77,528.97L1060.42,536.22L1061.06,521.2L1061.7,536.71L1062.34,536.49L1062.98,533.28L1063.62,535.05L1064.26,532.12L1064.91,519.5L1065.55,530.47L1066.19,505.64L1066.83,529.45L1067.47,532.75L1068.11,514.63L1068.75,529.11L1069.4,497.56L1070.68,533.17L1071.32,532.17L1071.96,523.8L1072.6,536.42L1073.25,521.29L1073.89,526.32L1074.53,528.82L1075.17,540.77L1076.45,522.65L1077.09,528.38L1077.74,531.11L1078.38,529.61L1079.02,526.03L1079.66,533.41L1080.3,534.04L1080.94,525.67L1081.58,541.78L1082.23,529.82L1083.51,525.02L1084.15,530.73L1084.79,517.67L1085.43,534.49L1086.08,533.89L1086.72,529.9L1087.36,532.01L1088,529.52L1088.64,529.28L1089.28,532.22L1089.92,528.9L1090.57,534.12L1091.21,533.93L1091.85,534.9L1093.13,517.57L1093.77,513.48L1095.06,536.2L1095.7,524.8L1098.26,537.28L1098.91,531.76L1099.55,542.47L1100.19,532.86L1100.83,522.16L1101.47,534.57L1102.11,537.08L1102.75,533.15L1103.4,525.7L1104.04,536.48L1105.32,526.18L1105.96,531.58L1106.6,532.86L1107.25,531.37L1107.89,527.19L1108.53,531.65L1109.17,528.06L1109.81,529.83L1111.09,528.08L1111.74,533.33L1113.02,535.55L1113.66,530.47L1114.3,528.22L1114.94,534.37L1115.58,519.72L1116.23,527.49L1116.87,488.46L1117.51,532.71L1118.15,529.1L1118.79,530.41L1119.43,534.41L1120.08,524.48L1122,534.75L1122.64,531.47L1123.28,528.5L1123.92,530.31L1124.57,530.79L1125.21,528.29L1125.85,530.19L1126.49,535.36L1127.13,536.16L1127.77,528.85L1128.42,526.81L1129.06,522.3L1129.7,534.94L1130.34,534.71L1130.98,528.73L1131.62,531.74L1132.26,527.59L1132.91,536.63L1133.55,527.88L1134.83,535.77L1135.47,518.04L1136.11,530.03L1136.75,524.89L1137.4,535.99L1138.04,523.6L1138.68,519.85L1139.32,537.45L1139.96,532.28L1140.6,533.18L1141.25,535.46L1141.89,530.19L1142.53,531.62L1143.17,536.29L1143.81,521.84L1144.45,534.7L1145.09,506.68L1146.38,539.07L1147.02,542.24L1147.66,534.26L1148.3,511.56L1149.58,536.14L1150.23,532.42L1150.87,538.64L1151.51,531.33L1152.15,532.25L1152.79,515.58L1153.43,523.37L1154.08,516.04L1155.36,539.97L1156,529.2L1156.64,530.98L1157.28,528.48L1157.92,537.73L1158.57,529.77L1159.21,539L1159.85,523.73L1161.13,537.68L1161.77,517.89L1163.06,538.31L1163.7,524.88L1164.98,532.23L1165.62,530.26L1166.26,534.58L1166.91,499.43L1167.55,534.28L1168.19,532.61L1168.83,529.07L1169.47,530.09L1170.11,536.32L1170.75,535.46L1171.4,527.51L1172.04,534.76L1172.68,528.34L1173.32,535.13L1173.96,531.99L1174.6,534.98L1175.25,530.81L1175.89,535L1176.53,506.9L1177.81,540.19L1178.45,535.2L1179.09,524.98L1179.74,532.4L1180.38,535.21L1181.02,533.64L1182.3,528.67L1182.94,535.2L1184.23,539.05L1184.87,530.97L1185.51,528.07L1186.15,529.89L1187.43,538.63L1188.08,531.61L1188.72,537.56L1189.36,536.45L1190,533.14L1190.64,540.08L1191.92,523.65L1192.57,535.55L1193.85,538.3L1194.49,531.59L1195.13,538.55L1195.77,534.03L1196.42,536.23L1197.06,515.53L1197.7,529.33L1198.34,516.72L1199.62,531.86L1200.26,537.02L1200.91,538.4L1201.55,535.54L1202.19,535.5L1202.83,536.94L1203.47,537.75L1204.11,533.88L1204.75,533.09L1205.4,533.65L1206.04,538.79L1206.68,535.03L1207.96,525.39L1208.6,527.22L1209.89,532.86L1210.53,525.7L1211.17,525.95L1211.81,537.71L1213.09,519.62L1213.74,530.54L1214.38,522.83L1215.02,523.92L1215.66,540.33L1216.3,526.88L1216.94,527.67L1217.58,535.19L1218.23,540.23L1218.87,531.65L1219.51,534.8L1220.15,530.85L1220.79,533.63L1221.43,524.5L1223.36,536.54L1224,533.21L1225.28,513.71L1225.92,536.17L1226.57,526.27L1227.21,535.34L1229.13,539.27L1229.77,529.77L1230.42,539.58L1231.06,538.3L1231.7,533.76L1232.34,529.86L1232.98,533.34L1233.62,539.12L1234.26,528.33L1234.91,528.92L1235.55,531.89L1236.83,540.88L1237.47,539.19L1238.11,540.06L1238.75,536.49L1239.4,529.18L1240.04,538.91L1240.68,532.9L1241.32,537.64L1241.96,538.52L1242.6,536.94L1243.25,485.74L1243.89,539.84L1245.17,530.86L1245.81,531.74L1246.45,533.77L1247.09,522.26L1248.38,539.13L1249.02,537.85L1250.3,529.33L1250.94,526.69L1252.23,535.91L1252.87,520.39L1254.15,535.34L1254.79,530.04L1255.43,536.7L1256.08,529.72L1256.72,533.38L1257.36,521.52L1258.64,539.4L1259.28,540.38L1259.92,534.9L1260.57,537.04L1261.21,539.65L1261.85,538.88L1262.49,529.01L1263.13,535.73L1263.77,501.65L1264.42,531.4L1265.06,534.33L1265.7,543.66L1266.34,535.5L1266.98,515.96L1267.62,536.93L1268.26,534.49L1268.91,535.7L1269.55,537.28L1270.19,534.78L1270.83,538.61L1271.47,536.48L1272.11,540.54L1272.75,537.02L1273.4,528.06L1274.04,538.81L1274.68,526.3L1275.32,529.67L1275.96,535.55L1276.6,534.65L1277.25,534.01L1278.53,535.82L1279.17,542.88L1279.81,537.4L1280.45,538.2L1281.09,524.49L1282.38,533.74L1283.02,530.64L1283.66,533.79L1284.3,532.43L1284.94,530.59L1285.58,539.47L1286.87,539.14L1287.51,536.29L1288.79,537.62L1289.43,535.15L1290.72,539.91L1291.36,527.73L1293.28,537.57L1293.92,527.1L1294.57,535.85L1295.21,533.19L1295.85,534.79L1296.49,524.09L1297.13,541.19L1297.77,536.38L1299.06,534.89L1299.7,535.91L1300.34,533.03L1300.98,536.75L1301.62,529.53L1302.26,534.13L1302.91,536.32L1303.55,535.85L1304.19,529.49L1304.83,537.96L1305.47,530.37L1306.75,535.78L1307.4,531.75L1308.68,537.89L1309.32,534.66L1309.96,537.37L1310.6,532.88L1312.53,543.13L1313.17,522.79L1314.45,537.63L1315.09,515.3L1315.74,517.19L1316.38,539.56L1317.02,540.79L1317.66,534.5L1318.3,541.47L1318.94,535.13L1319.58,539.01L1320.23,533.28L1320.87,536.95L1321.51,536.37L1322.15,537.8L1322.79,536.92L1323.43,542.37L1324.08,532.62L1324.72,539.43L1325.36,534.53L1326,536.22L1326.64,537.7L1327.28,532.2L1328.57,539.2L1329.21,540.32L1329.85,533.06L1330.49,538.24L1331.13,540.2L1331.77,536.1L1332.42,537.11L1333.06,532.67L1333.7,536.64L1334.34,528.08L1336.26,537.34L1336.91,537.76L1337.55,538.89L1338.19,532.54L1338.83,543.23L1339.47,532.12L1340.11,529.36L1340.75,536.8L1342.04,533.53L1342.68,524.29L1343.32,535.09L1343.96,532.77L1344.6,535.57L1345.25,532.86L1345.89,533.03L1346.53,536.05L1347.17,526.99L1347.81,541.68L1348.45,533.6L1349.09,545.98L1349.74,526.73L1350.38,538.79L1351.02,537.33L1351.66,530.46L1352.94,540.39L1353.58,536.24L1354.87,540.73L1355.51,531.1L1356.79,540L1357.43,541.33L1358.08,534.69L1358.72,538.98L1360,542.7L1360.64,540.49L1361.92,534.33L1362.57,535.8L1363.21,535.6L1363.85,533.06L1364.49,542.03L1365.13,534.03L1366.42,539.86L1367.06,535.46L1367.7,514.66L1368.34,533.6L1368.98,536.06L1369.62,528.98L1370.91,536.65L1371.55,539.41L1373.47,530.97L1374.11,543.58L1374.75,533.36L1375.4,540.3L1376.68,530.4L1377.32,532.21L1378.6,537.08L1379.25,538.39L1379.89,542.44L1380.53,538.27L1381.17,542.06L1381.81,540.05L1382.45,534.16L1383.09,542.13L1384.38,535.51L1385.02,537.44L1385.66,534.49L1386.3,543.1L1386.94,524.33L1387.58,538.33L1388.23,541.13L1388.87,535.92L1389.51,542.05L1390.15,537.32L1390.79,539.27L1391.43,534.88L1394,539.92L1394.64,539.17L1395.92,533.9L1396.57,536.42L1397.21,534.99L1397.85,539.17L1398.49,532.37L1399.13,536.9L1399.77,534.43L1400.42,542.86L1401.06,539.18L1401.7,530.8L1402.34,541.95L1402.98,535.72L1403.62,536.28L1404.26,538.16L1404.91,539.83L1405.55,539.58L1406.19,536.6L1406.83,537.96L1407.47,534.46L1408.11,516.57L1408.75,535.77L1409.4,540.91L1410.04,537.9L1411.32,538.95L1411.96,534.14L1412.6,542.62L1413.25,538.04L1413.89,530.29L1414.53,533.58L1415.17,540.32L1415.81,538.63L1417.09,533.65L1417.74,538.13L1418.38,535.87L1419.02,542.86L1419.66,530.79L1420.3,538.01L1422.23,536.5L1422.87,539.53L1423.51,538.79L1424.15,536.36L1425.43,539.17L1426.08,537.2L1426.72,540.81L1427.36,536.17L1428,530.91L1428.64,539.83L1429.28,530.72L1429.92,538.33L1431.21,541.91L1431.85,540.08L1432.49,533.7L1433.13,534.2L1433.77,538.28L1434.42,539.69L1435.06,539.15L1436.34,538.94L1436.98,540.25L1437.62,534.41L1438.26,536.37L1438.91,527.06L1439.55,541.65L1440.19,540.05L1440.83,542.11L1441.47,536.41L1442.11,541.03L1442.75,530.87L1443.4,537.78L1444.04,532.01L1444.68,536L1445.32,537.37L1445.96,504.56L1447.89,544.08L1448.53,537.58L1449.17,535.97L1449.81,541.16L1450.45,529.69L1451.09,542.02L1451.74,541.67L1452.38,536.79L1453.02,536.78L1453.66,534.99L1454.3,537.14L1454.94,535.36L1455.58,541.13L1456.23,537.2L1456.87,537.63L1457.51,531.51L1458.15,541.68L1458.79,526.62L1459.43,540.49L1460.08,528.52L1460.72,547.2L1461.36,540.6L1462.64,532.15L1463.28,535.78L1463.92,539.3L1464.57,536.63L1465.21,535.44L1465.85,507.01L1467.13,539.03L1467.77,539.08L1468.42,535.94L1469.06,540.03L1469.7,532.53L1470.34,540.39L1470.98,541L1471.62,543.6L1472.26,527.78L1472.91,533.76L1473.55,534.25L1474.19,538.11L1474.83,536.24L1475.47,541.37L1476.11,542.02L1476.75,534.79L1477.4,539.83L1478.04,533.4L1478.68,538.53L1479.32,494.89L1479.96,536.57L1480.6,536.23L1481.25,538.73L1482.53,530.09L1483.17,535.76L1484.45,538.26L1485.09,536.39L1485.74,545.05L1486.38,541.39L1487.02,535.2L1487.66,540.64L1488.3,540.7L1488.94,535.66L1489.58,539.8L1490.23,535.67L1490.87,541.18L1491.51,537.37L1492.15,540.49L1492.79,540.35L1493.43,541.9L1494.08,529.29L1494.72,544.28L1495.36,535.2L1496,535.76L1496.64,537.56L1497.28,537.99L1497.92,535.54L1499.21,539.72L1499.85,538.59L1500.49,514.11L1501.13,536.19L1502.42,532.95L1503.06,541.81L1504.34,536.16L1504.98,539.13L1505.62,544.98L1506.26,531.51L1506.91,539.99L1507.55,530.97L1508.83,537.83L1509.47,538.18L1510.11,538.49L1510.75,542.39L1511.4,541.1L1512.04,537.48L1512.68,542.16L1513.32,537.94L1513.96,530.74L1514.6,537.08L1515.25,536.75L1515.89,542.87L1516.53,531.49L1517.17,535.16L1517.81,528.7L1518.45,540.56L1519.09,538.74L1519.74,541.43L1520.38,540.62L1521.02,536.79L1521.66,540.77L1522.3,525.54L1523.58,544.74L1524.23,535.56L1525.51,540.78L1526.15,538.18L1526.79,529.86L1527.43,539.13L1528.72,542.8L1529.36,542.43L1530,540.31" style="vector-effect: non-scaling-stroke; fill: none; stroke: rgb(127, 127, 127); stroke-opacity: 1; stroke-width: 2px; opacity: 1;"/></g><g class="points"/><g class="text"/></g></g></g><g class="overplot"/><path class="xlines-above crisp" d="M0,0" style="fill: none;"/><path class="ylines-above crisp" d="M0,0" style="fill: none;"/><g class="overlines-above"/><g class="xaxislayer-above"><g class="xtick"><text text-anchor="middle" x="0" y="649" transform="translate(204.77,0)" style="font-family: 'Open Sans', verdana, arial, sans-serif; font-size: 12px; fill: rgb(68, 68, 68); fill-opacity: 1; white-space: pre; opacity: 1;">20</text></g><g class="xtick"><text text-anchor="middle" x="0" y="649" style="font-family: 'Open Sans', verdana, arial, sans-serif; font-size: 12px; fill: rgb(68, 68, 68); fill-opacity: 1; white-space: pre; opacity: 1;" transform="translate(357.83,0)">40</text></g><g class="xtick"><text text-anchor="middle" x="0" y="649" style="font-family: 'Open Sans', verdana, arial, sans-serif; font-size: 12px; fill: rgb(68, 68, 68); fill-opacity: 1; white-space: pre; opacity: 1;" transform="translate(510.9,0)">60</text></g><g class="xtick"><text text-anchor="middle" x="0" y="649" style="font-family: 'Open Sans', verdana, arial, sans-serif; font-size: 12px; fill: rgb(68, 68, 68); fill-opacity: 1; white-space: pre; opacity: 1;" transform="translate(663.96,0)">80</text></g><g class="xtick"><text text-anchor="middle" x="0" y="649" style="font-family: 'Open Sans', verdana, arial, sans-serif; font-size: 12px; fill: rgb(68, 68, 68); fill-opacity: 1; white-space: pre; opacity: 1;" transform="translate(817.03,0)">100</text></g><g class="xtick"><text text-anchor="middle" x="0" y="649" style="font-family: 'Open Sans', verdana, arial, sans-serif; font-size: 12px; fill: rgb(68, 68, 68); fill-opacity: 1; white-space: pre; opacity: 1;" transform="translate(970.09,0)">120</text></g><g class="xtick"><text text-anchor="middle" x="0" y="649" style="font-family: 'Open Sans', verdana, arial, sans-serif; font-size: 12px; fill: rgb(68, 68, 68); fill-opacity: 1; white-space: pre; opacity: 1;" transform="translate(1123.15,0)">140</text></g><g class="xtick"><text text-anchor="middle" x="0" y="649" style="font-family: 'Open Sans', verdana, arial, sans-serif; font-size: 12px; fill: rgb(68, 68, 68); fill-opacity: 1; white-space: pre; opacity: 1;" transform="translate(1276.22,0)">160</text></g><g class="xtick"><text text-anchor="middle" x="0" y="649" style="font-family: 'Open Sans', verdana, arial, sans-serif; font-size: 12px; fill: rgb(68, 68, 68); fill-opacity: 1; white-space: pre; opacity: 1;" transform="translate(1429.28,0)">180</text></g><g class="xtick"><text text-anchor="middle" x="0" y="649" style="font-family: 'Open Sans', verdana, arial, sans-serif; font-size: 12px; fill: rgb(68, 68, 68); fill-opacity: 1; white-space: pre; opacity: 1;" transform="translate(1582.35,0)">200</text></g></g><g class="yaxislayer-above"><g class="ytick"><text text-anchor="end" x="59" y="4.199999999999999" transform="translate(0,619.04)" style="font-family: 'Open Sans', verdana, arial, sans-serif; font-size: 12px; fill: rgb(68, 68, 68); fill-opacity: 1; white-space: pre; opacity: 1;">0</text></g><g class="ytick"><text text-anchor="end" x="59" y="4.199999999999999" style="font-family: 'Open Sans', verdana, arial, sans-serif; font-size: 12px; fill: rgb(68, 68, 68); fill-opacity: 1; white-space: pre; opacity: 1;" transform="translate(0,559.8399999999999)">0.1</text></g><g class="ytick"><text text-anchor="end" x="59" y="4.199999999999999" style="font-family: 'Open Sans', verdana, arial, sans-serif; font-size: 12px; fill: rgb(68, 68, 68); fill-opacity: 1; white-space: pre; opacity: 1;" transform="translate(0,500.64)">0.2</text></g><g class="ytick"><text text-anchor="end" x="59" y="4.199999999999999" style="font-family: 'Open Sans', verdana, arial, sans-serif; font-size: 12px; fill: rgb(68, 68, 68); fill-opacity: 1; white-space: pre; opacity: 1;" transform="translate(0,441.44)">0.3</text></g><g class="ytick"><text text-anchor="end" x="59" y="4.199999999999999" style="font-family: 'Open Sans', verdana, arial, sans-serif; font-size: 12px; fill: rgb(68, 68, 68); fill-opacity: 1; white-space: pre; opacity: 1;" transform="translate(0,382.24)">0.4</text></g><g class="ytick"><text text-anchor="end" x="59" y="4.199999999999999" style="font-family: 'Open Sans', verdana, arial, sans-serif; font-size: 12px; fill: rgb(68, 68, 68); fill-opacity: 1; white-space: pre; opacity: 1;" transform="translate(0,323.04)">0.5</text></g><g class="ytick"><text text-anchor="end" x="59" y="4.199999999999999" style="font-family: 'Open Sans', verdana, arial, sans-serif; font-size: 12px; fill: rgb(68, 68, 68); fill-opacity: 1; white-space: pre; opacity: 1;" transform="translate(0,263.84000000000003)">0.6</text></g><g class="ytick"><text text-anchor="end" x="59" y="4.199999999999999" style="font-family: 'Open Sans', verdana, arial, sans-serif; font-size: 12px; fill: rgb(68, 68, 68); fill-opacity: 1; white-space: pre; opacity: 1;" transform="translate(0,204.64)">0.7</text></g><g class="ytick"><text text-anchor="end" x="59" y="4.199999999999999" style="font-family: 'Open Sans', verdana, arial, sans-serif; font-size: 12px; fill: rgb(68, 68, 68); fill-opacity: 1; white-space: pre; opacity: 1;" transform="translate(0,145.43)">0.8</text></g><g class="ytick"><text text-anchor="end" x="59" y="4.199999999999999" style="font-family: 'Open Sans', verdana, arial, sans-serif; font-size: 12px; fill: rgb(68, 68, 68); fill-opacity: 1; white-space: pre; opacity: 1;" transform="translate(0,86.23)">0.9</text></g></g><g class="overaxes-above"/></g></g><g class="polarlayer"/><g class="smithlayer"/><g class="ternarylayer"/><g class="geolayer"/><g class="funnelarealayer"/><g class="pielayer"/><g class="iciclelayer"/><g class="treemaplayer"/><g class="sunburstlayer"/><g class="glimages"/><defs id="topdefs-db3650"><g class="clips"/><clipPath id="legenddb3650"><rect width="88" height="162" x="0" y="0"/></clipPath></defs><g class="layer-above"><g class="imagelayer"/><g class="shapelayer"/></g><g class="infolayer"><g class="legend" pointer-events="all" transform="translate(1620.6000000000001,60)"><rect class="bg" shape-rendering="crispEdges" width="88" height="162" x="0" y="0" style="stroke: rgb(68, 68, 68); stroke-opacity: 1; fill: rgb(255, 255, 255); fill-opacity: 1; stroke-width: 0px;"/><g class="scrollbox" transform="" clip-path="url(#legenddb3650)"><g class="groups"><g class="traces" transform="translate(0,14.5)" style="opacity: 0.5;"><text class="legendtext" text-anchor="start" x="40" y="4.680000000000001" style="font-family: 'Open Sans', verdana, arial, sans-serif; font-size: 12px; fill: rgb(68, 68, 68); fill-opacity: 1; white-space: pre;">D_A</text><g class="layers" style="opacity: 1;"><g class="legendfill"/><g class="legendlines"><path class="js-line" d="M5,0h30" style="fill: none; stroke: rgb(31, 119, 180); stroke-opacity: 1; stroke-width: 2px;"/></g><g class="legendsymbols"><g class="legendpoints"/></g></g><rect class="legendtoggle" x="0" y="-9.5" width="82.54679107666016" height="19" style="fill: rgb(0, 0, 0); fill-opacity: 0;"/></g><g class="traces" transform="translate(0,33.5)" style="opacity: 0.5;"><text class="legendtext" text-anchor="start" x="40" y="4.680000000000001" style="font-family: 'Open Sans', verdana, arial, sans-serif; font-size: 12px; fill: rgb(68, 68, 68); fill-opacity: 1; white-space: pre;">G_A</text><g class="layers" style="opacity: 1;"><g class="legendfill"/><g class="legendlines"><path class="js-line" d="M5,0h30" style="fill: none; stroke: rgb(255, 127, 14); stroke-opacity: 1; stroke-width: 2px;"/></g><g class="legendsymbols"><g class="legendpoints"/></g></g><rect class="legendtoggle" x="0" y="-9.5" width="82.54679107666016" height="19" style="fill: rgb(0, 0, 0); fill-opacity: 0;"/></g><g class="traces" transform="translate(0,52.5)" style="opacity: 0.5;"><text class="legendtext" text-anchor="start" x="40" y="4.680000000000001" style="font-family: 'Open Sans', verdana, arial, sans-serif; font-size: 12px; fill: rgb(68, 68, 68); fill-opacity: 1; white-space: pre;">cycle_A</text><g class="layers" style="opacity: 1;"><g class="legendfill"/><g class="legendlines"><path class="js-line" d="M5,0h30" style="fill: none; stroke: rgb(44, 160, 44); stroke-opacity: 1; stroke-width: 2px;"/></g><g class="legendsymbols"><g class="legendpoints"/></g></g><rect class="legendtoggle" x="0" y="-9.5" width="82.54679107666016" height="19" style="fill: rgb(0, 0, 0); fill-opacity: 0;"/></g><g class="traces" transform="translate(0,71.5)" style="opacity: 0.5;"><text class="legendtext" text-anchor="start" x="40" y="4.680000000000001" style="font-family: 'Open Sans', verdana, arial, sans-serif; font-size: 12px; fill: rgb(68, 68, 68); fill-opacity: 1; white-space: pre;">idt_A</text><g class="layers" style="opacity: 1;"><g class="legendfill"/><g class="legendlines"><path class="js-line" d="M5,0h30" style="fill: none; stroke: rgb(214, 39, 40); stroke-opacity: 1; stroke-width: 2px;"/></g><g class="legendsymbols"><g class="legendpoints"/></g></g><rect class="legendtoggle" x="0" y="-9.5" width="82.54679107666016" height="19" style="fill: rgb(0, 0, 0); fill-opacity: 0;"/></g><g class="traces" transform="translate(0,90.5)" style="opacity: 0.5;"><text class="legendtext" text-anchor="start" x="40" y="4.680000000000001" style="font-family: 'Open Sans', verdana, arial, sans-serif; font-size: 12px; fill: rgb(68, 68, 68); fill-opacity: 1; white-space: pre;">D_B</text><g class="layers" style="opacity: 1;"><g class="legendfill"/><g class="legendlines"><path class="js-line" d="M5,0h30" style="fill: none; stroke: rgb(148, 103, 189); stroke-opacity: 1; stroke-width: 2px;"/></g><g class="legendsymbols"><g class="legendpoints"/></g></g><rect class="legendtoggle" x="0" y="-9.5" width="82.54679107666016" height="19" style="fill: rgb(0, 0, 0); fill-opacity: 0;"/></g><g class="traces" transform="translate(0,109.5)" style="opacity: 0.5;"><text class="legendtext" text-anchor="start" x="40" y="4.680000000000001" style="font-family: 'Open Sans', verdana, arial, sans-serif; font-size: 12px; fill: rgb(68, 68, 68); fill-opacity: 1; white-space: pre;">G_B</text><g class="layers" style="opacity: 1;"><g class="legendfill"/><g class="legendlines"><path class="js-line" d="M5,0h30" style="fill: none; stroke: rgb(140, 86, 75); stroke-opacity: 1; stroke-width: 2px;"/></g><g class="legendsymbols"><g class="legendpoints"/></g></g><rect class="legendtoggle" x="0" y="-9.5" width="82.54679107666016" height="19" style="fill: rgb(0, 0, 0); fill-opacity: 0;"/></g><g class="traces" transform="translate(0,128.5)" style="opacity: 0.5;"><text class="legendtext" text-anchor="start" x="40" y="4.680000000000001" style="font-family: 'Open Sans', verdana, arial, sans-serif; font-size: 12px; fill: rgb(68, 68, 68); fill-opacity: 1; white-space: pre;">cycle_B</text><g class="layers" style="opacity: 1;"><g class="legendfill"/><g class="legendlines"><path class="js-line" d="M5,0h30" style="fill: none; stroke: rgb(227, 119, 194); stroke-opacity: 1; stroke-width: 2px;"/></g><g class="legendsymbols"><g class="legendpoints"/></g></g><rect class="legendtoggle" x="0" y="-9.5" width="82.54679107666016" height="19" style="fill: rgb(0, 0, 0); fill-opacity: 0;"/></g><g class="traces" transform="translate(0,147.5)" style="opacity: 1;"><text class="legendtext" text-anchor="start" x="40" y="4.680000000000001" style="font-family: 'Open Sans', verdana, arial, sans-serif; font-size: 12px; fill: rgb(68, 68, 68); fill-opacity: 1; white-space: pre;">idt_B</text><g class="layers" style="opacity: 1;"><g class="legendfill"/><g class="legendlines"><path class="js-line" d="M5,0h30" style="fill: none; stroke: rgb(127, 127, 127); stroke-opacity: 1; stroke-width: 2px;"/></g><g class="legendsymbols"><g class="legendpoints"/></g></g><rect class="legendtoggle" x="0" y="-9.5" width="82.54679107666016" height="19" style="fill: rgb(0, 0, 0); fill-opacity: 0;"/></g></g></g><rect class="scrollbar" rx="20" ry="3" width="0" height="0" x="0" y="0" style="fill: rgb(128, 139, 164); fill-opacity: 1;"/></g><g class="g-gtitle"><text class="gtitle" x="860.5" y="30" text-anchor="middle" dy="0em" style="font-family: 'Open Sans', verdana, arial, sans-serif; font-size: 17px; fill: rgb(68, 68, 68); opacity: 1; font-weight: normal; white-space: pre;">cleanDataTrain loss over time</text></g><g class="g-xtitle"><text class="xtitle" x="825" y="688" text-anchor="middle" style="font-family: 'Open Sans', verdana, arial, sans-serif; font-size: 14px; fill: rgb(68, 68, 68); opacity: 1; font-weight: normal; white-space: pre;">epoch</text></g><g class="g-ytitle"><text class="ytitle" transform="rotate(-90,22,348)" x="22" y="348" text-anchor="middle" style="font-family: 'Open Sans', verdana, arial, sans-serif; font-size: 14px; fill: rgb(68, 68, 68); opacity: 1; font-weight: normal; white-space: pre;">loss</text></g></g></svg>